<?xml version="1.0" encoding="UTF-8"?>
<svg width="62px" height="14px" viewBox="0 0 62 14" version="1.1" xmlns="http://www.w3.org/2000/svg" xmlns:xlink="http://www.w3.org/1999/xlink">
    <!-- Generator: Sketch 51.3 (57544) - http://www.bohemiancoding.com/sketch -->
    <title>ABOUT</title>
    <desc>Created with Sketch.</desc>
    <defs></defs>
    <g id="デザイン" stroke="none" stroke-width="1" fill="none" fill-rule="evenodd">
        <g id="design" transform="translate(-189.000000, -747.000000)" fill="#C4C4C4">
            <g id="Group-6" transform="translate(110.000000, 648.000000)">
                <g id="Group">
                    <path d="M87.53125,109.229887 L82.3671875,109.229887 L81.0234375,112.159574 L79.0625,112.159574 L85.03125,99.339262 L90.7890625,112.159574 L88.796875,112.159574 L87.53125,109.229887 Z M86.7890625,107.518949 L85,103.417387 L83.125,107.518949 L86.7890625,107.518949 Z M93.896875,112.159574 L93.896875,100.097074 L95.709375,100.097074 C96.5166707,100.097074 97.1598935,100.159574 97.6390625,100.284574 C98.1234399,100.409575 98.53229,100.62051 98.865625,100.917387 C99.2041684,101.22468 99.4723949,101.607489 99.6703125,102.065824 C99.8734385,102.529368 99.975,102.998114 99.975,103.472074 C99.975,104.336662 99.6442742,105.068426 98.9828125,105.667387 C99.6234407,105.886138 100.128644,106.268947 100.498438,106.815824 C100.873439,107.357494 101.060938,107.987696 101.060938,108.706449 C101.060938,109.649163 100.727608,110.44603 100.060938,111.097074 C99.6598939,111.498118 99.2093775,111.776761 98.709375,111.933012 C98.1624973,112.084054 97.4776083,112.159574 96.6546875,112.159574 L93.896875,112.159574 Z M95.7171875,105.276762 L96.2875,105.276762 C96.9645867,105.276762 97.4606755,105.127024 97.7757813,104.827543 C98.090887,104.528063 98.2484375,104.086661 98.2484375,103.503324 C98.2484375,102.935613 98.0869808,102.504628 97.7640625,102.210356 C97.4411442,101.916083 96.9723989,101.768949 96.3578125,101.768949 L95.7171875,101.768949 L95.7171875,105.276762 Z M95.7171875,110.448637 L96.8421875,110.448637 C97.6651083,110.448637 98.2692689,110.28718 98.6546875,109.964262 C99.0609396,109.615302 99.2640625,109.172598 99.2640625,108.636137 C99.2640625,108.115301 99.068752,107.677805 98.678125,107.323637 C98.2979148,106.974677 97.6182341,106.800199 96.6390625,106.800199 L95.7171875,106.800199 L95.7171875,110.448637 Z M104.2625,106.073637 C104.2625,104.375712 104.88489,102.917393 106.129688,101.698637 C107.369277,100.479881 108.858846,99.870512 110.598438,99.870512 C112.317196,99.870512 113.79114,100.485089 115.020313,101.714262 C116.254694,102.943435 116.871875,104.419983 116.871875,106.143949 C116.871875,107.878333 116.25209,109.349673 115.0125,110.558012 C113.767702,111.77156 112.265113,112.378324 110.504688,112.378324 C108.947388,112.378324 107.548965,111.839267 106.309375,110.761137 C104.944785,109.568423 104.2625,108.005938 104.2625,106.073637 Z M106.098438,106.097074 C106.098438,107.430414 106.54635,108.526758 107.442188,109.386137 C108.332817,110.245516 109.361453,110.675199 110.528125,110.675199 C111.793756,110.675199 112.861454,110.237704 113.73125,109.362699 C114.601046,108.477278 115.035938,107.399164 115.035938,106.128324 C115.035938,104.84186 114.606254,103.763745 113.746875,102.893949 C112.892704,102.018945 111.835423,101.581449 110.575,101.581449 C109.319785,101.581449 108.2599,102.018945 107.395313,102.893949 C106.530725,103.758537 106.098438,104.826235 106.098438,106.097074 Z M122.58125,100.097074 L122.58125,107.362699 C122.58125,108.399163 122.750519,109.156968 123.089063,109.636137 C123.594273,110.328849 124.305204,110.675199 125.221875,110.675199 C126.143755,110.675199 126.857289,110.328849 127.3625,109.636137 C127.701043,109.172593 127.870313,108.414788 127.870313,107.362699 L127.870313,100.097074 L129.690625,100.097074 L129.690625,107.862699 C129.690625,109.133539 129.294796,110.180404 128.503125,111.003324 C127.612496,111.919996 126.518757,112.378324 125.221875,112.378324 C123.924994,112.378324 122.833859,111.919996 121.948438,111.003324 C121.156767,110.180404 120.760938,109.133539 120.760938,107.862699 L120.760938,100.097074 L122.58125,100.097074 Z M137.509375,101.808012 L137.509375,112.159574 L135.689063,112.159574 L135.689063,101.808012 L132.915625,101.808012 L132.915625,100.097074 L140.275,100.097074 L140.275,101.808012 L137.509375,101.808012 Z" id="ABOUT"></path>
                </g>
            </g>
        </g>
    </g>
</svg>