<svg xmlns="http://www.w3.org/2000/svg" xmlns:xlink="http://www.w3.org/1999/xlink" viewBox="0 0 42.48 9.35"><defs><style>.campaign_svg1{fill:none;}.campaign_svg2{}.campaign_svg3{fill:#d6bc6e;}</style><clipPath id="clip-path" transform="translate(0 0)"><rect class="campaign_svg1" width="42.48" height="9.35"/></clipPath></defs><title>campaign</title><g id="レイヤー_2" data-name="レイヤー 2"><g id="レイヤー_1-2" data-name="レイヤー 1"><g class="campaign_svg2"><path class="campaign_svg3" d="M4.18,7a3.13,3.13,0,0,1-.53,1.72,1.49,1.49,0,0,1-1.24.63A2,2,0,0,1,.66,8.17,7.29,7.29,0,0,1,0,4.7,7.6,7.6,0,0,1,.64,1.22,1.9,1.9,0,0,1,2.29,0a1.86,1.86,0,0,1,.92.28.21.21,0,0,0,.11,0A.3.3,0,0,0,3.43.25a.17.17,0,0,1,.1-.07h.34c.07,0,.11.06.11.17V2.27c0,.11,0,.17-.11.17H3.61a.18.18,0,0,1-.17-.07A1.4,1.4,0,0,1,3.32,2C3.08,1.12,2.77.67,2.38.67A.58.58,0,0,0,1.85,1a3.76,3.76,0,0,0-.29,1.33,18.49,18.49,0,0,0-.1,2A15.4,15.4,0,0,0,1.7,7.54c.17.69.46,1,.87,1s.81-.55,1-1.64Z" transform="translate(0 0)"/><path class="campaign_svg3" d="M7,1.28l0-.4c0-.13,0-.2,0-.22S7,.59,7,.56L8,.1h.06s.09,0,.1.1l1.59,8a1,1,0,0,0,.1.31.74.74,0,0,0,.24.2.22.22,0,0,1,.13.19v.25c0,.1,0,.14-.11.14H8.16c-.11,0-.16,0-.16-.14V8.84c0-.09.06-.17.19-.23a.38.38,0,0,0,.23-.34.69.69,0,0,0,0-.13L8.16,6.91H6.63L6.38,8.09a.45.45,0,0,0,.25.5.38.38,0,0,1,.17.25v.25c0,.1-.06.14-.17.14H5.4c-.14,0-.2,0-.2-.14v-.3a.22.22,0,0,1,.13-.2.72.72,0,0,0,.31-.5Zm.41,1.88-.61,3H8Z" transform="translate(0 0)"/><path class="campaign_svg3" d="M11.58,8.15V1.21a.5.5,0,0,0-.22-.45.3.3,0,0,1-.15-.24V.26c0-.09,0-.14.15-.14h2.12l.66,4.28L14.8.12h2.14a.12.12,0,0,1,.13.13V.52a.3.3,0,0,1-.15.24.51.51,0,0,0-.23.45V8.15a.51.51,0,0,0,.23.45.3.3,0,0,1,.15.24V9.1c0,.09-.05.14-.15.14H15.15c-.08,0-.12-.05-.12-.13V8.84a.31.31,0,0,1,.14-.24.5.5,0,0,0,.23-.45V1l-1.26,8.2h-.47L12.42,1V8.15a.51.51,0,0,0,.23.45.3.3,0,0,1,.15.24V9.1c0,.09-.05.14-.16.14h-1.3a.12.12,0,0,1-.13-.13V8.84a.3.3,0,0,1,.15-.24.51.51,0,0,0,.22-.45" transform="translate(0 0)"/><path class="campaign_svg3" d="M20.07,5.05V8.14a.51.51,0,0,0,.22.46.3.3,0,0,1,.15.24V9.1c0,.09-.05.13-.15.13H18.46c-.08,0-.13,0-.13-.12V8.84a.29.29,0,0,1,.16-.24.54.54,0,0,0,.22-.46V1.21a.52.52,0,0,0-.22-.45.29.29,0,0,1-.16-.24V.26c0-.09.05-.14.16-.14h1.58a2.8,2.8,0,0,1,2,.67,2.37,2.37,0,0,1,.71,1.79c0,1.64-.9,2.47-2.7,2.47m0-4.23V4.35a1.84,1.84,0,0,0,.77-.12.88.88,0,0,0,.39-.48,3.07,3.07,0,0,0,.15-1.11,3.54,3.54,0,0,0-.14-1.13.94.94,0,0,0-.4-.52,1.72,1.72,0,0,0-.77-.17" transform="translate(0 0)"/><path class="campaign_svg3" d="M24.76,1.28,24.7.88c0-.13,0-.2,0-.22s0-.07.09-.1l1-.46h.06c.05,0,.09,0,.1.1l1.59,8a1,1,0,0,0,.1.31.74.74,0,0,0,.24.2.22.22,0,0,1,.13.19v.25c0,.1,0,.14-.11.14H25.91c-.11,0-.16,0-.16-.14V8.84c0-.09.06-.17.19-.23a.38.38,0,0,0,.23-.34.69.69,0,0,0,0-.13l-.24-1.23H24.38l-.25,1.18a.45.45,0,0,0,.25.5.38.38,0,0,1,.17.25v.25c0,.1-.06.14-.17.14H23.15c-.13,0-.2,0-.2-.14v-.3a.22.22,0,0,1,.13-.2.72.72,0,0,0,.31-.5Zm.4,1.88-.61,3h1.21Z" transform="translate(0 0)"/><path class="campaign_svg3" d="M30.45,8.15a.51.51,0,0,0,.23.45.3.3,0,0,1,.15.24V9.1c0,.09,0,.14-.15.14H28.85a.12.12,0,0,1-.13-.13V8.84a.3.3,0,0,1,.15-.24.51.51,0,0,0,.22-.45V1.21a.5.5,0,0,0-.22-.45.3.3,0,0,1-.15-.24V.26c0-.09.05-.14.15-.14H30.7a.12.12,0,0,1,.13.13V.52a.3.3,0,0,1-.15.24.51.51,0,0,0-.23.45Z" transform="translate(0 0)"/><path class="campaign_svg3" d="M34.67,5.43h1.48a.36.36,0,0,1,.18,0,.18.18,0,0,1,0,.14s0,.1,0,.21,0,.46,0,.63V8.08a.33.33,0,0,0,.09.25.19.19,0,0,1,.07.16V8.7a.28.28,0,0,1-.15.22,3.17,3.17,0,0,1-1.62.43q-2.66,0-2.65-4.32a10.7,10.7,0,0,1,.25-2.37A4.48,4.48,0,0,1,33.2.77,1.78,1.78,0,0,1,34.55,0a1.87,1.87,0,0,1,.77.2.53.53,0,0,0,.2.06l.13-.05.13,0H36c.11,0,.16.05.16.15V2.27c0,.11,0,.17-.14.17h-.25c-.08,0-.12,0-.14,0A3.7,3.7,0,0,1,35.55,2c-.2-.91-.54-1.37-1-1.37a.69.69,0,0,0-.58.33,3.51,3.51,0,0,0-.32,1.49c-.07.78-.1,1.55-.1,2.32a18.31,18.31,0,0,0,.09,2A7.15,7.15,0,0,0,33.84,8a1.12,1.12,0,0,0,.3.55.68.68,0,0,0,.42.14c.35,0,.52-.24.52-.74V6.7A1,1,0,0,0,35,6.23.73.73,0,0,0,34.65,6a.17.17,0,0,1-.13-.16V5.57c0-.09,0-.14.15-.14" transform="translate(0 0)"/><path class="campaign_svg3" d="M41.25,5.06V1.21A.51.51,0,0,0,41,.76a.3.3,0,0,1-.15-.24V.26c0-.09.05-.14.15-.14h1.33a.12.12,0,0,1,.13.13V.52a.3.3,0,0,1-.15.24.51.51,0,0,0-.23.45V9.09c0,.12-.05.19-.17.19h-.26a.25.25,0,0,1-.24-.19L39,2.7V8.15a.5.5,0,0,0,.22.45.3.3,0,0,1,.15.24V9.1c0,.09,0,.14-.15.14H37.91a.12.12,0,0,1-.13-.13V8.84a.29.29,0,0,1,.16-.24.54.54,0,0,0,.22-.45V1.21a.52.52,0,0,0-.22-.45.29.29,0,0,1-.16-.24V.26c0-.09,0-.14.15-.14h1.24a.26.26,0,0,1,.18,0,.26.26,0,0,1,.1.15Z" transform="translate(0 0)"/></g></g></g></svg>