<?xml version="1.0" encoding="UTF-8"?>
<svg width="112px" height="33px" viewBox="0 0 112 33" version="1.1" xmlns="http://www.w3.org/2000/svg" xmlns:xlink="http://www.w3.org/1999/xlink">
    <!-- Generator: Sketch 51.3 (57544) - http://www.bohemiancoding.com/sketch -->
    <title>CASE</title>
    <desc>Created with Sketch.</desc>
    <defs></defs>
    <g id="デザイン" stroke="none" stroke-width="1" fill="none" fill-rule="evenodd">
        <g id="design" transform="translate(-78.000000, -1561.000000)" fill="#000000">
            <g id="Group-7" transform="translate(-1.000000, 1429.000000)">
                <g id="Group-Copy" transform="translate(1.000000, 2.000000)">
                    <path d="M101.898438,133.507397 L101.898438,138.898022 C99.268216,136.69749 96.5468891,135.597241 93.734375,135.597241 C90.6354012,135.597241 88.0247502,136.710511 85.9023438,138.937084 C83.7669164,141.150637 82.6992188,143.858943 82.6992188,147.062084 C82.6992188,150.226163 83.7669164,152.895407 85.9023438,155.069897 C88.0377711,157.244387 90.6549324,158.331616 93.7539062,158.331616 C95.3554768,158.331616 96.7161402,158.071202 97.8359375,157.550366 C98.4609406,157.289948 99.1087206,156.938389 99.7792969,156.495678 C100.449873,156.052968 101.156246,155.519119 101.898438,154.894116 L101.898438,160.382397 C99.2942578,161.853758 96.5599102,162.589428 93.6953125,162.589428 C89.3853951,162.589428 85.7070465,161.085537 82.6601562,158.077709 C79.6262869,155.04384 78.109375,151.385023 78.109375,147.101147 C78.109375,143.259982 79.3788936,139.835537 81.9179688,136.827709 C85.0429844,133.142795 89.0859127,131.300366 94.046875,131.300366 C96.7552219,131.300366 99.3723832,132.036035 101.898438,133.507397 Z M130.078125,154.718334 L117.167969,154.718334 L113.808594,162.042553 L108.90625,162.042553 L123.828125,129.991772 L138.222656,162.042553 L133.242188,162.042553 L130.078125,154.718334 Z M128.222656,150.440991 L123.75,140.187084 L119.0625,150.440991 L128.222656,150.440991 Z M163.042969,136.378491 L159.351562,138.565991 C158.661455,137.368068 158.003909,136.586826 157.378906,136.222241 C156.727861,135.805572 155.888026,135.597241 154.859375,135.597241 C153.596348,135.597241 152.548181,135.95531 151.714844,136.671459 C150.881506,137.374588 150.464844,138.259996 150.464844,139.327709 C150.464844,140.799071 151.558583,141.983955 153.746094,142.882397 L156.753906,144.112866 C159.201835,145.102454 160.992182,146.310124 162.125,147.735913 C163.257818,149.161701 163.824219,150.90973 163.824219,152.980053 C163.824219,155.753505 162.899749,158.045148 161.050781,159.855053 C159.188793,161.677979 156.877618,162.589428 154.117188,162.589428 C151.499987,162.589428 149.33855,161.814696 147.632812,160.265209 C145.953117,158.715723 144.90495,156.534755 144.488281,153.722241 L149.097656,152.706616 C149.305991,154.477458 149.67057,155.701404 150.191406,156.378491 C151.128911,157.680581 152.496085,158.331616 154.292969,158.331616 C155.712247,158.331616 156.89062,157.85636 157.828125,156.905834 C158.76563,155.955309 159.234375,154.750894 159.234375,153.292553 C159.234375,152.706613 159.152996,152.169509 158.990234,151.681225 C158.827473,151.192941 158.573569,150.743727 158.228516,150.333569 C157.883462,149.923411 157.437503,149.5393 156.890625,149.181225 C156.343747,148.82315 155.692712,148.481357 154.9375,148.155834 L152.027344,146.944897 C147.899719,145.200097 145.835938,142.648039 145.835938,139.288647 C145.835938,137.023011 146.701814,135.128498 148.433594,133.605053 C150.165373,132.068587 152.3203,131.300366 154.898438,131.300366 C158.375017,131.300366 161.089834,132.993057 163.042969,136.378491 Z M189.953125,136.163647 L177.863281,136.163647 L177.863281,143.409741 L189.601562,143.409741 L189.601562,147.687084 L177.863281,147.687084 L177.863281,157.765209 L189.953125,157.765209 L189.953125,162.042553 L173.3125,162.042553 L173.3125,131.886303 L189.953125,131.886303 L189.953125,136.163647 Z" id="CASE"></path>
                </g>
            </g>
        </g>
    </g>
</svg>