<?xml version="1.0" encoding="UTF-8"?>
<svg width="73px" height="11px" viewBox="0 0 73 11" version="1.1" xmlns="http://www.w3.org/2000/svg" xmlns:xlink="http://www.w3.org/1999/xlink">
    <!-- Generator: Sketch 51.3 (57544) - http://www.bohemiancoding.com/sketch -->
    <title>COMPANY</title>
    <desc>Created with Sketch.</desc>
    <defs>
        <path d="M7.76953125,1.43945312 L7.76953125,3.05664062 C6.9804648,2.39648107 6.16406672,2.06640625 5.3203125,2.06640625 C4.39062035,2.06640625 3.60742506,2.40038729 2.97070312,3.06835938 C2.33007492,3.7324252 2.00976562,4.54491707 2.00976562,5.50585938 C2.00976562,6.45508287 2.33007492,7.25585611 2.97070312,7.90820312 C3.61133133,8.56055014 4.39647973,8.88671875 5.32617188,8.88671875 C5.80664303,8.88671875 6.21484207,8.80859453 6.55078125,8.65234375 C6.73828219,8.57421836 6.93261618,8.46875066 7.13378906,8.3359375 C7.33496194,8.20312434 7.54687389,8.04296969 7.76953125,7.85546875 L7.76953125,9.50195312 C6.98827734,9.94336158 6.16797305,10.1640625 5.30859375,10.1640625 C4.01561854,10.1640625 2.91211395,9.71289514 1.99804688,8.81054688 C1.08788607,7.90038607 0.6328125,6.8027408 0.6328125,5.51757812 C0.6328125,4.36522861 1.01366807,3.33789514 1.77539062,2.43554688 C2.71289531,1.3300726 3.92577381,0.77734375 5.4140625,0.77734375 C6.22656656,0.77734375 7.01171496,0.998044668 7.76953125,1.43945312 Z M10.5516529,5.43554688 C10.5516529,4.16210301 11.0184451,3.06836395 11.9520435,2.15429688 C12.8817356,1.2402298 13.998912,0.783203125 15.303606,0.783203125 C16.5926749,0.783203125 17.6981326,1.24413602 18.6200123,2.16601562 C19.5457981,3.08789523 20.0086841,4.19530604 20.0086841,5.48828125 C20.0086841,6.789069 19.543845,7.89257359 18.6141529,8.79882812 C17.6805545,9.70898893 16.5536126,10.1640625 15.2332935,10.1640625 C14.0653189,10.1640625 13.0165013,9.75976967 12.0868091,8.95117188 C11.0633665,8.05663615 10.5516529,6.88477287 10.5516529,5.43554688 Z M11.928606,5.453125 C11.928606,6.45313 12.2645401,7.2753874 12.9364185,7.91992188 C13.6043906,8.56445635 14.3758673,8.88671875 15.2508716,8.88671875 C16.2000951,8.88671875 17.0008684,8.55859703 17.6532154,7.90234375 C18.3055624,7.23827793 18.631731,6.42969227 18.631731,5.4765625 C18.631731,4.51171393 18.3094686,3.70312826 17.6649341,3.05078125 C17.0243059,2.39452797 16.2313451,2.06640625 15.2860279,2.06640625 C14.3446169,2.06640625 13.549703,2.39452797 12.9012623,3.05078125 C12.2528215,3.69922199 11.928606,4.49999523 11.928606,5.453125 Z M22.9783058,10 L24.8826026,0.2734375 L27.9880714,7.3046875 L31.2048683,0.2734375 L32.9158058,10 L31.5154151,10 L30.6423683,4.5390625 L27.9646339,10.4160156 L25.3630714,4.53320312 L24.3904151,10 L22.9783058,10 Z M37.7662867,6.32617188 L37.7662867,10 L36.4010524,10 L36.4010524,0.953125 L37.9479274,0.953125 C38.7057437,0.953125 39.2780036,1.00585885 39.6647242,1.11132812 C40.0553512,1.2167974 40.3990978,1.41601416 40.6959742,1.70898438 C41.2155081,2.21679941 41.4752711,2.85741801 41.4752711,3.63085938 C41.4752711,4.45898852 41.1979301,5.11523195 40.6432399,5.59960938 C40.0885496,6.0839868 39.3405102,6.32617188 38.3990992,6.32617188 L37.7662867,6.32617188 Z M37.7662867,5.06054688 L38.2760524,5.06054688 C39.5299649,5.06054688 40.1569117,4.57812982 40.1569117,3.61328125 C40.1569117,2.67968283 39.5104338,2.21289062 38.2174586,2.21289062 L37.7662867,2.21289062 L37.7662867,5.06054688 Z M49.1030959,7.80273438 L45.230049,7.80273438 L44.2222365,10 L42.7515334,10 L47.2280959,0.384765625 L51.5464553,10 L50.0523146,10 L49.1030959,7.80273438 Z M48.5464553,6.51953125 L47.2046584,3.44335938 L45.7984084,6.51953125 L48.5464553,6.51953125 Z M54.2465456,10 L54.2465456,0.337890625 L60.8442019,7.24023438 L60.8442019,0.953125 L62.2094363,0.953125 L62.2094363,10.5507812 L55.61178,3.66601562 L55.61178,10 L54.2465456,10 Z M67.774761,6.09179688 L64.821636,0.953125 L66.3919485,0.953125 L68.4603079,4.56835938 L70.5345266,0.953125 L72.1048391,0.953125 L69.1399954,6.09179688 L69.1399954,10 L67.774761,10 L67.774761,6.09179688 Z" id="company_svg"></path>
    </defs>
    <g id="デザイン" stroke="none" stroke-width="1" fill="none" fill-rule="evenodd">
        <g id="design" transform="translate(-690.000000, -3624.000000)">
            <g id="footer" transform="translate(1.000000, 3619.000000)">
                <g id="Group-4" transform="translate(689.000000, 5.000000)">
                    <g id="COMPANY">
                        <use fill="#000000" xlink:href="#company_svg"></use>
                        <use fill="#FFFFFF" xlink:href="#company_svg"></use>
                    </g>
                </g>
            </g>
        </g>
    </g>
</svg>