<?xml version="1.0" encoding="UTF-8"?>
<svg width="213px" height="35px" viewBox="0 0 213 35" version="1.1" xmlns="http://www.w3.org/2000/svg" xmlns:xlink="http://www.w3.org/1999/xlink">
    <!-- Generator: Sketch 51.3 (57544) - http://www.bohemiancoding.com/sketch -->
    <title>CONTACT</title>
    <desc>Created with Sketch.</desc>
    <defs></defs>
    <g id="デザイン" stroke="none" stroke-width="1" fill="none" fill-rule="evenodd">
        <g id="design" transform="translate(-46.000000, -3143.000000)" fill="#000000">
            <g id="Group-9" transform="translate(0.000000, 2891.000000)">
                <g id="Group-2" transform="translate(44.000000, 252.000000)">
                    <path d="M25.8984375,4.46484375 L25.8984375,9.85546875 C23.268216,7.65493691 20.5468891,6.5546875 17.734375,6.5546875 C14.6354012,6.5546875 12.0247502,7.66795762 9.90234375,9.89453125 C7.76691641,12.108084 6.69921875,14.8163902 6.69921875,18.0195312 C6.69921875,21.1836096 7.76691641,23.8528537 9.90234375,26.0273438 C12.0377711,28.2018338 14.6549324,29.2890625 17.7539062,29.2890625 C19.3554768,29.2890625 20.7161402,29.0286484 21.8359375,28.5078125 C22.4609406,28.2473945 23.1087206,27.8958355 23.7792969,27.453125 C24.4498731,27.0104145 25.1562463,26.4765656 25.8984375,25.8515625 L25.8984375,31.3398438 C23.2942578,32.8112053 20.5599102,33.546875 17.6953125,33.546875 C13.3853951,33.546875 9.70704648,32.0429838 6.66015625,29.0351562 C3.62628691,26.0012869 2.109375,22.3424693 2.109375,18.0585938 C2.109375,14.2174287 3.37889355,10.7929838 5.91796875,7.78515625 C9.04298437,4.10024199 13.0859127,2.2578125 18.046875,2.2578125 C20.7552219,2.2578125 23.3723832,2.99348223 25.8984375,4.46484375 Z M33.9414062,17.7851562 C33.9414062,13.5403434 35.4973803,9.89454648 38.609375,6.84765625 C41.7083488,3.80076602 45.4322699,2.27734375 49.78125,2.27734375 C54.0781465,2.27734375 57.7630055,3.81378672 60.8359375,6.88671875 C63.9218904,9.95965078 65.4648438,13.6510201 65.4648438,17.9609375 C65.4648438,22.2968967 63.9153801,25.9752453 60.8164062,28.9960938 C57.7044115,32.0299631 53.9479387,33.546875 49.546875,33.546875 C45.6536264,33.546875 42.1575676,32.1992322 39.0585938,29.5039062 C35.6471184,26.5221205 33.9414062,22.6159096 33.9414062,17.7851562 Z M38.53125,17.84375 C38.53125,21.1771 39.6510305,23.917958 41.890625,26.0664062 C44.1171986,28.2148545 46.6887875,29.2890625 49.6054688,29.2890625 C52.7695471,29.2890625 55.4387912,28.1953234 57.6132812,26.0078125 C59.7877713,23.7942598 60.875,21.0989742 60.875,17.921875 C60.875,14.7057131 59.800792,12.0104275 57.6523438,9.8359375 C55.5169164,7.64842656 52.8737137,6.5546875 49.7226562,6.5546875 C46.5846197,6.5546875 43.9349066,7.64842656 41.7734375,9.8359375 C39.6119684,11.9974066 38.53125,14.6666508 38.53125,17.84375 Z M75.1875,33 L75.1875,0.79296875 L97.1796875,23.8007812 L97.1796875,2.84375 L101.730469,2.84375 L101.730469,34.8359375 L79.7382812,11.8867188 L79.7382812,33 L75.1875,33 Z M121.277344,7.12109375 L121.277344,33 L116.726562,33 L116.726562,7.12109375 L109.792969,7.12109375 L109.792969,2.84375 L128.191406,2.84375 L128.191406,7.12109375 L121.277344,7.12109375 Z M152.328125,25.6757812 L139.417969,25.6757812 L136.058594,33 L131.15625,33 L146.078125,0.94921875 L160.472656,33 L155.492188,33 L152.328125,25.6757812 Z M150.472656,21.3984375 L146,11.1445312 L141.3125,21.3984375 L150.472656,21.3984375 Z M189.121094,4.46484375 L189.121094,9.85546875 C186.490872,7.65493691 183.769545,6.5546875 180.957031,6.5546875 C177.858057,6.5546875 175.247406,7.66795762 173.125,9.89453125 C170.989573,12.108084 169.921875,14.8163902 169.921875,18.0195312 C169.921875,21.1836096 170.989573,23.8528537 173.125,26.0273438 C175.260427,28.2018338 177.877589,29.2890625 180.976562,29.2890625 C182.578133,29.2890625 183.938796,29.0286484 185.058594,28.5078125 C185.683597,28.2473945 186.331377,27.8958355 187.001953,27.453125 C187.672529,27.0104145 188.378903,26.4765656 189.121094,25.8515625 L189.121094,31.3398438 C186.516914,32.8112053 183.782566,33.546875 180.917969,33.546875 C176.608051,33.546875 172.929703,32.0429838 169.882812,29.0351562 C166.848943,26.0012869 165.332031,22.3424693 165.332031,18.0585938 C165.332031,14.2174287 166.60155,10.7929838 169.140625,7.78515625 C172.265641,4.10024199 176.308569,2.2578125 181.269531,2.2578125 C183.977878,2.2578125 186.595039,2.99348223 189.121094,4.46484375 Z M207.183594,7.12109375 L207.183594,33 L202.632812,33 L202.632812,7.12109375 L195.699219,7.12109375 L195.699219,2.84375 L214.097656,2.84375 L214.097656,7.12109375 L207.183594,7.12109375 Z" id="CONTACT"></path>
                </g>
            </g>
        </g>
    </g>
</svg>