<?xml version="1.0" encoding="UTF-8"?>
<svg width="281px" height="14px" viewBox="0 0 281 14" version="1.1" xmlns="http://www.w3.org/2000/svg" xmlns:xlink="http://www.w3.org/1999/xlink">
    <!-- Generator: Sketch 51.3 (57544) - http://www.bohemiancoding.com/sketch -->
    <title>Copyright© root inc.</title>
    <desc>Created with Sketch.</desc>
    <defs>
        <path d="M16.7695312,62.4394531 L16.7695312,64.0566406 C15.9804648,63.3964811 15.1640667,63.0664062 14.3203125,63.0664062 C13.3906204,63.0664062 12.6074251,63.4003873 11.9707031,64.0683594 C11.3300749,64.7324252 11.0097656,65.5449171 11.0097656,66.5058594 C11.0097656,67.4550829 11.3300749,68.2558561 11.9707031,68.9082031 C12.6113313,69.5605501 13.3964797,69.8867188 14.3261719,69.8867188 C14.806643,69.8867188 15.2148421,69.8085945 15.5507812,69.6523438 C15.7382822,69.5742184 15.9326162,69.4687507 16.1337891,69.3359375 C16.3349619,69.2031243 16.5468739,69.0429697 16.7695312,68.8554688 L16.7695312,70.5019531 C15.9882773,70.9433616 15.167973,71.1640625 14.3085938,71.1640625 C13.0156185,71.1640625 11.9121139,70.7128951 10.9980469,69.8105469 C10.0878861,68.9003861 9.6328125,67.8027408 9.6328125,66.5175781 C9.6328125,65.3652286 10.0136681,64.3378951 10.7753906,63.4355469 C11.7128953,62.3300726 12.9257738,61.7773438 14.4140625,61.7773438 C15.2265666,61.7773438 16.011715,61.9980447 16.7695312,62.4394531 Z M19.5399341,68.1054688 C19.5399341,67.2812459 19.8348531,66.580081 20.4246998,66.0019531 C21.0145464,65.4238252 21.7332893,65.1347656 22.5809498,65.1347656 C23.4325165,65.1347656 24.1551655,65.4257783 24.7489185,66.0078125 C25.3348589,66.5898467 25.6278248,67.3046833 25.6278248,68.1523438 C25.6278248,69.0078168 25.3329058,69.7246065 24.7430591,70.3027344 C24.1493062,70.876956 23.4207978,71.1640625 22.5575123,71.1640625 C21.7020392,71.1640625 20.9852495,70.8710967 20.4071216,70.2851562 C19.8289937,69.7070284 19.5399341,68.9804731 19.5399341,68.1054688 Z M20.8875904,68.1289062 C20.8875904,68.6992216 21.0399326,69.150389 21.3446216,69.4824219 C21.6571232,69.8183611 22.0692284,69.9863281 22.5809498,69.9863281 C23.0965773,69.9863281 23.5086826,69.8203142 23.8172779,69.4882812 C24.1258732,69.1562483 24.2801685,68.7128934 24.2801685,68.1582031 C24.2801685,67.6035129 24.1258732,67.1601579 23.8172779,66.828125 C23.5047763,66.4921858 23.0926711,66.3242188 22.5809498,66.3242188 C22.077041,66.3242188 21.6688419,66.4921858 21.3563404,66.828125 C21.0438388,67.1640642 20.8875904,67.5976536 20.8875904,68.1289062 Z M29.9099464,74.1054688 L28.591587,74.1054688 L28.591587,65.2929688 L29.9099464,65.2929688 L29.9099464,65.9140625 C30.4294802,65.3945287 31.0193181,65.1347656 31.6794776,65.1347656 C32.4646378,65.1347656 33.1111157,65.4238252 33.6189308,66.0019531 C34.1345583,66.5761747 34.3923683,67.3007769 34.3923683,68.1757812 C34.3923683,69.0312543 34.1365114,69.7441378 33.6247901,70.3144531 C33.1169751,70.8808622 32.4763565,71.1640625 31.7029151,71.1640625 C31.034943,71.1640625 30.4372928,70.8964871 29.9099464,70.3613281 L29.9099464,74.1054688 Z M33.044712,68.1816406 C33.044712,67.6347629 32.896276,67.1894548 32.5993995,66.8457031 C32.2986167,66.4980451 31.9197143,66.3242188 31.4626808,66.3242188 C30.9783033,66.3242188 30.5857291,66.4921858 30.2849464,66.828125 C29.9841636,67.1640642 29.8337745,67.605466 29.8337745,68.1523438 C29.8337745,68.6875027 29.9841636,69.1289045 30.2849464,69.4765625 C30.5818229,69.8164079 30.972444,69.9863281 31.4568214,69.9863281 C31.9138549,69.9863281 32.2908043,69.8144548 32.5876808,69.4707031 C32.8923698,69.1269514 33.044712,68.6972682 33.044712,68.1816406 Z M38.9030055,69.9394531 L36.3365992,65.2929688 L37.8658961,65.2929688 L39.6119899,68.5742188 L41.2408961,65.2929688 L42.7291774,65.2929688 L38.1823024,74.1054688 L36.676443,74.1054688 L38.9030055,69.9394531 Z M45.1948928,65.2929688 L46.5132521,65.2929688 L46.5132521,65.8027344 C46.7554408,65.5488269 46.9702824,65.3750005 47.1577834,65.28125 C47.3491906,65.1835933 47.5757508,65.1347656 47.8374709,65.1347656 C48.1851289,65.1347656 48.5484065,65.2480457 48.9273146,65.4746094 L48.323799,66.6816406 C48.0737978,66.5019522 47.8296596,66.4121094 47.5913771,66.4121094 C46.8726235,66.4121094 46.5132521,66.9550727 46.5132521,68.0410156 L46.5132521,71 L45.1948928,71 L45.1948928,65.2929688 Z M52.752405,65.2929688 L52.752405,71 L51.4340456,71 L51.4340456,65.2929688 L52.752405,65.2929688 Z M51.2348269,62.9199219 C51.2348269,62.689452 51.3188104,62.4902352 51.48678,62.3222656 C51.6547496,62.154296 51.8559195,62.0703125 52.0902956,62.0703125 C52.3285781,62.0703125 52.531701,62.154296 52.6996706,62.3222656 C52.8676402,62.4863289 52.9516238,62.6874988 52.9516238,62.9257812 C52.9516238,63.1640637 52.8676402,63.3671867 52.6996706,63.5351562 C52.5356073,63.7031258 52.3344374,63.7871094 52.096155,63.7871094 C51.8578726,63.7871094 51.6547496,63.7031258 51.48678,63.5351562 C51.3188104,63.3671867 51.2348269,63.1621106 51.2348269,62.9199219 Z M61.5110891,70.8652344 C61.5110891,71.134767 61.5023002,71.3720693 61.4847219,71.5771484 C61.4671437,71.7822276 61.4427299,71.9628898 61.4114798,72.1191406 C61.3177293,72.5488303 61.1341374,72.9179672 60.8606985,73.2265625 C60.3450709,73.8203155 59.6360936,74.1171875 58.7337454,74.1171875 C57.9720228,74.1171875 57.345076,73.9121114 56.852886,73.5019531 C56.345071,73.080076 56.0521051,72.4960975 55.9739798,71.75 L57.2981985,71.75 C57.34898,72.0312514 57.4329635,72.2480461 57.5501516,72.4003906 C57.8235905,72.7558612 58.222024,72.9335938 58.7454641,72.9335938 C59.7103127,72.9335938 60.1927298,72.3418028 60.1927298,71.1582031 L60.1927298,70.3613281 C59.6692896,70.8964871 59.06578,71.1640625 58.3821829,71.1640625 C57.6048352,71.1640625 56.9681229,70.8828153 56.4720266,70.3203125 C55.9720241,69.7499971 55.7220266,69.0371137 55.7220266,68.1816406 C55.7220266,67.3496052 55.9544462,66.642581 56.4192923,66.0605469 C56.9192948,65.4433563 57.5794444,65.1347656 58.399761,65.1347656 C59.1185146,65.1347656 59.7161649,65.4023411 60.1927298,65.9375 L60.1927298,65.2929688 L61.5110891,65.2929688 L61.5110891,70.8652344 Z M60.2454641,68.1582031 C60.2454641,67.6035129 60.0970281,67.1601579 59.8001516,66.828125 C59.4993689,66.4882796 59.1146071,66.3183594 58.6458548,66.3183594 C58.1458523,66.3183594 57.7513249,66.5039044 57.462261,66.875 C57.2005409,67.2070329 57.0696829,67.6367161 57.0696829,68.1640625 C57.0696829,68.6835963 57.2005409,69.1093733 57.462261,69.4414062 C57.7474187,69.8046893 58.141946,69.9863281 58.6458548,69.9863281 C59.1497635,69.9863281 59.548197,69.8027362 59.8411673,69.4355469 C60.1106998,69.103514 60.2454641,68.677737 60.2454641,68.1582031 Z M64.7443826,61.1035156 L66.062742,61.1035156 L66.062742,65.7675781 C66.5314943,65.345701 67.0490673,65.1347656 67.6154764,65.1347656 C68.2600108,65.1347656 68.7756307,65.3437479 69.1623514,65.7617188 C69.490478,66.1250018 69.6545389,66.7050741 69.6545389,67.5019531 L69.6545389,71 L68.3361795,71 L68.3361795,67.625 C68.3361795,67.1679665 68.2551256,66.8369151 68.0930154,66.6318359 C67.9309053,66.4267568 67.6701657,66.3242188 67.3107889,66.3242188 C66.8498491,66.3242188 66.5256336,66.4667954 66.3381326,66.7519531 C66.154538,67.0410171 66.062742,67.5371059 66.062742,68.2402344 L66.062742,71 L64.7443826,71 L64.7443826,61.1035156 Z M74.2530668,66.5234375 L74.2530668,71 L72.9347074,71 L72.9347074,66.5234375 L72.3722074,66.5234375 L72.3722074,65.2929688 L72.9347074,65.2929688 L72.9347074,63.2011719 L74.2530668,63.2011719 L74.2530668,65.2929688 L75.2784574,65.2929688 L75.2784574,66.5234375 L74.2530668,66.5234375 Z M83.8613603,64.0800781 L83.8613603,65.2636719 L83.7148759,65.1464844 C83.238311,64.7753888 82.7539408,64.5898438 82.2617509,64.5898438 C81.7344045,64.5898438 81.2890964,64.7734357 80.9258134,65.140625 C80.5625303,65.5117206 80.3808915,65.962888 80.3808915,66.4941406 C80.3808915,67.0253933 80.5625303,67.4687482 80.9258134,67.8242188 C81.296909,68.1835955 81.7441701,68.3632812 82.2676103,68.3632812 C82.7441751,68.3632812 83.2265922,68.1718769 83.7148759,67.7890625 L83.8613603,67.671875 L83.8613603,68.8671875 C83.3457327,69.1484389 82.8105818,69.2890625 82.2558915,69.2890625 C81.4472937,69.2890625 80.7598006,69.0175808 80.1933915,68.4746094 C79.6269824,67.9316379 79.3437821,67.2714883 79.3437821,66.4941406 C79.3437821,65.7089804 79.6328417,65.0410184 80.2109696,64.4902344 C80.7890975,63.9394504 81.4902624,63.6640625 82.3144853,63.6640625 C82.8301128,63.6640625 83.3301078,63.7949206 83.8144853,64.0566406 L83.8613603,64.0800781 Z M86.7500321,66.4648438 C86.7500321,67.773444 86.2930054,68.8867142 85.3789384,69.8046875 C84.4648713,70.7226608 83.3594136,71.1816406 82.0625321,71.1816406 C80.7656506,71.1816406 79.6562867,70.7207077 78.7344071,69.7988281 C77.8203401,68.8808548 77.3633134,67.7656316 77.3633134,66.453125 C77.3633134,65.7265589 77.5117494,65.0644561 77.8086259,64.4667969 C78.1094086,63.8300749 78.5273732,63.2910178 79.0625321,62.8496094 C79.9375365,62.1269495 80.9199486,61.765625 82.0097978,61.765625 C82.7324576,61.765625 83.3867479,61.9023424 83.9726884,62.1757812 C84.8047238,62.5390643 85.474639,63.1152304 85.982454,63.9042969 C86.4941753,64.6972696 86.7500321,65.5507767 86.7500321,66.4648438 Z M82.0273759,62.4511719 C80.957058,62.4511719 80.0390985,62.8456992 79.2734696,63.6347656 C78.5039345,64.4277383 78.1191728,65.3691352 78.1191728,66.4589844 C78.1191728,67.5722712 78.5039345,68.5253867 79.2734696,69.3183594 C80.0390985,70.1074258 80.9687767,70.5019531 82.0625321,70.5019531 C83.1445688,70.5019531 84.0703408,70.1093789 84.8398759,69.3242188 C85.6055047,68.5351523 85.9883134,67.5820368 85.9883134,66.4648438 C85.9883134,65.8671845 85.8379243,65.2500032 85.5371415,64.6132812 C85.240265,64.015622 84.8457377,63.5410174 84.3535478,63.1894531 C83.662138,62.6972632 82.8867552,62.4511719 82.0273759,62.4511719 Z M94.8748223,65.2929688 L96.1931816,65.2929688 L96.1931816,65.8027344 C96.4353703,65.5488269 96.6502119,65.3750005 96.8377129,65.28125 C97.0291201,65.1835933 97.2556803,65.1347656 97.5174004,65.1347656 C97.8650584,65.1347656 98.228336,65.2480457 98.6072441,65.4746094 L98.0037285,66.6816406 C97.7537273,66.5019522 97.5095891,66.4121094 97.2713066,66.4121094 C96.552553,66.4121094 96.1931816,66.9550727 96.1931816,68.0410156 L96.1931816,71 L94.8748223,71 L94.8748223,65.2929688 Z M100.557335,68.1054688 C100.557335,67.2812459 100.852253,66.580081 101.4421,66.0019531 C102.031947,65.4238252 102.75069,65.1347656 103.59835,65.1347656 C104.449917,65.1347656 105.172566,65.4257783 105.766319,66.0078125 C106.352259,66.5898467 106.645225,67.3046833 106.645225,68.1523438 C106.645225,69.0078168 106.350306,69.7246065 105.76046,70.3027344 C105.166707,70.876956 104.438198,71.1640625 103.574913,71.1640625 C102.71944,71.1640625 102.00265,70.8710967 101.424522,70.2851562 C100.846394,69.7070284 100.557335,68.9804731 100.557335,68.1054688 Z M101.904991,68.1289062 C101.904991,68.6992216 102.057333,69.150389 102.362022,69.4824219 C102.674524,69.8183611 103.086629,69.9863281 103.59835,69.9863281 C104.113978,69.9863281 104.526083,69.8203142 104.834678,69.4882812 C105.143274,69.1562483 105.297569,68.7128934 105.297569,68.1582031 C105.297569,67.6035129 105.143274,67.1601579 104.834678,66.828125 C104.522177,66.4921858 104.110071,66.3242188 103.59835,66.3242188 C103.094441,66.3242188 102.686242,66.4921858 102.373741,66.828125 C102.061239,67.1640642 101.904991,67.5976536 101.904991,68.1289062 Z M109.339456,68.1054688 C109.339456,67.2812459 109.634375,66.580081 110.224222,66.0019531 C110.814068,65.4238252 111.532811,65.1347656 112.380472,65.1347656 C113.232039,65.1347656 113.954688,65.4257783 114.548441,66.0078125 C115.134381,66.5898467 115.427347,67.3046833 115.427347,68.1523438 C115.427347,69.0078168 115.132428,69.7246065 114.542581,70.3027344 C113.948828,70.876956 113.22032,71.1640625 112.357034,71.1640625 C111.501561,71.1640625 110.784772,70.8710967 110.206644,70.2851562 C109.628516,69.7070284 109.339456,68.9804731 109.339456,68.1054688 Z M110.687112,68.1289062 C110.687112,68.6992216 110.839455,69.150389 111.144144,69.4824219 C111.456645,69.8183611 111.86875,69.9863281 112.380472,69.9863281 C112.896099,69.9863281 113.308205,69.8203142 113.6168,69.4882812 C113.925395,69.1562483 114.079691,68.7128934 114.079691,68.1582031 C114.079691,67.6035129 113.925395,67.1601579 113.6168,66.828125 C113.304298,66.4921858 112.892193,66.3242188 112.380472,66.3242188 C111.876563,66.3242188 111.468364,66.4921858 111.155862,66.828125 C110.843361,67.1640642 110.687112,67.5976536 110.687112,68.1289062 Z M119.820797,66.5234375 L119.820797,71 L118.502437,71 L118.502437,66.5234375 L117.939937,66.5234375 L117.939937,65.2929688 L118.502437,65.2929688 L118.502437,63.2011719 L119.820797,63.2011719 L119.820797,65.2929688 L120.846187,65.2929688 L120.846187,66.5234375 L119.820797,66.5234375 Z M129.902618,65.2929688 L129.902618,71 L128.584259,71 L128.584259,65.2929688 L129.902618,65.2929688 Z M128.38504,62.9199219 C128.38504,62.689452 128.469023,62.4902352 128.636993,62.3222656 C128.804962,62.154296 129.006132,62.0703125 129.240509,62.0703125 C129.478791,62.0703125 129.681914,62.154296 129.849884,62.3222656 C130.017853,62.4863289 130.101837,62.6874988 130.101837,62.9257812 C130.101837,63.1640637 130.017853,63.3671867 129.849884,63.5351562 C129.68582,63.7031258 129.48465,63.7871094 129.246368,63.7871094 C129.008085,63.7871094 128.804962,63.7031258 128.636993,63.5351562 C128.469023,63.3671867 128.38504,63.1621106 128.38504,62.9199219 Z M133.141771,65.2929688 L134.46599,65.2929688 L134.46599,65.8203125 C134.926929,65.363279 135.446455,65.1347656 136.024583,65.1347656 C136.688649,65.1347656 137.206222,65.3437479 137.577318,65.7617188 C137.897632,66.1171893 138.057786,66.6972616 138.057786,67.5019531 L138.057786,71 L136.733568,71 L136.733568,67.8125 C136.733568,67.2499972 136.655443,66.8613292 136.499193,66.6464844 C136.346848,66.4277333 136.069507,66.3183594 135.667161,66.3183594 C135.229659,66.3183594 134.919115,66.4628892 134.735521,66.7519531 C134.555832,67.0371108 134.46599,67.5351527 134.46599,68.2460938 L134.46599,71 L133.141771,71 L133.141771,65.2929688 Z M145.732486,65.5390625 L145.732486,67.2910156 C145.431703,66.9238263 145.162175,66.6718757 144.923892,66.5351562 C144.689516,66.3945305 144.414128,66.3242188 144.097721,66.3242188 C143.601624,66.3242188 143.189519,66.4980451 142.861392,66.8457031 C142.533266,67.1933611 142.369205,67.6289036 142.369205,68.1523438 C142.369205,68.6875027 142.527406,69.1269514 142.843814,69.4707031 C143.164128,69.8144548 143.572327,69.9863281 144.068424,69.9863281 C144.384831,69.9863281 144.664126,69.9179694 144.906314,69.78125 C145.14069,69.6484368 145.416078,69.3906269 145.732486,69.0078125 L145.732486,70.7480469 C145.197327,71.025392 144.662176,71.1640625 144.127017,71.1640625 C143.2442,71.1640625 142.505927,70.8789091 141.912174,70.3085938 C141.318421,69.7343721 141.021549,69.0214886 141.021549,68.1699219 C141.021549,67.3183551 141.322327,66.5996123 141.923892,66.0136719 C142.525458,65.4277314 143.263732,65.1347656 144.138736,65.1347656 C144.701239,65.1347656 145.232484,65.2695299 145.732486,65.5390625 Z M148.784139,70.34375 C148.784139,70.1249989 148.864216,69.9355477 149.024373,69.7753906 C149.18453,69.6152336 149.375935,69.5351562 149.598592,69.5351562 C149.821249,69.5351562 150.012654,69.6152336 150.172811,69.7753906 C150.332968,69.9355477 150.413045,70.126952 150.413045,70.3496094 C150.413045,70.576173 150.332968,70.7695304 150.172811,70.9296875 C150.01656,71.0859383 149.825156,71.1640625 149.598592,71.1640625 C149.368122,71.1640625 149.174765,71.0859383 149.018514,70.9296875 C148.862263,70.7734367 148.784139,70.5781262 148.784139,70.34375 Z M164.690179,68.8027344 L160.817132,68.8027344 L159.80932,71 L158.338617,71 L162.815179,61.3847656 L167.133539,71 L165.639398,71 L164.690179,68.8027344 Z M164.133539,67.5195312 L162.791742,64.4433594 L161.385492,67.5195312 L164.133539,67.5195312 Z M170.900035,61.1035156 L170.900035,71 L169.581676,71 L169.581676,61.1035156 L170.900035,61.1035156 Z M175.457547,61.1035156 L175.457547,71 L174.139188,71 L174.139188,61.1035156 L175.457547,61.1035156 Z M187.285463,67.1445312 L190.086244,71 L188.416322,71 L185.832338,67.296875 L185.586244,67.296875 L185.586244,71 L184.221009,71 L184.221009,61.953125 L185.820619,61.953125 C187.015937,61.953125 187.87921,62.1777321 188.410463,62.6269531 C188.996403,63.1269556 189.289369,63.7871053 189.289369,64.6074219 C189.289369,65.2480501 189.105777,65.7988258 188.738588,66.2597656 C188.371398,66.7207054 187.887028,67.0156244 187.285463,67.1445312 Z M185.586244,66.1074219 L186.019838,66.1074219 C187.312813,66.1074219 187.959291,65.6132862 187.959291,64.625 C187.959291,63.6992141 187.330391,63.2363281 186.072572,63.2363281 L185.586244,63.2363281 L185.586244,66.1074219 Z M194.081256,65.2929688 L194.081256,71 L192.762897,71 L192.762897,65.2929688 L194.081256,65.2929688 Z M192.563678,62.9199219 C192.563678,62.689452 192.647661,62.4902352 192.815631,62.3222656 C192.983601,62.154296 193.18477,62.0703125 193.419147,62.0703125 C193.657429,62.0703125 193.860552,62.154296 194.028522,62.3222656 C194.196491,62.4863289 194.280475,62.6874988 194.280475,62.9257812 C194.280475,63.1640637 194.196491,63.3671867 194.028522,63.5351562 C193.864458,63.7031258 193.663288,63.7871094 193.425006,63.7871094 C193.186724,63.7871094 192.983601,63.7031258 192.815631,63.5351562 C192.647661,63.3671867 192.563678,63.1621106 192.563678,62.9199219 Z M202.83994,70.8652344 C202.83994,71.134767 202.831151,71.3720693 202.813573,71.5771484 C202.795995,71.7822276 202.771581,71.9628898 202.740331,72.1191406 C202.64658,72.5488303 202.462988,72.9179672 202.18955,73.2265625 C201.673922,73.8203155 200.964945,74.1171875 200.062596,74.1171875 C199.300874,74.1171875 198.673927,73.9121114 198.181737,73.5019531 C197.673922,73.080076 197.380956,72.4960975 197.302831,71.75 L198.62705,71.75 C198.677831,72.0312514 198.761815,72.2480461 198.879003,72.4003906 C199.152441,72.7558612 199.550875,72.9335938 200.074315,72.9335938 C201.039164,72.9335938 201.521581,72.3418028 201.521581,71.1582031 L201.521581,70.3613281 C200.998141,70.8964871 200.394631,71.1640625 199.711034,71.1640625 C198.933686,71.1640625 198.296974,70.8828153 197.800878,70.3203125 C197.300875,69.7499971 197.050878,69.0371137 197.050878,68.1816406 C197.050878,67.3496052 197.283297,66.642581 197.748143,66.0605469 C198.248146,65.4433563 198.908295,65.1347656 199.728612,65.1347656 C200.447366,65.1347656 201.045016,65.4023411 201.521581,65.9375 L201.521581,65.2929688 L202.83994,65.2929688 L202.83994,70.8652344 Z M201.574315,68.1582031 C201.574315,67.6035129 201.425879,67.1601579 201.129003,66.828125 C200.82822,66.4882796 200.443458,66.3183594 199.974706,66.3183594 C199.474703,66.3183594 199.080176,66.5039044 198.791112,66.875 C198.529392,67.2070329 198.398534,67.6367161 198.398534,68.1640625 C198.398534,68.6835963 198.529392,69.1093733 198.791112,69.4414062 C199.07627,69.8046893 199.470797,69.9863281 199.974706,69.9863281 C200.478615,69.9863281 200.877048,69.8027362 201.170018,69.4355469 C201.439551,69.103514 201.574315,68.677737 201.574315,68.1582031 Z M206.073234,61.1035156 L207.391593,61.1035156 L207.391593,65.7675781 C207.860345,65.345701 208.377918,65.1347656 208.944327,65.1347656 C209.588862,65.1347656 210.104482,65.3437479 210.491202,65.7617188 C210.819329,66.1250018 210.98339,66.7050741 210.98339,67.5019531 L210.98339,71 L209.665031,71 L209.665031,67.625 C209.665031,67.1679665 209.583977,66.8369151 209.421866,66.6318359 C209.259756,66.4267568 208.999017,66.3242188 208.63964,66.3242188 C208.1787,66.3242188 207.854485,66.4667954 207.666984,66.7519531 C207.483389,67.0410171 207.391593,67.5371059 207.391593,68.2402344 L207.391593,71 L206.073234,71 L206.073234,61.1035156 Z M215.581918,66.5234375 L215.581918,71 L214.263558,71 L214.263558,66.5234375 L213.701058,66.5234375 L213.701058,65.2929688 L214.263558,65.2929688 L214.263558,63.2011719 L215.581918,63.2011719 L215.581918,65.2929688 L216.607308,65.2929688 L216.607308,66.5234375 L215.581918,66.5234375 Z M222.38943,66.265625 L221.299586,66.8457031 C221.12771,66.4941389 220.914822,66.3183594 220.660914,66.3183594 C220.53982,66.3183594 220.436305,66.358398 220.350368,66.4384766 C220.26443,66.5185551 220.221461,66.6210931 220.221461,66.7460938 C220.221461,66.9648448 220.475365,67.1816396 220.98318,67.3964844 C221.682402,67.6972671 222.153101,67.9746081 222.395289,68.2285156 C222.637478,68.4824231 222.758571,68.8242166 222.758571,69.2539062 C222.758571,69.8046903 222.555448,70.2656231 222.149196,70.6367188 C221.754662,70.988283 221.278105,71.1640625 220.719508,71.1640625 C219.762472,71.1640625 219.084744,70.6972703 218.686305,69.7636719 L219.811305,69.2421875 C219.967556,69.5156264 220.086695,69.6894528 220.168727,69.7636719 C220.328884,69.9121101 220.520288,69.9863281 220.742946,69.9863281 C221.18826,69.9863281 221.410914,69.7832052 221.410914,69.3769531 C221.410914,69.142577 221.239041,68.9238291 220.895289,68.7207031 C220.762476,68.6542965 220.629665,68.5898441 220.496852,68.5273438 C220.364039,68.4648434 220.229274,68.400391 220.092555,68.3339844 C219.709741,68.1464834 219.440212,67.9589853 219.283961,67.7714844 C219.084742,67.5332019 218.985133,67.2265644 218.985133,66.8515625 C218.985133,66.3554663 219.155053,65.9453141 219.494899,65.6210938 C219.842557,65.2968734 220.264428,65.1347656 220.760524,65.1347656 C221.490996,65.1347656 222.033959,65.511715 222.38943,66.265625 Z M234.100158,67.1445312 L236.900939,71 L235.231017,71 L232.647033,67.296875 L232.400939,67.296875 L232.400939,71 L231.035705,71 L231.035705,61.953125 L232.635314,61.953125 C233.830632,61.953125 234.693905,62.1777321 235.225158,62.6269531 C235.811098,63.1269556 236.104064,63.7871053 236.104064,64.6074219 C236.104064,65.2480501 235.920472,65.7988258 235.553283,66.2597656 C235.186093,66.7207054 234.701723,67.0156244 234.100158,67.1445312 Z M232.400939,66.1074219 L232.834533,66.1074219 C234.127508,66.1074219 234.773986,65.6132862 234.773986,64.625 C234.773986,63.6992141 234.145086,63.2363281 232.887267,63.2363281 L232.400939,63.2363281 L232.400939,66.1074219 Z M244.581498,68.4570312 L240.491654,68.4570312 C240.526811,68.9257836 240.679153,69.2988267 240.948686,69.5761719 C241.218218,69.8496107 241.563918,69.9863281 241.985795,69.9863281 C242.313922,69.9863281 242.585403,69.9082039 242.800248,69.7519531 C243.011187,69.5957023 243.251419,69.3066427 243.520951,68.8847656 L244.634232,69.5058594 C244.462357,69.7988296 244.280718,70.0498036 244.089311,70.2587891 C243.897903,70.4677745 243.692827,70.6396478 243.474076,70.7744141 C243.255325,70.9091804 243.018999,71.0078122 242.765092,71.0703125 C242.511184,71.1328128 242.235796,71.1640625 241.93892,71.1640625 C241.087353,71.1640625 240.403766,70.8906277 239.888139,70.34375 C239.372511,69.792966 239.114701,69.0625046 239.114701,68.1523438 C239.114701,67.2499955 239.364699,66.519534 239.864701,65.9609375 C240.36861,65.4101535 241.036572,65.1347656 241.868607,65.1347656 C242.708455,65.1347656 243.372511,65.4023411 243.860795,65.9375 C244.345172,66.4687527 244.587357,67.2050734 244.587357,68.1464844 L244.581498,68.4570312 Z M243.227982,67.3789062 C243.044388,66.6757777 242.601033,66.3242188 241.897904,66.3242188 C241.737747,66.3242188 241.587358,66.3486326 241.446732,66.3974609 C241.306107,66.4462893 241.178178,66.5166011 241.062943,66.6083984 C240.947708,66.7001958 240.849077,66.8105462 240.767045,66.9394531 C240.685013,67.06836 240.622514,67.2148429 240.579545,67.3789062 L243.227982,67.3789062 Z M250.908542,66.265625 L249.818698,66.8457031 C249.646822,66.4941389 249.433933,66.3183594 249.180026,66.3183594 C249.058932,66.3183594 248.955417,66.358398 248.869479,66.4384766 C248.783541,66.5185551 248.740573,66.6210931 248.740573,66.7460938 C248.740573,66.9648448 248.994476,67.1816396 249.502292,67.3964844 C250.201514,67.6972671 250.672212,67.9746081 250.914401,68.2285156 C251.15659,68.4824231 251.277682,68.8242166 251.277682,69.2539062 C251.277682,69.8046903 251.074559,70.2656231 250.668307,70.6367188 C250.273774,70.988283 249.797216,71.1640625 249.23862,71.1640625 C248.281584,71.1640625 247.603856,70.6972703 247.205417,69.7636719 L248.330417,69.2421875 C248.486667,69.5156264 248.605807,69.6894528 248.687838,69.7636719 C248.847995,69.9121101 249.0394,69.9863281 249.262057,69.9863281 C249.707372,69.9863281 249.930026,69.7832052 249.930026,69.3769531 C249.930026,69.142577 249.758153,68.9238291 249.414401,68.7207031 C249.281588,68.6542965 249.148777,68.5898441 249.015963,68.5273438 C248.88315,68.4648434 248.748386,68.400391 248.611667,68.3339844 C248.228852,68.1464834 247.959324,67.9589853 247.803073,67.7714844 C247.603853,67.5332019 247.504245,67.2265644 247.504245,66.8515625 C247.504245,66.3554663 247.674165,65.9453141 248.01401,65.6210938 C248.361668,65.2968734 248.783539,65.1347656 249.279635,65.1347656 C250.010108,65.1347656 250.553071,65.511715 250.908542,66.265625 Z M259.227773,68.4570312 L255.137929,68.4570312 C255.173085,68.9257836 255.325427,69.2988267 255.59496,69.5761719 C255.864493,69.8496107 256.210192,69.9863281 256.632069,69.9863281 C256.960196,69.9863281 257.231678,69.9082039 257.446523,69.7519531 C257.657461,69.5957023 257.897693,69.3066427 258.167226,68.8847656 L259.280507,69.5058594 C259.108631,69.7988296 258.926992,70.0498036 258.735585,70.2587891 C258.544178,70.4677745 258.339102,70.6396478 258.120351,70.7744141 C257.9016,70.9091804 257.665274,71.0078122 257.411366,71.0703125 C257.157459,71.1328128 256.882071,71.1640625 256.585194,71.1640625 C255.733628,71.1640625 255.050041,70.8906277 254.534413,70.34375 C254.018786,69.792966 253.760976,69.0625046 253.760976,68.1523438 C253.760976,67.2499955 254.010973,66.519534 254.510976,65.9609375 C255.014884,65.4101535 255.682846,65.1347656 256.514882,65.1347656 C257.35473,65.1347656 258.018786,65.4023411 258.507069,65.9375 C258.991447,66.4687527 259.233632,67.2050734 259.233632,68.1464844 L259.227773,68.4570312 Z M257.874257,67.3789062 C257.690662,66.6757777 257.247307,66.3242188 256.544179,66.3242188 C256.384022,66.3242188 256.233633,66.3486326 256.093007,66.3974609 C255.952381,66.4462893 255.824453,66.5166011 255.709218,66.6083984 C255.593983,66.7001958 255.495351,66.8105462 255.413319,66.9394531 C255.331288,67.06836 255.268788,67.2148429 255.225819,67.3789062 L257.874257,67.3789062 Z M262.23841,65.2929688 L263.556769,65.2929688 L263.556769,65.8027344 C263.798958,65.5488269 264.013799,65.3750005 264.2013,65.28125 C264.392708,65.1835933 264.619268,65.1347656 264.880988,65.1347656 C265.228646,65.1347656 265.591923,65.2480457 265.970832,65.4746094 L265.367316,66.6816406 C265.117315,66.5019522 264.873177,66.4121094 264.634894,66.4121094 C263.916141,66.4121094 263.556769,66.9550727 263.556769,68.0410156 L263.556769,71 L262.23841,71 L262.23841,65.2929688 Z M269.520531,65.2929688 L270.997094,68.4980469 L272.467797,65.2929688 L273.950219,65.2929688 L270.985375,71.3925781 L268.043969,65.2929688 L269.520531,65.2929688 Z M281.402262,68.4570312 L277.312419,68.4570312 C277.347575,68.9257836 277.499917,69.2988267 277.76945,69.5761719 C278.038982,69.8496107 278.384682,69.9863281 278.806559,69.9863281 C279.134686,69.9863281 279.406168,69.9082039 279.621012,69.7519531 C279.831951,69.5957023 280.072183,69.3066427 280.341716,68.8847656 L281.454997,69.5058594 C281.283121,69.7988296 281.101482,70.0498036 280.910075,70.2587891 C280.718668,70.4677745 280.513592,70.6396478 280.294841,70.7744141 C280.076089,70.9091804 279.839764,71.0078122 279.585856,71.0703125 C279.331949,71.1328128 279.056561,71.1640625 278.759684,71.1640625 C277.908117,71.1640625 277.224531,70.8906277 276.708903,70.34375 C276.193275,69.792966 275.935466,69.0625046 275.935466,68.1523438 C275.935466,67.2499955 276.185463,66.519534 276.685466,65.9609375 C277.189374,65.4101535 277.857336,65.1347656 278.689372,65.1347656 C279.52922,65.1347656 280.193276,65.4023411 280.681559,65.9375 C281.165937,66.4687527 281.408122,67.2050734 281.408122,68.1464844 L281.402262,68.4570312 Z M280.048747,67.3789062 C279.865152,66.6757777 279.421797,66.3242188 278.718669,66.3242188 C278.558512,66.3242188 278.408122,66.3486326 278.267497,66.3974609 C278.126871,66.4462893 277.998943,66.5166011 277.883708,66.6083984 C277.768473,66.7001958 277.669841,66.8105462 277.587809,66.9394531 C277.505778,67.06836 277.443278,67.2148429 277.400309,67.3789062 L280.048747,67.3789062 Z M288.619931,61.1035156 L289.94415,61.1035156 L289.94415,71 L288.619931,71 L288.619931,70.4023438 C288.100397,70.9101588 287.512512,71.1640625 286.856259,71.1640625 C286.075005,71.1640625 285.426574,70.8789091 284.910947,70.3085938 C284.399225,69.7265596 284.143368,69.0000044 284.143368,68.1289062 C284.143368,67.2773395 284.399225,66.5664091 284.910947,65.9960938 C285.418762,65.4218721 286.057427,65.1347656 286.826962,65.1347656 C287.494934,65.1347656 288.092584,65.4082004 288.619931,65.9550781 L288.619931,61.1035156 Z M285.491025,68.1289062 C285.491025,68.675784 285.637508,69.121092 285.930478,69.4648438 C286.231261,69.8125017 286.610163,69.9863281 287.067197,69.9863281 C287.55548,69.9863281 287.950007,69.8183611 288.25079,69.4824219 C288.551573,69.1347639 288.701962,68.6933621 288.701962,68.1582031 C288.701962,67.6230442 288.551573,67.1816424 288.25079,66.8339844 C287.950007,66.4941389 287.559386,66.3242188 287.078915,66.3242188 C286.625788,66.3242188 286.246886,66.496092 285.942197,66.8398438 C285.641414,67.1875017 285.491025,67.6171849 285.491025,68.1289062 Z" id="path-1"></path>
    </defs>
    <g id="デザイン" stroke="none" stroke-width="1" fill="none" fill-rule="evenodd">
        <g id="design" transform="translate(-699.000000, -3685.000000)">
            <g id="footer" transform="translate(1.000000, 3619.000000)">
                <g id="Group-4" transform="translate(689.000000, 5.000000)">
                    <g id="Copyright©-root-inc.">
                        <use fill="#000000" xlink:href="#path-1"></use>
                        <use fill="#FFFFFF" xlink:href="#path-1"></use>
                    </g>
                </g>
            </g>
        </g>
    </g>
</svg>