<svg xmlns="http://www.w3.org/2000/svg" xmlns:xlink="http://www.w3.org/1999/xlink" viewBox="0 0 37.55 9.35"><defs><style>.creator_svg1{fill:none;}.creator_svg2{}.creator_svg3{fill:#d6bc6e;}</style><clipPath id="clip-path" transform="translate(0 0)"><rect class="creator_svg1" width="37.55" height="9.35"/></clipPath></defs><title>creator</title><g id="レイヤー_2" data-name="レイヤー 2"><g id="レイヤー_1-2" data-name="レイヤー 1"><g class="creator_svg2"><path class="creator_svg3" d="M4.18,7a3.13,3.13,0,0,1-.53,1.72,1.49,1.49,0,0,1-1.24.63A2,2,0,0,1,.66,8.17,7.29,7.29,0,0,1,0,4.7,7.6,7.6,0,0,1,.64,1.22,1.9,1.9,0,0,1,2.29,0a1.86,1.86,0,0,1,.92.28.21.21,0,0,0,.11,0A.2.2,0,0,0,3.43.25a.17.17,0,0,1,.1-.07h.34c.07,0,.11.06.11.17V2.27c0,.11,0,.17-.11.17H3.61a.18.18,0,0,1-.17-.07A1.4,1.4,0,0,1,3.32,2C3.08,1.12,2.77.67,2.38.67A.58.58,0,0,0,1.85,1a3.76,3.76,0,0,0-.29,1.33,18.49,18.49,0,0,0-.1,2A15.4,15.4,0,0,0,1.7,7.54c.17.69.46,1,.87,1s.81-.55,1-1.64Z" transform="translate(0 0)"/><path class="creator_svg3" d="M7.07,5V8.14a.51.51,0,0,0,.22.46.3.3,0,0,1,.15.24V9.1c0,.09-.05.13-.15.13H5.46c-.08,0-.13,0-.13-.12V8.84a.3.3,0,0,1,.15-.24.53.53,0,0,0,.23-.46V1.21A.51.51,0,0,0,5.48.76.3.3,0,0,1,5.33.52V.26c0-.09,0-.14.15-.14H7A2.94,2.94,0,0,1,9,.71,2.11,2.11,0,0,1,9.68,2.4,2.17,2.17,0,0,1,8.05,4.68a2.42,2.42,0,0,1,.73.53,2.21,2.21,0,0,1,.38.87l.43,1.86a1.61,1.61,0,0,0,.16.48.68.68,0,0,0,.26.24.13.13,0,0,1,.05.11v.34c0,.08,0,.12-.13.12H8.76a.2.2,0,0,1-.21-.18l-.8-3.23a1.62,1.62,0,0,0-.29-.69A.53.53,0,0,0,7.07,5m0-4.14V4.27A1.08,1.08,0,0,0,8,3.87a2.41,2.41,0,0,0,.3-1.41A2,2,0,0,0,8,1.15,1.25,1.25,0,0,0,7.07.83" transform="translate(0 0)"/><path class="creator_svg3" d="M15.43,9.23h-4c-.1,0-.14,0-.14-.14V8.84c0-.09.06-.18.19-.27a.52.52,0,0,0,.17-.43V1.21a.51.51,0,0,0-.22-.46.29.29,0,0,1-.14-.23V.23c0-.07,0-.11.14-.11h3.32l.26,0c.13,0,.19,0,.19.1V1.92c0,.09,0,.14,0,.16a.3.3,0,0,1-.14,0H14.8c-.1,0-.15-.05-.16-.16a2.32,2.32,0,0,0-.23-.78.68.68,0,0,0-.67-.33H13V4.15h.27a.47.47,0,0,0,.35-.1,1.73,1.73,0,0,0,.23-.6,1.45,1.45,0,0,1,.06-.19h.37c.1,0,.15,0,.15.14V5.6a.12.12,0,0,1-.14.14H14c-.06,0-.1,0-.12,0a.78.78,0,0,1-.1-.27c-.07-.28-.14-.45-.23-.51a.55.55,0,0,0-.34-.09H13V8.54h.79a.75.75,0,0,0,.61-.21,4.13,4.13,0,0,0,.42-1.14Q14.88,7,15,7h.26c.09,0,.14,0,.14.15Z" transform="translate(0 0)"/><path class="creator_svg3" d="M18.31,1.28l-.06-.4c0-.13,0-.2,0-.22s0-.07.09-.1l1-.46h.05c.05,0,.09,0,.11.1l1.58,8a1,1,0,0,0,.11.31.8.8,0,0,0,.23.2.23.23,0,0,1,.14.19v.25c0,.1,0,.14-.11.14h-2c-.11,0-.16,0-.16-.14V8.84c0-.09.06-.17.19-.23a.38.38,0,0,0,.23-.34.62.62,0,0,0,0-.13l-.25-1.23H17.93l-.24,1.18a.89.89,0,0,0,0,.11.57.57,0,0,0,.26.39.38.38,0,0,1,.17.25v.25c0,.1-.06.14-.17.14H16.71c-.14,0-.21,0-.21-.14v-.3a.22.22,0,0,1,.13-.2.73.73,0,0,0,.32-.5Zm.4,1.88-.61,3h1.21Z" transform="translate(0 0)"/><path class="creator_svg3" d="M24.65.8V8.15a.51.51,0,0,0,.23.45.3.3,0,0,1,.15.24V9.1c0,.09-.05.14-.15.14H23.05a.12.12,0,0,1-.13-.13V8.84a.3.3,0,0,1,.15-.24.51.51,0,0,0,.22-.45V.8H23a.48.48,0,0,0-.43.22,3.07,3.07,0,0,0-.25,1,.1.1,0,0,1-.12.09H22c-.13,0-.2,0-.2-.16V.2c0-.13.06-.2.19-.2l.41.05a5.06,5.06,0,0,0,.73.07h2.07L25.6.06,26,0c.1,0,.16,0,.16.14V1.91a.14.14,0,0,1-.16.16h-.22c-.09,0-.14,0-.16-.07a2.19,2.19,0,0,1-.08-.38A2,2,0,0,0,25.31,1,.47.47,0,0,0,24.92.8Z" transform="translate(0 0)"/><path class="creator_svg3" d="M29.39,9.35a1.94,1.94,0,0,1-1.82-1.23,7.88,7.88,0,0,1-.6-3.4,8,8,0,0,1,.61-3.45,1.85,1.85,0,0,1,3.48-.1,7.61,7.61,0,0,1,.63,3.48,7.73,7.73,0,0,1-.63,3.53,1.87,1.87,0,0,1-1.67,1.17m-.06-.63a.58.58,0,0,0,.48-.34,5.17,5.17,0,0,0,.32-1.86q.09-1.53.09-2.79a10.74,10.74,0,0,0-.14-1.89,2.59,2.59,0,0,0-.3-1,.52.52,0,0,0-.43-.21A.56.56,0,0,0,29,.83a1.3,1.3,0,0,0-.27.59,13.47,13.47,0,0,0-.17,1.66c0,.83-.07,1.68-.07,2.57A8.71,8.71,0,0,0,28.67,8c.14.47.36.71.66.71" transform="translate(0 0)"/><path class="creator_svg3" d="M34.56,5V8.14a.51.51,0,0,0,.22.46.3.3,0,0,1,.15.24V9.1c0,.09,0,.13-.15.13H33c-.08,0-.13,0-.13-.12V8.84A.29.29,0,0,1,33,8.6a.54.54,0,0,0,.22-.46V1.21A.52.52,0,0,0,33,.76a.29.29,0,0,1-.16-.24V.26c0-.09,0-.14.16-.14h1.53a2.94,2.94,0,0,1,2,.59,2.11,2.11,0,0,1,.68,1.69,2.16,2.16,0,0,1-1.63,2.28,2.42,2.42,0,0,1,.73.53,2.21,2.21,0,0,1,.38.87l.43,1.86a1.61,1.61,0,0,0,.16.48.68.68,0,0,0,.26.24.13.13,0,0,1,0,.11v.34c0,.08,0,.12-.13.12H36.25A.2.2,0,0,1,36,9.05l-.8-3.23A1.62,1.62,0,0,0,35,5.13.53.53,0,0,0,34.56,5m0-4.14V4.27a1.08,1.08,0,0,0,.93-.4,2.41,2.41,0,0,0,.3-1.41,2,2,0,0,0-.3-1.31,1.23,1.23,0,0,0-.93-.32" transform="translate(0 0)"/></g></g></g></svg>