<?xml version="1.0" encoding="UTF-8"?>
<svg width="303px" height="35px" viewBox="0 0 303 35" version="1.1" xmlns="http://www.w3.org/2000/svg" xmlns:xlink="http://www.w3.org/1999/xlink">
    <!-- Generator: Sketch 51.3 (57544) - http://www.bohemiancoding.com/sketch -->
    <title>DATA DESIGN</title>
    <desc>Created with Sketch.</desc>
    <defs></defs>
    <g id="デザイン" stroke="none" stroke-width="1" fill="none" fill-rule="evenodd">
        <g id="design" transform="translate(-189.000000, -777.000000)" fill="#000000">
            <g id="Group-6" transform="translate(110.000000, 648.000000)">
                <g id="Group">
                    <path d="M79.6132812,162.042553 L79.6132812,131.886303 L85.9414062,131.886303 C88.9752756,131.886303 91.371085,132.185779 93.1289062,132.784741 C95.0169365,133.370681 96.729159,134.366765 98.265625,135.773022 C101.37762,138.611578 102.933594,142.342009 102.933594,146.964428 C102.933594,151.599868 101.312516,155.349831 98.0703125,158.214428 C96.4427002,159.646727 94.7369881,160.642811 92.953125,161.202709 C91.28645,161.762608 88.9231924,162.042553 85.8632812,162.042553 L79.6132812,162.042553 Z M84.1640625,157.765209 L86.2148438,157.765209 C88.2591248,157.765209 89.9583266,157.550368 91.3125,157.120678 C92.6666734,156.664947 93.8906195,155.942298 94.984375,154.952709 C97.2239695,152.908428 98.34375,150.245695 98.34375,146.964428 C98.34375,143.65712 97.2369902,140.974855 95.0234375,138.917553 C93.03124,137.081607 90.0950715,136.163647 86.2148438,136.163647 L84.1640625,136.163647 L84.1640625,157.765209 Z M128.886719,154.718334 L115.976562,154.718334 L112.617188,162.042553 L107.714844,162.042553 L122.636719,129.991772 L137.03125,162.042553 L132.050781,162.042553 L128.886719,154.718334 Z M127.03125,150.440991 L122.558594,140.187084 L117.871094,150.440991 L127.03125,150.440991 Z M151.441406,136.163647 L151.441406,162.042553 L146.890625,162.042553 L146.890625,136.163647 L139.957031,136.163647 L139.957031,131.886303 L158.355469,131.886303 L158.355469,136.163647 L151.441406,136.163647 Z M182.492188,154.718334 L169.582031,154.718334 L166.222656,162.042553 L161.320312,162.042553 L176.242188,129.991772 L190.636719,162.042553 L185.65625,162.042553 L182.492188,154.718334 Z M180.636719,150.440991 L176.164062,140.187084 L171.476562,150.440991 L180.636719,150.440991 Z M214.75,162.042553 L214.75,131.886303 L221.078125,131.886303 C224.111994,131.886303 226.507804,132.185779 228.265625,132.784741 C230.153655,133.370681 231.865878,134.366765 233.402344,135.773022 C236.514338,138.611578 238.070312,142.342009 238.070312,146.964428 C238.070312,151.599868 236.449235,155.349831 233.207031,158.214428 C231.579419,159.646727 229.873707,160.642811 228.089844,161.202709 C226.423169,161.762608 224.059911,162.042553 221,162.042553 L214.75,162.042553 Z M219.300781,157.765209 L221.351562,157.765209 C223.395844,157.765209 225.095045,157.550368 226.449219,157.120678 C227.803392,156.664947 229.027338,155.942298 230.121094,154.952709 C232.360688,152.908428 233.480469,150.245695 233.480469,146.964428 C233.480469,143.65712 232.373709,140.974855 230.160156,138.917553 C228.167959,137.081607 225.23179,136.163647 221.351562,136.163647 L219.300781,136.163647 L219.300781,157.765209 Z M264.433594,136.163647 L252.34375,136.163647 L252.34375,143.409741 L264.082031,143.409741 L264.082031,147.687084 L252.34375,147.687084 L252.34375,157.765209 L264.433594,157.765209 L264.433594,162.042553 L247.792969,162.042553 L247.792969,131.886303 L264.433594,131.886303 L264.433594,136.163647 Z M291.460938,136.378491 L287.769531,138.565991 C287.079424,137.368068 286.421878,136.586826 285.796875,136.222241 C285.14583,135.805572 284.305995,135.597241 283.277344,135.597241 C282.014317,135.597241 280.96615,135.95531 280.132812,136.671459 C279.299475,137.374588 278.882812,138.259996 278.882812,139.327709 C278.882812,140.799071 279.976552,141.983955 282.164062,142.882397 L285.171875,144.112866 C287.619804,145.102454 289.410151,146.310124 290.542969,147.735913 C291.675787,149.161701 292.242188,150.90973 292.242188,152.980053 C292.242188,155.753505 291.317718,158.045148 289.46875,159.855053 C287.606762,161.677979 285.295587,162.589428 282.535156,162.589428 C279.917956,162.589428 277.756519,161.814696 276.050781,160.265209 C274.371085,158.715723 273.322919,156.534755 272.90625,153.722241 L277.515625,152.706616 C277.723959,154.477458 278.088539,155.701404 278.609375,156.378491 C279.54688,157.680581 280.914054,158.331616 282.710938,158.331616 C284.130215,158.331616 285.308589,157.85636 286.246094,156.905834 C287.183598,155.955309 287.652344,154.750894 287.652344,153.292553 C287.652344,152.706613 287.570964,152.169509 287.408203,151.681225 C287.245442,151.192941 286.991538,150.743727 286.646484,150.333569 C286.301431,149.923411 285.855471,149.5393 285.308594,149.181225 C284.761716,148.82315 284.110681,148.481357 283.355469,148.155834 L280.445312,146.944897 C276.317688,145.200097 274.253906,142.648039 274.253906,139.288647 C274.253906,137.023011 275.119783,135.128498 276.851562,133.605053 C278.583342,132.068587 280.738268,131.300366 283.316406,131.300366 C286.792986,131.300366 289.507803,132.993057 291.460938,136.378491 Z M306.28125,131.886303 L306.28125,162.042553 L301.730469,162.042553 L301.730469,131.886303 L306.28125,131.886303 Z M333.035156,146.339428 L345.496094,146.339428 L345.496094,147.335522 C345.496094,149.601158 345.229169,151.606347 344.695312,153.351147 C344.174477,154.965738 343.295579,156.47614 342.058594,157.882397 C339.259101,161.033454 335.697938,162.608959 331.375,162.608959 C327.156229,162.608959 323.542984,161.085537 320.535156,158.038647 C317.527329,154.978736 316.023438,151.306898 316.023438,147.023022 C316.023438,142.648 317.55337,138.9371 320.613281,135.890209 C323.673192,132.830298 327.397113,131.300366 331.785156,131.300366 C334.141939,131.300366 336.342438,131.782132 338.386719,132.745678 C340.339854,133.709225 342.260407,135.271709 344.148438,137.433178 L340.90625,140.538647 C338.432279,137.24436 335.417987,135.597241 331.863281,135.597241 C328.673161,135.597241 325.997407,136.69749 323.835938,138.898022 C321.674468,141.059491 320.59375,143.767797 320.59375,147.023022 C320.59375,150.382414 321.798165,153.149313 324.207031,155.323803 C326.459647,157.342042 328.901029,158.351147 331.53125,158.351147 C333.770845,158.351147 335.782543,157.595946 337.566406,156.085522 C339.350269,154.562077 340.346353,152.739178 340.554688,150.616772 L333.035156,150.616772 L333.035156,146.339428 Z M355.21875,162.042553 L355.21875,129.835522 L377.210938,152.843334 L377.210938,131.886303 L381.761719,131.886303 L381.761719,163.878491 L359.769531,140.929272 L359.769531,162.042553 L355.21875,162.042553 Z" id="DATA-DESIGN"></path>
                </g>
            </g>
        </g>
    </g>
</svg>