<?xml version="1.0" encoding="UTF-8"?>
<svg width="240px" height="21px" viewBox="0 0 240 21" version="1.1" xmlns="http://www.w3.org/2000/svg" xmlns:xlink="http://www.w3.org/1999/xlink">
    <!-- Generator: Sketch 51.3 (57544) - http://www.bohemiancoding.com/sketch -->
    <title>Group 10</title>
    <desc>Created with Sketch.</desc>
    <defs></defs>
    <g id="デザイン" stroke="none" stroke-width="1" fill="none" fill-rule="evenodd">
        <g id="design" transform="translate(-42.000000, -39.000000)" fill="#FFFFFF">
            <g id="Group-5" transform="translate(-26.000000, -96.000000)">
                <g id="header" transform="translate(68.000000, 135.000000)">
                    <g id="Group-10">
                        <path d="M0.806640625,17 L0.806640625,1.921875 L3.97070312,1.921875 C5.48763779,1.921875 6.68554248,2.07161309 7.56445312,2.37109375 C8.50846826,2.66406396 9.36457949,3.16210586 10.1328125,3.86523438 C11.6888099,5.2845123 12.4667969,7.14972803 12.4667969,9.4609375 C12.4667969,11.7786574 11.6562581,13.6536387 10.0351562,15.0859375 C9.2213501,15.8020869 8.36849404,16.3001288 7.4765625,16.5800781 C6.643225,16.8600274 5.46159619,17 3.93164062,17 L0.806640625,17 Z M3.08203125,14.8613281 L4.10742188,14.8613281 C5.1295624,14.8613281 5.97916328,14.7539073 6.65625,14.5390625 C7.33333672,14.3111968 7.94530977,13.9498723 8.4921875,13.4550781 C9.61198477,12.4329376 10.171875,11.1015707 10.171875,9.4609375 C10.171875,7.8072834 9.61849512,6.46615098 8.51171875,5.4375 C7.51562002,4.51952666 6.04753574,4.06054688 4.10742188,4.06054688 L3.08203125,4.06054688 L3.08203125,14.8613281 Z M25.0484375,4.06054688 L19.0035156,4.06054688 L19.0035156,7.68359375 L24.8726562,7.68359375 L24.8726562,9.82226562 L19.0035156,9.82226562 L19.0035156,14.8613281 L25.0484375,14.8613281 L25.0484375,17 L16.728125,17 L16.728125,1.921875 L25.0484375,1.921875 L25.0484375,4.06054688 Z M37.9621093,4.16796875 L36.1164062,5.26171875 C35.7713524,4.66275742 35.4425796,4.27213633 35.1300781,4.08984375 C34.8045556,3.88150938 34.3846379,3.77734375 33.8703125,3.77734375 C33.2387989,3.77734375 32.7147156,3.95637842 32.2980468,4.31445312 C31.8813781,4.66601738 31.6730468,5.10872129 31.6730468,5.64257812 C31.6730468,6.37825889 32.2199164,6.97070088 33.3136718,7.41992188 L34.8175781,8.03515625 C36.0415425,8.52995039 36.9367159,9.1337855 37.503125,9.84667969 C38.069534,10.5595739 38.3527343,11.4335886 38.3527343,12.46875 C38.3527343,13.8554757 37.8904994,15.0012976 36.9660156,15.90625 C36.0350213,16.8177129 34.8794339,17.2734375 33.4992187,17.2734375 C32.1906184,17.2734375 31.1099,16.8860716 30.2570312,16.1113281 C29.4171833,15.3365847 28.8931,14.2461008 28.6847656,12.8398438 L30.9894531,12.3320312 C31.0936203,13.2174523 31.2759101,13.8294254 31.5363281,14.1679688 C32.0050804,14.8190137 32.6886673,15.1445312 33.5871093,15.1445312 C34.2967483,15.1445312 34.8859351,14.9069034 35.3546875,14.4316406 C35.8234398,13.9563778 36.0578125,13.3541703 36.0578125,12.625 C36.0578125,12.3320298 36.0171228,12.0634778 35.9357421,11.8193359 C35.8543615,11.5751941 35.7274097,11.350587 35.5548828,11.1455078 C35.3823559,10.9404287 35.1593763,10.7483733 34.8859375,10.5693359 C34.6124986,10.3902986 34.286981,10.2194019 33.909375,10.0566406 L32.4542968,9.45117188 C30.3904844,8.57877168 29.3585937,7.30274277 29.3585937,5.62304688 C29.3585937,4.49022871 29.7915321,3.54297256 30.6574218,2.78125 C31.5233116,2.01301699 32.6007748,1.62890625 33.8898437,1.62890625 C35.6281336,1.62890625 36.9855419,2.47525195 37.9621093,4.16796875 Z M44.7722656,1.921875 L44.7722656,17 L42.4968749,17 L42.4968749,1.921875 L44.7722656,1.921875 Z M57.5492187,9.1484375 L63.7796874,9.1484375 L63.7796874,9.64648438 C63.7796874,10.7793025 63.6462252,11.7818967 63.3792968,12.6542969 C63.1188788,13.4615926 62.6794301,14.2167934 62.0609374,14.9199219 C60.6611908,16.4954506 58.8806097,17.2832031 56.7191405,17.2832031 C54.609755,17.2832031 52.8031324,16.521492 51.2992187,14.9980469 C49.7953049,13.4680913 49.0433593,11.6321722 49.0433593,9.49023438 C49.0433593,7.30272344 49.8083256,5.44727324 51.3382812,3.92382812 C52.8682367,2.39387256 54.7301973,1.62890625 56.9242187,1.62890625 C58.10261,1.62890625 59.2028594,1.86978926 60.2249999,2.3515625 C61.2015673,2.83333574 62.1618441,3.61457793 63.1058593,4.6953125 L61.4847655,6.24804688 C60.2477802,4.60090322 58.7406338,3.77734375 56.9632812,3.77734375 C55.3682211,3.77734375 54.0303438,4.32746846 52.9496093,5.42773438 C51.8688747,6.50846895 51.3285155,7.86262207 51.3285155,9.49023438 C51.3285155,11.1699303 51.930723,12.55338 53.1351562,13.640625 C54.2614639,14.6497446 55.4821548,15.1542969 56.7972655,15.1542969 C57.9170628,15.1542969 58.9229121,14.7766965 59.8148437,14.0214844 C60.7067752,13.2597618 61.2048171,12.3483126 61.3089843,11.2871094 L57.5492187,11.2871094 L57.5492187,9.1484375 Z M68.0410155,17 L68.0410155,0.896484375 L79.0371093,12.4003906 L79.0371093,1.921875 L81.3124999,1.921875 L81.3124999,17.9179688 L70.3164061,6.44335938 L70.3164061,17 L68.0410155,17 Z M93.7999998,5.93554688 L95.0402342,4.6953125 L98.2531248,7.91796875 L101.475781,4.6953125 L102.716015,5.93554688 L99.4933592,9.15820312 L102.716015,12.3808594 L101.475781,13.6113281 L98.2531248,10.3984375 L95.0402342,13.6113281 L93.7999998,12.3808594 L97.0226561,9.15820312 L93.7999998,5.93554688 Z M115.213281,17 L115.213281,1.921875 L118.377344,1.921875 C119.894278,1.921875 121.092183,2.07161309 121.971094,2.37109375 C122.915109,2.66406396 123.77122,3.16210586 124.539453,3.86523438 C126.09545,5.2845123 126.873437,7.14972803 126.873437,9.4609375 C126.873437,11.7786574 126.062899,13.6536387 124.441797,15.0859375 C123.627991,15.8020869 122.775134,16.3001288 121.883203,16.5800781 C121.049865,16.8600274 119.868237,17 118.338281,17 L115.213281,17 Z M117.488672,14.8613281 L118.514062,14.8613281 C119.536203,14.8613281 120.385804,14.7539073 121.06289,14.5390625 C121.739977,14.3111968 122.35195,13.9498723 122.898828,13.4550781 C124.018625,12.4329376 124.578515,11.1015707 124.578515,9.4609375 C124.578515,7.8072834 124.025136,6.46615098 122.918359,5.4375 C121.92226,4.51952666 120.454176,4.06054688 118.514062,4.06054688 L117.488672,4.06054688 L117.488672,14.8613281 Z M139.25,13.3378906 L132.794922,13.3378906 L131.115234,17 L128.664062,17 L136.125,0.974609375 L143.322265,17 L140.832031,17 L139.25,13.3378906 Z M138.322265,11.1992188 L136.085937,6.07226562 L133.742187,11.1992188 L138.322265,11.1992188 Z M149.927343,4.06054688 L149.927343,17 L147.651953,17 L147.651953,4.06054688 L144.185156,4.06054688 L144.185156,1.921875 L153.384375,1.921875 L153.384375,4.06054688 L149.927343,4.06054688 Z M164.852734,13.3378906 L158.397656,13.3378906 L156.717968,17 L154.266797,17 L161.727734,0.974609375 L168.925,17 L166.434765,17 L164.852734,13.3378906 Z M163.925,11.1992188 L161.688672,6.07226562 L159.344922,11.1992188 L163.925,11.1992188 Z" id="DESIGN-×-DATA"></path>
                        <path d="M181.791992,9.75292969 L181.791992,13.7958984 C182.231448,13.340167 182.729489,13.1123047 183.286133,13.1123047 C183.927412,13.1123047 184.461261,13.3515601 184.887695,13.8300781 C185.31413,14.3053409 185.527344,14.8977829 185.527344,15.6074219 C185.527344,16.3398474 185.312502,16.9453101 184.882812,17.4238281 C184.456378,17.8990909 183.917646,18.1367188 183.266602,18.1367188 C182.716469,18.1367188 182.224937,17.9251323 181.791992,17.5019531 L181.791992,18 L180.693359,18 L180.693359,9.75292969 L181.791992,9.75292969 Z M184.404297,15.65625 C184.404297,15.2005186 184.2806,14.8294285 184.033203,14.5429688 C183.782551,14.2499985 183.468426,14.1035156 183.09082,14.1035156 C182.687172,14.1035156 182.3584,14.2451158 182.104492,14.5283203 C181.85384,14.8082696 181.728516,15.1728493 181.728516,15.6220703 C181.728516,16.0843122 181.852212,16.4537747 182.099609,16.7304688 C182.347006,17.0136733 182.672524,17.1552734 183.076172,17.1552734 C183.457033,17.1552734 183.772785,17.0136733 184.023438,16.7304688 C184.277345,16.444009 184.404297,16.0859396 184.404297,15.65625 Z M188.841146,17.1162109 L186.702474,13.2441406 L187.976888,13.2441406 L189.431966,15.9785156 L190.789388,13.2441406 L192.029622,13.2441406 L188.24056,20.5878906 L186.985677,20.5878906 L188.841146,17.1162109 Z M197.529297,13.2441406 L198.62793,13.2441406 L198.62793,13.6689453 C198.829754,13.4573557 199.008788,13.3125004 199.165039,13.234375 C199.324545,13.1529944 199.513345,13.1123047 199.731446,13.1123047 C200.021161,13.1123047 200.323892,13.2067048 200.639649,13.3955078 L200.136719,14.4013672 C199.928385,14.2516269 199.724936,14.1767578 199.526367,14.1767578 C198.927406,14.1767578 198.62793,14.6292272 198.62793,15.5341797 L198.62793,18 L197.529297,18 L197.529297,13.2441406 Z M201.790365,15.5878906 C201.790365,14.9010382 202.036131,14.3167342 202.52767,13.8349609 C203.019208,13.3531877 203.618161,13.1123047 204.324545,13.1123047 C205.034184,13.1123047 205.636391,13.3548153 206.131185,13.8398438 C206.619469,14.3248722 206.863607,14.9205694 206.863607,15.6269531 C206.863607,16.3398473 206.617841,16.9371721 206.126302,17.4189453 C205.631508,17.8974633 205.024418,18.1367188 204.305013,18.1367188 C203.592119,18.1367188 202.994794,17.8925806 202.513021,17.4042969 C202.031248,16.9225236 201.790365,16.3170609 201.790365,15.5878906 Z M202.913412,15.6074219 C202.913412,16.0826847 203.040364,16.4586575 203.294271,16.7353516 C203.554689,17.0153009 203.89811,17.1552734 204.324545,17.1552734 C204.754234,17.1552734 205.097655,17.0169285 205.354818,16.7402344 C205.611981,16.4635403 205.74056,16.0940778 205.74056,15.6318359 C205.74056,15.169594 205.611981,14.8001316 205.354818,14.5234375 C205.0944,14.2434882 204.750979,14.1035156 204.324545,14.1035156 C203.904621,14.1035156 203.564455,14.2434882 203.304037,14.5234375 C203.043619,14.8033868 202.913412,15.1647113 202.913412,15.6074219 Z M208.63444,15.5878906 C208.63444,14.9010382 208.880206,14.3167342 209.371745,13.8349609 C209.863284,13.3531877 210.462236,13.1123047 211.16862,13.1123047 C211.878259,13.1123047 212.480467,13.3548153 212.975261,13.8398438 C213.463544,14.3248722 213.707683,14.9205694 213.707683,15.6269531 C213.707683,16.3398473 213.461917,16.9371721 212.970378,17.4189453 C212.475584,17.8974633 211.868494,18.1367188 211.149089,18.1367188 C210.436195,18.1367188 209.83887,17.8925806 209.357097,17.4042969 C208.875323,16.9225236 208.63444,16.3170609 208.63444,15.5878906 Z M209.757487,15.6074219 C209.757487,16.0826847 209.884439,16.4586575 210.138347,16.7353516 C210.398765,17.0153009 210.742186,17.1552734 211.16862,17.1552734 C211.59831,17.1552734 211.941731,17.0169285 212.198894,16.7402344 C212.456056,16.4635403 212.584636,16.0940778 212.584636,15.6318359 C212.584636,15.169594 212.456056,14.8001316 212.198894,14.5234375 C211.938476,14.2434882 211.595055,14.1035156 211.16862,14.1035156 C210.748696,14.1035156 210.40853,14.2434882 210.148112,14.5234375 C209.887694,14.8033868 209.757487,15.1647113 209.757487,15.6074219 Z M216.894532,14.2695312 L216.894532,18 L215.795899,18 L215.795899,14.2695312 L215.327149,14.2695312 L215.327149,13.2441406 L215.795899,13.2441406 L215.795899,11.5009766 L216.894532,11.5009766 L216.894532,13.2441406 L217.749024,13.2441406 L217.749024,14.2695312 L216.894532,14.2695312 Z M224.347331,13.2441406 L224.347331,18 L223.248698,18 L223.248698,13.2441406 L224.347331,13.2441406 Z M223.082683,11.2666016 C223.082683,11.0745433 223.152669,10.9085293 223.292644,10.7685547 C223.432618,10.62858 223.60026,10.5585938 223.795573,10.5585938 C223.994142,10.5585938 224.163411,10.62858 224.303386,10.7685547 C224.443361,10.9052741 224.513347,11.0729157 224.513347,11.2714844 C224.513347,11.4700531 224.443361,11.6393222 224.303386,11.7792969 C224.166667,11.9192715 223.999025,11.9892578 223.800456,11.9892578 C223.601888,11.9892578 223.432618,11.9192715 223.292644,11.7792969 C223.152669,11.6393222 223.082683,11.4684255 223.082683,11.2666016 Z M226.572266,13.2441406 L227.675782,13.2441406 L227.675782,13.6835938 C228.059898,13.3027325 228.492837,13.1123047 228.97461,13.1123047 C229.527998,13.1123047 229.959309,13.2864566 230.268555,13.6347656 C230.535484,13.9309911 230.668946,14.4143847 230.668946,15.0849609 L230.668946,18 L229.56543,18 L229.56543,15.34375 C229.56543,14.8749977 229.500327,14.5511077 229.370118,14.3720703 C229.243164,14.1897777 229.012047,14.0986328 228.676758,14.0986328 C228.312173,14.0986328 228.053387,14.2190743 227.900391,14.4599609 C227.750651,14.6975923 227.675782,15.1126272 227.675782,15.7050781 L227.675782,18 L226.572266,18 L226.572266,13.2441406 Z M236.59017,13.4492188 L236.59017,14.9091797 C236.339518,14.6031886 236.114911,14.3932297 235.916342,14.2792969 C235.721028,14.1621088 235.491538,14.1035156 235.227865,14.1035156 C234.814452,14.1035156 234.471031,14.2483709 234.197592,14.5380859 C233.924153,14.8278009 233.787436,15.190753 233.787436,15.6269531 C233.787436,16.0729189 233.91927,16.4391262 234.182943,16.7255859 C234.449872,17.0120457 234.790038,17.1552734 235.203451,17.1552734 C235.467124,17.1552734 235.699869,17.0983079 235.901693,16.984375 C236.097007,16.8736974 236.326497,16.6588558 236.59017,16.3398438 L236.59017,17.7900391 C236.144204,18.02116 235.698245,18.1367188 235.252279,18.1367188 C234.516599,18.1367188 233.90137,17.8990909 233.406576,17.4238281 C232.911782,16.9453101 232.664389,16.3512405 232.664389,15.6416016 C232.664389,14.9319626 232.915037,14.3330103 233.416342,13.8447266 C233.917646,13.3564429 234.532875,13.1123047 235.262045,13.1123047 C235.730797,13.1123047 236.173501,13.2246083 236.59017,13.4492188 Z M238.658855,17.453125 C238.658855,17.2708324 238.725586,17.1129564 238.85905,16.9794922 C238.992514,16.846028 239.152018,16.7792969 239.337566,16.7792969 C239.523114,16.7792969 239.682617,16.846028 239.816081,16.9794922 C239.949546,17.1129564 240.016277,17.27246 240.016277,17.4580078 C240.016277,17.6468108 239.949546,17.807942 239.816081,17.9414062 C239.685872,18.0716152 239.526369,18.1367188 239.337566,18.1367188 C239.145508,18.1367188 238.984376,18.0716152 238.854167,17.9414062 C238.723958,17.8111973 238.658855,17.6484385 238.658855,17.453125 Z" id="by-root-inc."></path>
                    </g>
                </g>
            </g>
        </g>
    </g>
</svg>