<svg xmlns="http://www.w3.org/2000/svg" viewBox="0 0 443.65 323.18"><defs><style>.logo_svg1,.logo_svg2{fill:#542d71;stroke:#542d71;stroke-linecap:round;stroke-linejoin:round;}.logo_svg1{stroke-width:2.75px;}.logo_svg2{stroke-width:3.16px;}.logo_svg3{fill:#d7bc6e;}</style></defs><title>logo</title><g id="レイヤー_2" data-name="レイヤー 2"><g id="レイヤー_1-2" data-name="レイヤー 1"><path class="logo_svg1" d="M3.42,317V289.48a1.94,1.94,0,0,0-1.07-1.79c-.49-.26-.73-.58-.73-.95v-1c0-.36.24-.53.73-.53h8.77c.42,0,.62.16.62.48v1.07c0,.36-.24.67-.73.95a2,2,0,0,0-1.07,1.79v28.35a.69.69,0,0,0,.7.69h1.69a4.65,4.65,0,0,0,3.28-1.08,7.06,7.06,0,0,0,1.73-3.68,7.25,7.25,0,0,1,.25-1c.06-.15.16-.32.56-.32h1.32c.51,0,.76.17.76.51v7.62a.69.69,0,0,1-.69.69H2.32c-.61,0-.92-.23-.92-.69v-.89c0-.35.27-.66.81-.92A1.94,1.94,0,0,0,3.42,317Z"/><path class="logo_svg1" d="M160.72,312.31a.56.56,0,0,1,.51.6,10.47,10.47,0,0,1-2.53,6.26,7.69,7.69,0,0,1-5.95,2.5,9.7,9.7,0,0,1-8.39-4.7q-3.17-4.7-3.16-13.74t3.08-13.77q3.08-4.84,7.91-4.84a10.63,10.63,0,0,1,4.42,1.12.81.81,0,0,0,.86-.23,1.46,1.46,0,0,1,.91-.4h1.38c.35,0,.53.22.53.67v6.89c0,.44-.18.65-.53.65h-1.24a1,1,0,0,1-.8-.25,5.33,5.33,0,0,1-.58-1.39c-1.14-3.58-2.65-4.41-4.53-4.41a2.86,2.86,0,0,0-2.55,1.39,13.8,13.8,0,0,0-1.38,5.26,63.84,63.84,0,0,0-.48,7.84q0,8.69,1.18,12.74t4.14,4.06c2.27,0,3.78-2,4.55-6a.55.55,0,0,1,.59-.45Z"/><path class="logo_svg1" d="M363.55,320.71H344.4c-.71,0-1.07-.29-1.07-.87a8.7,8.7,0,0,1,1.51-5l6.24-9.07a55.9,55.9,0,0,0,4.21-7,13.88,13.88,0,0,0,1.53-6.14,6.31,6.31,0,0,0-1.17-3.95,3.67,3.67,0,0,0-3.08-1.53,4.38,4.38,0,0,0-2.53.7c-.69.46-1,.85-1,1.15,0,.13.19.31.58.55a2.84,2.84,0,0,1,1.66,2.44,2.53,2.53,0,0,1-.91,1.93,3.49,3.49,0,0,1-2.44.83,3.71,3.71,0,0,1-2.72-.95,3.28,3.28,0,0,1-1-2.46,5.82,5.82,0,0,1,2.54-4.71,10.53,10.53,0,0,1,6.64-2,10.93,10.93,0,0,1,7.24,2.25,7.64,7.64,0,0,1,2.7,6.2,12.14,12.14,0,0,1-2,6.57,70,70,0,0,1-7.55,9.07q-4.72,5.06-5.8,7.63h9.85a3.21,3.21,0,0,0,1.79-.39,2.39,2.39,0,0,0,.86-1.42q.3-1,1.08-1h1.28c.49,0,.73.18.73.55Z"/><path class="logo_svg2" d="M245.67,49.64V77.7A4.65,4.65,0,0,0,248.28,82c1.12.63,1.68,1.36,1.68,2.21v2.49c0,.85-.59,1.28-1.75,1.28H227.29q-1.47,0-1.47-1.17v-2.6c0-.81.58-1.55,1.74-2.21a4.75,4.75,0,0,0,2.55-4.32V49.62L216.7,12.15a7,7,0,0,0-4-4.37,2,2,0,0,1-1.54-1.88V3.13c0-.81.42-1.22,1.27-1.22h21.66c1.25,0,1.87.48,1.87,1.44V6c0,.66-.62,1.18-1.87,1.55-2,.59-2.94,1.43-2.94,2.54a3.43,3.43,0,0,0,.26,1.22l9.82,26.91L250,13.6a8.34,8.34,0,0,0,.47-2.66q0-2.1-3-3.21c-1.16-.41-1.74-.94-1.74-1.61V3.18c0-.85.51-1.27,1.54-1.27H264c1.3,0,1.94.41,1.94,1.22V6c0,.81-.65,1.46-1.94,1.93a8.16,8.16,0,0,0-5,4.65Z"/><path class="logo_svg2" d="M330.62,275.69c0,.87-.84,1.12-1.46,1.12H284.69c-1.07,0-1.61-.44-1.61-1.33V273c0-.77.74-1.62,2.22-2.54a4.44,4.44,0,0,0,1.94-4V201a4.69,4.69,0,0,0-2.48-4.31q-1.68-.94-1.68-2.22v-2.66c0-.7.54-1.05,1.61-1.05h41.16c1.25,0,2,.3,2,1.25v15.69q0,1.28-.3,1.53a3.5,3.5,0,0,1-1.71.24h-2.48a1.61,1.61,0,0,1-1.81-1.55,20.65,20.65,0,0,0-2.65-7.39c-1.28-2-3.84-3.07-7.68-3.07h-8.45v31.34h3.09c1.92,0,3.24-.31,3.95-.92s1.61-2.52,2.69-5.73a4,4,0,0,1,.73-1.6c.24-.23.54-.28,1.21-.28h3q1.74,0,1.74,1.38v20.88c0,.88-.53,1.32-1.61,1.32h-3.08a1.92,1.92,0,0,1-1.41-.41,8.54,8.54,0,0,1-1.07-2.58q-1.22-3.93-2.62-4.78a7.34,7.34,0,0,0-3.88-.86h-2.69v35h9c3.36,0,5.68-.65,7-2s2.9-4.9,4.82-10.77a2.49,2.49,0,0,1,2.42-2h2.88c1.12,0,1.68.47,1.68,1.39Z"/><path class="logo_svg2" d="M372.21,237.27V200.93a4.62,4.62,0,0,0-2.55-4.27q-1.74-.94-1.74-2.28v-2.44c0-.85.58-1.27,1.74-1.27h15.15c1,0,1.48.38,1.48,1.16v2.54a2.77,2.77,0,0,1-1.68,2.27,4.69,4.69,0,0,0-2.61,4.27v74.46q0,1.77-1.95,1.77h-3a2.86,2.86,0,0,1-2.82-1.77L346.46,215v51.44a4.65,4.65,0,0,0,2.58,4.31q1.71.94,1.71,2.22v2.49c0,.85-.57,1.27-1.73,1.27h-15c-1,0-1.47-.39-1.47-1.16V273c0-.81.59-1.55,1.75-2.22a4.72,4.72,0,0,0,2.55-4.31V200.91a4.62,4.62,0,0,0-2.55-4.27c-1.16-.62-1.75-1.38-1.75-2.27v-2.43c0-.85.58-1.27,1.74-1.27h14.16a4.73,4.73,0,0,1,2.07.3,3.11,3.11,0,0,1,1.07,1.47Z"/><path class="logo_svg2" d="M388.1,194.43v-2.88c0-.55.52-.83,1.55-.83h17.43A34.16,34.16,0,0,1,432,200.66q10.13,9.93,10.12,32.25a78.16,78.16,0,0,1-3.05,22q-3,10.5-9.79,16.2t-22.69,5.7H389.31c-.8,0-1.21-.31-1.21-.94V273c0-.81.56-1.55,1.68-2.21a4.84,4.84,0,0,0,2.48-4.32V201a4.37,4.37,0,0,0-2.21-4.09C388.75,196.09,388.1,195.28,388.1,194.43Zm19.65,2.88v73.08q6.71,0,10.39-2.66t5.36-11.63a112.63,112.63,0,0,0,1.68-20.59,122.35,122.35,0,0,0-1.28-19.93,40.88,40.88,0,0,0-3.18-11.1,12,12,0,0,0-4.73-5.29A20.05,20.05,0,0,0,407.75,197.31Z"/><path class="logo_svg2" d="M50.52,12.15V77.7A4.66,4.66,0,0,0,53.09,82c1.15.63,1.72,1.36,1.72,2.21v2.49c0,.85-.58,1.28-1.74,1.28H33.15q-1.47,0-1.47-1.17v-2.6c0-.81.56-1.55,1.68-2.21A4.73,4.73,0,0,0,36,77.7V46H20.48V77.7A4.66,4.66,0,0,0,23,82c1.16.63,1.74,1.36,1.74,2.21v2.49c0,.85-.58,1.28-1.74,1.28h-20q-1.47,0-1.47-1.17v-2.6c0-.81.58-1.55,1.74-2.21A4.75,4.75,0,0,0,5.87,77.7V12.15A4.62,4.62,0,0,0,3.32,7.89C2.16,7.26,1.58,6.51,1.58,5.62V3.18c0-.85.58-1.27,1.74-1.27h20c1,0,1.47.39,1.47,1.16V5.62c0,.85-.58,1.6-1.74,2.27a4.7,4.7,0,0,0-2.55,4.26V38.23H36V12.15a4.6,4.6,0,0,0-2.61-4.26c-1.17-.63-1.75-1.38-1.75-2.27V3.18c0-.85.58-1.27,1.74-1.27H53.27c1,0,1.47.39,1.47,1.16V5.62a2.78,2.78,0,0,1-1.65,2.27A4.7,4.7,0,0,0,50.52,12.15Z"/><path class="logo_svg2" d="M77.31,12.81l-.63-3.76c-.2-1.22-.31-1.9-.31-2.05,0-.37.34-.68,1-.94L88.74,1.69a1.64,1.64,0,0,1,.6-.11,1.17,1.17,0,0,1,1.21,1l18.17,75.07a7.53,7.53,0,0,0,1.17,2.94,8.18,8.18,0,0,0,2.72,1.88c1,.52,1.54,1.11,1.54,1.77v2.44c0,.88-.43,1.33-1.27,1.33H90.48c-1.2,0-1.81-.45-1.81-1.33V84.23q0-1.28,2.16-2.16c1.75-.77,2.63-1.83,2.63-3.16a7.92,7.92,0,0,0-.13-1.27L90.52,66.07H73L70.2,77.21a4.65,4.65,0,0,0-.2,1.05q0,1.65,3,3.65c1.28.89,1.93,1.66,1.93,2.32v2.44c0,.88-.65,1.33-2,1.33H59c-1.56,0-2.34-.45-2.34-1.33V83.79c0-.78.49-1.4,1.47-1.88a6.92,6.92,0,0,0,3.62-4.71Zm4.62,17.78-7,28.4H88.81Z"/><path class="logo_svg2" d="M136,48.41V77.7A4.67,4.67,0,0,0,138.54,82c1.17.63,1.75,1.36,1.75,2.21v2.49c0,.85-.58,1.28-1.75,1.28H117.63c-1,0-1.48-.39-1.48-1.17v-2.6c0-.81.58-1.55,1.75-2.21a4.76,4.76,0,0,0,2.54-4.32V12.15a4.62,4.62,0,0,0-2.54-4.26c-1.17-.63-1.75-1.38-1.75-2.27V3.18c0-.85.58-1.27,1.75-1.27H136q14.75,0,22.83,6.34a20.36,20.36,0,0,1,8.07,16.86Q166.9,48.41,136,48.41ZM136,8.5V41.88q6,0,8.81-1.13a8.78,8.78,0,0,0,4.46-4.54Q151,32.8,151,25.66t-1.54-10.6a9.36,9.36,0,0,0-4.63-5A23,23,0,0,0,136,8.5Z"/><path class="logo_svg2" d="M184.6,48.41V77.7A4.66,4.66,0,0,0,187.15,82c1.16.63,1.74,1.36,1.74,2.21v2.49c0,.85-.58,1.28-1.74,1.28H166.23q-1.47,0-1.47-1.17v-2.6c0-.81.58-1.55,1.74-2.21a4.75,4.75,0,0,0,2.55-4.32V12.15a4.62,4.62,0,0,0-2.55-4.26c-1.16-.63-1.74-1.38-1.74-2.27V3.18c0-.85.58-1.27,1.74-1.27h18.1q14.75,0,22.83,6.34a20.37,20.37,0,0,1,8.08,16.86Q215.51,48.41,184.6,48.41Zm0-39.91V41.88q6,0,8.82-1.13a8.81,8.81,0,0,0,4.46-4.54q1.67-3.41,1.67-10.55T198,15.06a9.36,9.36,0,0,0-4.63-5A22.91,22.91,0,0,0,184.6,8.5Z"/><path class="logo_svg1" d="M127.66,320.81c0,.37-.35.47-.61.47H108.39c-.45,0-.67-.18-.67-.55v-1c0-.32.31-.68.93-1.06a1.88,1.88,0,0,0,.81-1.68V289.47a2,2,0,0,0-1-1.81c-.47-.27-.7-.58-.7-.93v-1.12c0-.29.22-.44.67-.44h17.27c.52,0,.85.13.85.53v6.58a1,1,0,0,1-.13.64,1.45,1.45,0,0,1-.72.1h-1a.68.68,0,0,1-.76-.65,8.68,8.68,0,0,0-1.11-3.1c-.53-.86-1.61-1.29-3.22-1.29H116v13.14h1.29a2.61,2.61,0,0,0,1.66-.38,6.63,6.63,0,0,0,1.12-2.4,1.76,1.76,0,0,1,.31-.68c.1-.09.23-.11.51-.11h1.24c.49,0,.73.19.73.58v8.75c0,.38-.23.56-.68.56h-1.29a.83.83,0,0,1-.59-.17,3.76,3.76,0,0,1-.45-1.08,3.64,3.64,0,0,0-1.1-2,3.1,3.1,0,0,0-1.63-.36H116v14.7h3.79a4.09,4.09,0,0,0,2.93-.83c.54-.54,1.22-2.05,2-4.51a1,1,0,0,1,1-.84H127c.46,0,.7.2.7.58Z"/><path class="logo_svg1" d="M40.29,312.91a8.33,8.33,0,0,1-2.56,6.49A9.47,9.47,0,0,1,31,321.75a9.92,9.92,0,0,1-6.77-2.32,7.7,7.7,0,0,1-2.65-6.08V289.48a1.93,1.93,0,0,0-1.07-1.79c-.48-.28-.73-.6-.73-.95v-1c0-.36.25-.53.73-.53h8.78c.41,0,.61.16.61.48v1.07c0,.35-.24.67-.73.95a1.94,1.94,0,0,0-1.07,1.79V313.6c0,3.22,1.3,4.83,3.88,4.83q4.24,0,4.25-5.66V289.48a1.94,1.94,0,0,0-1.07-1.79c-.49-.28-.73-.6-.73-.95v-1c0-.36.24-.53.73-.53h6.27c.41,0,.62.16.62.48v1.07c0,.35-.24.67-.73.95a1.94,1.94,0,0,0-1.07,1.79Z"/><path class="logo_svg1" d="M45.11,317V289.48A1.94,1.94,0,0,0,44,287.69c-.49-.26-.73-.58-.73-.95v-1c0-.36.24-.53.73-.53h9.57a.68.68,0,0,1,.68.56l3.09,16.36,3.06-16.36a.68.68,0,0,1,.68-.56H70.8c.41,0,.62.16.62.48v1.07c0,.36-.24.67-.73.95a2,2,0,0,0-1.07,1.79V317a2,2,0,0,0,1.1,1.82c.47.26.7.57.7.92v1.05c0,.35-.24.53-.73.53H62.23c-.4,0-.59-.16-.59-.49V319.7c0-.34.23-.65.7-.93A2,2,0,0,0,63.43,317V288.82l-6,32.12a.42.42,0,0,1-.41.34H55.47a.42.42,0,0,1-.41-.34l-5.92-32.12V317a1.94,1.94,0,0,0,1.06,1.81c.48.27.73.58.73.93v1.05c0,.35-.25.53-.73.53H43.93c-.42,0-.62-.16-.62-.49V319.7c0-.34.24-.65.73-.92A2,2,0,0,0,45.11,317Z"/><path class="logo_svg1" d="M260.7,316.89V289.4a1.93,1.93,0,0,0-1.07-1.78c-.49-.27-.73-.59-.73-1v-1c0-.35.24-.53.73-.53h9.57a.71.71,0,0,1,.69.56L273,302,276,285.67a.69.69,0,0,1,.68-.56h9.68c.42,0,.62.16.62.49v1.06c0,.36-.24.68-.73,1a2,2,0,0,0-1.07,1.78v27.49a2,2,0,0,0,1.1,1.81c.47.26.7.57.7.93v1c0,.36-.24.54-.73.54h-8.46c-.39,0-.59-.17-.59-.49v-1.09c0-.34.23-.65.7-.93a2,2,0,0,0,1.09-1.81V288.74l-6,32.13a.43.43,0,0,1-.41.34h-1.55a.43.43,0,0,1-.41-.34l-5.92-32.13v28.15a2,2,0,0,0,1.06,1.81c.49.26.73.57.73.93v1c0,.36-.25.54-.73.54h-6.27c-.42,0-.62-.17-.62-.49v-1.09c0-.34.24-.65.73-.93A2,2,0,0,0,260.7,316.89Z"/><path class="logo_svg1" d="M81,317A2,2,0,0,0,82,318.78c.49.26.73.57.73.92v1.05c0,.35-.24.53-.73.53H73.26c-.41,0-.62-.16-.62-.49V319.7c0-.34.24-.65.73-.92A2,2,0,0,0,74.44,317V289.48a1.94,1.94,0,0,0-1.07-1.79c-.49-.26-.73-.58-.73-.95v-1c0-.36.24-.53.73-.53h8.77c.41,0,.62.16.62.48v1.07c0,.36-.24.67-.73.95A2,2,0,0,0,81,289.48Z"/><path class="logo_svg1" d="M100.59,304.73V289.49a1.93,1.93,0,0,0-1.06-1.79c-.49-.27-.73-.58-.73-1v-1c0-.36.24-.53.73-.53h6.35c.41,0,.62.16.62.48v1.07c0,.36-.24.67-.7.95a2,2,0,0,0-1.1,1.79V320.7c0,.5-.27.74-.82.74h-1.24a1.19,1.19,0,0,1-1.18-.74L89.8,295.4V317a2,2,0,0,0,1.08,1.82c.48.26.72.57.72.92v1.05c0,.35-.24.53-.73.53H84.59c-.4,0-.61-.16-.61-.49V319.7c0-.34.24-.65.73-.92A2,2,0,0,0,85.78,317V289.48a1.94,1.94,0,0,0-1.07-1.79c-.49-.26-.73-.58-.73-.95v-1c0-.36.24-.53.73-.53h5.94a2.1,2.1,0,0,1,.87.12,1.44,1.44,0,0,1,.44.62Z"/><path class="logo_svg1" d="M181.8,289.4v27.49a2,2,0,0,0,1.08,1.81q.72.39.72.93v1c0,.36-.24.54-.73.54h-8.16c-.41,0-.62-.17-.62-.49v-1.09c0-.34.24-.65.7-.93a2,2,0,0,0,1.1-1.81v-13.3H169.4v13.3a1.94,1.94,0,0,0,1.07,1.81c.48.26.73.57.73.93v1c0,.36-.25.54-.73.54h-8.19c-.42,0-.62-.17-.62-.49v-1.09c0-.34.24-.65.73-.93a2,2,0,0,0,1.07-1.81V289.4a1.93,1.93,0,0,0-1.07-1.78c-.49-.27-.73-.59-.73-1v-1c0-.35.24-.53.73-.53h8.19c.41,0,.62.16.62.49v1.06c0,.36-.25.68-.73,1a1.94,1.94,0,0,0-1.07,1.78v10.94h6.49V289.4a1.9,1.9,0,0,0-1.1-1.78c-.48-.27-.73-.59-.73-1v-1c0-.35.25-.53.73-.53H183c.41,0,.61.16.61.49v1.06a1.17,1.17,0,0,1-.69,1A2,2,0,0,0,181.8,289.4Z"/><path class="logo_svg1" d="M193,304.31v12.58A2,2,0,0,0,194,318.7c.49.26.73.57.73.93v1c0,.36-.24.54-.73.54h-8.77c-.41,0-.62-.17-.62-.49v-1.09c0-.34.25-.65.73-.93a2,2,0,0,0,1.07-1.81V289.4a1.91,1.91,0,0,0-1.07-1.78c-.48-.27-.73-.59-.73-1v-1c0-.35.25-.53.73-.53h7.37q6.24,0,9.5,2.32a7.73,7.73,0,0,1,3.26,6.71q0,7-7.84,9a10.82,10.82,0,0,1,3.5,2.1,7.71,7.71,0,0,1,1.84,3.45l2.05,7.36a5.94,5.94,0,0,0,.78,1.91,2.79,2.79,0,0,0,1,.84.77.77,0,0,1,.46.78v1.09c0,.34-.21.51-.62.51h-5.6a1,1,0,0,1-1-.75l-3.85-12.76a5.78,5.78,0,0,0-1.36-2.74A2.91,2.91,0,0,0,193,304.31Zm0-16.39v13.62a5.71,5.71,0,0,0,4.47-1.58q1.44-1.57,1.44-5.61c0-2.63-.49-4.36-1.45-5.19A6.73,6.73,0,0,0,193,287.92Z"/><path class="logo_svg1" d="M216.74,316.89a1.94,1.94,0,0,0,1.07,1.81c.48.26.73.57.73.93v1c0,.36-.25.54-.73.54H209c-.42,0-.62-.17-.62-.49v-1.09c0-.34.24-.65.73-.93a2,2,0,0,0,1.07-1.81V289.4a1.93,1.93,0,0,0-1.07-1.78c-.49-.27-.73-.59-.73-1v-1c0-.35.24-.53.73-.53h8.77c.41,0,.62.16.62.49v1.06c0,.36-.25.68-.73,1a1.94,1.94,0,0,0-1.07,1.78Z"/><path class="logo_svg1" d="M221.86,321.21h-1.4c-.47,0-.7-.21-.7-.63v-8.06c0-.59.25-.88.76-.88h1.2a.69.69,0,0,1,.64.27,9.31,9.31,0,0,1,.43,1.84c.77,4.06,3,5.39,5.26,5.39a4.08,4.08,0,0,0,3.36-1.53,5.8,5.8,0,0,0,1.22-3.72,7.26,7.26,0,0,0-1.31-4.18,32,32,0,0,0-5-5.2,46.67,46.67,0,0,1-4.12-3.88,11.36,11.36,0,0,1-2-3.13,9.55,9.55,0,0,1-.74-3.83,8.86,8.86,0,0,1,2.34-6.33,7.59,7.59,0,0,1,5.73-2.49,8.64,8.64,0,0,1,3.31.73c.39.16.57.2.77.27a.52.52,0,0,0,.63-.26,1.12,1.12,0,0,1,1.13-.48h1c.55,0,.82.21.82.62v7c0,.39-.21.58-.62.58h-1.29c-.34,0-.56-.07-.66-.22a7.67,7.67,0,0,1-.55-1.68c-.88-3.36-2.32-3.92-4.3-3.92a3.27,3.27,0,0,0-2.58,1.11,3.87,3.87,0,0,0-1,2.58,6.41,6.41,0,0,0,1.14,3.47,24,24,0,0,0,4.54,4.65,28.55,28.55,0,0,1,6,6.49,11.6,11.6,0,0,1,1.68,6.07,9.67,9.67,0,0,1-2.8,7.18,9.15,9.15,0,0,1-6.65,2.76,13.3,13.3,0,0,1-4-.75,3.78,3.78,0,0,0-1-.26,1.66,1.66,0,0,0-.73.24A1.35,1.35,0,0,1,221.86,321.21Z"/><path class="logo_svg1" d="M316,321.21h-1.41c-.46,0-.7-.21-.7-.63v-8.06c0-.59.25-.88.76-.88h1.21a.66.66,0,0,1,.63.27,9,9,0,0,1,.44,1.84c.77,4.06,3,5.39,5.25,5.39a4.05,4.05,0,0,0,3.36-1.53,5.75,5.75,0,0,0,1.23-3.72,7.33,7.33,0,0,0-1.31-4.18,31.7,31.7,0,0,0-5.05-5.2,46.21,46.21,0,0,1-4.11-3.88,11.13,11.13,0,0,1-2-3.13,9.55,9.55,0,0,1-.75-3.83,8.82,8.82,0,0,1,2.35-6.33,7.55,7.55,0,0,1,5.72-2.49,8.69,8.69,0,0,1,3.32.73c.39.16.57.2.76.27a.52.52,0,0,0,.64-.26,1.12,1.12,0,0,1,1.13-.48h1c.54,0,.81.21.81.62v7c0,.39-.2.58-.61.58h-1.3c-.34,0-.56-.07-.66-.22a9.1,9.1,0,0,1-.55-1.68c-.88-3.36-2.31-3.92-4.3-3.92a3.25,3.25,0,0,0-2.57,1.11,3.82,3.82,0,0,0-1,2.58,6.41,6.41,0,0,0,1.14,3.47,24,24,0,0,0,4.54,4.65,29,29,0,0,1,6,6.49,11.68,11.68,0,0,1,1.67,6.07,9.64,9.64,0,0,1-2.8,7.18,9.13,9.13,0,0,1-6.64,2.76,13.2,13.2,0,0,1-4-.75,3.86,3.86,0,0,0-1-.26,1.69,1.69,0,0,0-.74.24A1.32,1.32,0,0,1,316,321.21Z"/><path class="logo_svg1" d="M250.36,288.29v28.6a2,2,0,0,0,1.07,1.81c.49.26.73.57.73.93v1c0,.36-.24.54-.73.54h-8.77c-.41,0-.62-.17-.62-.49v-1.09c0-.34.24-.65.73-.93a2,2,0,0,0,1.07-1.81v-28.6H242.6a2.39,2.39,0,0,0-2,.86,10,10,0,0,0-1.19,3.78c0,.26-.24.39-.59.39h-1.1c-.64,0-1-.22-1-.67v-6.76q0-.78.9-.78a18.83,18.83,0,0,1,2,.18,29.5,29.5,0,0,0,3.49.3h9.95c.51-.06,1.12-.14,1.86-.25,1.12-.14,1.74-.21,1.85-.21.51,0,.76.19.76.58v6.94c0,.45-.24.67-.73.67h-1.07c-.43,0-.69-.1-.77-.3a11.78,11.78,0,0,1-.41-1.51,7,7,0,0,0-1-2.61,2.4,2.4,0,0,0-1.88-.61Z"/><path class="logo_svg1" d="M297.06,289.68l-.27-1.58c-.09-.51-.13-.8-.13-.86s.14-.28.42-.39l4.76-1.83a.55.55,0,0,1,.26,0,.5.5,0,0,1,.51.41l7.61,31.48a2.35,2.35,0,0,0,1.64,2c.43.22.64.47.64.75v1c0,.37-.18.56-.53.56h-9.39c-.51,0-.76-.19-.76-.56v-1c0-.36.3-.66.9-.91s1.11-.77,1.11-1.32a2.78,2.78,0,0,0-.06-.54L302.59,312h-7.34l-1.18,4.67a2.18,2.18,0,0,0-.08.44q0,.7,1.26,1.53c.54.37.81.7.81,1v1c0,.37-.28.56-.82.56h-5.88c-.65,0-1-.19-1-.56v-1.21a.91.91,0,0,1,.62-.79,2.9,2.9,0,0,0,1.52-2Zm1.93,7.45L296.05,309h5.83Z"/><path class="logo_svg1" d="M373.78,284.61q4.91,0,7.46,4.67T383.81,303q0,9.14-2.61,13.7t-7.13,4.56q-4.36,0-7.17-4.5t-2.79-13.19q0-9.64,2.72-14.28C368.65,286.15,371,284.61,373.78,284.61Zm3.59,11.26q0-8.78-3.38-8.78c-1.35,0-2.24.9-2.69,2.71a29.08,29.08,0,0,0-.67,6.77v14.15q0,8.11,3.36,8.11c1.18,0,2-.71,2.57-2.13s.81-4.22.81-8.41Z"/><path class="logo_svg1" d="M387.18,289.47h-3.93c-.35,0-.53-.14-.53-.41v-1.32a.66.66,0,0,1,.47-.63l5.89-2.16a4.12,4.12,0,0,1,1.45-.34h2.13c.41,0,.61.17.61.5v30.28a3.34,3.34,0,0,0,.53,2.12,2.81,2.81,0,0,0,2,.72c.53,0,.79.26.79.62v1.38c0,.32-.2.48-.59.48H384.33c-.47,0-.7-.17-.7-.51V319q0-.64,1.05-.81a3.49,3.49,0,0,0,1.91-.77,2.81,2.81,0,0,0,.59-2Z"/><path class="logo_svg1" d="M402.53,302.9a19.14,19.14,0,0,1-4.28-5,9.83,9.83,0,0,1-1.17-4.67,8.42,8.42,0,0,1,2.42-6.14,8.51,8.51,0,0,1,6.38-2.47,9.1,9.1,0,0,1,6.33,2.24,6.74,6.74,0,0,1,2.47,5.12q0,4-5.71,8.43,7.38,5,7.37,11.21a9.27,9.27,0,0,1-2.74,6.91,10.14,10.14,0,0,1-7.43,2.69,10.56,10.56,0,0,1-7.34-2.56,7.89,7.89,0,0,1-2.86-6.08Q396,307.58,402.53,302.9Zm1.81,1.3q-3.79,4.19-3.79,8.33a6.32,6.32,0,0,0,1.63,4.52,5.5,5.5,0,0,0,4.17,1.73,4.92,4.92,0,0,0,3.66-1.43,4.86,4.86,0,0,0,1.41-3.55Q411.42,309.18,404.34,304.2Zm3-5.18q3.31-3.52,3.32-6.69a5.48,5.48,0,0,0-1.38-3.81,4.36,4.36,0,0,0-3.34-1.53,4.24,4.24,0,0,0-3.06,1.16,3.91,3.91,0,0,0-1.19,3Q401.66,295.13,407.31,299Z"/><path class="logo_svg3" d="M245.67,49.64V77.7A4.65,4.65,0,0,0,248.28,82c1.12.63,1.68,1.36,1.68,2.21v2.49c0,.85-.59,1.28-1.75,1.28H227.29q-1.47,0-1.47-1.17v-2.6c0-.81.58-1.55,1.74-2.21a4.75,4.75,0,0,0,2.55-4.32V49.62L216.7,12.15a7,7,0,0,0-4-4.37,2,2,0,0,1-1.54-1.88V3.13c0-.81.42-1.22,1.27-1.22h21.66c1.25,0,1.87.48,1.87,1.44V6c0,.66-.62,1.18-1.87,1.55-2,.59-2.94,1.43-2.94,2.54a3.43,3.43,0,0,0,.26,1.22l9.82,26.91L250,13.6a8.34,8.34,0,0,0,.47-2.66q0-2.1-3-3.21c-1.16-.41-1.74-.94-1.74-1.61V3.18c0-.85.51-1.27,1.54-1.27H264c1.3,0,1.94.41,1.94,1.22V6c0,.81-.65,1.46-1.94,1.93a8.16,8.16,0,0,0-5,4.65Z"/><path class="logo_svg3" d="M330.62,275.69c0,.87-.84,1.12-1.46,1.12H284.69c-1.07,0-1.61-.44-1.61-1.33V273c0-.77.74-1.62,2.22-2.54a4.44,4.44,0,0,0,1.94-4V201a4.69,4.69,0,0,0-2.48-4.31q-1.68-.94-1.68-2.22v-2.66c0-.7.54-1.05,1.61-1.05h41.16c1.25,0,2,.3,2,1.25v15.69q0,1.28-.3,1.53a3.5,3.5,0,0,1-1.71.24h-2.48a1.61,1.61,0,0,1-1.81-1.55,20.65,20.65,0,0,0-2.65-7.39c-1.28-2-3.84-3.07-7.68-3.07h-8.45v31.34h3.09c1.92,0,3.24-.31,3.95-.92s1.61-2.52,2.69-5.73a4,4,0,0,1,.73-1.6c.24-.23.54-.28,1.21-.28h3q1.74,0,1.74,1.38v20.88c0,.88-.53,1.32-1.61,1.32h-3.08a1.92,1.92,0,0,1-1.41-.41,8.54,8.54,0,0,1-1.07-2.58q-1.22-3.93-2.62-4.78a7.34,7.34,0,0,0-3.88-.86h-2.69v35h9c3.36,0,5.68-.65,7-2s2.9-4.9,4.82-10.77a2.49,2.49,0,0,1,2.42-2h2.88c1.12,0,1.68.47,1.68,1.39Z"/><path class="logo_svg3" d="M372.21,237.27V200.93a4.62,4.62,0,0,0-2.55-4.27q-1.74-.94-1.74-2.28v-2.44c0-.85.58-1.27,1.74-1.27h15.15c1,0,1.48.38,1.48,1.16v2.54a2.77,2.77,0,0,1-1.68,2.27,4.69,4.69,0,0,0-2.61,4.27v74.46q0,1.77-1.95,1.77h-3a2.86,2.86,0,0,1-2.82-1.77L346.46,215v51.44a4.65,4.65,0,0,0,2.58,4.31q1.71.94,1.71,2.22v2.49c0,.85-.57,1.27-1.73,1.27h-15c-1,0-1.47-.39-1.47-1.16V273c0-.81.59-1.55,1.75-2.22a4.72,4.72,0,0,0,2.55-4.31V200.91a4.62,4.62,0,0,0-2.55-4.27c-1.16-.62-1.75-1.38-1.75-2.27v-2.43c0-.85.58-1.27,1.74-1.27h14.16a4.73,4.73,0,0,1,2.07.3,3.11,3.11,0,0,1,1.07,1.47Z"/><path class="logo_svg3" d="M388.1,194.43v-2.88c0-.55.52-.83,1.55-.83h17.43A34.16,34.16,0,0,1,432,200.66q10.13,9.93,10.12,32.25a78.16,78.16,0,0,1-3.05,22q-3,10.5-9.79,16.2t-22.69,5.7H389.31c-.8,0-1.21-.31-1.21-.94V273c0-.81.56-1.55,1.68-2.21a4.84,4.84,0,0,0,2.48-4.32V201a4.37,4.37,0,0,0-2.21-4.09C388.75,196.09,388.1,195.28,388.1,194.43Zm19.65,2.88v73.08q6.71,0,10.39-2.66t5.36-11.63a112.63,112.63,0,0,0,1.68-20.59,122.35,122.35,0,0,0-1.28-19.93,40.88,40.88,0,0,0-3.18-11.1,12,12,0,0,0-4.73-5.29A20.05,20.05,0,0,0,407.75,197.31Z"/><path class="logo_svg3" d="M50.52,12.15V77.7A4.66,4.66,0,0,0,53.09,82c1.15.63,1.72,1.36,1.72,2.21v2.49c0,.85-.58,1.28-1.74,1.28H33.15q-1.47,0-1.47-1.17v-2.6c0-.81.56-1.55,1.68-2.21A4.73,4.73,0,0,0,36,77.7V46H20.48V77.7A4.66,4.66,0,0,0,23,82c1.16.63,1.74,1.36,1.74,2.21v2.49c0,.85-.58,1.28-1.74,1.28h-20q-1.47,0-1.47-1.17v-2.6c0-.81.58-1.55,1.74-2.21A4.75,4.75,0,0,0,5.87,77.7V12.15A4.62,4.62,0,0,0,3.32,7.89C2.16,7.26,1.58,6.51,1.58,5.62V3.18c0-.85.58-1.27,1.74-1.27h20c1,0,1.47.39,1.47,1.16V5.62c0,.85-.58,1.6-1.74,2.27a4.7,4.7,0,0,0-2.55,4.26V38.23H36V12.15a4.6,4.6,0,0,0-2.61-4.26c-1.17-.63-1.75-1.38-1.75-2.27V3.18c0-.85.58-1.27,1.74-1.27H53.27c1,0,1.47.39,1.47,1.16V5.62a2.78,2.78,0,0,1-1.65,2.27A4.7,4.7,0,0,0,50.52,12.15Z"/><path class="logo_svg3" d="M77.31,12.81l-.63-3.76c-.2-1.22-.31-1.9-.31-2.05,0-.37.34-.68,1-.94L88.74,1.69a1.64,1.64,0,0,1,.6-.11,1.17,1.17,0,0,1,1.21,1l18.17,75.07a7.53,7.53,0,0,0,1.17,2.94,8.18,8.18,0,0,0,2.72,1.88c1,.52,1.54,1.11,1.54,1.77v2.44c0,.88-.43,1.33-1.27,1.33H90.48c-1.2,0-1.81-.45-1.81-1.33V84.23q0-1.28,2.16-2.16c1.75-.77,2.63-1.83,2.63-3.16a7.92,7.92,0,0,0-.13-1.27L90.52,66.07H73L70.2,77.21a4.65,4.65,0,0,0-.2,1.05q0,1.65,3,3.65c1.28.89,1.93,1.66,1.93,2.32v2.44c0,.88-.65,1.33-2,1.33H59c-1.56,0-2.34-.45-2.34-1.33V83.79c0-.78.49-1.4,1.47-1.88a6.92,6.92,0,0,0,3.62-4.71Zm4.62,17.78-7,28.4H88.81Z"/><path class="logo_svg3" d="M136,48.41V77.7A4.67,4.67,0,0,0,138.54,82c1.17.63,1.75,1.36,1.75,2.21v2.49c0,.85-.58,1.28-1.75,1.28H117.63c-1,0-1.48-.39-1.48-1.17v-2.6c0-.81.58-1.55,1.75-2.21a4.76,4.76,0,0,0,2.54-4.32V12.15a4.62,4.62,0,0,0-2.54-4.26c-1.17-.63-1.75-1.38-1.75-2.27V3.18c0-.85.58-1.27,1.75-1.27H136q14.75,0,22.83,6.34a20.36,20.36,0,0,1,8.07,16.86Q166.9,48.41,136,48.41ZM136,8.5V41.88q6,0,8.81-1.13a8.78,8.78,0,0,0,4.46-4.54Q151,32.8,151,25.66t-1.54-10.6a9.36,9.36,0,0,0-4.63-5A23,23,0,0,0,136,8.5Z"/><path class="logo_svg3" d="M184.6,48.41V77.7A4.66,4.66,0,0,0,187.15,82c1.16.63,1.74,1.36,1.74,2.21v2.49c0,.85-.58,1.28-1.74,1.28H166.23q-1.47,0-1.47-1.17v-2.6c0-.81.58-1.55,1.74-2.21a4.75,4.75,0,0,0,2.55-4.32V12.15a4.62,4.62,0,0,0-2.55-4.26c-1.16-.63-1.74-1.38-1.74-2.27V3.18c0-.85.58-1.27,1.74-1.27h18.1q14.75,0,22.83,6.34a20.37,20.37,0,0,1,8.08,16.86Q215.51,48.41,184.6,48.41Zm0-39.91V41.88q6,0,8.82-1.13a8.81,8.81,0,0,0,4.46-4.54q1.67-3.41,1.67-10.55T198,15.06a9.36,9.36,0,0,0-4.63-5A22.91,22.91,0,0,0,184.6,8.5Z"/><path class="logo_svg2" d="M245.67,144.05v28.06a4.65,4.65,0,0,0,2.61,4.32c1.12.63,1.68,1.37,1.68,2.21v2.5c0,.85-.59,1.27-1.75,1.27H227.29c-1,0-1.47-.39-1.47-1.16v-2.61c0-.81.58-1.55,1.74-2.21a4.75,4.75,0,0,0,2.55-4.32V144L216.7,106.56a7,7,0,0,0-4-4.37,2,2,0,0,1-1.54-1.88V97.54c0-.81.42-1.22,1.27-1.22h21.66c1.25,0,1.87.48,1.87,1.44v2.66c0,.66-.62,1.18-1.87,1.55-2,.59-2.94,1.44-2.94,2.54a3.43,3.43,0,0,0,.26,1.22l9.82,26.91L250,108a8.34,8.34,0,0,0,.47-2.66q0-2.1-3-3.21c-1.16-.41-1.74-.94-1.74-1.61V97.6c0-.85.51-1.28,1.54-1.28H264c1.3,0,1.94.41,1.94,1.22v2.88c0,.81-.65,1.46-1.94,1.94a8.11,8.11,0,0,0-5,4.65Z"/><path class="logo_svg2" d="M50.52,106.56v65.55a4.66,4.66,0,0,0,2.57,4.32c1.15.63,1.72,1.37,1.72,2.21v2.5c0,.85-.58,1.27-1.74,1.27H33.15c-1,0-1.47-.39-1.47-1.16v-2.61c0-.81.56-1.55,1.68-2.21A4.73,4.73,0,0,0,36,172.11V140.39H20.48v31.72A4.66,4.66,0,0,0,23,176.43c1.16.63,1.74,1.37,1.74,2.21v2.5c0,.85-.58,1.27-1.74,1.27h-20c-1,0-1.47-.39-1.47-1.16v-2.61c0-.81.58-1.55,1.74-2.21a4.75,4.75,0,0,0,2.55-4.32V106.56a4.62,4.62,0,0,0-2.55-4.26c-1.16-.63-1.74-1.38-1.74-2.27V97.6c0-.85.58-1.28,1.74-1.28h20q1.47,0,1.47,1.17V100c0,.85-.58,1.61-1.74,2.27a4.7,4.7,0,0,0-2.55,4.26v26.08H36V106.56a4.6,4.6,0,0,0-2.61-4.26c-1.17-.63-1.75-1.38-1.75-2.27V97.6c0-.85.58-1.28,1.74-1.28H53.27q1.47,0,1.47,1.17V100a2.77,2.77,0,0,1-1.65,2.27A4.7,4.7,0,0,0,50.52,106.56Z"/><path class="logo_svg2" d="M77.31,107.22l-.63-3.76c-.2-1.22-.31-1.9-.31-2,0-.37.34-.68,1-.94L88.74,96.1a1.64,1.64,0,0,1,.6-.11,1.17,1.17,0,0,1,1.21,1l18.17,75.08a7.54,7.54,0,0,0,1.17,2.93,8.18,8.18,0,0,0,2.72,1.88c1,.52,1.54,1.11,1.54,1.77v2.44c0,.89-.43,1.33-1.27,1.33H90.48c-1.2,0-1.81-.44-1.81-1.33v-2.44q0-1.27,2.16-2.16c1.75-.77,2.63-1.82,2.63-3.15a8,8,0,0,0-.13-1.28l-2.81-11.56H73l-2.8,11.13a4.65,4.65,0,0,0-.2,1c0,1.11,1,2.32,3,3.65,1.28.89,1.93,1.66,1.93,2.33v2.43c0,.89-.65,1.33-2,1.33H59c-1.56,0-2.34-.44-2.34-1.33V178.2c0-.77.49-1.4,1.47-1.88a6.92,6.92,0,0,0,3.62-4.71ZM81.93,125l-7,28.4H88.81Z"/><path class="logo_svg2" d="M136,142.83v29.28a4.67,4.67,0,0,0,2.54,4.32c1.17.63,1.75,1.37,1.75,2.21v2.5c0,.85-.58,1.27-1.75,1.27H117.63c-1,0-1.48-.39-1.48-1.16v-2.61c0-.81.58-1.55,1.75-2.21a4.76,4.76,0,0,0,2.54-4.32V106.56a4.62,4.62,0,0,0-2.54-4.26c-1.17-.63-1.75-1.38-1.75-2.27V97.6c0-.85.58-1.28,1.75-1.28H136q14.75,0,22.83,6.34a20.37,20.37,0,0,1,8.07,16.86Q166.9,142.83,136,142.83Zm0-39.92v33.38c4,0,7-.37,8.81-1.13a8.78,8.78,0,0,0,4.46-4.54q1.68-3.41,1.68-10.55t-1.54-10.6a9.34,9.34,0,0,0-4.63-5A22.93,22.93,0,0,0,136,102.91Z"/><path class="logo_svg2" d="M184.6,142.83v29.28a4.66,4.66,0,0,0,2.55,4.32c1.16.63,1.74,1.37,1.74,2.21v2.5c0,.85-.58,1.27-1.74,1.27H166.23c-1,0-1.47-.39-1.47-1.16v-2.61c0-.81.58-1.55,1.74-2.21a4.75,4.75,0,0,0,2.55-4.32V106.56a4.62,4.62,0,0,0-2.55-4.26c-1.16-.63-1.74-1.38-1.74-2.27V97.6c0-.85.58-1.28,1.74-1.28h18.1q14.75,0,22.83,6.34a20.38,20.38,0,0,1,8.08,16.86Q215.51,142.83,184.6,142.83Zm0-39.92v33.38c4,0,7-.37,8.82-1.13a8.81,8.81,0,0,0,4.46-4.54q1.67-3.41,1.67-10.55T198,109.47a9.34,9.34,0,0,0-4.63-5A22.88,22.88,0,0,0,184.6,102.91Z"/><path class="logo_svg3" d="M245.67,144.05v28.06a4.65,4.65,0,0,0,2.61,4.32c1.12.63,1.68,1.37,1.68,2.21v2.5c0,.85-.59,1.27-1.75,1.27H227.29c-1,0-1.47-.39-1.47-1.16v-2.61c0-.81.58-1.55,1.74-2.21a4.75,4.75,0,0,0,2.55-4.32V144L216.7,106.56a7,7,0,0,0-4-4.37,2,2,0,0,1-1.54-1.88V97.54c0-.81.42-1.22,1.27-1.22h21.66c1.25,0,1.87.48,1.87,1.44v2.66c0,.66-.62,1.18-1.87,1.55-2,.59-2.94,1.44-2.94,2.54a3.43,3.43,0,0,0,.26,1.22l9.82,26.91L250,108a8.34,8.34,0,0,0,.47-2.66q0-2.1-3-3.21c-1.16-.41-1.74-.94-1.74-1.61V97.6c0-.85.51-1.28,1.54-1.28H264c1.3,0,1.94.41,1.94,1.22v2.88c0,.81-.65,1.46-1.94,1.94a8.11,8.11,0,0,0-5,4.65Z"/><path class="logo_svg3" d="M50.52,106.56v65.55a4.66,4.66,0,0,0,2.57,4.32c1.15.63,1.72,1.37,1.72,2.21v2.5c0,.85-.58,1.27-1.74,1.27H33.15c-1,0-1.47-.39-1.47-1.16v-2.61c0-.81.56-1.55,1.68-2.21A4.73,4.73,0,0,0,36,172.11V140.39H20.48v31.72A4.66,4.66,0,0,0,23,176.43c1.16.63,1.74,1.37,1.74,2.21v2.5c0,.85-.58,1.27-1.74,1.27h-20c-1,0-1.47-.39-1.47-1.16v-2.61c0-.81.58-1.55,1.74-2.21a4.75,4.75,0,0,0,2.55-4.32V106.56a4.62,4.62,0,0,0-2.55-4.26c-1.16-.63-1.74-1.38-1.74-2.27V97.6c0-.85.58-1.28,1.74-1.28h20q1.47,0,1.47,1.17V100c0,.85-.58,1.61-1.74,2.27a4.7,4.7,0,0,0-2.55,4.26v26.08H36V106.56a4.6,4.6,0,0,0-2.61-4.26c-1.17-.63-1.75-1.38-1.75-2.27V97.6c0-.85.58-1.28,1.74-1.28H53.27q1.47,0,1.47,1.17V100a2.77,2.77,0,0,1-1.65,2.27A4.7,4.7,0,0,0,50.52,106.56Z"/><path class="logo_svg3" d="M77.31,107.22l-.63-3.76c-.2-1.22-.31-1.9-.31-2,0-.37.34-.68,1-.94L88.74,96.1a1.64,1.64,0,0,1,.6-.11,1.17,1.17,0,0,1,1.21,1l18.17,75.08a7.54,7.54,0,0,0,1.17,2.93,8.18,8.18,0,0,0,2.72,1.88c1,.52,1.54,1.11,1.54,1.77v2.44c0,.89-.43,1.33-1.27,1.33H90.48c-1.2,0-1.81-.44-1.81-1.33v-2.44q0-1.27,2.16-2.16c1.75-.77,2.63-1.82,2.63-3.15a8,8,0,0,0-.13-1.28l-2.81-11.56H73l-2.8,11.13a4.65,4.65,0,0,0-.2,1c0,1.11,1,2.32,3,3.65,1.28.89,1.93,1.66,1.93,2.33v2.43c0,.89-.65,1.33-2,1.33H59c-1.56,0-2.34-.44-2.34-1.33V178.2c0-.77.49-1.4,1.47-1.88a6.92,6.92,0,0,0,3.62-4.71ZM81.93,125l-7,28.4H88.81Z"/><path class="logo_svg3" d="M136,142.83v29.28a4.67,4.67,0,0,0,2.54,4.32c1.17.63,1.75,1.37,1.75,2.21v2.5c0,.85-.58,1.27-1.75,1.27H117.63c-1,0-1.48-.39-1.48-1.16v-2.61c0-.81.58-1.55,1.75-2.21a4.76,4.76,0,0,0,2.54-4.32V106.56a4.62,4.62,0,0,0-2.54-4.26c-1.17-.63-1.75-1.38-1.75-2.27V97.6c0-.85.58-1.28,1.75-1.28H136q14.75,0,22.83,6.34a20.37,20.37,0,0,1,8.07,16.86Q166.9,142.83,136,142.83Zm0-39.92v33.38c4,0,7-.37,8.81-1.13a8.78,8.78,0,0,0,4.46-4.54q1.68-3.41,1.68-10.55t-1.54-10.6a9.34,9.34,0,0,0-4.63-5A22.93,22.93,0,0,0,136,102.91Z"/><path class="logo_svg3" d="M184.6,142.83v29.28a4.66,4.66,0,0,0,2.55,4.32c1.16.63,1.74,1.37,1.74,2.21v2.5c0,.85-.58,1.27-1.74,1.27H166.23c-1,0-1.47-.39-1.47-1.16v-2.61c0-.81.58-1.55,1.74-2.21a4.75,4.75,0,0,0,2.55-4.32V106.56a4.62,4.62,0,0,0-2.55-4.26c-1.16-.63-1.74-1.38-1.74-2.27V97.6c0-.85.58-1.28,1.74-1.28h18.1q14.75,0,22.83,6.34a20.38,20.38,0,0,1,8.08,16.86Q215.51,142.83,184.6,142.83Zm0-39.92v33.38c4,0,7-.37,8.82-1.13a8.81,8.81,0,0,0,4.46-4.54q1.67-3.41,1.67-10.55T198,109.47a9.34,9.34,0,0,0-4.63-5A22.88,22.88,0,0,0,184.6,102.91Z"/><path class="logo_svg2" d="M245.67,238.45v28.06a4.65,4.65,0,0,0,2.61,4.32c1.12.63,1.68,1.37,1.68,2.21v2.5c0,.85-.59,1.27-1.75,1.27H227.29c-1,0-1.47-.39-1.47-1.16V273c0-.81.58-1.55,1.74-2.21a4.75,4.75,0,0,0,2.55-4.32V238.43L216.7,201a7,7,0,0,0-4-4.37,2,2,0,0,1-1.54-1.88v-2.77c0-.81.42-1.22,1.27-1.22h21.66c1.25,0,1.87.48,1.87,1.44v2.66c0,.66-.62,1.18-1.87,1.55-2,.59-2.94,1.44-2.94,2.54a3.43,3.43,0,0,0,.26,1.22L241.21,227,250,202.41a8.34,8.34,0,0,0,.47-2.66q0-2.1-3-3.21c-1.16-.41-1.74-.94-1.74-1.61V192c0-.85.51-1.28,1.54-1.28H264c1.3,0,1.94.41,1.94,1.22v2.88c0,.81-.65,1.46-1.94,1.94a8.11,8.11,0,0,0-5,4.65Z"/><path class="logo_svg2" d="M50.52,201v65.55a4.66,4.66,0,0,0,2.57,4.32c1.15.63,1.72,1.37,1.72,2.21v2.5c0,.85-.58,1.27-1.74,1.27H33.15c-1,0-1.47-.39-1.47-1.16V273c0-.81.56-1.55,1.68-2.21A4.73,4.73,0,0,0,36,266.51V234.79H20.48v31.72A4.66,4.66,0,0,0,23,270.83c1.16.63,1.74,1.37,1.74,2.21v2.5c0,.85-.58,1.27-1.74,1.27h-20c-1,0-1.47-.39-1.47-1.16V273c0-.81.58-1.55,1.74-2.21a4.75,4.75,0,0,0,2.55-4.32V201a4.62,4.62,0,0,0-2.55-4.26c-1.16-.63-1.74-1.38-1.74-2.27V192c0-.85.58-1.28,1.74-1.28h20c1,0,1.47.39,1.47,1.16v2.55c0,.85-.58,1.61-1.74,2.27A4.7,4.7,0,0,0,20.48,201V227H36V201a4.6,4.6,0,0,0-2.61-4.26c-1.17-.63-1.75-1.38-1.75-2.27V192c0-.85.58-1.28,1.74-1.28H53.27c1,0,1.47.39,1.47,1.16v2.55a2.77,2.77,0,0,1-1.65,2.27A4.7,4.7,0,0,0,50.52,201Z"/><path class="logo_svg2" d="M77.31,201.62l-.63-3.76c-.2-1.22-.31-1.9-.31-2.05,0-.37.34-.68,1-.94l11.36-4.37a1.64,1.64,0,0,1,.6-.11,1.17,1.17,0,0,1,1.21,1l18.17,75.08a7.54,7.54,0,0,0,1.17,2.93,8.18,8.18,0,0,0,2.72,1.88c1,.52,1.54,1.11,1.54,1.77v2.44c0,.89-.43,1.33-1.27,1.33H90.48c-1.2,0-1.81-.44-1.81-1.33V273q0-1.28,2.16-2.16c1.75-.77,2.63-1.82,2.63-3.15a8,8,0,0,0-.13-1.28l-2.81-11.56H73L70.2,266a4.65,4.65,0,0,0-.2,1.05c0,1.11,1,2.32,3,3.65,1.28.89,1.93,1.66,1.93,2.33v2.43c0,.89-.65,1.33-2,1.33H59c-1.56,0-2.34-.44-2.34-1.33V272.6c0-.77.49-1.4,1.47-1.88A6.92,6.92,0,0,0,61.72,266Zm4.62,17.78-7,28.4H88.81Z"/><path class="logo_svg2" d="M136,237.23v29.28a4.67,4.67,0,0,0,2.54,4.32c1.17.63,1.75,1.37,1.75,2.21v2.5c0,.85-.58,1.27-1.75,1.27H117.63c-1,0-1.48-.39-1.48-1.16V273c0-.81.58-1.55,1.75-2.21a4.76,4.76,0,0,0,2.54-4.32V201a4.62,4.62,0,0,0-2.54-4.26c-1.17-.63-1.75-1.38-1.75-2.27V192c0-.85.58-1.28,1.75-1.28H136q14.75,0,22.83,6.34a20.37,20.37,0,0,1,8.07,16.86Q166.9,237.23,136,237.23Zm0-39.92v33.38c4,0,7-.37,8.81-1.13a8.78,8.78,0,0,0,4.46-4.54q1.68-3.41,1.68-10.55t-1.54-10.6a9.34,9.34,0,0,0-4.63-5A22.93,22.93,0,0,0,136,197.31Z"/><path class="logo_svg2" d="M184.6,237.23v29.28a4.66,4.66,0,0,0,2.55,4.32c1.16.63,1.74,1.37,1.74,2.21v2.5c0,.85-.58,1.27-1.74,1.27H166.23c-1,0-1.47-.39-1.47-1.16V273c0-.81.58-1.55,1.74-2.21a4.75,4.75,0,0,0,2.55-4.32V201a4.62,4.62,0,0,0-2.55-4.26c-1.16-.63-1.74-1.38-1.74-2.27V192c0-.85.58-1.28,1.74-1.28h18.1q14.75,0,22.83,6.34a20.38,20.38,0,0,1,8.08,16.86Q215.51,237.23,184.6,237.23Zm0-39.92v33.38c4,0,7-.37,8.82-1.13a8.81,8.81,0,0,0,4.46-4.54q1.67-3.41,1.67-10.55T198,203.87a9.34,9.34,0,0,0-4.63-5A22.88,22.88,0,0,0,184.6,197.31Z"/><path class="logo_svg3" d="M245.67,238.45v28.06a4.65,4.65,0,0,0,2.61,4.32c1.12.63,1.68,1.37,1.68,2.21v2.5c0,.85-.59,1.27-1.75,1.27H227.29c-1,0-1.47-.39-1.47-1.16V273c0-.81.58-1.55,1.74-2.21a4.75,4.75,0,0,0,2.55-4.32V238.43L216.7,201a7,7,0,0,0-4-4.37,2,2,0,0,1-1.54-1.88v-2.77c0-.81.42-1.22,1.27-1.22h21.66c1.25,0,1.87.48,1.87,1.44v2.66c0,.66-.62,1.18-1.87,1.55-2,.59-2.94,1.44-2.94,2.54a3.43,3.43,0,0,0,.26,1.22L241.21,227,250,202.41a8.34,8.34,0,0,0,.47-2.66q0-2.1-3-3.21c-1.16-.41-1.74-.94-1.74-1.61V192c0-.85.51-1.28,1.54-1.28H264c1.3,0,1.94.41,1.94,1.22v2.88c0,.81-.65,1.46-1.94,1.94a8.11,8.11,0,0,0-5,4.65Z"/><path class="logo_svg3" d="M50.52,201v65.55a4.66,4.66,0,0,0,2.57,4.32c1.15.63,1.72,1.37,1.72,2.21v2.5c0,.85-.58,1.27-1.74,1.27H33.15c-1,0-1.47-.39-1.47-1.16V273c0-.81.56-1.55,1.68-2.21A4.73,4.73,0,0,0,36,266.51V234.79H20.48v31.72A4.66,4.66,0,0,0,23,270.83c1.16.63,1.74,1.37,1.74,2.21v2.5c0,.85-.58,1.27-1.74,1.27h-20c-1,0-1.47-.39-1.47-1.16V273c0-.81.58-1.55,1.74-2.21a4.75,4.75,0,0,0,2.55-4.32V201a4.62,4.62,0,0,0-2.55-4.26c-1.16-.63-1.74-1.38-1.74-2.27V192c0-.85.58-1.28,1.74-1.28h20c1,0,1.47.39,1.47,1.16v2.55c0,.85-.58,1.61-1.74,2.27A4.7,4.7,0,0,0,20.48,201V227H36V201a4.6,4.6,0,0,0-2.61-4.26c-1.17-.63-1.75-1.38-1.75-2.27V192c0-.85.58-1.28,1.74-1.28H53.27c1,0,1.47.39,1.47,1.16v2.55a2.77,2.77,0,0,1-1.65,2.27A4.7,4.7,0,0,0,50.52,201Z"/><path class="logo_svg3" d="M77.31,201.62l-.63-3.76c-.2-1.22-.31-1.9-.31-2.05,0-.37.34-.68,1-.94l11.36-4.37a1.64,1.64,0,0,1,.6-.11,1.17,1.17,0,0,1,1.21,1l18.17,75.08a7.54,7.54,0,0,0,1.17,2.93,8.18,8.18,0,0,0,2.72,1.88c1,.52,1.54,1.11,1.54,1.77v2.44c0,.89-.43,1.33-1.27,1.33H90.48c-1.2,0-1.81-.44-1.81-1.33V273q0-1.28,2.16-2.16c1.75-.77,2.63-1.82,2.63-3.15a8,8,0,0,0-.13-1.28l-2.81-11.56H73L70.2,266a4.65,4.65,0,0,0-.2,1.05c0,1.11,1,2.32,3,3.65,1.28.89,1.93,1.66,1.93,2.33v2.43c0,.89-.65,1.33-2,1.33H59c-1.56,0-2.34-.44-2.34-1.33V272.6c0-.77.49-1.4,1.47-1.88A6.92,6.92,0,0,0,61.72,266Zm4.62,17.78-7,28.4H88.81Z"/><path class="logo_svg3" d="M136,237.23v29.28a4.67,4.67,0,0,0,2.54,4.32c1.17.63,1.75,1.37,1.75,2.21v2.5c0,.85-.58,1.27-1.75,1.27H117.63c-1,0-1.48-.39-1.48-1.16V273c0-.81.58-1.55,1.75-2.21a4.76,4.76,0,0,0,2.54-4.32V201a4.62,4.62,0,0,0-2.54-4.26c-1.17-.63-1.75-1.38-1.75-2.27V192c0-.85.58-1.28,1.75-1.28H136q14.75,0,22.83,6.34a20.37,20.37,0,0,1,8.07,16.86Q166.9,237.23,136,237.23Zm0-39.92v33.38c4,0,7-.37,8.81-1.13a8.78,8.78,0,0,0,4.46-4.54q1.68-3.41,1.68-10.55t-1.54-10.6a9.34,9.34,0,0,0-4.63-5A22.93,22.93,0,0,0,136,197.31Z"/><path class="logo_svg3" d="M184.6,237.23v29.28a4.66,4.66,0,0,0,2.55,4.32c1.16.63,1.74,1.37,1.74,2.21v2.5c0,.85-.58,1.27-1.74,1.27H166.23c-1,0-1.47-.39-1.47-1.16V273c0-.81.58-1.55,1.74-2.21a4.75,4.75,0,0,0,2.55-4.32V201a4.62,4.62,0,0,0-2.55-4.26c-1.16-.63-1.74-1.38-1.74-2.27V192c0-.85.58-1.28,1.74-1.28h18.1q14.75,0,22.83,6.34a20.38,20.38,0,0,1,8.08,16.86Q215.51,237.23,184.6,237.23Zm0-39.92v33.38c4,0,7-.37,8.82-1.13a8.81,8.81,0,0,0,4.46-4.54q1.67-3.41,1.67-10.55T198,203.87a9.34,9.34,0,0,0-4.63-5A22.88,22.88,0,0,0,184.6,197.31Z"/><path class="logo_svg3" d="M127.66,320.81c0,.37-.35.47-.61.47H108.39c-.45,0-.67-.18-.67-.55v-1c0-.32.31-.68.93-1.06a1.88,1.88,0,0,0,.81-1.68V289.47a2,2,0,0,0-1-1.81c-.47-.27-.7-.58-.7-.93v-1.12c0-.29.22-.44.67-.44h17.27c.52,0,.85.13.85.53v6.58a1,1,0,0,1-.13.64,1.45,1.45,0,0,1-.72.1h-1a.68.68,0,0,1-.76-.65,8.68,8.68,0,0,0-1.11-3.1c-.53-.86-1.61-1.29-3.22-1.29H116v13.14h1.29a2.61,2.61,0,0,0,1.66-.38,6.63,6.63,0,0,0,1.12-2.4,1.76,1.76,0,0,1,.31-.68c.1-.09.23-.11.51-.11h1.24c.49,0,.73.19.73.58v8.75c0,.38-.23.56-.68.56h-1.29a.83.83,0,0,1-.59-.17,3.76,3.76,0,0,1-.45-1.08,3.64,3.64,0,0,0-1.1-2,3.1,3.1,0,0,0-1.63-.36H116v14.7h3.79a4.09,4.09,0,0,0,2.93-.83c.54-.54,1.22-2.05,2-4.51a1,1,0,0,1,1-.84H127c.46,0,.7.2.7.58Z"/><path class="logo_svg3" d="M3.42,317V289.48a1.94,1.94,0,0,0-1.07-1.79c-.49-.26-.73-.58-.73-.95v-1c0-.36.24-.53.73-.53h8.77c.42,0,.62.16.62.48v1.07c0,.36-.24.67-.73.95a2,2,0,0,0-1.07,1.79v28.35a.69.69,0,0,0,.7.69h1.69a4.65,4.65,0,0,0,3.28-1.08,7.06,7.06,0,0,0,1.73-3.68,7.25,7.25,0,0,1,.25-1c.06-.15.16-.32.56-.32h1.32c.51,0,.76.17.76.51v7.62a.69.69,0,0,1-.69.69H2.32c-.61,0-.92-.23-.92-.69v-.89c0-.35.27-.66.81-.92A1.94,1.94,0,0,0,3.42,317Z"/><path class="logo_svg3" d="M40.29,312.91a8.33,8.33,0,0,1-2.56,6.49A9.47,9.47,0,0,1,31,321.75a9.92,9.92,0,0,1-6.77-2.32,7.7,7.7,0,0,1-2.65-6.08V289.48a1.93,1.93,0,0,0-1.07-1.79c-.48-.28-.73-.6-.73-.95v-1c0-.36.25-.53.73-.53h8.78c.41,0,.61.16.61.48v1.07c0,.35-.24.67-.73.95a1.94,1.94,0,0,0-1.07,1.79V313.6c0,3.22,1.3,4.83,3.88,4.83q4.24,0,4.25-5.66V289.48a1.94,1.94,0,0,0-1.07-1.79c-.49-.28-.73-.6-.73-.95v-1c0-.36.24-.53.73-.53h6.27c.41,0,.62.16.62.48v1.07c0,.35-.24.67-.73.95a1.94,1.94,0,0,0-1.07,1.79Z"/><path class="logo_svg3" d="M45.11,317V289.48A1.94,1.94,0,0,0,44,287.69c-.49-.26-.73-.58-.73-.95v-1c0-.36.24-.53.73-.53h9.57a.68.68,0,0,1,.68.56l3.09,16.36,3.06-16.36a.68.68,0,0,1,.68-.56H70.8c.41,0,.62.16.62.48v1.07c0,.36-.24.67-.73.95a2,2,0,0,0-1.07,1.79V317a2,2,0,0,0,1.1,1.82c.47.26.7.57.7.92v1.05c0,.35-.24.53-.73.53H62.23c-.4,0-.59-.16-.59-.49V319.7c0-.34.23-.65.7-.93A2,2,0,0,0,63.43,317V288.82l-6,32.12a.42.42,0,0,1-.41.34H55.47a.42.42,0,0,1-.41-.34l-5.92-32.12V317a1.94,1.94,0,0,0,1.06,1.81c.48.27.73.58.73.93v1.05c0,.35-.25.53-.73.53H43.93c-.42,0-.62-.16-.62-.49V319.7c0-.34.24-.65.73-.92A2,2,0,0,0,45.11,317Z"/><path class="logo_svg3" d="M260.7,316.89V289.4a1.93,1.93,0,0,0-1.07-1.78c-.49-.27-.73-.59-.73-1v-1c0-.35.24-.53.73-.53h9.57a.71.71,0,0,1,.69.56L273,302,276,285.67a.69.69,0,0,1,.68-.56h9.68c.42,0,.62.16.62.49v1.06c0,.36-.24.68-.73,1a2,2,0,0,0-1.07,1.78v27.49a2,2,0,0,0,1.1,1.81c.47.26.7.57.7.93v1c0,.36-.24.54-.73.54h-8.46c-.39,0-.59-.17-.59-.49v-1.09c0-.34.23-.65.7-.93a2,2,0,0,0,1.09-1.81V288.74l-6,32.13a.43.43,0,0,1-.41.34h-1.55a.43.43,0,0,1-.41-.34l-5.92-32.13v28.15a2,2,0,0,0,1.06,1.81c.49.26.73.57.73.93v1c0,.36-.25.54-.73.54h-6.27c-.42,0-.62-.17-.62-.49v-1.09c0-.34.24-.65.73-.93A2,2,0,0,0,260.7,316.89Z"/><path class="logo_svg3" d="M81,317A2,2,0,0,0,82,318.78c.49.26.73.57.73.92v1.05c0,.35-.24.53-.73.53H73.26c-.41,0-.62-.16-.62-.49V319.7c0-.34.24-.65.73-.92A2,2,0,0,0,74.44,317V289.48a1.94,1.94,0,0,0-1.07-1.79c-.49-.26-.73-.58-.73-.95v-1c0-.36.24-.53.73-.53h8.77c.41,0,.62.16.62.48v1.07c0,.36-.24.67-.73.95A2,2,0,0,0,81,289.48Z"/><path class="logo_svg3" d="M100.59,304.73V289.49a1.93,1.93,0,0,0-1.06-1.79c-.49-.27-.73-.58-.73-1v-1c0-.36.24-.53.73-.53h6.35c.41,0,.62.16.62.48v1.07c0,.36-.24.67-.7.95a2,2,0,0,0-1.1,1.79V320.7c0,.5-.27.74-.82.74h-1.24a1.19,1.19,0,0,1-1.18-.74L89.8,295.4V317a2,2,0,0,0,1.08,1.82c.48.26.72.57.72.92v1.05c0,.35-.24.53-.73.53H84.59c-.4,0-.61-.16-.61-.49V319.7c0-.34.24-.65.73-.92A2,2,0,0,0,85.78,317V289.48a1.94,1.94,0,0,0-1.07-1.79c-.49-.26-.73-.58-.73-.95v-1c0-.36.24-.53.73-.53h5.94a2.1,2.1,0,0,1,.87.12,1.44,1.44,0,0,1,.44.62Z"/><path class="logo_svg3" d="M160.72,312.31a.56.56,0,0,1,.51.6,10.47,10.47,0,0,1-2.53,6.26,7.69,7.69,0,0,1-5.95,2.5,9.7,9.7,0,0,1-8.39-4.7q-3.17-4.7-3.16-13.74t3.08-13.77q3.08-4.84,7.91-4.84a10.63,10.63,0,0,1,4.42,1.12.81.81,0,0,0,.86-.23,1.46,1.46,0,0,1,.91-.4h1.38c.35,0,.53.22.53.67v6.89c0,.44-.18.65-.53.65h-1.24a1,1,0,0,1-.8-.25,5.33,5.33,0,0,1-.58-1.39c-1.14-3.58-2.65-4.41-4.53-4.41a2.86,2.86,0,0,0-2.55,1.39,13.8,13.8,0,0,0-1.38,5.26,63.84,63.84,0,0,0-.48,7.84q0,8.69,1.18,12.74t4.14,4.06c2.27,0,3.78-2,4.55-6a.55.55,0,0,1,.59-.45Z"/><path class="logo_svg3" d="M181.8,289.4v27.49a2,2,0,0,0,1.08,1.81q.72.39.72.93v1c0,.36-.24.54-.73.54h-8.16c-.41,0-.62-.17-.62-.49v-1.09c0-.34.24-.65.7-.93a2,2,0,0,0,1.1-1.81v-13.3H169.4v13.3a1.94,1.94,0,0,0,1.07,1.81c.48.26.73.57.73.93v1c0,.36-.25.54-.73.54h-8.19c-.42,0-.62-.17-.62-.49v-1.09c0-.34.24-.65.73-.93a2,2,0,0,0,1.07-1.81V289.4a1.93,1.93,0,0,0-1.07-1.78c-.49-.27-.73-.59-.73-1v-1c0-.35.24-.53.73-.53h8.19c.41,0,.62.16.62.49v1.06c0,.36-.25.68-.73,1a1.94,1.94,0,0,0-1.07,1.78v10.94h6.49V289.4a1.9,1.9,0,0,0-1.1-1.78c-.48-.27-.73-.59-.73-1v-1c0-.35.25-.53.73-.53H183c.41,0,.61.16.61.49v1.06a1.17,1.17,0,0,1-.69,1A2,2,0,0,0,181.8,289.4Z"/><path class="logo_svg3" d="M193,304.31v12.58A2,2,0,0,0,194,318.7c.49.26.73.57.73.93v1c0,.36-.24.54-.73.54h-8.77c-.41,0-.62-.17-.62-.49v-1.09c0-.34.25-.65.73-.93a2,2,0,0,0,1.07-1.81V289.4a1.91,1.91,0,0,0-1.07-1.78c-.48-.27-.73-.59-.73-1v-1c0-.35.25-.53.73-.53h7.37q6.24,0,9.5,2.32a7.73,7.73,0,0,1,3.26,6.71q0,7-7.84,9a10.82,10.82,0,0,1,3.5,2.1,7.71,7.71,0,0,1,1.84,3.45l2.05,7.36a5.94,5.94,0,0,0,.78,1.91,2.79,2.79,0,0,0,1,.84.77.77,0,0,1,.46.78v1.09c0,.34-.21.51-.62.51h-5.6a1,1,0,0,1-1-.75l-3.85-12.76a5.78,5.78,0,0,0-1.36-2.74A2.91,2.91,0,0,0,193,304.31Zm0-16.39v13.62a5.71,5.71,0,0,0,4.47-1.58q1.44-1.57,1.44-5.61c0-2.63-.49-4.36-1.45-5.19A6.73,6.73,0,0,0,193,287.92Z"/><path class="logo_svg3" d="M216.74,316.89a1.94,1.94,0,0,0,1.07,1.81c.48.26.73.57.73.93v1c0,.36-.25.54-.73.54H209c-.42,0-.62-.17-.62-.49v-1.09c0-.34.24-.65.73-.93a2,2,0,0,0,1.07-1.81V289.4a1.93,1.93,0,0,0-1.07-1.78c-.49-.27-.73-.59-.73-1v-1c0-.35.24-.53.73-.53h8.77c.41,0,.62.16.62.49v1.06c0,.36-.25.68-.73,1a1.94,1.94,0,0,0-1.07,1.78Z"/><path class="logo_svg3" d="M221.86,321.21h-1.4c-.47,0-.7-.21-.7-.63v-8.06c0-.59.25-.88.76-.88h1.2a.69.69,0,0,1,.64.27,9.31,9.31,0,0,1,.43,1.84c.77,4.06,3,5.39,5.26,5.39a4.08,4.08,0,0,0,3.36-1.53,5.8,5.8,0,0,0,1.22-3.72,7.26,7.26,0,0,0-1.31-4.18,32,32,0,0,0-5-5.2,46.67,46.67,0,0,1-4.12-3.88,11.36,11.36,0,0,1-2-3.13,9.55,9.55,0,0,1-.74-3.83,8.86,8.86,0,0,1,2.34-6.33,7.59,7.59,0,0,1,5.73-2.49,8.64,8.64,0,0,1,3.31.73c.39.16.57.2.77.27a.52.52,0,0,0,.63-.26,1.12,1.12,0,0,1,1.13-.48h1c.55,0,.82.21.82.62v7c0,.39-.21.58-.62.58h-1.29c-.34,0-.56-.07-.66-.22a7.67,7.67,0,0,1-.55-1.68c-.88-3.36-2.32-3.92-4.3-3.92a3.27,3.27,0,0,0-2.58,1.11,3.87,3.87,0,0,0-1,2.58,6.41,6.41,0,0,0,1.14,3.47,24,24,0,0,0,4.54,4.65,28.55,28.55,0,0,1,6,6.49,11.6,11.6,0,0,1,1.68,6.07,9.67,9.67,0,0,1-2.8,7.18,9.15,9.15,0,0,1-6.65,2.76,13.3,13.3,0,0,1-4-.75,3.78,3.78,0,0,0-1-.26,1.66,1.66,0,0,0-.73.24A1.35,1.35,0,0,1,221.86,321.21Z"/><path class="logo_svg3" d="M316,321.21h-1.41c-.46,0-.7-.21-.7-.63v-8.06c0-.59.25-.88.76-.88h1.21a.66.66,0,0,1,.63.27,9,9,0,0,1,.44,1.84c.77,4.06,3,5.39,5.25,5.39a4.05,4.05,0,0,0,3.36-1.53,5.75,5.75,0,0,0,1.23-3.72,7.33,7.33,0,0,0-1.31-4.18,31.7,31.7,0,0,0-5.05-5.2,46.21,46.21,0,0,1-4.11-3.88,11.13,11.13,0,0,1-2-3.13,9.55,9.55,0,0,1-.75-3.83,8.82,8.82,0,0,1,2.35-6.33,7.55,7.55,0,0,1,5.72-2.49,8.69,8.69,0,0,1,3.32.73c.39.16.57.2.76.27a.52.52,0,0,0,.64-.26,1.12,1.12,0,0,1,1.13-.48h1c.54,0,.81.21.81.62v7c0,.39-.2.58-.61.58h-1.3c-.34,0-.56-.07-.66-.22a9.1,9.1,0,0,1-.55-1.68c-.88-3.36-2.31-3.92-4.3-3.92a3.25,3.25,0,0,0-2.57,1.11,3.82,3.82,0,0,0-1,2.58,6.41,6.41,0,0,0,1.14,3.47,24,24,0,0,0,4.54,4.65,29,29,0,0,1,6,6.49,11.68,11.68,0,0,1,1.67,6.07,9.64,9.64,0,0,1-2.8,7.18,9.13,9.13,0,0,1-6.64,2.76,13.2,13.2,0,0,1-4-.75,3.86,3.86,0,0,0-1-.26,1.69,1.69,0,0,0-.74.24A1.32,1.32,0,0,1,316,321.21Z"/><path class="logo_svg3" d="M250.36,288.29v28.6a2,2,0,0,0,1.07,1.81c.49.26.73.57.73.93v1c0,.36-.24.54-.73.54h-8.77c-.41,0-.62-.17-.62-.49v-1.09c0-.34.24-.65.73-.93a2,2,0,0,0,1.07-1.81v-28.6H242.6a2.39,2.39,0,0,0-2,.86,10,10,0,0,0-1.19,3.78c0,.26-.24.39-.59.39h-1.1c-.64,0-1-.22-1-.67v-6.76q0-.78.9-.78a18.83,18.83,0,0,1,2,.18,29.5,29.5,0,0,0,3.49.3h9.95c.51-.06,1.12-.14,1.86-.25,1.12-.14,1.74-.21,1.85-.21.51,0,.76.19.76.58v6.94c0,.45-.24.67-.73.67h-1.07c-.43,0-.69-.1-.77-.3a11.78,11.78,0,0,1-.41-1.51,7,7,0,0,0-1-2.61,2.4,2.4,0,0,0-1.88-.61Z"/><path class="logo_svg3" d="M297.06,289.68l-.27-1.58c-.09-.51-.13-.8-.13-.86s.14-.28.42-.39l4.76-1.83a.55.55,0,0,1,.26,0,.5.5,0,0,1,.51.41l7.61,31.48a2.35,2.35,0,0,0,1.64,2c.43.22.64.47.64.75v1c0,.37-.18.56-.53.56h-9.39c-.51,0-.76-.19-.76-.56v-1c0-.36.3-.66.9-.91s1.11-.77,1.11-1.32a2.78,2.78,0,0,0-.06-.54L302.59,312h-7.34l-1.18,4.67a2.18,2.18,0,0,0-.08.44q0,.7,1.26,1.53c.54.37.81.7.81,1v1c0,.37-.28.56-.82.56h-5.88c-.65,0-1-.19-1-.56v-1.21a.91.91,0,0,1,.62-.79,2.9,2.9,0,0,0,1.52-2Zm1.93,7.45L296.05,309h5.83Z"/><path class="logo_svg3" d="M363.55,320.71H344.4c-.71,0-1.07-.29-1.07-.87a8.7,8.7,0,0,1,1.51-5l6.24-9.07a55.9,55.9,0,0,0,4.21-7,13.88,13.88,0,0,0,1.53-6.14,6.31,6.31,0,0,0-1.17-3.95,3.67,3.67,0,0,0-3.08-1.53,4.38,4.38,0,0,0-2.53.7c-.69.46-1,.85-1,1.15,0,.13.19.31.58.55a2.84,2.84,0,0,1,1.66,2.44,2.53,2.53,0,0,1-.91,1.93,3.49,3.49,0,0,1-2.44.83,3.71,3.71,0,0,1-2.72-.95,3.28,3.28,0,0,1-1-2.46,5.82,5.82,0,0,1,2.54-4.71,10.53,10.53,0,0,1,6.64-2,10.93,10.93,0,0,1,7.24,2.25,7.64,7.64,0,0,1,2.7,6.2,12.14,12.14,0,0,1-2,6.57,70,70,0,0,1-7.55,9.07q-4.72,5.06-5.8,7.63h9.85a3.21,3.21,0,0,0,1.79-.39,2.39,2.39,0,0,0,.86-1.42q.3-1,1.08-1h1.28c.49,0,.73.18.73.55Z"/><path class="logo_svg3" d="M373.78,284.61q4.91,0,7.46,4.67T383.81,303q0,9.14-2.61,13.7t-7.13,4.56q-4.36,0-7.17-4.5t-2.79-13.19q0-9.64,2.72-14.28C368.65,286.15,371,284.61,373.78,284.61Zm3.59,11.26q0-8.78-3.38-8.78c-1.35,0-2.24.9-2.69,2.71a29.08,29.08,0,0,0-.67,6.77v14.15q0,8.11,3.36,8.11c1.18,0,2-.71,2.57-2.13s.81-4.22.81-8.41Z"/><path class="logo_svg3" d="M387.18,289.47h-3.93c-.35,0-.53-.14-.53-.41v-1.32a.66.66,0,0,1,.47-.63l5.89-2.16a4.12,4.12,0,0,1,1.45-.34h2.13c.41,0,.61.17.61.5v30.28a3.34,3.34,0,0,0,.53,2.12,2.81,2.81,0,0,0,2,.72c.53,0,.79.26.79.62v1.38c0,.32-.2.48-.59.48H384.33c-.47,0-.7-.17-.7-.51V319q0-.64,1.05-.81a3.49,3.49,0,0,0,1.91-.77,2.81,2.81,0,0,0,.59-2Z"/><path class="logo_svg3" d="M402.53,302.9a19.14,19.14,0,0,1-4.28-5,9.83,9.83,0,0,1-1.17-4.67,8.42,8.42,0,0,1,2.42-6.14,8.51,8.51,0,0,1,6.38-2.47,9.1,9.1,0,0,1,6.33,2.24,6.74,6.74,0,0,1,2.47,5.12q0,4-5.71,8.43,7.38,5,7.37,11.21a9.27,9.27,0,0,1-2.74,6.91,10.14,10.14,0,0,1-7.43,2.69,10.56,10.56,0,0,1-7.34-2.56,7.89,7.89,0,0,1-2.86-6.08Q396,307.58,402.53,302.9Zm1.81,1.3q-3.79,4.19-3.79,8.33a6.32,6.32,0,0,0,1.63,4.52,5.5,5.5,0,0,0,4.17,1.73,4.92,4.92,0,0,0,3.66-1.43,4.86,4.86,0,0,0,1.41-3.55Q411.42,309.18,404.34,304.2Zm3-5.18q3.31-3.52,3.32-6.69a5.48,5.48,0,0,0-1.38-3.81,4.36,4.36,0,0,0-3.34-1.53,4.24,4.24,0,0,0-3.06,1.16,3.91,3.91,0,0,0-1.19,3Q401.66,295.13,407.31,299Z"/></g></g></svg>