<?xml version="1.0" encoding="UTF-8"?>
<svg width="56px" height="13px" viewBox="0 0 56 13" version="1.1" xmlns="http://www.w3.org/2000/svg" xmlns:xlink="http://www.w3.org/1999/xlink">
    <!-- Generator: Sketch 51.3 (57544) - http://www.bohemiancoding.com/sketch -->
    <title>ABOUT</title>
    <desc>Created with Sketch.</desc>
    <defs></defs>
    <g id="デザイン" stroke="none" stroke-width="1" fill="none" fill-rule="evenodd">
        <g id="design" transform="translate(-633.000000, -45.000000)" fill="#FFFFFF">
            <g id="Group-5" transform="translate(-26.000000, -96.000000)">
                <g id="header" transform="translate(68.000000, 135.000000)">
                    <path d="M598.464844,15.4365234 L593.946289,15.4365234 L592.770508,18 L591.054688,18 L596.277344,6.78222656 L601.31543,18 L599.572266,18 L598.464844,15.4365234 Z M597.81543,13.9394531 L596.25,10.3505859 L594.609375,13.9394531 L597.81543,13.9394531 Z M604.384766,18 L604.384766,7.4453125 L605.970703,7.4453125 C606.677087,7.4453125 607.239907,7.49999945 607.65918,7.609375 C608.08301,7.71875055 608.440754,7.90331901 608.732422,8.16308594 C609.028647,8.43196749 609.263345,8.76692508 609.436523,9.16796875 C609.614259,9.57356974 609.703125,9.98372188 609.703125,10.3984375 C609.703125,11.1549517 609.41374,11.7952448 608.834961,12.3193359 C609.395511,12.5107431 609.837563,12.8457007 610.161133,13.3242188 C610.489259,13.7981795 610.65332,14.3496062 610.65332,14.9785156 C610.65332,15.8033895 610.361657,16.5006482 609.77832,17.0703125 C609.427407,17.4212257 609.033205,17.6650384 608.595703,17.8017578 C608.117185,17.9339199 607.517907,18 606.797852,18 L604.384766,18 Z M605.977539,11.9775391 L606.476562,11.9775391 C607.069013,11.9775391 607.503091,11.8465182 607.778809,11.5844727 C608.054526,11.3224271 608.192383,10.9362005 608.192383,10.4257812 C608.192383,9.92903397 608.051108,9.55192186 607.768555,9.29443359 C607.486001,9.03694533 607.075849,8.90820312 606.538086,8.90820312 L605.977539,8.90820312 L605.977539,11.9775391 Z M605.977539,16.5029297 L606.961914,16.5029297 C607.68197,16.5029297 608.21061,16.3616551 608.547852,16.0791016 C608.903322,15.7737615 609.081055,15.3863956 609.081055,14.9169922 C609.081055,14.4612607 608.910158,14.0784521 608.568359,13.7685547 C608.235675,13.4632146 607.640955,13.3105469 606.78418,13.3105469 L605.977539,13.3105469 L605.977539,16.5029297 Z M613.804688,12.6748047 C613.804688,11.1891202 614.349278,9.91309127 615.438477,8.84667969 C616.523117,7.78026811 617.82649,7.24707031 619.348633,7.24707031 C620.852547,7.24707031 622.142247,7.78482535 623.217773,8.86035156 C624.297857,9.93587777 624.837891,11.227857 624.837891,12.7363281 C624.837891,14.2539138 624.295578,15.5413359 623.210938,16.5986328 C622.121739,17.6604871 620.806974,18.1914062 619.266602,18.1914062 C617.903965,18.1914062 616.680344,17.7197313 615.595703,16.7763672 C614.401687,15.7327422 613.804688,14.3655683 613.804688,12.6748047 Z M615.411133,12.6953125 C615.411133,13.861985 615.803056,14.8212853 616.586914,15.5732422 C617.366215,16.3251991 618.266271,16.7011719 619.287109,16.7011719 C620.394537,16.7011719 621.328772,16.3183632 622.089844,15.5527344 C622.850915,14.7779909 623.231445,13.834641 623.231445,12.7226562 C623.231445,11.5969996 622.855473,10.6536496 622.103516,9.89257812 C621.356116,9.1269493 620.430995,8.74414062 619.328125,8.74414062 C618.229812,8.74414062 617.302413,9.1269493 616.545898,9.89257812 C615.789384,10.6490923 615.411133,11.5833278 615.411133,12.6953125 Z M630.183594,7.4453125 L630.183594,13.8027344 C630.183594,14.70964 630.331704,15.3727193 630.62793,15.7919922 C631.069989,16.398115 631.692053,16.7011719 632.494141,16.7011719 C633.300785,16.7011719 633.925128,16.398115 634.367188,15.7919922 C634.663413,15.3863912 634.811523,14.7233119 634.811523,13.8027344 L634.811523,7.4453125 L636.404297,7.4453125 L636.404297,14.2402344 C636.404297,15.3522191 636.057946,16.2682256 635.365234,16.9882812 C634.585934,17.7903686 633.628912,18.1914062 632.494141,18.1914062 C631.359369,18.1914062 630.404626,17.7903686 629.629883,16.9882812 C628.937171,16.2682256 628.59082,15.3522191 628.59082,14.2402344 L628.59082,7.4453125 L630.183594,7.4453125 Z M643.595703,8.94238281 L643.595703,18 L642.00293,18 L642.00293,8.94238281 L639.576172,8.94238281 L639.576172,7.4453125 L646.015625,7.4453125 L646.015625,8.94238281 L643.595703,8.94238281 Z" id="m_ABOUT"></path>
                </g>
            </g>
        </g>
    </g>
</svg>