<?xml version="1.0" encoding="UTF-8"?>
<svg width="41px" height="13px" viewBox="0 0 41 13" version="1.1" xmlns="http://www.w3.org/2000/svg" xmlns:xlink="http://www.w3.org/1999/xlink">
    <!-- Generator: Sketch 51.3 (57544) - http://www.bohemiancoding.com/sketch -->
    <title>CASE</title>
    <desc>Created with Sketch.</desc>
    <defs></defs>
    <g id="デザイン" stroke="none" stroke-width="1" fill="none" fill-rule="evenodd">
        <g id="design" transform="translate(-729.000000, -45.000000)" fill="#FFFFFF">
            <g id="Group-5" transform="translate(-40.000000, -92.000000)">
                <g id="header" transform="translate(82.000000, 131.000000)">
                    <path d="M696.064453,8.01269531 L696.064453,9.89941406 C695.143876,9.12922792 694.191411,8.74414062 693.207031,8.74414062 C692.12239,8.74414062 691.208663,9.13378517 690.46582,9.91308594 C689.718421,10.6878294 689.344727,11.6357366 689.344727,12.7568359 C689.344727,13.8642633 689.718421,14.7984988 690.46582,15.5595703 C691.21322,16.3206418 692.129226,16.7011719 693.213867,16.7011719 C693.774417,16.7011719 694.250649,16.610027 694.642578,16.4277344 C694.861329,16.3365881 695.088052,16.2135424 695.322754,16.0585938 C695.557456,15.9036451 695.804686,15.716798 696.064453,15.4980469 L696.064453,17.4189453 C695.15299,17.9339218 694.195969,18.1914062 693.193359,18.1914062 C691.684888,18.1914062 690.397466,17.6650443 689.331055,16.6123047 C688.2692,15.5504504 687.738281,14.2698643 687.738281,12.7705078 C687.738281,11.4261 688.182613,10.2275443 689.071289,9.17480469 C690.165045,7.8850847 691.580069,7.24023438 693.316406,7.24023438 C694.264328,7.24023438 695.180334,7.49771878 696.064453,8.01269531 Z M706.277344,15.4365234 L701.758789,15.4365234 L700.583008,18 L698.867188,18 L704.089844,6.78222656 L709.12793,18 L707.384766,18 L706.277344,15.4365234 Z M705.62793,13.9394531 L704.0625,10.3505859 L702.421875,13.9394531 L705.62793,13.9394531 Z M718.165039,9.01757812 L716.873047,9.78320312 C716.631509,9.3639302 716.401368,9.09049543 716.182617,8.96289062 C715.954751,8.81705656 715.660809,8.74414062 715.300781,8.74414062 C714.858722,8.74414062 714.491863,8.86946489 714.200195,9.12011719 C713.908527,9.36621217 713.762695,9.6761049 713.762695,10.0498047 C713.762695,10.5647812 714.145504,10.9794906 714.911133,11.2939453 L715.963867,11.7246094 C716.820642,12.0709653 717.447264,12.4936498 717.84375,12.9926758 C718.240236,13.4917017 718.438477,14.103512 718.438477,14.828125 C718.438477,15.798833 718.114912,16.6009083 717.467773,17.234375 C716.816077,17.872399 716.007166,18.1914062 715.041016,18.1914062 C714.124995,18.1914062 713.368493,17.9202501 712.771484,17.3779297 C712.183591,16.8356093 711.816732,16.0722705 711.670898,15.0878906 L713.28418,14.7324219 C713.357097,15.3522166 713.4847,15.7805978 713.666992,16.0175781 C713.995119,16.4733096 714.47363,16.7011719 715.102539,16.7011719 C715.599286,16.7011719 716.011717,16.5348324 716.339844,16.2021484 C716.66797,15.8694645 716.832031,15.4479192 716.832031,14.9375 C716.832031,14.7324208 716.803548,14.5444344 716.746582,14.3735352 C716.689616,14.2026359 716.600749,14.0454109 716.47998,13.9018555 C716.359212,13.7583001 716.203126,13.6238613 716.011719,13.4985352 C715.820312,13.373209 715.592449,13.2535813 715.328125,13.1396484 L714.30957,12.7158203 C712.864902,12.1051402 712.142578,11.2119199 712.142578,10.0361328 C712.142578,9.2431601 712.445635,8.58008079 713.051758,8.046875 C713.657881,7.50911189 714.412105,7.24023438 715.314453,7.24023438 C716.531256,7.24023438 717.481442,7.83267637 718.165039,9.01757812 Z M727.933594,8.94238281 L723.702148,8.94238281 L723.702148,11.4785156 L727.810547,11.4785156 L727.810547,12.9755859 L723.702148,12.9755859 L723.702148,16.5029297 L727.933594,16.5029297 L727.933594,18 L722.109375,18 L722.109375,7.4453125 L727.933594,7.4453125 L727.933594,8.94238281 Z" id="CASE"></path>
                </g>
            </g>
        </g>
    </g>
</svg>