<?xml version="1.0" encoding="UTF-8"?>
<svg width="73px" height="13px" viewBox="0 0 73 13" version="1.1" xmlns="http://www.w3.org/2000/svg" xmlns:xlink="http://www.w3.org/1999/xlink">
    <!-- Generator: Sketch 51.3 (57544) - http://www.bohemiancoding.com/sketch -->
    <title>CONTACT</title>
    <desc>Created with Sketch.</desc>
    <defs></defs>
    <g id="デザイン" stroke="none" stroke-width="1" fill="none" fill-rule="evenodd">
        <g id="design" transform="translate(-908.000000, -45.000000)" fill="#FFFFFF">
            <g id="Group-5" transform="translate(-40.000000, -92.000000)">
                <g id="header" transform="translate(82.000000, 131.000000)">
                    <path d="M875.064453,8.01269531 L875.064453,9.89941406 C874.143876,9.12922792 873.191411,8.74414062 872.207031,8.74414062 C871.12239,8.74414062 870.208663,9.13378517 869.46582,9.91308594 C868.718421,10.6878294 868.344727,11.6357366 868.344727,12.7568359 C868.344727,13.8642633 868.718421,14.7984988 869.46582,15.5595703 C870.21322,16.3206418 871.129226,16.7011719 872.213867,16.7011719 C872.774417,16.7011719 873.250649,16.610027 873.642578,16.4277344 C873.861329,16.3365881 874.088052,16.2135424 874.322754,16.0585938 C874.557456,15.9036451 874.804686,15.716798 875.064453,15.4980469 L875.064453,17.4189453 C874.15299,17.9339218 873.195969,18.1914062 872.193359,18.1914062 C870.684888,18.1914062 869.397466,17.6650443 868.331055,16.6123047 C867.2692,15.5504504 866.738281,14.2698643 866.738281,12.7705078 C866.738281,11.4261 867.182613,10.2275443 868.071289,9.17480469 C869.165045,7.8850847 870.580069,7.24023438 872.316406,7.24023438 C873.264328,7.24023438 874.180334,7.49771878 875.064453,8.01269531 Z M877.479492,12.6748047 C877.479492,11.1891202 878.024083,9.91309127 879.113281,8.84667969 C880.197922,7.78026811 881.501294,7.24707031 883.023438,7.24707031 C884.527351,7.24707031 885.817052,7.78482535 886.892578,8.86035156 C887.972662,9.93587777 888.512695,11.227857 888.512695,12.7363281 C888.512695,14.2539138 887.970383,15.5413359 886.885742,16.5986328 C885.796544,17.6604871 884.481779,18.1914062 882.941406,18.1914062 C881.578769,18.1914062 880.355149,17.7197313 879.270508,16.7763672 C878.076491,15.7327422 877.479492,14.3655683 877.479492,12.6748047 Z M879.085938,12.6953125 C879.085938,13.861985 879.477861,14.8212853 880.261719,15.5732422 C881.04102,16.3251991 881.941076,16.7011719 882.961914,16.7011719 C884.069341,16.7011719 885.003577,16.3183632 885.764648,15.5527344 C886.52572,14.7779909 886.90625,13.834641 886.90625,12.7226562 C886.90625,11.5969996 886.530277,10.6536496 885.77832,9.89257812 C885.030921,9.1269493 884.1058,8.74414062 883.00293,8.74414062 C881.904617,8.74414062 880.977217,9.1269493 880.220703,9.89257812 C879.464189,10.6490923 879.085938,11.5833278 879.085938,12.6953125 Z M891.515625,18 L891.515625,6.72753906 L899.212891,14.7802734 L899.212891,7.4453125 L900.805664,7.4453125 L900.805664,18.6425781 L893.108398,10.6103516 L893.108398,18 L891.515625,18 Z M907.24707,8.94238281 L907.24707,18 L905.654297,18 L905.654297,8.94238281 L903.227539,8.94238281 L903.227539,7.4453125 L909.666992,7.4453125 L909.666992,8.94238281 L907.24707,8.94238281 Z M917.714844,15.4365234 L913.196289,15.4365234 L912.020508,18 L910.304688,18 L915.527344,6.78222656 L920.56543,18 L918.822266,18 L917.714844,15.4365234 Z M917.06543,13.9394531 L915.5,10.3505859 L913.859375,13.9394531 L917.06543,13.9394531 Z M930.192383,8.01269531 L930.192383,9.89941406 C929.271805,9.12922792 928.319341,8.74414062 927.334961,8.74414062 C926.25032,8.74414062 925.336592,9.13378517 924.59375,9.91308594 C923.84635,10.6878294 923.472656,11.6357366 923.472656,12.7568359 C923.472656,13.8642633 923.84635,14.7984988 924.59375,15.5595703 C925.34115,16.3206418 926.257156,16.7011719 927.341797,16.7011719 C927.902347,16.7011719 928.378579,16.610027 928.770508,16.4277344 C928.989259,16.3365881 929.215982,16.2135424 929.450684,16.0585938 C929.685385,15.9036451 929.932616,15.716798 930.192383,15.4980469 L930.192383,17.4189453 C929.28092,17.9339218 928.323898,18.1914062 927.321289,18.1914062 C925.812818,18.1914062 924.525396,17.6650443 923.458984,16.6123047 C922.39713,15.5504504 921.866211,14.2698643 921.866211,12.7705078 C921.866211,11.4261 922.310542,10.2275443 923.199219,9.17480469 C924.292974,7.8850847 925.707999,7.24023438 927.444336,7.24023438 C928.392257,7.24023438 929.308264,7.49771878 930.192383,8.01269531 Z M936.114258,8.94238281 L936.114258,18 L934.521484,18 L934.521484,8.94238281 L932.094727,8.94238281 L932.094727,7.4453125 L938.53418,7.4453125 L938.53418,8.94238281 L936.114258,8.94238281 Z" id="CONTACT"></path>
                </g>
            </g>
        </g>
    </g>
</svg>