<?xml version="1.0" encoding="UTF-8"?>
<svg width="78px" height="13px" viewBox="0 0 78 13" version="1.1" xmlns="http://www.w3.org/2000/svg" xmlns:xlink="http://www.w3.org/1999/xlink">
    <!-- Generator: Sketch 51.3 (57544) - http://www.bohemiancoding.com/sketch -->
    <title>SOLUTION</title>
    <desc>Created with Sketch.</desc>
    <defs></defs>
    <g id="デザイン" stroke="none" stroke-width="1" fill="none" fill-rule="evenodd">
        <g id="design" transform="translate(-800.000000, -45.000000)" fill="#FFFFFF">
            <g id="Group-5" transform="translate(-40.000000, -92.000000)">
                <g id="header" transform="translate(82.000000, 131.000000)">
                    <path d="M765.232422,9.01757812 L763.94043,9.78320312 C763.698892,9.3639302 763.468751,9.09049543 763.25,8.96289062 C763.022134,8.81705656 762.728192,8.74414062 762.368164,8.74414062 C761.926105,8.74414062 761.559246,8.86946489 761.267578,9.12011719 C760.97591,9.36621217 760.830078,9.6761049 760.830078,10.0498047 C760.830078,10.5647812 761.212887,10.9794906 761.978516,11.2939453 L763.03125,11.7246094 C763.888025,12.0709653 764.514646,12.4936498 764.911133,12.9926758 C765.307619,13.4917017 765.505859,14.103512 765.505859,14.828125 C765.505859,15.798833 765.182295,16.6009083 764.535156,17.234375 C763.88346,17.872399 763.074549,18.1914062 762.108398,18.1914062 C761.192378,18.1914062 760.435875,17.9202501 759.838867,17.3779297 C759.250974,16.8356093 758.884115,16.0722705 758.738281,15.0878906 L760.351562,14.7324219 C760.42448,15.3522166 760.552082,15.7805978 760.734375,16.0175781 C761.062502,16.4733096 761.541012,16.7011719 762.169922,16.7011719 C762.666669,16.7011719 763.0791,16.5348324 763.407227,16.2021484 C763.735353,15.8694645 763.899414,15.4479192 763.899414,14.9375 C763.899414,14.7324208 763.870931,14.5444344 763.813965,14.3735352 C763.756998,14.2026359 763.668132,14.0454109 763.547363,13.9018555 C763.426594,13.7583001 763.270509,13.6238613 763.079102,13.4985352 C762.887694,13.373209 762.659832,13.2535813 762.395508,13.1396484 L761.376953,12.7158203 C759.932284,12.1051402 759.209961,11.2119199 759.209961,10.0361328 C759.209961,9.2431601 759.513018,8.58008079 760.119141,8.046875 C760.725263,7.50911189 761.479488,7.24023438 762.381836,7.24023438 C763.598639,7.24023438 764.548825,7.83267637 765.232422,9.01757812 Z M767.900391,12.6748047 C767.900391,11.1891202 768.444982,9.91309127 769.53418,8.84667969 C770.618821,7.78026811 771.922193,7.24707031 773.444336,7.24707031 C774.94825,7.24707031 776.23795,7.78482535 777.313477,8.86035156 C778.39356,9.93587777 778.933594,11.227857 778.933594,12.7363281 C778.933594,14.2539138 778.391281,15.5413359 777.306641,16.5986328 C776.217442,17.6604871 774.902677,18.1914062 773.362305,18.1914062 C771.999668,18.1914062 770.776047,17.7197313 769.691406,16.7763672 C768.49739,15.7327422 767.900391,14.3655683 767.900391,12.6748047 Z M769.506836,12.6953125 C769.506836,13.861985 769.898759,14.8212853 770.682617,15.5732422 C771.461918,16.3251991 772.361974,16.7011719 773.382812,16.7011719 C774.49024,16.7011719 775.424475,16.3183632 776.185547,15.5527344 C776.946618,14.7779909 777.327148,13.834641 777.327148,12.7226562 C777.327148,11.5969996 776.951176,10.6536496 776.199219,9.89257812 C775.451819,9.1269493 774.526698,8.74414062 773.423828,8.74414062 C772.325515,8.74414062 771.398116,9.1269493 770.641602,9.89257812 C769.885087,10.6490923 769.506836,11.5833278 769.506836,12.6953125 Z M783.529297,7.4453125 L783.529297,16.5029297 L786.632812,16.5029297 L786.632812,18 L781.936523,18 L781.936523,7.4453125 L783.529297,7.4453125 Z M790.415039,7.4453125 L790.415039,13.8027344 C790.415039,14.70964 790.56315,15.3727193 790.859375,15.7919922 C791.301435,16.398115 791.923499,16.7011719 792.725586,16.7011719 C793.532231,16.7011719 794.156573,16.398115 794.598633,15.7919922 C794.894858,15.3863912 795.042969,14.7233119 795.042969,13.8027344 L795.042969,7.4453125 L796.635742,7.4453125 L796.635742,14.2402344 C796.635742,15.3522191 796.289391,16.2682256 795.59668,16.9882812 C794.817379,17.7903686 793.860357,18.1914062 792.725586,18.1914062 C791.590815,18.1914062 790.636072,17.7903686 789.861328,16.9882812 C789.168616,16.2682256 788.822266,15.3522191 788.822266,14.2402344 L788.822266,7.4453125 L790.415039,7.4453125 Z M803.077148,8.94238281 L803.077148,18 L801.484375,18 L801.484375,8.94238281 L799.057617,8.94238281 L799.057617,7.4453125 L805.49707,7.4453125 L805.49707,8.94238281 L803.077148,8.94238281 Z M809.511719,7.4453125 L809.511719,18 L807.918945,18 L807.918945,7.4453125 L809.511719,7.4453125 Z M812.521484,12.6748047 C812.521484,11.1891202 813.066075,9.91309127 814.155273,8.84667969 C815.239914,7.78026811 816.543287,7.24707031 818.06543,7.24707031 C819.569343,7.24707031 820.859044,7.78482535 821.93457,8.86035156 C823.014654,9.93587777 823.554688,11.227857 823.554688,12.7363281 C823.554688,14.2539138 823.012375,15.5413359 821.927734,16.5986328 C820.838536,17.6604871 819.523771,18.1914062 817.983398,18.1914062 C816.620761,18.1914062 815.397141,17.7197313 814.3125,16.7763672 C813.118484,15.7327422 812.521484,14.3655683 812.521484,12.6748047 Z M814.12793,12.6953125 C814.12793,13.861985 814.519853,14.8212853 815.303711,15.5732422 C816.083012,16.3251991 816.983068,16.7011719 818.003906,16.7011719 C819.111334,16.7011719 820.045569,16.3183632 820.806641,15.5527344 C821.567712,14.7779909 821.948242,13.834641 821.948242,12.7226562 C821.948242,11.5969996 821.572269,10.6536496 820.820312,9.89257812 C820.072913,9.1269493 819.147792,8.74414062 818.044922,8.74414062 C816.946609,8.74414062 816.01921,9.1269493 815.262695,9.89257812 C814.506181,10.6490923 814.12793,11.5833278 814.12793,12.6953125 Z M826.557617,18 L826.557617,6.72753906 L834.254883,14.7802734 L834.254883,7.4453125 L835.847656,7.4453125 L835.847656,18.6425781 L828.150391,10.6103516 L828.150391,18 L826.557617,18 Z" id="m_SOLUTION"></path>
                </g>
            </g>
        </g>
    </g>
</svg>