<?xml version="1.0" encoding="UTF-8"?>
<svg width="52px" height="14px" viewBox="0 0 52 14" version="1.1" xmlns="http://www.w3.org/2000/svg" xmlns:xlink="http://www.w3.org/1999/xlink">
    <!-- Generator: Sketch 51.3 (57544) - http://www.bohemiancoding.com/sketch -->
    <title>MORE</title>
    <desc>Created with Sketch.</desc>
    <defs>
        <path d="M378.023438,229 L380.5625,216.03125 L384.703125,225.40625 L388.992188,216.03125 L391.273438,229 L389.40625,229 L388.242188,221.71875 L384.671875,229.554688 L381.203125,221.710938 L379.90625,229 L378.023438,229 Z M394.826563,222.914062 C394.826563,221.216137 395.448952,219.757819 396.69375,218.539062 C397.93334,217.320306 399.422908,216.710938 401.1625,216.710938 C402.881259,216.710938 404.355202,217.325515 405.584375,218.554688 C406.818756,219.78386 407.435938,221.260408 407.435938,222.984375 C407.435938,224.718759 406.816152,226.190098 405.576563,227.398438 C404.331765,228.611985 402.829175,229.21875 401.06875,229.21875 C399.511451,229.21875 398.113027,228.679693 396.873438,227.601562 C395.508847,226.408848 394.826563,224.846364 394.826563,222.914062 Z M396.6625,222.9375 C396.6625,224.27084 397.110412,225.367183 398.00625,226.226562 C398.896879,227.085942 399.925515,227.515625 401.092188,227.515625 C402.357819,227.515625 403.425517,227.078129 404.295313,226.203125 C405.165109,225.317704 405.6,224.23959 405.6,222.96875 C405.6,221.682285 405.170317,220.604171 404.310938,219.734375 C403.456767,218.859371 402.399485,218.421875 401.139063,218.421875 C399.883848,218.421875 398.823963,218.859371 397.959375,219.734375 C397.094787,220.598963 396.6625,221.66666 396.6625,222.9375 Z M415.410938,223.859375 L419.145313,229 L416.91875,229 L413.473438,224.0625 L413.145313,224.0625 L413.145313,229 L411.325,229 L411.325,216.9375 L413.457813,216.9375 C415.051571,216.9375 416.202601,217.236976 416.910938,217.835938 C417.692191,218.502608 418.082813,219.382807 418.082813,220.476562 C418.082813,221.330733 417.838023,222.065101 417.348438,222.679688 C416.858852,223.294274 416.213025,223.687499 415.410938,223.859375 Z M413.145313,222.476562 L413.723438,222.476562 C415.447405,222.476562 416.309375,221.817715 416.309375,220.5 C416.309375,219.265619 415.470842,218.648438 413.79375,218.648438 L413.145313,218.648438 L413.145313,222.476562 Z M429.214063,218.648438 L424.378125,218.648438 L424.378125,221.546875 L429.073438,221.546875 L429.073438,223.257812 L424.378125,223.257812 L424.378125,227.289062 L429.214063,227.289062 L429.214063,229 L422.557813,229 L422.557813,216.9375 L429.214063,216.9375 L429.214063,218.648438 Z" id="more_svg"></path>
    </defs>
    <g id="デザイン" stroke="none" stroke-width="1" fill="none" fill-rule="evenodd">
        <g id="design" transform="translate(-422.000000, -3359.000000)">
            <g id="Group-9" transform="translate(0.000000, 2891.000000)">
                <g id="Group-2" transform="translate(44.000000, 252.000000)">
                    <g id="MORE">
                        <use fill="#C4C4C4" xlink:href="#more_svg"></use>
                        <use fill="#000000" xlink:href="#more_svg"></use>
                    </g>
                </g>
            </g>
        </g>
    </g>
</svg>