<svg xmlns="http://www.w3.org/2000/svg" xmlns:xlink="http://www.w3.org/1999/xlink" viewBox="0 0 26.21 9.35"><defs><style>.movie_svg1{fill:none;}.movie_svg2{}.movie_svg3{fill:#d6bc6e;}</style><clipPath id="clip-path" transform="translate(0 0)"><rect class="movie_svg1" width="26.21" height="9.35"/></clipPath></defs><title>movie</title><g id="レイヤー_2" data-name="レイヤー 2"><g id="レイヤー_1-2" data-name="レイヤー 1"><g class="movie_svg2"><path class="movie_svg3" d="M.38,8.15V1.21A.51.51,0,0,0,.15.76.3.3,0,0,1,0,.52V.26C0,.17.05.12.15.12H2.27L2.93,4.4,3.59.12H5.73a.12.12,0,0,1,.13.13V.52a.3.3,0,0,1-.15.24.51.51,0,0,0-.23.45V8.15a.51.51,0,0,0,.23.45.3.3,0,0,1,.15.24V9.1c0,.09-.05.14-.15.14H3.94c-.08,0-.12-.05-.12-.13V8.84A.3.3,0,0,1,4,8.6a.51.51,0,0,0,.22-.45V1L2.93,9.24H2.46L1.21,1V8.15a.51.51,0,0,0,.23.45.3.3,0,0,1,.15.24V9.1c0,.09-.05.14-.15.14H.13A.12.12,0,0,1,0,9.11V8.84A.3.3,0,0,1,.15,8.6a.52.52,0,0,0,.23-.45" transform="translate(0 0)"/><path class="movie_svg3" d="M9.53,9.35A1.94,1.94,0,0,1,7.71,8.12a7.88,7.88,0,0,1-.6-3.4,8,8,0,0,1,.61-3.45,1.85,1.85,0,0,1,3.48-.1,7.61,7.61,0,0,1,.63,3.48,7.73,7.73,0,0,1-.63,3.53A1.87,1.87,0,0,1,9.53,9.35m-.06-.63A.58.58,0,0,0,10,8.38a5.17,5.17,0,0,0,.32-1.86q.09-1.53.09-2.79a10.74,10.74,0,0,0-.14-1.89,2.59,2.59,0,0,0-.3-1A.52.52,0,0,0,9.49.67.56.56,0,0,0,9.1.83a1.3,1.3,0,0,0-.27.59,13.47,13.47,0,0,0-.17,1.66c0,.82-.07,1.68-.07,2.57A8.71,8.71,0,0,0,8.81,8c.14.47.36.71.66.71" transform="translate(0 0)"/><path class="movie_svg3" d="M15.34,5.44l.8-4.08a1.11,1.11,0,0,0,0-.17A.43.43,0,0,0,15.9.81c-.14-.08-.2-.16-.2-.25V.27c0-.1.05-.15.16-.15h1.39q.18,0,.18.15V.56a.25.25,0,0,1-.17.23.7.7,0,0,0-.36.53L15.38,9.17c0,.12-.08.18-.17.18H15c-.09,0-.15-.06-.17-.18L13.25,1.36a.88.88,0,0,0-.37-.6.27.27,0,0,1-.15-.23V.26c0-.09,0-.14.15-.14H14.7c.09,0,.14.05.14.15V.56c0,.08-.05.14-.15.2a.4.4,0,0,0-.2.33,1.41,1.41,0,0,0,0,.18Z" transform="translate(0 0)"/><path class="movie_svg3" d="M20.4,8.15a.52.52,0,0,0,.22.45.29.29,0,0,1,.16.24V9.1c0,.09-.05.14-.16.14H18.8a.12.12,0,0,1-.13-.13V8.84a.3.3,0,0,1,.15-.24A.51.51,0,0,0,19,8.15V1.21a.5.5,0,0,0-.22-.45.3.3,0,0,1-.15-.24V.26c0-.09,0-.14.15-.14h1.83a.12.12,0,0,1,.13.13V.52a.29.29,0,0,1-.16.24.52.52,0,0,0-.22.45Z" transform="translate(0 0)"/><path class="movie_svg3" d="M26.21,9.23h-4a.12.12,0,0,1-.14-.14V8.84c0-.09.07-.18.2-.27a.52.52,0,0,0,.17-.43V1.21A.53.53,0,0,0,22.2.75a.28.28,0,0,1-.15-.23V.23c0-.07.05-.11.14-.11h3.33l.25,0c.13,0,.2,0,.2.1V1.92c0,.09,0,.14,0,.16a.4.4,0,0,1-.15,0h-.22c-.09,0-.14-.05-.15-.16a2.31,2.31,0,0,0-.24-.78.67.67,0,0,0-.67-.33h-.74V4.15H24a.46.46,0,0,0,.35-.1,1.73,1.73,0,0,0,.23-.6l.07-.19h.36c.1,0,.15,0,.15.14V5.6c0,.1,0,.14-.14.14h-.27a.15.15,0,0,1-.12,0,1.28,1.28,0,0,1-.09-.27,1,1,0,0,0-.23-.51A.57.57,0,0,0,24,4.83h-.24V8.54h.8a.76.76,0,0,0,.61-.21,4.13,4.13,0,0,0,.42-1.14q.06-.21.21-.21h.25a.13.13,0,0,1,.15.15Z" transform="translate(0 0)"/></g></g></g></svg>