<?xml version="1.0" encoding="UTF-8"?>
<svg width="114px" height="11px" viewBox="0 0 114 11" version="1.1" xmlns="http://www.w3.org/2000/svg" xmlns:xlink="http://www.w3.org/1999/xlink">
    <!-- Generator: Sketch 51.3 (57544) - http://www.bohemiancoding.com/sketch -->
    <title>PRIVACY POLICY</title>
    <desc>Created with Sketch.</desc>
    <defs>
        <path d="M85.4492188,40.3261719 L85.4492188,44 L84.0839844,44 L84.0839844,34.953125 L85.6308594,34.953125 C86.3886757,34.953125 86.9609356,35.0058588 87.3476562,35.1113281 C87.7382832,35.2167974 88.0820298,35.4160142 88.3789062,35.7089844 C88.8984401,36.2167994 89.1582031,36.857418 89.1582031,37.6308594 C89.1582031,38.4589885 88.8808621,39.115232 88.3261719,39.5996094 C87.7714816,40.0839868 87.0234422,40.3261719 86.0820312,40.3261719 L85.4492188,40.3261719 Z M85.4492188,39.0605469 L85.9589844,39.0605469 C87.2128969,39.0605469 87.8398438,38.5781298 87.8398438,37.6132812 C87.8398438,36.6796828 87.1933658,36.2128906 85.9003906,36.2128906 L85.4492188,36.2128906 L85.4492188,39.0605469 Z M95.1981373,40.1445312 L97.9989185,44 L96.3289966,44 L93.7450123,40.296875 L93.4989185,40.296875 L93.4989185,44 L92.1336841,44 L92.1336841,34.953125 L93.7332935,34.953125 C94.928612,34.953125 95.7918846,35.1777321 96.3231373,35.6269531 C96.9090777,36.1269556 97.2020435,36.7871053 97.2020435,37.6074219 C97.2020435,38.2480501 97.0184516,38.7988258 96.6512623,39.2597656 C96.2840729,39.7207054 95.7997028,40.0156244 95.1981373,40.1445312 Z M93.4989185,39.1074219 L93.9325123,39.1074219 C95.2254875,39.1074219 95.8719654,38.6132862 95.8719654,37.625 C95.8719654,36.6992141 95.2430654,36.2363281 93.9852466,36.2363281 L93.4989185,36.2363281 L93.4989185,39.1074219 Z M102.292759,34.953125 L102.292759,44 L100.927525,44 L100.927525,34.953125 L102.292759,34.953125 Z M106.492849,34.953125 L108.994802,41.2226562 L111.531912,34.953125 L113.026052,34.953125 L108.965506,44.6796875 L104.998709,34.953125 L106.492849,34.953125 Z M120.278877,41.8027344 L116.40583,41.8027344 L115.398018,44 L113.927315,44 L118.403877,34.3847656 L122.722237,44 L121.228096,44 L120.278877,41.8027344 Z M119.722237,40.5195312 L118.38044,37.4433594 L116.97419,40.5195312 L119.722237,40.5195312 Z M131.685999,35.4394531 L131.685999,37.0566406 C130.896932,36.3964811 130.080534,36.0664062 129.23678,36.0664062 C128.307088,36.0664062 127.523893,36.4003873 126.887171,37.0683594 C126.246542,37.7324252 125.926233,38.5449171 125.926233,39.5058594 C125.926233,40.4550829 126.246542,41.2558561 126.887171,41.9082031 C127.527799,42.5605501 128.312947,42.8867188 129.242639,42.8867188 C129.723111,42.8867188 130.13131,42.8085945 130.467249,42.6523438 C130.65475,42.5742184 130.849084,42.4687507 131.050257,42.3359375 C131.251429,42.2031243 131.463341,42.0429697 131.685999,41.8554688 L131.685999,43.5019531 C130.904745,43.9433616 130.084441,44.1640625 129.225061,44.1640625 C127.932086,44.1640625 126.828581,43.7128951 125.914514,42.8105469 C125.004354,41.9003861 124.54928,40.8027408 124.54928,39.5175781 C124.54928,38.3652286 124.930136,37.3378951 125.691858,36.4355469 C126.629363,35.3300726 127.842241,34.7773438 129.33053,34.7773438 C130.143034,34.7773438 130.928182,34.9980447 131.685999,35.4394531 Z M136.806011,40.0917969 L133.852886,34.953125 L135.423199,34.953125 L137.491558,38.5683594 L139.565777,34.953125 L141.136089,34.953125 L138.171245,40.0917969 L138.171245,44 L136.806011,44 L136.806011,40.0917969 Z M150.385879,40.3261719 L150.385879,44 L149.020645,44 L149.020645,34.953125 L150.56752,34.953125 C151.325336,34.953125 151.897596,35.0058588 152.284317,35.1113281 C152.674944,35.2167974 153.01869,35.4160142 153.315567,35.7089844 C153.835101,36.2167994 154.094864,36.857418 154.094864,37.6308594 C154.094864,38.4589885 153.817523,39.115232 153.262832,39.5996094 C152.708142,40.0839868 151.960103,40.3261719 151.018692,40.3261719 L150.385879,40.3261719 Z M150.385879,39.0605469 L150.895645,39.0605469 C152.149557,39.0605469 152.776504,38.5781298 152.776504,37.6132812 C152.776504,36.6796828 152.130026,36.2128906 150.837051,36.2128906 L150.385879,36.2128906 L150.385879,39.0605469 Z M156.619173,39.4355469 C156.619173,38.162103 157.085965,37.0683639 158.019563,36.1542969 C158.949256,35.2402298 160.066432,34.7832031 161.371126,34.7832031 C162.660195,34.7832031 163.765653,35.244136 164.687532,36.1660156 C165.613318,37.0878952 166.076204,38.195306 166.076204,39.4882812 C166.076204,40.789069 165.611365,41.8925736 164.681673,42.7988281 C163.748074,43.7089889 162.621132,44.1640625 161.300813,44.1640625 C160.132839,44.1640625 159.084021,43.7597697 158.154329,42.9511719 C157.130886,42.0566362 156.619173,40.8847729 156.619173,39.4355469 Z M157.996126,39.453125 C157.996126,40.45313 158.33206,41.2753874 159.003938,41.9199219 C159.67191,42.5644563 160.443387,42.8867188 161.318392,42.8867188 C162.267615,42.8867188 163.068388,42.558597 163.720735,41.9023438 C164.373082,41.2382779 164.699251,40.4296923 164.699251,39.4765625 C164.699251,38.5117139 164.376988,37.7031283 163.732454,37.0507812 C163.091826,36.394528 162.298865,36.0664062 161.353548,36.0664062 C160.412137,36.0664062 159.617223,36.394528 158.968782,37.0507812 C158.320341,37.699222 157.996126,38.4999952 157.996126,39.453125 Z M170.727466,34.953125 L170.727466,42.7167969 L173.387623,42.7167969 L173.387623,44 L169.362232,44 L169.362232,34.953125 L170.727466,34.953125 Z M177.61701,34.953125 L177.61701,44 L176.251775,44 L176.251775,34.953125 L177.61701,34.953125 Z M188.045616,35.4394531 L188.045616,37.0566406 C187.256549,36.3964811 186.440151,36.0664062 185.596397,36.0664062 C184.666705,36.0664062 183.88351,36.4003873 183.246788,37.0683594 C182.606159,37.7324252 182.28585,38.5449171 182.28585,39.5058594 C182.28585,40.4550829 182.606159,41.2558561 183.246788,41.9082031 C183.887416,42.5605501 184.672564,42.8867188 185.602256,42.8867188 C186.082728,42.8867188 186.490927,42.8085945 186.826866,42.6523438 C187.014367,42.5742184 187.208701,42.4687507 187.409874,42.3359375 C187.611046,42.2031243 187.822958,42.0429697 188.045616,41.8554688 L188.045616,43.5019531 C187.264362,43.9433616 186.444058,44.1640625 185.584678,44.1640625 C184.291703,44.1640625 183.188198,43.7128951 182.274131,42.8105469 C181.363971,41.9003861 180.908897,40.8027408 180.908897,39.5175781 C180.908897,38.3652286 181.289753,37.3378951 182.051475,36.4355469 C182.98898,35.3300726 184.201858,34.7773438 185.690147,34.7773438 C186.502651,34.7773438 187.287799,34.9980447 188.045616,35.4394531 Z M193.165628,40.0917969 L190.212503,34.953125 L191.782816,34.953125 L193.851175,38.5683594 L195.925394,34.953125 L197.495706,34.953125 L194.530862,40.0917969 L194.530862,44 L193.165628,44 L193.165628,40.0917969 Z" id="privacy_svg"></path>
    </defs>
    <g id="デザイン" stroke="none" stroke-width="1" fill="none" fill-rule="evenodd">
        <g id="design" transform="translate(-774.000000, -3658.000000)">
            <g id="footer" transform="translate(1.000000, 3619.000000)">
                <g id="Group-4" transform="translate(689.000000, 5.000000)">
                    <g id="PRIVACY-POLICY">
                        <use fill="#000000" xlink:href="#privacy_svg"></use>
                        <use fill="#FFFFFF" xlink:href="#privacy_svg"></use>
                    </g>
                </g>
            </g>
        </g>
    </g>
</svg>