<?xml version="1.0" encoding="UTF-8"?>
<svg width="60px" height="12px" viewBox="0 0 60 12" version="1.1" xmlns="http://www.w3.org/2000/svg" xmlns:xlink="http://www.w3.org/1999/xlink">
    <!-- Generator: Sketch 51.3 (57544) - http://www.bohemiancoding.com/sketch -->
    <title>SCROLL</title>
    <desc>Created with Sketch.</desc>
    <defs></defs>
    <g id="デザイン" stroke="none" stroke-width="1" fill="none" fill-rule="evenodd">
        <g id="design" transform="translate(-482.000000, -601.000000)" fill="#FFFFFF">
            <g id="Group-5" transform="translate(-26.000000, -96.000000)">
                <path d="M515.232422,699.017578 L513.94043,699.783203 C513.698892,699.36393 513.468751,699.090495 513.25,698.962891 C513.022134,698.817057 512.728192,698.744141 512.368164,698.744141 C511.926105,698.744141 511.559246,698.869465 511.267578,699.120117 C510.97591,699.366212 510.830078,699.676105 510.830078,700.049805 C510.830078,700.564781 511.212887,700.979491 511.978516,701.293945 L513.03125,701.724609 C513.888025,702.070965 514.514646,702.49365 514.911133,702.992676 C515.307619,703.491702 515.505859,704.103512 515.505859,704.828125 C515.505859,705.798833 515.182295,706.600908 514.535156,707.234375 C513.88346,707.872399 513.074549,708.191406 512.108398,708.191406 C511.192378,708.191406 510.435875,707.92025 509.838867,707.37793 C509.250974,706.835609 508.884115,706.072271 508.738281,705.087891 L510.351562,704.732422 C510.42448,705.352217 510.552082,705.780598 510.734375,706.017578 C511.062502,706.47331 511.541012,706.701172 512.169922,706.701172 C512.666669,706.701172 513.0791,706.534832 513.407227,706.202148 C513.735353,705.869464 513.899414,705.447919 513.899414,704.9375 C513.899414,704.732421 513.870931,704.544434 513.813965,704.373535 C513.756998,704.202636 513.668132,704.045411 513.547363,703.901855 C513.426594,703.7583 513.270509,703.623861 513.079102,703.498535 C512.887694,703.373209 512.659832,703.253581 512.395508,703.139648 L511.376953,702.71582 C509.932284,702.10514 509.209961,701.21192 509.209961,700.036133 C509.209961,699.24316 509.513018,698.580081 510.119141,698.046875 C510.725263,697.509112 511.479488,697.240234 512.381836,697.240234 C513.598639,697.240234 514.548825,697.832676 515.232422,699.017578 Z M526.976562,698.012695 L526.976562,699.899414 C526.055985,699.129228 525.103521,698.744141 524.119141,698.744141 C523.0345,698.744141 522.120772,699.133785 521.37793,699.913086 C520.63053,700.687829 520.256836,701.635737 520.256836,702.756836 C520.256836,703.864263 520.63053,704.798499 521.37793,705.55957 C522.125329,706.320642 523.041336,706.701172 524.125977,706.701172 C524.686526,706.701172 525.162758,706.610027 525.554688,706.427734 C525.773439,706.336588 526.000162,706.213542 526.234863,706.058594 C526.469565,705.903645 526.716796,705.716798 526.976562,705.498047 L526.976562,707.418945 C526.0651,707.933922 525.108078,708.191406 524.105469,708.191406 C522.596998,708.191406 521.309576,707.665044 520.243164,706.612305 C519.18131,705.55045 518.650391,704.269864 518.650391,702.770508 C518.650391,701.4261 519.094722,700.227544 519.983398,699.174805 C521.077154,697.885085 522.492179,697.240234 524.228516,697.240234 C525.176437,697.240234 526.092443,697.497719 526.976562,698.012695 Z M534.311523,703.501953 L537.579102,708 L535.630859,708 L532.616211,703.679688 L532.329102,703.679688 L532.329102,708 L530.736328,708 L530.736328,697.445312 L532.602539,697.445312 C533.997077,697.445312 535.004229,697.707354 535.624023,698.231445 C536.307621,698.814782 536.649414,699.584956 536.649414,700.541992 C536.649414,701.289392 536.435223,701.931963 536.006836,702.469727 C535.578448,703.00749 535.01335,703.351562 534.311523,703.501953 Z M532.329102,702.291992 L532.834961,702.291992 C534.343432,702.291992 535.097656,701.715501 535.097656,700.5625 C535.097656,699.482416 534.36394,698.942383 532.896484,698.942383 L532.329102,698.942383 L532.329102,702.291992 Z M540.149414,702.674805 C540.149414,701.18912 540.694005,699.913091 541.783203,698.84668 C542.867844,697.780268 544.171216,697.24707 545.693359,697.24707 C547.197273,697.24707 548.486974,697.784825 549.5625,698.860352 C550.642584,699.935878 551.182617,701.227857 551.182617,702.736328 C551.182617,704.253914 550.640305,705.541336 549.555664,706.598633 C548.466466,707.660487 547.1517,708.191406 545.611328,708.191406 C544.248691,708.191406 543.025071,707.719731 541.94043,706.776367 C540.746413,705.732742 540.149414,704.365568 540.149414,702.674805 Z M541.755859,702.695312 C541.755859,703.861985 542.147783,704.821285 542.931641,705.573242 C543.710941,706.325199 544.610997,706.701172 545.631836,706.701172 C546.739263,706.701172 547.673499,706.318363 548.43457,705.552734 C549.195642,704.777991 549.576172,703.834641 549.576172,702.722656 C549.576172,701.597 549.200199,700.65365 548.448242,699.892578 C547.700843,699.126949 546.775722,698.744141 545.672852,698.744141 C544.574539,698.744141 543.647139,699.126949 542.890625,699.892578 C542.134111,700.649092 541.755859,701.583328 541.755859,702.695312 Z M556.52832,697.445312 L556.52832,706.50293 L559.631836,706.50293 L559.631836,708 L554.935547,708 L554.935547,697.445312 L556.52832,697.445312 Z M564.485352,697.445312 L564.485352,706.50293 L567.588867,706.50293 L567.588867,708 L562.892578,708 L562.892578,697.445312 L564.485352,697.445312 Z" id="SCROLL_svg"></path>
            </g>
        </g>
    </g>
</svg>