<?xml version="1.0" encoding="UTF-8"?>
<svg width="229px" height="35px" viewBox="0 0 229 35" version="1.1" xmlns="http://www.w3.org/2000/svg" xmlns:xlink="http://www.w3.org/1999/xlink">
    <!-- Generator: Sketch 51.3 (57544) - http://www.bohemiancoding.com/sketch -->
    <title>SOLUTION</title>
    <desc>Created with Sketch.</desc>
    <defs></defs>
    <g id="デザイン" stroke="none" stroke-width="1" fill="none" fill-rule="evenodd">
        <g id="design" transform="translate(-395.000000, -2309.000000)" fill="#FFFFFF">
            <g id="Group-8" transform="translate(0.000000, 2159.000000)">
                <path d="M414.146484,157.335938 L410.455078,159.523438 C409.764971,158.325515 409.107425,157.544273 408.482422,157.179688 C407.831377,156.763019 406.991542,156.554688 405.962891,156.554688 C404.699863,156.554688 403.651697,156.912757 402.818359,157.628906 C401.985022,158.332035 401.568359,159.217443 401.568359,160.285156 C401.568359,161.756518 402.662098,162.941402 404.849609,163.839844 L407.857422,165.070312 C410.305351,166.059901 412.095697,167.267571 413.228516,168.693359 C414.361334,170.119148 414.927734,171.867177 414.927734,173.9375 C414.927734,176.710951 414.003264,179.002595 412.154297,180.8125 C410.292308,182.635426 407.981134,183.546875 405.220703,183.546875 C402.603503,183.546875 400.442066,182.772143 398.736328,181.222656 C397.056632,179.673169 396.008466,177.492202 395.591797,174.679688 L400.201172,173.664062 C400.409506,175.434905 400.774086,176.658851 401.294922,177.335938 C402.232427,178.638027 403.5996,179.289062 405.396484,179.289062 C406.815762,179.289062 407.994136,178.813807 408.931641,177.863281 C409.869145,176.912756 410.337891,175.708341 410.337891,174.25 C410.337891,173.66406 410.256511,173.126956 410.09375,172.638672 C409.930989,172.150388 409.677085,171.701174 409.332031,171.291016 C408.986977,170.880857 408.541018,170.496747 407.994141,170.138672 C407.447263,169.780597 406.796228,169.438804 406.041016,169.113281 L403.130859,167.902344 C399.003235,166.157543 396.939453,163.605486 396.939453,160.246094 C396.939453,157.980457 397.80533,156.085945 399.537109,154.5625 C401.268889,153.026034 403.423815,152.257812 406.001953,152.257812 C409.478533,152.257812 412.19335,153.950504 414.146484,157.335938 Z M422.912109,167.785156 C422.912109,163.540343 424.468083,159.894546 427.580078,156.847656 C430.679052,153.800766 434.402973,152.277344 438.751953,152.277344 C443.04885,152.277344 446.733709,153.813787 449.806641,156.886719 C452.892594,159.959651 454.435547,163.65102 454.435547,167.960938 C454.435547,172.296897 452.886083,175.975245 449.787109,178.996094 C446.675115,182.029963 442.918642,183.546875 438.517578,183.546875 C434.624329,183.546875 431.128271,182.199232 428.029297,179.503906 C424.617821,176.522121 422.912109,172.61591 422.912109,167.785156 Z M427.501953,167.84375 C427.501953,171.1771 428.621734,173.917958 430.861328,176.066406 C433.087902,178.214854 435.659491,179.289062 438.576172,179.289062 C441.74025,179.289062 444.409494,178.195323 446.583984,176.007812 C448.758474,173.79426 449.845703,171.098974 449.845703,167.921875 C449.845703,164.705713 448.771495,162.010428 446.623047,159.835938 C444.48762,157.648427 441.844417,156.554688 438.693359,156.554688 C435.555323,156.554688 432.90561,157.648427 430.744141,159.835938 C428.582671,161.997407 427.501953,164.666651 427.501953,167.84375 Z M468.708984,152.84375 L468.708984,178.722656 L477.576172,178.722656 L477.576172,183 L464.158203,183 L464.158203,152.84375 L468.708984,152.84375 Z M489.525391,152.84375 L489.525391,171.007812 C489.525391,173.598971 489.948563,175.493484 490.794922,176.691406 C492.057949,178.423186 493.835275,179.289062 496.126953,179.289062 C498.431652,179.289062 500.215488,178.423186 501.478516,176.691406 C502.324874,175.532546 502.748047,173.638034 502.748047,171.007812 L502.748047,152.84375 L507.298828,152.84375 L507.298828,172.257812 C507.298828,175.434912 506.309255,178.052073 504.330078,180.109375 C502.103504,182.401053 499.369157,183.546875 496.126953,183.546875 C492.884749,183.546875 490.156912,182.401053 487.943359,180.109375 C485.964183,178.052073 484.974609,175.434912 484.974609,172.257812 L484.974609,152.84375 L489.525391,152.84375 Z M526.845703,157.121094 L526.845703,183 L522.294922,183 L522.294922,157.121094 L515.361328,157.121094 L515.361328,152.84375 L533.759766,152.84375 L533.759766,157.121094 L526.845703,157.121094 Z M546.373047,152.84375 L546.373047,183 L541.822266,183 L541.822266,152.84375 L546.373047,152.84375 Z M556.115234,167.785156 C556.115234,163.540343 557.671208,159.894546 560.783203,156.847656 C563.882177,153.800766 567.606098,152.277344 571.955078,152.277344 C576.251975,152.277344 579.936834,153.813787 583.009766,156.886719 C586.095719,159.959651 587.638672,163.65102 587.638672,167.960938 C587.638672,172.296897 586.089208,175.975245 582.990234,178.996094 C579.87824,182.029963 576.121767,183.546875 571.720703,183.546875 C567.827454,183.546875 564.331396,182.199232 561.232422,179.503906 C557.820946,176.522121 556.115234,172.61591 556.115234,167.785156 Z M560.705078,167.84375 C560.705078,171.1771 561.824859,173.917958 564.064453,176.066406 C566.291027,178.214854 568.862616,179.289062 571.779297,179.289062 C574.943375,179.289062 577.612619,178.195323 579.787109,176.007812 C581.961599,173.79426 583.048828,171.098974 583.048828,167.921875 C583.048828,164.705713 581.97462,162.010428 579.826172,159.835938 C577.690745,157.648427 575.047542,156.554688 571.896484,156.554688 C568.758448,156.554688 566.108735,157.648427 563.947266,159.835938 C561.785796,161.997407 560.705078,164.666651 560.705078,167.84375 Z M597.361328,183 L597.361328,150.792969 L619.353516,173.800781 L619.353516,152.84375 L623.904297,152.84375 L623.904297,184.835938 L601.912109,161.886719 L601.912109,183 L597.361328,183 Z" id="SOLUTION"></path>
            </g>
        </g>
    </g>
</svg>