<svg xmlns="http://www.w3.org/2000/svg" viewBox="0 0 38.14 9.35"><defs><style>.store07_svg1{fill:#d6bc6e;}</style></defs><title>store06</title><g id="レイヤー_2" data-name="レイヤー 2"><g id="レイヤー_1-2" data-name="レイヤー 1"><path class="store07_svg1" d="M.38,8.14V1.21A.51.51,0,0,0,.15.76.3.3,0,0,1,0,.52V.26C0,.17.05.12.15.12H2.27l.66,4.27L3.59.12H5.73c.09,0,.13,0,.13.13V.52a.3.3,0,0,1-.15.24.51.51,0,0,0-.23.45V8.14a.51.51,0,0,0,.23.46.3.3,0,0,1,.15.24V9.1c0,.09-.05.13-.15.13H3.94a.11.11,0,0,1-.12-.12V8.84A.31.31,0,0,1,4,8.6a.5.5,0,0,0,.23-.46V1L2.93,9.23H2.46L1.21,1v7.1a.51.51,0,0,0,.23.46.3.3,0,0,1,.15.24V9.1c0,.09-.05.13-.15.13H.13C0,9.23,0,9.19,0,9.11V8.84A.3.3,0,0,1,.15,8.6.53.53,0,0,0,.38,8.14Z"/><path class="store07_svg1" d="M8.89,1.28,8.84.88c0-.13,0-.2,0-.22s0-.07.09-.1l1-.46h0c.06,0,.09,0,.11.1l1.59,8a1,1,0,0,0,.1.31.74.74,0,0,0,.24.2.22.22,0,0,1,.13.19v.25c0,.1,0,.14-.11.14H10c-.1,0-.15,0-.15-.14V8.84a.27.27,0,0,1,.18-.23.37.37,0,0,0,.23-.34.62.62,0,0,0,0-.13l-.24-1.23H8.52L8.27,8.09a.89.89,0,0,0,0,.11q0,.18.27.39a.36.36,0,0,1,.16.25v.25c0,.1,0,.14-.17.14H7.29c-.14,0-.21,0-.21-.14v-.3a.24.24,0,0,1,.13-.2.73.73,0,0,0,.32-.5ZM9.3,3.16l-.62,3H9.9Z"/><path class="store07_svg1" d="M17,7a3.05,3.05,0,0,1-.53,1.72,1.49,1.49,0,0,1-1.24.63,2,2,0,0,1-1.75-1.18,7.29,7.29,0,0,1-.66-3.47,7.6,7.6,0,0,1,.64-3.48A1.9,1.9,0,0,1,15.15,0a1.89,1.89,0,0,1,.92.28.21.21,0,0,0,.11,0,.3.3,0,0,0,.11-.07.17.17,0,0,1,.1-.07h.34c.07,0,.11.06.11.17V2.27c0,.11,0,.17-.11.17h-.26a.18.18,0,0,1-.17-.07A1.4,1.4,0,0,1,16.18,2c-.24-.9-.55-1.35-.94-1.35a.58.58,0,0,0-.53.35,3.76,3.76,0,0,0-.29,1.33,18.49,18.49,0,0,0-.1,2,15.4,15.4,0,0,0,.24,3.21c.17.68.46,1,.87,1s.81-.55,1-1.64Z"/><path class="store07_svg1" d="M22.63,1.21V8.14a.51.51,0,0,0,.23.46.3.3,0,0,1,.15.24V9.1c0,.09-.05.13-.15.13H21a.11.11,0,0,1-.12-.12V8.84a.28.28,0,0,1,.14-.24.53.53,0,0,0,.23-.46V4.79H19.93V8.14a.51.51,0,0,0,.22.46.3.3,0,0,1,.15.24V9.1c0,.09-.05.13-.15.13H18.32c-.08,0-.13,0-.13-.12V8.84a.3.3,0,0,1,.15-.24.53.53,0,0,0,.23-.46V1.21a.51.51,0,0,0-.23-.45.3.3,0,0,1-.15-.24V.26c0-.09,0-.14.15-.14h1.83c.09,0,.13,0,.13.13V.52a.3.3,0,0,1-.15.24.5.5,0,0,0-.22.45V4h1.35V1.21a.51.51,0,0,0-.23-.45A.3.3,0,0,1,20.9.52V.26c0-.09.05-.14.15-.14h1.82c.09,0,.13,0,.13.13V.52a.28.28,0,0,1-.14.24A.51.51,0,0,0,22.63,1.21Z"/><path class="store07_svg1" d="M26,8.14a.51.51,0,0,0,.22.46.3.3,0,0,1,.15.24V9.1c0,.09-.05.13-.15.13H24.4a.11.11,0,0,1-.12-.12V8.84a.3.3,0,0,1,.15-.24.52.52,0,0,0,.22-.46V1.21a.5.5,0,0,0-.22-.45.3.3,0,0,1-.15-.24V.26c0-.09,0-.14.15-.14h1.83c.08,0,.12,0,.12.13V.52a.3.3,0,0,1-.15.24.5.5,0,0,0-.22.45Z"/><path class="store07_svg1" d="M27.66.52V.21c0-.06.05-.09.13-.09h1.53a2.73,2.73,0,0,1,2.17,1,5.31,5.31,0,0,1,.89,3.42,9.85,9.85,0,0,1-.27,2.33,3.54,3.54,0,0,1-.86,1.71,2.69,2.69,0,0,1-2,.6h-1.5c-.07,0-.11,0-.11-.1V8.84a.3.3,0,0,1,.15-.24A.55.55,0,0,0,28,8.14V1.21a.5.5,0,0,0-.19-.44A.33.33,0,0,1,27.66.52Zm1.72.3V8.55a1.34,1.34,0,0,0,.91-.28A2.05,2.05,0,0,0,30.75,7a14.08,14.08,0,0,0,.15-2.18,16.54,16.54,0,0,0-.11-2.11,5.27,5.27,0,0,0-.28-1.17A1.26,1.26,0,0,0,30.1,1,1.5,1.5,0,0,0,29.38.82Z"/><path class="store07_svg1" d="M34.92,1.28l-.05-.4c0-.13,0-.2,0-.22s0-.07.09-.1l1-.46H36c.05,0,.09,0,.1.1l1.59,8a1,1,0,0,0,.1.31.74.74,0,0,0,.24.2.22.22,0,0,1,.13.19v.25c0,.1,0,.14-.11.14h-2c-.11,0-.16,0-.16-.14V8.84c0-.09.06-.17.19-.23a.38.38,0,0,0,.23-.34.69.69,0,0,0,0-.13l-.24-1.23H34.55L34.3,8.09a.45.45,0,0,0,.25.5.38.38,0,0,1,.17.25v.25c0,.1-.06.14-.17.14H33.32c-.13,0-.2,0-.2-.14v-.3a.22.22,0,0,1,.13-.2.72.72,0,0,0,.31-.5Zm.41,1.88-.61,3h1.21Z"/></g></g></svg>