<svg xmlns="http://www.w3.org/2000/svg" viewBox="0 0 26.71 9.35"><defs><style>.store09_svg1{fill:#d6bc6e;}</style></defs><title>store09</title><g id="レイヤー_2" data-name="レイヤー 2"><g id="レイヤー_1-2" data-name="レイヤー 1"><path class="store09_svg1" d="M2.43,9.35A1.94,1.94,0,0,1,.6,8.12,7.88,7.88,0,0,1,0,4.72,8,8,0,0,1,.61,1.27,1.9,1.9,0,0,1,2.37,0,1.93,1.93,0,0,1,4.09,1.17a7.61,7.61,0,0,1,.63,3.48,7.68,7.68,0,0,1-.63,3.52A1.87,1.87,0,0,1,2.43,9.35Zm-.07-.63a.58.58,0,0,0,.48-.34,4.94,4.94,0,0,0,.32-1.86c.06-1,.09-1.95.09-2.8a9.81,9.81,0,0,0-.14-1.88,2.52,2.52,0,0,0-.3-1A.54.54,0,0,0,2,.83a1.12,1.12,0,0,0-.27.59,10.33,10.33,0,0,0-.17,1.66c-.05.82-.08,1.68-.08,2.56A8.75,8.75,0,0,0,1.7,8C1.84,8.48,2.06,8.72,2.36,8.72Z"/><path class="store09_svg1" d="M6.23,8.14V1.21A.5.5,0,0,0,6,.76.31.31,0,0,1,5.85.52V.26c0-.09.06-.14.16-.14H8.12l.67,4.27L9.45.12h2.13c.09,0,.13,0,.13.13V.52a.3.3,0,0,1-.15.24.5.5,0,0,0-.22.45V8.14a.51.51,0,0,0,.23.46.28.28,0,0,1,.14.24V9.1c0,.09-.05.13-.15.13H9.8c-.08,0-.13,0-.13-.12V8.84a.3.3,0,0,1,.15-.24.53.53,0,0,0,.23-.46V1L8.78,9.23H8.32L7.07,1v7.1a.51.51,0,0,0,.22.46.3.3,0,0,1,.15.24V9.1c0,.09-.05.13-.15.13H6c-.08,0-.13,0-.13-.12V8.84A.31.31,0,0,1,6,8.6.52.52,0,0,0,6.23,8.14Z"/><path class="store09_svg1" d="M14.83,8.14a.51.51,0,0,0,.23.46.3.3,0,0,1,.15.24V9.1c0,.09-.05.13-.15.13H13.23c-.09,0-.13,0-.13-.12V8.84a.3.3,0,0,1,.15-.24.53.53,0,0,0,.23-.46V1.21a.51.51,0,0,0-.23-.45A.3.3,0,0,1,13.1.52V.26c0-.09.05-.14.15-.14h1.83c.09,0,.13,0,.13.13V.52a.3.3,0,0,1-.15.24.51.51,0,0,0-.23.45Z"/><path class="store09_svg1" d="M19.56,5.17v3a.51.51,0,0,0,.23.46.28.28,0,0,1,.14.24V9.1c0,.09-.05.13-.15.13H18a.11.11,0,0,1-.12-.12V8.84A.3.3,0,0,1,18,8.6a.52.52,0,0,0,.22-.46v-3L17,1.21a.74.74,0,0,0-.35-.47.2.2,0,0,1-.14-.2V.25c0-.08,0-.13.11-.13h1.9a.14.14,0,0,1,.16.16V.56c0,.07-.05.12-.16.16s-.26.15-.26.27a.69.69,0,0,0,0,.13L19.17,4l.77-2.61a1,1,0,0,0,0-.28.38.38,0,0,0-.26-.34c-.1,0-.15-.1-.15-.17V.26c0-.09,0-.14.13-.14h1.46c.11,0,.17.05.17.13V.56c0,.08-.06.15-.17.2a.79.79,0,0,0-.43.49Z"/><path class="store09_svg1" d="M23.49,1.28l-.06-.4a1.4,1.4,0,0,1,0-.22s0-.07.08-.1l1-.46h.05c.05,0,.09,0,.1.1l1.59,8a1,1,0,0,0,.1.31,1,1,0,0,0,.24.2.23.23,0,0,1,.14.19v.25c0,.1,0,.14-.11.14h-2c-.11,0-.16,0-.16-.14V8.84c0-.09.06-.17.19-.23a.38.38,0,0,0,.23-.34s0-.08,0-.13l-.25-1.23H23.11l-.24,1.18a.28.28,0,0,0,0,.11.57.57,0,0,0,.26.39.38.38,0,0,1,.17.25v.25c0,.1-.06.14-.17.14H21.88c-.13,0-.2,0-.2-.14v-.3a.22.22,0,0,1,.13-.2.72.72,0,0,0,.31-.5Zm.4,1.88-.61,3h1.21Z"/></g></g></svg>