<svg xmlns="http://www.w3.org/2000/svg" viewBox="0 0 39.49 9.35"><defs><style>.store10_svg1{fill:#d6bc6e;}</style></defs><title>store10</title><g id="レイヤー_2" data-name="レイヤー 2"><g id="レイヤー_1-2" data-name="レイヤー 1"><path class="store10_svg1" d="M1.73,3.7,2.94,1.21A.6.6,0,0,0,3,.94c0-.06,0-.13-.14-.2S2.71.6,2.71.52V.28A.14.14,0,0,1,2.87.12H4.59c.12,0,.19.06.19.16V.52a.21.21,0,0,1,0,.15A1.15,1.15,0,0,1,4.52.8a1.84,1.84,0,0,0-.89.87L2.71,3.52,4.18,7.79a1.46,1.46,0,0,0,.57.78.41.41,0,0,1,.2.3v.19c0,.12-.07.17-.19.17H2.82c-.13,0-.19-.05-.19-.17V8.88a.34.34,0,0,1,.12-.26c.15-.11.23-.21.23-.29a.74.74,0,0,0,0-.18L1.73,4.66V8.14A.53.53,0,0,0,2,8.6a.3.3,0,0,1,.15.24V9.1c0,.09,0,.13-.15.13H.13C0,9.23,0,9.19,0,9.11V8.84A.3.3,0,0,1,.15,8.6a.51.51,0,0,0,.23-.46V1.21A.51.51,0,0,0,.15.76.3.3,0,0,1,0,.52V.26C0,.17.05.12.15.12H2c.09,0,.13,0,.13.13V.52A.3.3,0,0,1,2,.76a.51.51,0,0,0-.23.45Z"/><path class="store10_svg1" d="M7.55,1.28l0-.4c0-.13,0-.2,0-.22s0-.07.09-.1l1-.46h0c.06,0,.09,0,.11.1l1.59,8a1,1,0,0,0,.1.31.74.74,0,0,0,.24.2.22.22,0,0,1,.13.19v.25c0,.1,0,.14-.11.14h-2c-.1,0-.15,0-.15-.14V8.84a.27.27,0,0,1,.18-.23A.37.37,0,0,0,9,8.27a.62.62,0,0,0,0-.13L8.71,6.91H7.18L6.93,8.09a.89.89,0,0,0,0,.11q0,.18.27.39a.36.36,0,0,1,.16.25v.25c0,.1,0,.14-.17.14H6c-.14,0-.2,0-.2-.14v-.3a.23.23,0,0,1,.12-.2.73.73,0,0,0,.32-.5ZM8,3.16l-.62,3H8.56Z"/><path class="store10_svg1" d="M15.89,5.4l.7-4a1.11,1.11,0,0,0,0-.19.39.39,0,0,0-.28-.39c-.13-.07-.2-.15-.2-.25V.28c0-.1.06-.16.18-.16h1.31c.14,0,.2.07.2.19V.54q0,.1-.15.21a.77.77,0,0,0-.33.53L15.93,9.16c0,.13-.08.19-.17.19H15.5c-.07,0-.11-.06-.13-.19l-1-5.23-.94,5.23c0,.13-.08.19-.16.19H13c-.07,0-.12-.06-.15-.19l-1.51-8a.44.44,0,0,0-.3-.37.18.18,0,0,1-.14-.19V.28c0-.11.05-.16.17-.16h1.71c.07,0,.11,0,.11.1V.57c0,.07,0,.11-.11.14a.35.35,0,0,0-.21.33,1.21,1.21,0,0,0,0,.18l.79,4.18L14,1.93l-.15-.82a.46.46,0,0,0-.31-.35.14.14,0,0,1-.11-.14V.24c0-.08,0-.12.1-.12h1.82c.08,0,.13,0,.13.12V.45a.43.43,0,0,1,0,.2.32.32,0,0,1-.15.12.35.35,0,0,0-.22.32.62.62,0,0,0,0,.13Z"/><path class="store10_svg1" d="M19.85,1.28l-.06-.4c0-.13,0-.2,0-.22s0-.07.09-.1l1-.46h0c.06,0,.09,0,.11.1l1.58,8a1,1,0,0,0,.11.31.8.8,0,0,0,.23.2.23.23,0,0,1,.14.19v.25c0,.1,0,.14-.11.14H21c-.1,0-.16,0-.16-.14V8.84c0-.09.07-.17.19-.23a.38.38,0,0,0,.23-.34.62.62,0,0,0,0-.13L21,6.91H19.47l-.24,1.18a.89.89,0,0,0,0,.11.57.57,0,0,0,.26.39.38.38,0,0,1,.17.25v.25c0,.1-.06.14-.17.14H18.25c-.14,0-.21,0-.21-.14v-.3a.22.22,0,0,1,.13-.2.73.73,0,0,0,.32-.5Zm.4,1.88-.61,3h1.21Z"/><path class="store10_svg1" d="M26.45,5.43h1.48a.31.31,0,0,1,.18,0,.18.18,0,0,1,0,.14,1.11,1.11,0,0,1,0,.21c0,.25,0,.46,0,.63V8.08a.33.33,0,0,0,.08.25.18.18,0,0,1,.07.15V8.7a.29.29,0,0,1-.14.22,2.91,2.91,0,0,1-.61.27,3,3,0,0,1-1,.16q-2.65,0-2.65-4.33a10.67,10.67,0,0,1,.26-2.36A4.48,4.48,0,0,1,25,.77,1.76,1.76,0,0,1,26.33,0a1.88,1.88,0,0,1,.78.2.49.49,0,0,0,.19.06.47.47,0,0,0,.14-.05l.13,0h.22c.11,0,.17.05.17.15V2.27c0,.11-.05.17-.15.17h-.24c-.08,0-.13,0-.14,0a2.5,2.5,0,0,1-.1-.37c-.19-.91-.54-1.37-1-1.37a.67.67,0,0,0-.58.33,3.47,3.47,0,0,0-.33,1.49c-.06.77-.1,1.55-.1,2.32a18.1,18.1,0,0,0,.1,2A7.34,7.34,0,0,0,25.62,8a1.11,1.11,0,0,0,.31.54.64.64,0,0,0,.42.15c.34,0,.51-.24.51-.74V6.7a.92.92,0,0,0-.08-.47A.64.64,0,0,0,26.44,6a.17.17,0,0,1-.13-.16V5.57A.13.13,0,0,1,26.45,5.43Z"/><path class="store10_svg1" d="M31.89,9.35a1.94,1.94,0,0,1-1.82-1.23,7.88,7.88,0,0,1-.6-3.4,8.22,8.22,0,0,1,.6-3.45,1.85,1.85,0,0,1,3.48-.1,7.46,7.46,0,0,1,.64,3.48,7.68,7.68,0,0,1-.63,3.52A1.88,1.88,0,0,1,31.89,9.35Zm-.06-.63a.59.59,0,0,0,.48-.34,5.17,5.17,0,0,0,.32-1.86c.06-1,.09-1.95.09-2.8a10.69,10.69,0,0,0-.14-1.88,2.48,2.48,0,0,0-.31-1,.5.5,0,0,0-.42-.21.56.56,0,0,0-.39.16,1.3,1.3,0,0,0-.27.59A13.47,13.47,0,0,0,31,3.08C31,3.9,31,4.76,31,5.64A8.75,8.75,0,0,0,31.17,8C31.31,8.48,31.53,8.72,31.83,8.72Z"/><path class="store10_svg1" d="M39.49,9.23h-4a.12.12,0,0,1-.14-.14V8.84c0-.09.07-.18.19-.27a.49.49,0,0,0,.17-.43V1.21a.52.52,0,0,0-.21-.46.28.28,0,0,1-.15-.23V.23c0-.07.05-.11.14-.11h3.32l.26,0c.13,0,.2,0,.2.1V1.92c0,.09,0,.14,0,.16a.4.4,0,0,1-.15,0h-.22c-.09,0-.14-.05-.16-.16a2.32,2.32,0,0,0-.23-.78.67.67,0,0,0-.67-.33h-.74V4.15h.27a.46.46,0,0,0,.35-.1,1.73,1.73,0,0,0,.23-.6A1,1,0,0,1,38,3.26h.36c.1,0,.15,0,.15.14V5.6c0,.1,0,.14-.14.14h-.27c-.06,0-.1,0-.12,0a1.28,1.28,0,0,1-.09-.27,1,1,0,0,0-.23-.51.57.57,0,0,0-.34-.09h-.24V8.54h.79a.74.74,0,0,0,.61-.21,3.73,3.73,0,0,0,.43-1.14q.06-.21.21-.21h.25c.1,0,.15,0,.15.14Z"/></g></g></svg>