<svg xmlns="http://www.w3.org/2000/svg" viewBox="0 0 36.75 9.26"><defs><style>.store14_svg1{fill:#d6bc6e;}</style></defs><title>store14</title><g id="レイヤー_2" data-name="レイヤー 2"><g id="レイヤー_1-2" data-name="レイヤー 1"><path class="store14_svg1" d="M1.73,8.06A.51.51,0,0,0,2,8.51a.3.3,0,0,1,.15.24V9c0,.09,0,.14-.15.14H.13C0,9.15,0,9.11,0,9V8.75a.3.3,0,0,1,.15-.24.51.51,0,0,0,.23-.45V1.12A.51.51,0,0,0,.15.67.3.3,0,0,1,0,.43V.17C0,.08.05,0,.15,0H2c.09,0,.13,0,.13.12V.43A.3.3,0,0,1,2,.67a.51.51,0,0,0-.23.45Z"/><path class="store14_svg1" d="M6.39,8.06V1.12A.5.5,0,0,0,6.17.67.3.3,0,0,1,6,.43V.17C6,.08,6.07,0,6.17,0H8a.11.11,0,0,1,.12.12V.43A.3.3,0,0,1,8,.67a.5.5,0,0,0-.22.45V8.45h.5a.87.87,0,0,0,.68-.27,2,2,0,0,0,.36-.93A1,1,0,0,1,9.36,7s.05,0,.1,0h.28c.1,0,.15,0,.15.13v2.1H6.16C6,9.15,6,9.09,6,9V8.75a.3.3,0,0,1,.17-.24A.48.48,0,0,0,6.39,8.06Z"/><path class="store14_svg1" d="M15,7a2.33,2.33,0,0,1-.53,1.64A1.77,1.77,0,0,1,13,9.26a1.86,1.86,0,0,1-1.42-.58,2.18,2.18,0,0,1-.55-1.54v-6a.5.5,0,0,0-.22-.45A.3.3,0,0,1,10.7.43V.17c0-.09.05-.13.15-.13h1.83c.08,0,.13,0,.13.12V.43a.29.29,0,0,1-.16.24.52.52,0,0,0-.22.45V7.21c0,.81.27,1.22.81,1.22S14.12,8,14.12,7V1.12A.5.5,0,0,0,13.9.67a.3.3,0,0,1-.15-.24V.17c0-.09.05-.13.15-.13h1.31c.08,0,.13,0,.13.12V.43a.3.3,0,0,1-.15.24.51.51,0,0,0-.23.45Z"/><path class="store14_svg1" d="M16.74,8.06V1.12a.5.5,0,0,0-.22-.45.3.3,0,0,1-.15-.24V.17c0-.09.05-.13.15-.13h2.11l.67,4.27L20,0H22.1a.11.11,0,0,1,.12.12V.43a.3.3,0,0,1-.15.24.5.5,0,0,0-.22.45V8.06a.51.51,0,0,0,.23.45.28.28,0,0,1,.14.24V9c0,.09,0,.14-.15.14H20.31c-.08,0-.12,0-.12-.13V8.75a.28.28,0,0,1,.14-.24.51.51,0,0,0,.23-.45V1l-1.27,8.2h-.46L17.58,1V8.06a.5.5,0,0,0,.22.45.3.3,0,0,1,.15.24V9c0,.09-.05.14-.15.14H16.49c-.08,0-.12,0-.12-.13V8.75a.3.3,0,0,1,.15-.24A.5.5,0,0,0,16.74,8.06Z"/><path class="store14_svg1" d="M25.23,8.06a.5.5,0,0,0,.22.45.3.3,0,0,1,.15.24V9c0,.09-.05.14-.15.14H23.62c-.09,0-.13,0-.13-.13V8.75a.3.3,0,0,1,.15-.24.51.51,0,0,0,.23-.45V1.12a.51.51,0,0,0-.23-.45.3.3,0,0,1-.15-.24V.17c0-.09.05-.13.15-.13h1.83c.09,0,.13,0,.13.12V.43a.3.3,0,0,1-.15.24.5.5,0,0,0-.22.45Z"/><path class="store14_svg1" d="M30.33,5V1.12a.5.5,0,0,0-.22-.45A.3.3,0,0,1,30,.43V.17C30,.08,30,0,30.11,0h1.32c.09,0,.13,0,.13.12V.43a.3.3,0,0,1-.15.24.5.5,0,0,0-.22.45V9c0,.12-.06.19-.17.19h-.26A.26.26,0,0,1,30.51,9L28.08,2.61V8.06a.52.52,0,0,0,.22.45.29.29,0,0,1,.16.24V9c0,.09-.06.14-.16.14H27c-.09,0-.13,0-.13-.13V8.75A.3.3,0,0,1,27,8.51a.5.5,0,0,0,.22-.45V1.12A.5.5,0,0,0,27,.67a.3.3,0,0,1-.15-.24V.17c0-.09.05-.13.15-.13h1.24a.36.36,0,0,1,.18,0,.32.32,0,0,1,.09.15Z"/><path class="store14_svg1" d="M36.75,9.15h-4A.13.13,0,0,1,32.59,9V8.75c0-.08.07-.17.2-.27A.51.51,0,0,0,33,8.06V1.12a.54.54,0,0,0-.22-.46.27.27,0,0,1-.15-.23V.15c0-.08,0-.11.14-.11h3l.31,0,.25,0c.13,0,.2,0,.2.11V1.83c0,.09,0,.14,0,.16a.24.24,0,0,1-.15,0h-.21C36,2,36,2,36,1.85a2.76,2.76,0,0,0-.23-.78.7.7,0,0,0-.68-.33h-.73V4.06h.27a.45.45,0,0,0,.34-.1,1.89,1.89,0,0,0,.24-.6.8.8,0,0,1,.06-.18s.05,0,.11,0h.25c.11,0,.16,0,.16.14V5.51a.12.12,0,0,1-.14.14h-.27a.17.17,0,0,1-.13,0,1.28,1.28,0,0,1-.09-.27,1,1,0,0,0-.23-.51.55.55,0,0,0-.34-.09h-.23V8.45h.79a.76.76,0,0,0,.61-.21,4.13,4.13,0,0,0,.42-1.14q.06-.21.21-.21h.25a.13.13,0,0,1,.15.15Z"/></g></g></svg>