<svg xmlns="http://www.w3.org/2000/svg" viewBox="0 0 37.06 9.35"><defs><style>.store08_svg1{fill:#d6bc6e;}</style></defs><title>store08</title><g id="レイヤー_2" data-name="レイヤー 2"><g id="レイヤー_1-2" data-name="レイヤー 1"><path class="store08_svg1" d="M2.43,9.35A1.94,1.94,0,0,1,.6,8.12,7.88,7.88,0,0,1,0,4.72,8,8,0,0,1,.61,1.27,1.9,1.9,0,0,1,2.37,0,1.93,1.93,0,0,1,4.09,1.17a7.61,7.61,0,0,1,.63,3.48,7.68,7.68,0,0,1-.63,3.52A1.87,1.87,0,0,1,2.43,9.35Zm-.07-.63a.58.58,0,0,0,.48-.34,4.94,4.94,0,0,0,.32-1.86c.06-1,.09-1.95.09-2.8a9.81,9.81,0,0,0-.14-1.88,2.52,2.52,0,0,0-.3-1A.52.52,0,0,0,2.38.67.56.56,0,0,0,2,.83a1.3,1.3,0,0,0-.27.59,13.47,13.47,0,0,0-.17,1.66c0,.82-.07,1.68-.07,2.56A8.75,8.75,0,0,0,1.7,8C1.84,8.48,2.06,8.72,2.36,8.72Z"/><path class="store08_svg1" d="M8.64,5.43h1.48a.38.38,0,0,1,.19,0,.24.24,0,0,1,0,.14s0,.1,0,.21,0,.46,0,.63V8.08a.37.37,0,0,0,.08.25.19.19,0,0,1,.08.15V8.7a.28.28,0,0,1-.15.22,3.17,3.17,0,0,1-1.62.43Q6,9.35,6,5a10.67,10.67,0,0,1,.26-2.36A4.48,4.48,0,0,1,7.18.77,1.76,1.76,0,0,1,8.52,0,1.88,1.88,0,0,1,9.3.2a.49.49,0,0,0,.19.06A.47.47,0,0,0,9.63.21l.13,0H10c.11,0,.16.05.16.15V2.27c0,.11-.05.17-.15.17H9.76c-.08,0-.13,0-.14,0A2.5,2.5,0,0,1,9.52,2C9.33,1.13,9,.67,8.5.67A.67.67,0,0,0,7.92,1a3.63,3.63,0,0,0-.33,1.49C7.53,3.26,7.5,4,7.5,4.81a18.44,18.44,0,0,0,.09,2A7.34,7.34,0,0,0,7.81,8a1.11,1.11,0,0,0,.31.54.64.64,0,0,0,.42.15c.34,0,.51-.24.51-.74V6.7A.92.92,0,0,0,9,6.23.64.64,0,0,0,8.63,6a.17.17,0,0,1-.13-.16V5.57A.13.13,0,0,1,8.64,5.43Z"/><path class="store08_svg1" d="M13.49,8.14a.51.51,0,0,0,.23.46.3.3,0,0,1,.15.24V9.1c0,.09,0,.13-.15.13H11.89c-.09,0-.13,0-.13-.12V8.84a.3.3,0,0,1,.15-.24.52.52,0,0,0,.22-.46V1.21a.5.5,0,0,0-.22-.45.3.3,0,0,1-.15-.24V.26c0-.09.05-.14.15-.14h1.83c.09,0,.13,0,.13.13V.52a.3.3,0,0,1-.15.24.51.51,0,0,0-.23.45Z"/><path class="store08_svg1" d="M16.87,3.7l1.21-2.49a.6.6,0,0,0,.07-.27c0-.06,0-.13-.15-.2a.28.28,0,0,1-.15-.22V.28A.14.14,0,0,1,18,.12h1.73c.12,0,.18.06.18.16V.52a.21.21,0,0,1,0,.15,1.15,1.15,0,0,1-.21.13,1.84,1.84,0,0,0-.89.87l-.92,1.85,1.46,4.27a1.51,1.51,0,0,0,.57.78.39.39,0,0,1,.2.3v.19c0,.12-.06.17-.18.17H18c-.13,0-.19-.05-.19-.17V8.88a.34.34,0,0,1,.12-.26c.15-.11.23-.21.23-.29a.74.74,0,0,0,0-.18L16.87,4.66V8.14a.53.53,0,0,0,.23.46.3.3,0,0,1,.15.24V9.1c0,.09-.05.13-.15.13H15.27c-.09,0-.13,0-.13-.12V8.84a.3.3,0,0,1,.15-.24.51.51,0,0,0,.22-.46V1.21a.5.5,0,0,0-.22-.45.3.3,0,0,1-.15-.24V.26c0-.09,0-.14.15-.14h1.83c.09,0,.13,0,.13.13V.52a.3.3,0,0,1-.15.24.51.51,0,0,0-.23.45Z"/><path class="store08_svg1" d="M25.23,7.12a2.33,2.33,0,0,1-.54,1.64,1.79,1.79,0,0,1-1.39.59,1.83,1.83,0,0,1-1.41-.58,2.16,2.16,0,0,1-.56-1.54v-6a.5.5,0,0,0-.22-.45A.3.3,0,0,1,21,.52V.26c0-.09.05-.14.15-.14h1.83c.09,0,.13,0,.13.13V.52a.3.3,0,0,1-.15.24.51.51,0,0,0-.23.45V7.3c0,.81.27,1.21.81,1.21s.89-.47.89-1.43V1.21a.52.52,0,0,0-.22-.45A.29.29,0,0,1,24,.52V.26c0-.09,0-.14.16-.14h1.3c.09,0,.13,0,.13.13V.52a.3.3,0,0,1-.15.24.5.5,0,0,0-.22.45Z"/><path class="store08_svg1" d="M29.35,4.58a2.22,2.22,0,0,1,1.77,2.25,2.39,2.39,0,0,1-.35,1.3,2,2,0,0,1-1,.84,3.16,3.16,0,0,1-1.26.26h-1.8c-.07,0-.1,0-.1-.11V8.84a.31.31,0,0,1,.15-.24A.52.52,0,0,0,27,8.14V1.21a.51.51,0,0,0-.22-.46.27.27,0,0,1-.15-.23V.25c0-.09.05-.13.14-.13h1.87a2.34,2.34,0,0,1,1.68.62A2.15,2.15,0,0,1,31,2.34a2.52,2.52,0,0,1-.36,1.3A2.38,2.38,0,0,1,29.35,4.58Zm-1-3.74v3.4c.83,0,1.24-.56,1.24-1.7a2.6,2.6,0,0,0-.17-1A1,1,0,0,0,29,1,1.55,1.55,0,0,0,28.36.84Zm0,4.08V8.54a1.84,1.84,0,0,0,.78-.17,1,1,0,0,0,.44-.54,3,3,0,0,0,.15-1,2.44,2.44,0,0,0-.32-1.4A1.18,1.18,0,0,0,28.36,4.92Z"/><path class="store08_svg1" d="M34.76,9.35a1.93,1.93,0,0,1-1.82-1.23,7.86,7.86,0,0,1-.61-3.4,8.2,8.2,0,0,1,.61-3.45,1.85,1.85,0,0,1,3.48-.1,7.46,7.46,0,0,1,.64,3.48,7.68,7.68,0,0,1-.63,3.52A1.88,1.88,0,0,1,34.76,9.35Zm-.06-.63a.6.6,0,0,0,.48-.34,5,5,0,0,0,.31-1.86c.07-1,.1-1.95.1-2.8a10.69,10.69,0,0,0-.14-1.88,2.67,2.67,0,0,0-.31-1,.51.51,0,0,0-.42-.21.56.56,0,0,0-.39.16,1.12,1.12,0,0,0-.27.59,13.47,13.47,0,0,0-.17,1.66c0,.82-.07,1.68-.07,2.56A9.3,9.3,0,0,0,34,8C34.18,8.48,34.4,8.72,34.7,8.72Z"/></g></g></svg>