<svg xmlns="http://www.w3.org/2000/svg" xmlns:xlink="http://www.w3.org/1999/xlink" viewBox="0 0 41.16 9.33"><defs><style>.store01_svg1{fill:none;}.store01_svg2{}.store01_svg3{fill:#d6bc6e;}</style><clipPath id="clip-path"><rect class="store01_svg1" width="41.16" height="9.33"/></clipPath></defs><title>store01</title><g id="レイヤー_2" data-name="レイヤー 2"><g id="レイヤー_1-2" data-name="レイヤー 1"><g class="store01_svg2"><path class="store01_svg3" d="M.5,9.18H.21A.14.14,0,0,1,.06,9V6.81c0-.15.06-.22.16-.22H.47a.16.16,0,0,1,.14.06,3.1,3.1,0,0,1,.09.47c.16,1,.52,1.53,1.09,1.53a.78.78,0,0,0,.7-.38,1.67,1.67,0,0,0,.26-.94,2,2,0,0,0-.28-1A7.16,7.16,0,0,0,1.42,5,11.58,11.58,0,0,1,.56,4a3.46,3.46,0,0,1-.41-.79,2.93,2.93,0,0,1-.15-1A2.5,2.5,0,0,1,.49.63,1.45,1.45,0,0,1,1.68,0a1.54,1.54,0,0,1,.69.18A.63.63,0,0,0,2.6.27.24.24,0,0,0,2.72.22a.34.34,0,0,1,.18,0h.22c.11,0,.17.05.17.15V2.27c0,.1,0,.15-.13.15H2.89c-.07,0-.12,0-.14-.06a2,2,0,0,1-.11-.42C2.45,1.09,2.15.67,1.74.67A.64.64,0,0,0,1.2,1,1.11,1.11,0,0,0,1,1.6a1.88,1.88,0,0,0,.24.88,5.73,5.73,0,0,0,1,1.17A6.9,6.9,0,0,1,3.44,5.29a3.44,3.44,0,0,1,.35,1.53,2.71,2.71,0,0,1-.58,1.81,1.75,1.75,0,0,1-1.39.7A2.27,2.27,0,0,1,1,9.14a.82.82,0,0,0-.21-.07.29.29,0,0,0-.15.06.28.28,0,0,1-.12,0"/><path class="store01_svg3" d="M9.33,1.15V8.09a.5.5,0,0,0,.22.45.3.3,0,0,1,.15.24V9c0,.09,0,.14-.15.14H7.73a.12.12,0,0,1-.13-.13V8.78a.31.31,0,0,1,.14-.24A.49.49,0,0,0,8,8.09V4.73H6.62V8.09a.5.5,0,0,0,.22.45A.3.3,0,0,1,7,8.78V9c0,.09,0,.14-.15.14H5a.12.12,0,0,1-.13-.13V8.78A.29.29,0,0,1,5,8.54a.52.52,0,0,0,.22-.45V1.15A.52.52,0,0,0,5,.7.29.29,0,0,1,4.88.46V.2c0-.09,0-.14.16-.14H6.86A.12.12,0,0,1,7,.19V.46A.3.3,0,0,1,6.84.7a.5.5,0,0,0-.22.45V3.91H8V1.15A.49.49,0,0,0,7.74.7.3.3,0,0,1,7.59.46V.2c0-.09,0-.14.15-.14H9.57c.08,0,.12.05.12.13V.46A.28.28,0,0,1,9.55.7a.5.5,0,0,0-.22.45"/><path class="store01_svg3" d="M12.7,8.09a.52.52,0,0,0,.22.45.29.29,0,0,1,.16.24V9c0,.09-.05.14-.16.14H11.1c-.09,0-.13,0-.13-.13V8.78a.3.3,0,0,1,.15-.24.5.5,0,0,0,.22-.45V1.15A.5.5,0,0,0,11.12.7.3.3,0,0,1,11,.46V.2c0-.09,0-.13.15-.13H13c.08,0,.13,0,.13.12V.46a.29.29,0,0,1-.16.24.52.52,0,0,0-.22.45Z"/><path class="store01_svg3" d="M17.81,5V1.15A.51.51,0,0,0,17.58.7a.3.3,0,0,1-.15-.24V.2c0-.09.05-.14.15-.14h1.33A.12.12,0,0,1,19,.19V.46a.3.3,0,0,1-.15.24.51.51,0,0,0-.23.45V9c0,.12-.06.19-.17.19h-.26A.25.25,0,0,1,18,9L15.56,2.64V8.09a.5.5,0,0,0,.22.45.3.3,0,0,1,.15.24V9c0,.09,0,.14-.15.14H14.47a.12.12,0,0,1-.13-.13V8.78a.3.3,0,0,1,.15-.24.51.51,0,0,0,.23-.45V1.15A.51.51,0,0,0,14.49.7a.3.3,0,0,1-.15-.24V.2c0-.09.05-.14.15-.14h1.24a.34.34,0,0,1,.18,0,.32.32,0,0,1,.1.15Z"/><path class="store01_svg3" d="M21.7,7.57V1.15A.51.51,0,0,0,21.47.7a.3.3,0,0,1-.15-.24V.2c0-.09.05-.14.15-.14H23.3c.08,0,.12.05.12.13V.46a.28.28,0,0,1-.14.24.51.51,0,0,0-.23.45V6.86a2.59,2.59,0,0,1-.55,1.75,1.68,1.68,0,0,1-1.36.65,1.4,1.4,0,0,1-1-.31,1,1,0,0,1-.36-.75A.64.64,0,0,1,20,7.73a.66.66,0,0,1,.51-.2.62.62,0,0,1,.41.14.44.44,0,0,1,.16.36,1.48,1.48,0,0,1,0,.26.69.69,0,0,0,0,.13c0,.15.08.23.25.23s.41-.36.41-1.08"/><path class="store01_svg3" d="M28.93,7.06A2.33,2.33,0,0,1,28.4,8.7,1.76,1.76,0,0,1,27,9.29a1.86,1.86,0,0,1-1.42-.58A2.18,2.18,0,0,1,25,7.17v-6A.5.5,0,0,0,24.82.7a.3.3,0,0,1-.15-.24V.2c0-.09,0-.14.15-.14h1.83a.12.12,0,0,1,.13.13V.46a.3.3,0,0,1-.15.24.51.51,0,0,0-.23.45V7.24c0,.81.27,1.22.81,1.22S28.1,8,28.1,7V1.15A.51.51,0,0,0,27.87.7a.3.3,0,0,1-.15-.24V.2c0-.09.05-.14.15-.14h1.31a.12.12,0,0,1,.13.13V.46a.3.3,0,0,1-.15.24.51.51,0,0,0-.23.45Z"/><path class="store01_svg3" d="M32.31,3.64l1.21-2.49a.6.6,0,0,0,.07-.27c0-.06-.05-.12-.15-.19a.29.29,0,0,1-.15-.23V.22a.14.14,0,0,1,.15-.16h1.73c.12,0,.18.06.18.16V.46a.21.21,0,0,1,0,.15,1.15,1.15,0,0,1-.21.13,1.86,1.86,0,0,0-.9.87l-.91,1.85,1.46,4.27a1.51,1.51,0,0,0,.57.78.39.39,0,0,1,.2.3V9c0,.11-.06.17-.18.17H33.4c-.13,0-.19-.06-.19-.18V8.82a.3.3,0,0,1,.12-.25c.15-.12.22-.21.22-.3a.67.67,0,0,0,0-.18L32.31,4.6V8.09a.52.52,0,0,0,.22.45.29.29,0,0,1,.16.24V9c0,.09,0,.14-.16.14H30.71a.12.12,0,0,1-.13-.13V8.78a.3.3,0,0,1,.15-.24A.5.5,0,0,0,31,8.09V1.15A.5.5,0,0,0,30.73.7a.3.3,0,0,1-.15-.24V.2c0-.09.05-.14.15-.14h1.83a.12.12,0,0,1,.13.13V.46a.29.29,0,0,1-.16.24.52.52,0,0,0-.22.45Z"/><path class="store01_svg3" d="M40.78,7.06a2.33,2.33,0,0,1-.53,1.64,1.76,1.76,0,0,1-1.39.59,1.86,1.86,0,0,1-1.42-.58,2.18,2.18,0,0,1-.55-1.54v-6A.5.5,0,0,0,36.67.7a.3.3,0,0,1-.15-.24V.2c0-.09,0-.14.15-.14H38.5a.12.12,0,0,1,.13.13V.46a.3.3,0,0,1-.15.24.51.51,0,0,0-.23.45V7.24c0,.81.27,1.22.81,1.22S40,8,40,7V1.15A.51.51,0,0,0,39.72.7a.3.3,0,0,1-.15-.24V.2c0-.09,0-.14.15-.14H41a.12.12,0,0,1,.13.13V.46A.3.3,0,0,1,41,.7a.51.51,0,0,0-.23.45Z"/></g></g></g></svg>