<svg xmlns="http://www.w3.org/2000/svg" viewBox="0 0 47.89 9.35"><defs><style>.store06_svg1{fill:#d6bc6e;}</style></defs><title>store06</title><g id="レイヤー_2" data-name="レイヤー 2"><g id="レイヤー_1-2" data-name="レイヤー 1"><path class="store06_svg1" d="M2.84.8V8.14a.53.53,0,0,0,.22.46.29.29,0,0,1,.16.24V9.1c0,.09-.05.13-.16.13H1.24c-.09,0-.13,0-.13-.12V8.84a.3.3,0,0,1,.15-.24.52.52,0,0,0,.22-.46V.8H1.22A.47.47,0,0,0,.8,1,2.8,2.8,0,0,0,.55,2a.11.11,0,0,1-.12.1H.2C.07,2.07,0,2,0,1.9V.2C0,.07.06,0,.19,0L.6.05a5.06,5.06,0,0,0,.73.07H3.4L3.79.06l.39,0c.1,0,.16,0,.16.14V1.9c0,.12,0,.17-.16.17H4c-.09,0-.14,0-.16-.07a3.09,3.09,0,0,1-.09-.38A2.08,2.08,0,0,0,3.5,1,.45.45,0,0,0,3.11.8Z"/><path class="store06_svg1" d="M6.54,1.28l0-.4c0-.13,0-.2,0-.22s0-.07.09-.1l1-.46H7.6c.05,0,.09,0,.1.1l1.59,8a1,1,0,0,0,.1.31.74.74,0,0,0,.24.2.22.22,0,0,1,.13.19v.25c0,.1,0,.14-.11.14H7.7c-.11,0-.16,0-.16-.14V8.84c0-.09.06-.17.19-.23A.38.38,0,0,0,8,8.27a.69.69,0,0,0,0-.13L7.7,6.91H6.17L5.92,8.09a.45.45,0,0,0,.25.5.38.38,0,0,1,.17.25v.25c0,.1-.06.14-.17.14H4.94c-.13,0-.2,0-.2-.14v-.3a.22.22,0,0,1,.13-.2.72.72,0,0,0,.31-.5ZM7,3.16l-.61,3H7.55Z"/><path class="store06_svg1" d="M14.58,7A3.05,3.05,0,0,1,14,8.72a1.49,1.49,0,0,1-1.24.63,2,2,0,0,1-1.75-1.18,7.29,7.29,0,0,1-.66-3.47A7.74,7.74,0,0,1,11,1.22,1.9,1.9,0,0,1,12.68,0a1.86,1.86,0,0,1,.92.28.21.21,0,0,0,.11,0s.06,0,.12-.07a.15.15,0,0,1,.09-.07h.34c.07,0,.11.06.11.17V2.27c0,.11,0,.17-.11.17H14a.18.18,0,0,1-.17-.07A1.4,1.4,0,0,1,13.71,2c-.23-.9-.55-1.35-.94-1.35a.58.58,0,0,0-.53.35A4,4,0,0,0,12,2.35a18.49,18.49,0,0,0-.1,2,14.59,14.59,0,0,0,.25,3.21c.16.68.45,1,.86,1s.81-.55,1-1.64Z"/><path class="store06_svg1" d="M20.17,1.21V8.14a.51.51,0,0,0,.22.46.3.3,0,0,1,.15.24V9.1c0,.09-.05.13-.15.13H18.57c-.09,0-.13,0-.13-.12V8.84a.31.31,0,0,1,.14-.24.5.5,0,0,0,.23-.46V4.79H17.46V8.14a.51.51,0,0,0,.22.46.3.3,0,0,1,.15.24V9.1c0,.09,0,.13-.15.13H15.85c-.08,0-.13,0-.13-.12V8.84a.31.31,0,0,1,.16-.24.52.52,0,0,0,.22-.46V1.21a.5.5,0,0,0-.22-.45.31.31,0,0,1-.16-.24V.26c0-.09.06-.14.16-.14h1.83c.08,0,.12,0,.12.13V.52a.3.3,0,0,1-.15.24.5.5,0,0,0-.22.45V4h1.35V1.21a.49.49,0,0,0-.23-.45.3.3,0,0,1-.15-.24V.26c0-.09.05-.14.15-.14h1.83a.12.12,0,0,1,.13.13V.52a.3.3,0,0,1-.15.24A.5.5,0,0,0,20.17,1.21Z"/><path class="store06_svg1" d="M23.54,8.14a.53.53,0,0,0,.22.46.29.29,0,0,1,.16.24V9.1c0,.09-.05.13-.16.13H21.94c-.09,0-.13,0-.13-.12V8.84A.3.3,0,0,1,22,8.6a.52.52,0,0,0,.22-.46V1.21A.5.5,0,0,0,22,.76a.3.3,0,0,1-.15-.24V.26c0-.09.05-.14.15-.14h1.83a.12.12,0,0,1,.13.13V.52a.29.29,0,0,1-.16.24.52.52,0,0,0-.22.45Z"/><path class="store06_svg1" d="M26.92,3.7l1.2-2.49a.6.6,0,0,0,.07-.27.27.27,0,0,0-.14-.2A.28.28,0,0,1,27.9.52V.28a.14.14,0,0,1,.15-.16h1.73c.12,0,.18.06.18.16V.52a.21.21,0,0,1-.05.15,1,1,0,0,1-.2.13,1.82,1.82,0,0,0-.9.87l-.92,1.85,1.47,4.27a1.51,1.51,0,0,0,.57.78.41.41,0,0,1,.2.3v.19c0,.12-.06.17-.18.17H28c-.12,0-.19-.05-.19-.17V8.88a.32.32,0,0,1,.13-.26c.14-.11.22-.21.22-.29a.45.45,0,0,0,0-.18l-1.2-3.49V8.14a.52.52,0,0,0,.22.46.3.3,0,0,1,.15.24V9.1c0,.09-.05.13-.15.13H25.31c-.08,0-.13,0-.13-.12V8.84a.3.3,0,0,1,.15-.24.51.51,0,0,0,.23-.46V1.21a.51.51,0,0,0-.23-.45.3.3,0,0,1-.15-.24V.26c0-.09.05-.14.15-.14h1.83c.09,0,.13,0,.13.13V.52a.3.3,0,0,1-.15.24.5.5,0,0,0-.22.45Z"/><path class="store06_svg1" d="M32.62,1.28l-.06-.4c0-.13,0-.2,0-.22s0-.07.09-.1l1-.46h.05s.09,0,.1.1l1.59,8a1,1,0,0,0,.1.31.74.74,0,0,0,.24.2.23.23,0,0,1,.14.19v.25c0,.1,0,.14-.12.14H33.77c-.11,0-.16,0-.16-.14V8.84c0-.09.06-.17.19-.23A.38.38,0,0,0,34,8.27s0-.08,0-.13l-.25-1.23H32.24L32,8.09a.28.28,0,0,0,0,.11.54.54,0,0,0,.26.39.38.38,0,0,1,.17.25v.25c0,.1-.06.14-.17.14H31c-.13,0-.2,0-.2-.14v-.3a.22.22,0,0,1,.13-.2.72.72,0,0,0,.31-.5ZM33,3.16l-.61,3h1.21Z"/><path class="store06_svg1" d="M40.83,5.4l.7-4a1.11,1.11,0,0,0,0-.19.4.4,0,0,0-.27-.39c-.14-.07-.21-.15-.21-.25V.28c0-.1.06-.16.19-.16h1.31a.18.18,0,0,1,.2.19V.54c0,.07-.05.14-.16.21a.77.77,0,0,0-.33.53L40.87,9.16c0,.13-.08.19-.16.19h-.26c-.07,0-.12-.06-.14-.19l-1-5.23L38.4,9.16c0,.13-.08.19-.16.19H38c-.08,0-.13-.06-.15-.19l-1.51-8A.46.46,0,0,0,36,.74a.18.18,0,0,1-.14-.19V.28c0-.11.06-.16.17-.16h1.71c.08,0,.11,0,.11.1V.57c0,.07,0,.11-.11.14a.35.35,0,0,0-.21.33,1.41,1.41,0,0,0,0,.18l.78,4.18L39,1.93l-.15-.82a.47.47,0,0,0-.31-.35c-.08,0-.12-.08-.12-.14V.24c0-.08,0-.12.11-.12h1.81c.09,0,.13,0,.13.12V.45a.43.43,0,0,1,0,.2s-.06.08-.15.12a.36.36,0,0,0-.22.32.69.69,0,0,0,0,.13Z"/><path class="store06_svg1" d="M44.67,1.28l-.05-.4c0-.13,0-.2,0-.22s0-.07.09-.1l1-.46h.06c.05,0,.09,0,.1.1l1.59,8a1,1,0,0,0,.1.31.74.74,0,0,0,.24.2.22.22,0,0,1,.13.19v.25c0,.1,0,.14-.11.14h-2c-.11,0-.16,0-.16-.14V8.84c0-.09.06-.17.19-.23a.37.37,0,0,0,.22-.34.62.62,0,0,0,0-.13l-.24-1.23H44.3l-.25,1.18a.45.45,0,0,0,.25.5.38.38,0,0,1,.17.25v.25c0,.1-.06.14-.17.14H43.07c-.14,0-.2,0-.2-.14v-.3a.22.22,0,0,1,.13-.2.72.72,0,0,0,.31-.5Zm.41,1.88-.61,3h1.21Z"/></g></g></svg>