<svg xmlns="http://www.w3.org/2000/svg" viewBox="0 0 50.99 9.35"><defs><style>.store03_svg1{fill:#d6bc6e;}</style></defs><title>store03</title><g id="レイヤー_2" data-name="レイヤー 2"><g id="レイヤー_1-2" data-name="レイヤー 1"><path class="store03_svg1" d="M3,5.17v3a.49.49,0,0,0,.23.46.31.31,0,0,1,.14.24V9.1c0,.09-.05.13-.15.13H1.41c-.08,0-.13,0-.13-.12V8.84a.29.29,0,0,1,.16-.24.54.54,0,0,0,.22-.46v-3l-1.17-4A.75.75,0,0,0,.13.74.19.19,0,0,1,0,.54V.25C0,.17,0,.12.11.12H2c.11,0,.17.05.17.16V.56c0,.07-.06.12-.17.16S1.75.87,1.75,1a.32.32,0,0,0,0,.13L2.63,4,3.4,1.36a1.45,1.45,0,0,0,0-.28c0-.15-.09-.26-.27-.34S3,.64,3,.57V.26A.13.13,0,0,1,3.16.12H4.62c.11,0,.17.05.17.13V.56c0,.08-.06.15-.17.2a.81.81,0,0,0-.44.49Z"/><path class="store03_svg1" d="M10.26,7.12a2.33,2.33,0,0,1-.54,1.64,1.79,1.79,0,0,1-1.39.59,1.86,1.86,0,0,1-1.41-.58,2.15,2.15,0,0,1-.55-1.54v-6A.51.51,0,0,0,6.14.76.3.3,0,0,1,6,.52V.26c0-.09,0-.14.15-.14H8c.09,0,.13,0,.13.13V.52A.3.3,0,0,1,8,.76a.5.5,0,0,0-.22.45V7.3c0,.81.27,1.21.81,1.21s.88-.47.88-1.43V1.21A.5.5,0,0,0,9.2.76.31.31,0,0,1,9,.52V.26C9,.17,9.1.12,9.2.12h1.3c.09,0,.13,0,.13.13V.52a.3.3,0,0,1-.15.24.5.5,0,0,0-.22.45Z"/><path class="store03_svg1" d="M13.52,5V8.14a.51.51,0,0,0,.22.46.3.3,0,0,1,.15.24V9.1c0,.09-.05.13-.15.13H11.91c-.09,0-.13,0-.13-.12V8.84a.3.3,0,0,1,.15-.24.53.53,0,0,0,.23-.46V1.21a.51.51,0,0,0-.23-.45.3.3,0,0,1-.15-.24V.26c0-.09.05-.14.15-.14h1.54a2.94,2.94,0,0,1,2,.59,2.11,2.11,0,0,1,.68,1.69,2.17,2.17,0,0,1-1.64,2.28,2.15,2.15,0,0,1,.73.53,2.07,2.07,0,0,1,.39.87L16,7.94a1.36,1.36,0,0,0,.16.48.68.68,0,0,0,.26.24.13.13,0,0,1,.05.11v.34c0,.08,0,.12-.13.12H15.21A.2.2,0,0,1,15,9.05l-.8-3.23a1.76,1.76,0,0,0-.29-.69A.53.53,0,0,0,13.52,5Zm0-4.14V4.27a1.08,1.08,0,0,0,.93-.4,2.44,2.44,0,0,0,.3-1.41,1.9,1.9,0,0,0-.31-1.31A1.22,1.22,0,0,0,13.52.83Z"/><path class="store03_svg1" d="M19.25,1.28l-.06-.4c0-.13,0-.2,0-.22s0-.07.09-.1l1-.46h.05c.05,0,.09,0,.1.1l1.59,8a1,1,0,0,0,.1.31.74.74,0,0,0,.24.2.23.23,0,0,1,.14.19v.25c0,.1,0,.14-.12.14h-2c-.11,0-.16,0-.16-.14V8.84c0-.09.06-.17.19-.23a.38.38,0,0,0,.23-.34s0-.08,0-.13L20.4,6.91H18.87l-.25,1.18a.45.45,0,0,0,.25.5.38.38,0,0,1,.17.25v.25c0,.1-.06.14-.17.14H17.64c-.13,0-.2,0-.2-.14v-.3a.22.22,0,0,1,.13-.2.72.72,0,0,0,.31-.5Zm.4,1.88-.61,3h1.21Z"/><path class="store03_svg1" d="M25.18,3.7l1.21-2.49a.6.6,0,0,0,.07-.27c0-.06-.05-.13-.14-.2S26.16.6,26.16.52V.28a.14.14,0,0,1,.16-.16H28c.13,0,.19.06.19.16V.52a.21.21,0,0,1-.05.15A1.15,1.15,0,0,1,28,.8a1.84,1.84,0,0,0-.89.87l-.92,1.85,1.47,4.27a1.51,1.51,0,0,0,.57.78.41.41,0,0,1,.2.3v.19c0,.12-.07.17-.19.17H26.27c-.13,0-.19-.05-.19-.17V8.88a.34.34,0,0,1,.12-.26c.15-.11.23-.21.23-.29a.45.45,0,0,0,0-.18L25.18,4.66V8.14a.53.53,0,0,0,.23.46.3.3,0,0,1,.15.24V9.1c0,.09,0,.13-.15.13H23.58c-.09,0-.13,0-.13-.12V8.84a.3.3,0,0,1,.15-.24.51.51,0,0,0,.23-.46V1.21A.51.51,0,0,0,23.6.76a.3.3,0,0,1-.15-.24V.26c0-.09.05-.14.15-.14h1.83c.09,0,.13,0,.13.13V.52a.3.3,0,0,1-.15.24.51.51,0,0,0-.23.45Z"/><path class="store03_svg1" d="M33.78,7.12a2.33,2.33,0,0,1-.54,1.64,1.79,1.79,0,0,1-1.39.59,1.84,1.84,0,0,1-1.41-.58,2.15,2.15,0,0,1-.55-1.54v-6a.51.51,0,0,0-.23-.45.3.3,0,0,1-.15-.24V.26c0-.09,0-.14.15-.14h1.83c.09,0,.13,0,.13.13V.52a.3.3,0,0,1-.15.24.5.5,0,0,0-.22.45V7.3c0,.81.27,1.21.8,1.21s.89-.47.89-1.43V1.21a.5.5,0,0,0-.22-.45.31.31,0,0,1-.16-.24V.26c0-.09.06-.14.16-.14H34c.09,0,.13,0,.13.13V.52A.3.3,0,0,1,34,.76a.5.5,0,0,0-.22.45Z"/><path class="store03_svg1" d="M39.29,7a3.05,3.05,0,0,1-.54,1.72,1.47,1.47,0,0,1-1.23.63,2,2,0,0,1-1.75-1.18,7.29,7.29,0,0,1-.66-3.47,7.6,7.6,0,0,1,.64-3.48A1.7,1.7,0,0,1,38.32.28a.22.22,0,0,0,.1,0,.26.26,0,0,0,.12-.07.17.17,0,0,1,.1-.07H39c.08,0,.12.06.12.17V2.27c0,.11,0,.17-.12.17h-.25c-.09,0-.14,0-.17-.07A1.4,1.4,0,0,1,38.43,2c-.24-.9-.55-1.35-.94-1.35A.6.6,0,0,0,37,1a4.06,4.06,0,0,0-.28,1.33,18.49,18.49,0,0,0-.1,2,15.4,15.4,0,0,0,.24,3.21c.17.68.45,1,.86,1s.82-.55,1-1.64Z"/><path class="store03_svg1" d="M44.88,1.21V8.14a.51.51,0,0,0,.23.46.3.3,0,0,1,.15.24V9.1c0,.09,0,.13-.16.13H43.28c-.08,0-.13,0-.13-.12V8.84a.3.3,0,0,1,.15-.24.53.53,0,0,0,.23-.46V4.79H42.17V8.14a.51.51,0,0,0,.23.46.3.3,0,0,1,.15.24V9.1c0,.09,0,.13-.15.13H40.57c-.09,0-.13,0-.13-.12V8.84a.3.3,0,0,1,.15-.24.53.53,0,0,0,.23-.46V1.21a.51.51,0,0,0-.23-.45.3.3,0,0,1-.15-.24V.26c0-.09.05-.14.15-.14h1.83c.09,0,.13,0,.13.13V.52a.3.3,0,0,1-.15.24.51.51,0,0,0-.23.45V4h1.36V1.21A.51.51,0,0,0,43.3.76a.3.3,0,0,1-.15-.24V.26c0-.09.05-.14.15-.14h1.82c.09,0,.13,0,.13.13V.52a.31.31,0,0,1-.14.24A.51.51,0,0,0,44.88,1.21Z"/><path class="store03_svg1" d="M48.69,9.35a1.94,1.94,0,0,1-1.82-1.23,7.88,7.88,0,0,1-.6-3.4,8.22,8.22,0,0,1,.6-3.45,1.85,1.85,0,0,1,3.48-.1A7.46,7.46,0,0,1,51,4.65a7.68,7.68,0,0,1-.63,3.52A1.88,1.88,0,0,1,48.69,9.35Zm-.06-.63a.6.6,0,0,0,.48-.34,5,5,0,0,0,.31-1.86c.07-1,.1-1.95.1-2.8a10.69,10.69,0,0,0-.14-1.88,2.67,2.67,0,0,0-.31-1,.51.51,0,0,0-.42-.21.56.56,0,0,0-.39.16,1.3,1.3,0,0,0-.27.59,13.47,13.47,0,0,0-.17,1.66c0,.82-.07,1.68-.07,2.56A8.75,8.75,0,0,0,48,8C48.11,8.48,48.33,8.72,48.63,8.72Z"/></g></g></svg>