<svg xmlns="http://www.w3.org/2000/svg" viewBox="0 0 47.94 9.35"><defs><style>.store05_svg1{fill:#d6bc6e;}</style></defs><title>store05</title><g id="レイヤー_2" data-name="レイヤー 2"><g id="レイヤー_1-2" data-name="レイヤー 1"><path class="store05_svg1" d="M1.73,8.14A.51.51,0,0,0,2,8.6a.3.3,0,0,1,.15.24V9.1c0,.09,0,.13-.15.13H.13C0,9.23,0,9.19,0,9.11V8.84A.3.3,0,0,1,.15,8.6a.53.53,0,0,0,.23-.46V1.21A.51.51,0,0,0,.15.76.3.3,0,0,1,0,.52V.26C0,.17.05.12.15.12H2c.09,0,.13,0,.13.13V.52A.3.3,0,0,1,2,.76a.51.51,0,0,0-.23.45Z"/><path class="store05_svg1" d="M5.11,3.7,6.32,1.21A.6.6,0,0,0,6.39.94c0-.06,0-.13-.15-.2A.28.28,0,0,1,6.09.52V.28A.14.14,0,0,1,6.24.12H8c.12,0,.18.06.18.16V.52a.21.21,0,0,1,0,.15A1.15,1.15,0,0,1,7.9.8,1.84,1.84,0,0,0,7,1.67L6.09,3.52,7.55,7.79a1.51,1.51,0,0,0,.57.78.39.39,0,0,1,.2.3v.19c0,.12-.06.17-.18.17H6.2c-.13,0-.19-.05-.19-.17V8.88a.34.34,0,0,1,.12-.26c.15-.11.23-.21.23-.29a.74.74,0,0,0,0-.18L5.11,4.66V8.14a.53.53,0,0,0,.23.46.3.3,0,0,1,.15.24V9.1c0,.09,0,.13-.15.13H3.51c-.09,0-.13,0-.13-.12V8.84a.3.3,0,0,1,.15-.24.51.51,0,0,0,.22-.46V1.21A.5.5,0,0,0,3.53.76.3.3,0,0,1,3.38.52V.26c0-.09.05-.14.15-.14H5.36c.09,0,.13,0,.13.13V.52a.3.3,0,0,1-.15.24.51.51,0,0,0-.23.45Z"/><path class="store05_svg1" d="M13.68,9.23h-4a.12.12,0,0,1-.14-.14V8.84c0-.09.06-.18.19-.27a.49.49,0,0,0,.17-.43V1.21A.52.52,0,0,0,9.68.75.28.28,0,0,1,9.53.52V.23c0-.07.05-.11.14-.11H13l.26,0c.13,0,.19,0,.19.1V1.92c0,.09,0,.14,0,.16a.4.4,0,0,1-.15,0h-.22c-.09,0-.14-.05-.16-.16a2.32,2.32,0,0,0-.23-.78A.67.67,0,0,0,12,.83h-.74V4.15h.27a.46.46,0,0,0,.35-.1,1.73,1.73,0,0,0,.23-.6,1,1,0,0,1,.07-.19h.36c.1,0,.15,0,.15.14V5.6c0,.1,0,.14-.14.14h-.27c-.06,0-.1,0-.12,0a.86.86,0,0,1-.09-.27,1,1,0,0,0-.23-.51.57.57,0,0,0-.34-.09h-.24V8.54H12a.74.74,0,0,0,.61-.21,3.73,3.73,0,0,0,.43-1.14q0-.21.21-.21h.25a.12.12,0,0,1,.14.14Z"/><path class="store05_svg1" d="M17.63,4.58a2.21,2.21,0,0,1,1.78,2.25,2.48,2.48,0,0,1-.35,1.3,2,2,0,0,1-1,.84,3.16,3.16,0,0,1-1.26.26H15a.1.1,0,0,1-.11-.11V8.84a.31.31,0,0,1,.15-.24.53.53,0,0,0,.23-.46V1.21a.51.51,0,0,0-.23-.46.27.27,0,0,1-.15-.23V.25c0-.09.05-.13.15-.13h1.87A2.3,2.3,0,0,1,18.6.74a2.12,2.12,0,0,1,.64,1.6,2.52,2.52,0,0,1-.36,1.3A2.4,2.4,0,0,1,17.63,4.58Zm-1-3.74v3.4c.83,0,1.25-.56,1.25-1.7a2.79,2.79,0,0,0-.17-1A.94.94,0,0,0,17.3,1,1.48,1.48,0,0,0,16.64.84Zm0,4.08V8.54a1.8,1.8,0,0,0,.78-.17,1,1,0,0,0,.45-.54,3,3,0,0,0,.15-1,2.52,2.52,0,0,0-.32-1.4A1.2,1.2,0,0,0,16.64,4.92Z"/><path class="store05_svg1" d="M24.56,7.12A2.38,2.38,0,0,1,24,8.76a1.81,1.81,0,0,1-1.4.59,1.86,1.86,0,0,1-1.41-.58,2.15,2.15,0,0,1-.55-1.54v-6a.52.52,0,0,0-.22-.45.29.29,0,0,1-.16-.24V.26c0-.09.05-.14.16-.14h1.82c.09,0,.13,0,.13.13V.52a.3.3,0,0,1-.15.24.5.5,0,0,0-.22.45V7.3c0,.81.27,1.21.81,1.21s.88-.47.88-1.43V1.21A.5.5,0,0,0,23.5.76a.3.3,0,0,1-.15-.24V.26c0-.09,0-.14.15-.14h1.31c.08,0,.12,0,.12.13V.52a.3.3,0,0,1-.15.24.5.5,0,0,0-.22.45Z"/><path class="store05_svg1" d="M27.94,3.7l1.2-2.49a.6.6,0,0,0,.07-.27.27.27,0,0,0-.14-.2.28.28,0,0,1-.15-.22V.28a.14.14,0,0,1,.15-.16H30.8c.12,0,.18.06.18.16V.52a.21.21,0,0,1-.05.15,1.38,1.38,0,0,1-.2.13,1.82,1.82,0,0,0-.9.87l-.92,1.85,1.47,4.27a1.51,1.51,0,0,0,.57.78.41.41,0,0,1,.2.3v.19c0,.12-.06.17-.18.17H29c-.12,0-.19-.05-.19-.17V8.88A.32.32,0,0,1,29,8.62c.14-.11.22-.21.22-.29a.45.45,0,0,0,0-.18l-1.2-3.49V8.14a.52.52,0,0,0,.22.46.3.3,0,0,1,.15.24V9.1c0,.09,0,.13-.15.13H26.33c-.08,0-.13,0-.13-.12V8.84a.3.3,0,0,1,.15-.24.51.51,0,0,0,.23-.46V1.21a.51.51,0,0,0-.23-.45A.3.3,0,0,1,26.2.52V.26c0-.09.05-.14.15-.14h1.83c.09,0,.13,0,.13.13V.52a.3.3,0,0,1-.15.24.5.5,0,0,0-.22.45Z"/><path class="store05_svg1" d="M36.29,7.12a2.38,2.38,0,0,1-.53,1.64,1.81,1.81,0,0,1-1.4.59A1.86,1.86,0,0,1,33,8.77a2.15,2.15,0,0,1-.55-1.54v-6a.52.52,0,0,0-.22-.45A.29.29,0,0,1,32,.52V.26c0-.09,0-.14.16-.14H34c.09,0,.13,0,.13.13V.52A.3.3,0,0,1,34,.76a.5.5,0,0,0-.22.45V7.3c0,.81.27,1.21.81,1.21s.88-.47.88-1.43V1.21a.5.5,0,0,0-.22-.45.3.3,0,0,1-.15-.24V.26c0-.09.05-.14.15-.14h1.31c.08,0,.12,0,.12.13V.52a.3.3,0,0,1-.15.24.5.5,0,0,0-.22.45Z"/><path class="store05_svg1" d="M39.43,5V8.14a.51.51,0,0,0,.22.46.3.3,0,0,1,.15.24V9.1c0,.09,0,.13-.15.13H37.82c-.08,0-.13,0-.13-.12V8.84a.3.3,0,0,1,.15-.24.53.53,0,0,0,.23-.46V1.21a.51.51,0,0,0-.23-.45.3.3,0,0,1-.15-.24V.26c0-.09.05-.14.15-.14h1.54a2.94,2.94,0,0,1,2,.59A2.11,2.11,0,0,1,42,2.4a2.16,2.16,0,0,1-1.63,2.28,2.1,2.1,0,0,1,.72.53,2.07,2.07,0,0,1,.39.87L42,7.94a1.36,1.36,0,0,0,.16.48.68.68,0,0,0,.26.24.13.13,0,0,1,.05.11v.34c0,.08,0,.12-.13.12H41.12a.2.2,0,0,1-.21-.18l-.8-3.23a1.62,1.62,0,0,0-.29-.69A.53.53,0,0,0,39.43,5Zm0-4.14V4.27a1.08,1.08,0,0,0,.93-.4,2.44,2.44,0,0,0,.3-1.41,2,2,0,0,0-.3-1.31A1.26,1.26,0,0,0,39.43.83Z"/><path class="store05_svg1" d="M45.64,9.35a1.94,1.94,0,0,1-1.82-1.23,7.88,7.88,0,0,1-.6-3.4,8.22,8.22,0,0,1,.6-3.45,1.85,1.85,0,0,1,3.48-.1,7.46,7.46,0,0,1,.64,3.48,7.68,7.68,0,0,1-.63,3.52A1.88,1.88,0,0,1,45.64,9.35Zm-.06-.63a.59.59,0,0,0,.48-.34,5.17,5.17,0,0,0,.32-1.86c.06-1,.09-1.95.09-2.8a10.69,10.69,0,0,0-.14-1.88,2.48,2.48,0,0,0-.31-1A.5.5,0,0,0,45.6.67a.56.56,0,0,0-.39.16,1.3,1.3,0,0,0-.27.59,13.47,13.47,0,0,0-.17,1.66c-.05.82-.07,1.68-.07,2.56A8.75,8.75,0,0,0,44.92,8C45.06,8.48,45.28,8.72,45.58,8.72Z"/></g></g></svg>