<svg xmlns="http://www.w3.org/2000/svg" viewBox="0 0 49.27 9.39"><defs><style>.store02_svg1{fill:#d6bc6e;}</style></defs><title>lumineest</title><g id="レイヤー_2" data-name="レイヤー 2"><g id="レイヤー_1-2" data-name="レイヤー 1"><path class="store02_svg1" d="M.42,8.14V1.21A.5.5,0,0,0,.2.76.3.3,0,0,1,.05.52V.26C.05.17.1.12.2.12H2a.12.12,0,0,1,.13.13V.52A.29.29,0,0,1,2,.76a.52.52,0,0,0-.22.45V8.54h.5A.84.84,0,0,0,3,8.26a2,2,0,0,0,.36-.92,1.62,1.62,0,0,1,.07-.29s0,0,.1,0h.28c.1,0,.16,0,.16.13V9.23H.19C.06,9.23,0,9.18,0,9.06V8.84A.3.3,0,0,1,.17,8.6.49.49,0,0,0,.42,8.14Z"/><path class="store02_svg1" d="M9.11,7.12a2.33,2.33,0,0,1-.53,1.64,1.81,1.81,0,0,1-1.39.59,1.86,1.86,0,0,1-1.42-.58,2.2,2.2,0,0,1-.55-1.54v-6A.5.5,0,0,0,5,.76.3.3,0,0,1,4.85.52V.26c0-.09.05-.14.15-.14H6.83A.12.12,0,0,1,7,.25V.52A.29.29,0,0,1,6.8.76a.52.52,0,0,0-.22.45V7.3c0,.81.27,1.21.81,1.21s.89-.47.89-1.43V1.21A.51.51,0,0,0,8.05.76.3.3,0,0,1,7.9.52V.26c0-.09,0-.14.15-.14H9.36c.09,0,.13,0,.13.13V.52a.3.3,0,0,1-.15.24.51.51,0,0,0-.23.45Z"/><path class="store02_svg1" d="M11.13,8.14V1.21a.5.5,0,0,0-.22-.45.3.3,0,0,1-.15-.24V.26c0-.09.05-.14.15-.14H13l.67,4.27L14.35.12h2.14a.12.12,0,0,1,.13.13V.52a.29.29,0,0,1-.16.24.52.52,0,0,0-.22.45V8.14a.51.51,0,0,0,.23.46.3.3,0,0,1,.15.24V9.1c0,.09-.05.13-.16.13H14.7a.11.11,0,0,1-.12-.12V8.84a.31.31,0,0,1,.14-.24A.53.53,0,0,0,15,8.14V1L13.69,9.23h-.47L12,1v7.1a.53.53,0,0,0,.22.46.3.3,0,0,1,.15.24V9.1c0,.09-.05.13-.15.13h-1.3c-.09,0-.13,0-.13-.12V8.84a.3.3,0,0,1,.15-.24A.52.52,0,0,0,11.13,8.14Z"/><path class="store02_svg1" d="M19.62,8.14a.51.51,0,0,0,.22.46.3.3,0,0,1,.15.24V9.1c0,.09,0,.13-.15.13H18c-.09,0-.13,0-.13-.12V8.84A.3.3,0,0,1,18,8.6a.53.53,0,0,0,.23-.46V1.21A.51.51,0,0,0,18,.76a.3.3,0,0,1-.15-.24V.26c0-.09.05-.14.15-.14h1.83c.09,0,.13,0,.13.13V.52a.3.3,0,0,1-.15.24.5.5,0,0,0-.22.45Z"/><path class="store02_svg1" d="M24.72,5.06V1.21A.5.5,0,0,0,24.5.76a.3.3,0,0,1-.15-.24V.26c0-.09,0-.14.15-.14h1.32c.09,0,.13,0,.13.13V.52a.3.3,0,0,1-.15.24.5.5,0,0,0-.22.45V9.09c0,.12-.06.19-.17.19h-.26a.26.26,0,0,1-.25-.19L22.47,2.7V8.14a.51.51,0,0,0,.23.46.3.3,0,0,1,.15.24V9.1c0,.09-.06.13-.16.13h-1.3c-.09,0-.13,0-.13-.12V8.84a.3.3,0,0,1,.15-.24.52.52,0,0,0,.22-.46V1.21a.5.5,0,0,0-.22-.45.3.3,0,0,1-.15-.24V.26c0-.09,0-.14.15-.14h1.24a.26.26,0,0,1,.18,0,.32.32,0,0,1,.09.15Z"/><path class="store02_svg1" d="M31.14,9.23h-4A.12.12,0,0,1,27,9.09V8.84c0-.09.07-.18.2-.27a.52.52,0,0,0,.17-.43V1.21a.51.51,0,0,0-.22-.46A.28.28,0,0,1,27,.52V.23c0-.07.05-.11.14-.11h3.33a1.62,1.62,0,0,1,.26,0c.12,0,.19,0,.19.1V1.92c0,.09,0,.14,0,.16a.4.4,0,0,1-.15,0h-.21c-.1,0-.15-.05-.16-.16a2.57,2.57,0,0,0-.23-.78.69.69,0,0,0-.67-.33h-.74V4.15H29a.45.45,0,0,0,.34-.1,1.89,1.89,0,0,0,.24-.6,1.45,1.45,0,0,1,.06-.19H30c.11,0,.16,0,.16.14V5.6a.12.12,0,0,1-.14.14h-.27a.17.17,0,0,1-.13,0,1.28,1.28,0,0,1-.09-.27,1,1,0,0,0-.23-.51.55.55,0,0,0-.34-.09h-.23V8.54h.79a.76.76,0,0,0,.61-.21,4.13,4.13,0,0,0,.42-1.14q.06-.21.21-.21H31c.1,0,.15,0,.15.14Z"/><path class="store02_svg1" d="M39.14,9.23h-4A.12.12,0,0,1,35,9.09V8.84c0-.09.07-.18.19-.27a.49.49,0,0,0,.17-.43V1.21a.52.52,0,0,0-.21-.46A.28.28,0,0,1,35,.52V.23c0-.07.05-.11.14-.11h3.32l.26,0c.13,0,.2,0,.2.1V1.92c0,.09,0,.14,0,.16a.4.4,0,0,1-.15,0H38.5c-.09,0-.14-.05-.16-.16a2.32,2.32,0,0,0-.23-.78.67.67,0,0,0-.67-.33H36.7V4.15H37a.46.46,0,0,0,.35-.1,1.73,1.73,0,0,0,.23-.6,1,1,0,0,1,.07-.19H38c.1,0,.15,0,.15.14V5.6c0,.1,0,.14-.14.14h-.27a.15.15,0,0,1-.12,0,1.28,1.28,0,0,1-.09-.27,1,1,0,0,0-.23-.51.57.57,0,0,0-.34-.09H36.7V8.54h.8a.73.73,0,0,0,.6-.21,3.73,3.73,0,0,0,.43-1.14q.06-.21.21-.21H39c.1,0,.15,0,.15.14Z"/><path class="store02_svg1" d="M40.89,9.23h-.3c-.09,0-.14-.05-.14-.15V6.87c0-.15,0-.23.15-.23h.26a.14.14,0,0,1,.13.07,3.1,3.1,0,0,1,.09.47c.16,1,.52,1.53,1.09,1.53a.82.82,0,0,0,.71-.38,1.75,1.75,0,0,0,.25-.94,2.17,2.17,0,0,0-.27-1.06,7.52,7.52,0,0,0-1-1.31A10,10,0,0,1,41,4a3,3,0,0,1-.41-.79,2.69,2.69,0,0,1-.16-1,2.48,2.48,0,0,1,.49-1.6A1.46,1.46,0,0,1,42.06.06a1.54,1.54,0,0,1,.69.18A.55.55,0,0,0,43,.32a.24.24,0,0,0,.13,0,.29.29,0,0,1,.17-.05h.22a.15.15,0,0,1,.17.16V2.33c0,.1,0,.15-.13.15h-.27c-.07,0-.12,0-.14-.06A2.26,2.26,0,0,1,43,2c-.19-.85-.48-1.27-.9-1.27a.61.61,0,0,0-.53.28,1.05,1.05,0,0,0-.21.65,1.82,1.82,0,0,0,.24.87,5.73,5.73,0,0,0,1,1.18,6.9,6.9,0,0,1,1.25,1.64,3.31,3.31,0,0,1,.35,1.53,2.73,2.73,0,0,1-.58,1.81,1.78,1.78,0,0,1-1.39.7,2.49,2.49,0,0,1-.83-.19.63.63,0,0,0-.22-.07.29.29,0,0,0-.15.06A.24.24,0,0,1,40.89,9.23Z"/><path class="store02_svg1" d="M47.78.8V8.14A.51.51,0,0,0,48,8.6a.3.3,0,0,1,.15.24V9.1c0,.09,0,.13-.15.13H46.17c-.08,0-.13,0-.13-.12V8.84a.29.29,0,0,1,.16-.24.54.54,0,0,0,.22-.46V.8h-.26a.47.47,0,0,0-.42.22,2.58,2.58,0,0,0-.25,1c0,.07-.05.1-.13.1h-.22c-.14,0-.2,0-.2-.17V.2c0-.13.06-.2.18-.2l.42.05a4.94,4.94,0,0,0,.73.07h2.07l.39-.06.38,0c.11,0,.16,0,.16.14V1.9c0,.12-.05.17-.15.17H48.9c-.09,0-.15,0-.16-.07a3.09,3.09,0,0,1-.09-.38A1.8,1.8,0,0,0,48.43,1,.42.42,0,0,0,48,.8Z"/></g></g></svg>