<svg xmlns="http://www.w3.org/2000/svg" xmlns:xlink="http://www.w3.org/1999/xlink" viewBox="0 0 26.27 9.39"><defs><style>.store_svg1{fill:none;}.store_svg2{}.store_svg3{fill:#d6bc6e;}</style><clipPath id="clip-path" transform="translate(0 0)"><rect class="store_svg1" width="26.27" height="9.39"/></clipPath></defs><title>store</title><g id="レイヤー_2" data-name="レイヤー 2"><g id="レイヤー_1-2" data-name="レイヤー 1"><g class="store_svg2"><path class="store_svg3" d="M.5,9.23H.21a.13.13,0,0,1-.15-.15V6.87c0-.15.06-.23.16-.23H.47a.16.16,0,0,1,.14.07,3.1,3.1,0,0,1,.09.47c.16,1,.52,1.53,1.09,1.53a.8.8,0,0,0,.7-.38,1.67,1.67,0,0,0,.26-.94,2.08,2.08,0,0,0-.28-1.06A7.52,7.52,0,0,0,1.42,5,11.58,11.58,0,0,1,.56,4a3.46,3.46,0,0,1-.41-.79,2.93,2.93,0,0,1-.15-1A2.48,2.48,0,0,1,.49.69,1.45,1.45,0,0,1,1.68.06a1.54,1.54,0,0,1,.69.18A.55.55,0,0,0,2.6.32a.21.21,0,0,0,.12,0A.35.35,0,0,1,2.9.23h.22a.15.15,0,0,1,.17.16V2.33c0,.1,0,.15-.13.15H2.89c-.07,0-.12,0-.14-.06A2.26,2.26,0,0,1,2.64,2C2.45,1.15,2.15.73,1.74.73A.64.64,0,0,0,1.2,1a1.11,1.11,0,0,0-.2.65,1.82,1.82,0,0,0,.24.87,5.73,5.73,0,0,0,1,1.18A6.9,6.9,0,0,1,3.44,5.35a3.44,3.44,0,0,1,.35,1.53,2.73,2.73,0,0,1-.58,1.81,1.78,1.78,0,0,1-1.39.7A2.49,2.49,0,0,1,1,9.2a.55.55,0,0,0-.21-.07.29.29,0,0,0-.15.06.24.24,0,0,1-.12,0" transform="translate(0 0)"/><path class="store_svg3" d="M7.64.8V8.15a.5.5,0,0,0,.22.45A.3.3,0,0,1,8,8.84V9.1c0,.09,0,.14-.15.14H6a.12.12,0,0,1-.13-.13V8.84a.3.3,0,0,1,.15-.24.52.52,0,0,0,.23-.45V.8H6A.5.5,0,0,0,5.59,1a2.87,2.87,0,0,0-.24,1c0,.06,0,.09-.13.09H5c-.13,0-.2,0-.2-.16V.2A.18.18,0,0,1,5,0L5.4.05a5,5,0,0,0,.72.07H8.2L8.59.06,9,0c.11,0,.16,0,.16.14V1.91c0,.11-.05.16-.15.16H8.76c-.09,0-.15,0-.17-.07l-.08-.38A1.8,1.8,0,0,0,8.29,1,.45.45,0,0,0,7.9.8Z" transform="translate(0 0)"/><path class="store_svg3" d="M12.62,9.35a1.94,1.94,0,0,1-1.83-1.23,7.88,7.88,0,0,1-.6-3.4,8,8,0,0,1,.61-3.45,1.85,1.85,0,0,1,3.48-.1,7.59,7.59,0,0,1,.64,3.48,7.71,7.71,0,0,1-.64,3.53,1.86,1.86,0,0,1-1.66,1.17m-.07-.63A.61.61,0,0,0,13,8.38a5.25,5.25,0,0,0,.31-1.86c.06-1,.1-1.95.1-2.79a9.74,9.74,0,0,0-.15-1.89,2.59,2.59,0,0,0-.3-1,.51.51,0,0,0-.42-.21.53.53,0,0,0-.39.16,1.12,1.12,0,0,0-.27.59,11.69,11.69,0,0,0-.17,1.66c-.05.83-.07,1.68-.07,2.57A9.26,9.26,0,0,0,11.89,8c.15.47.37.71.66.71" transform="translate(0 0)"/><path class="store_svg3" d="M17.9,5V8.14a.53.53,0,0,0,.22.46.29.29,0,0,1,.16.24V9.1c0,.09-.05.13-.16.13H16.3c-.09,0-.13,0-.13-.12V8.84a.3.3,0,0,1,.15-.24.52.52,0,0,0,.22-.46V1.21a.5.5,0,0,0-.22-.45.3.3,0,0,1-.15-.24V.26c0-.09,0-.14.15-.14h1.53a3,3,0,0,1,2,.59,2.11,2.11,0,0,1,.67,1.69,2.16,2.16,0,0,1-1.63,2.28,2.42,2.42,0,0,1,.73.53,2.07,2.07,0,0,1,.38.87l.43,1.86a2,2,0,0,0,.16.48.68.68,0,0,0,.26.24.11.11,0,0,1,.06.11v.34c0,.08,0,.12-.13.12H19.6a.21.21,0,0,1-.22-.18l-.8-3.23a1.64,1.64,0,0,0-.28-.69A.58.58,0,0,0,17.9,5m0-4.14V4.27a1.08,1.08,0,0,0,.93-.4,2.41,2.41,0,0,0,.3-1.41,2,2,0,0,0-.3-1.31A1.23,1.23,0,0,0,17.9.83" transform="translate(0 0)"/><path class="store_svg3" d="M26.27,9.23h-4a.12.12,0,0,1-.14-.14V8.84c0-.09.07-.18.19-.27a.49.49,0,0,0,.17-.43V1.21a.52.52,0,0,0-.21-.46.28.28,0,0,1-.15-.23V.23c0-.07.05-.11.14-.11h3.32l.26,0c.13,0,.2,0,.2.1V1.92c0,.09,0,.14,0,.16a.4.4,0,0,1-.15,0h-.22c-.09,0-.14-.05-.16-.16a2.32,2.32,0,0,0-.23-.78.67.67,0,0,0-.67-.33h-.74V4.15h.27a.46.46,0,0,0,.35-.1,1.73,1.73,0,0,0,.23-.6,1,1,0,0,1,.07-.19h.36c.1,0,.15,0,.15.14V5.6c0,.1,0,.14-.14.14h-.27c-.06,0-.1,0-.12,0a1.28,1.28,0,0,1-.09-.27,1,1,0,0,0-.23-.51.57.57,0,0,0-.34-.09h-.24V8.54h.79a.74.74,0,0,0,.61-.21,3.73,3.73,0,0,0,.43-1.14q.06-.21.21-.21h.25a.13.13,0,0,1,.15.15Z" transform="translate(0 0)"/></g></g></g></svg>