<svg xmlns="http://www.w3.org/2000/svg" viewBox="0 0 45.28 9.35"><defs><style>.store11_svg1{fill:#d6bc6e;}</style></defs><title>store11</title><g id="レイヤー_2" data-name="レイヤー 2"><g id="レイヤー_1-2" data-name="レイヤー 1"><path class="store11_svg1" d="M3,5.17v3a.49.49,0,0,0,.23.46.31.31,0,0,1,.14.24V9.1c0,.09-.05.13-.15.13H1.41c-.08,0-.13,0-.13-.12V8.84a.29.29,0,0,1,.16-.24.54.54,0,0,0,.22-.46v-3l-1.17-4A.75.75,0,0,0,.13.74.19.19,0,0,1,0,.54V.25C0,.17,0,.12.11.12H2c.11,0,.17.05.17.16V.56c0,.07-.06.12-.17.16S1.75.87,1.75,1a.32.32,0,0,0,0,.13L2.63,4,3.4,1.36a1.45,1.45,0,0,0,0-.28c0-.15-.09-.26-.27-.34S3,.64,3,.57V.26A.13.13,0,0,1,3.16.12H4.62c.11,0,.17.05.17.13V.56c0,.08-.06.15-.17.2a.81.81,0,0,0-.44.49Z"/><path class="store11_svg1" d="M7.71,9.35A1.94,1.94,0,0,1,5.89,8.12a7.88,7.88,0,0,1-.6-3.4,8.22,8.22,0,0,1,.6-3.45A1.91,1.91,0,0,1,7.65,0,1.91,1.91,0,0,1,9.37,1.17,7.46,7.46,0,0,1,10,4.65a7.68,7.68,0,0,1-.63,3.52A1.88,1.88,0,0,1,7.71,9.35Zm-.06-.63a.6.6,0,0,0,.48-.34,5,5,0,0,0,.31-1.86c.07-1,.1-1.95.1-2.8A10.69,10.69,0,0,0,8.4,1.84a2.67,2.67,0,0,0-.31-1A.51.51,0,0,0,7.67.67a.56.56,0,0,0-.39.16A1.3,1.3,0,0,0,7,1.42a13.47,13.47,0,0,0-.17,1.66c0,.82-.07,1.68-.07,2.56A8.75,8.75,0,0,0,7,8C7.13,8.48,7.35,8.72,7.65,8.72Z"/><path class="store11_svg1" d="M12.63,3.7l1.21-2.49a.6.6,0,0,0,.07-.27c0-.06-.05-.13-.14-.2S13.61.6,13.61.52V.28a.14.14,0,0,1,.16-.16h1.72c.13,0,.19.06.19.16V.52a.21.21,0,0,1,0,.15,1.15,1.15,0,0,1-.21.13,1.84,1.84,0,0,0-.89.87l-.92,1.85,1.47,4.27a1.51,1.51,0,0,0,.57.78.41.41,0,0,1,.2.3v.19c0,.12-.06.17-.19.17H13.72c-.13,0-.19-.05-.19-.17V8.88a.34.34,0,0,1,.12-.26c.15-.11.23-.21.23-.29a.45.45,0,0,0,0-.18L12.63,4.66V8.14a.53.53,0,0,0,.23.46.3.3,0,0,1,.15.24V9.1c0,.09,0,.13-.15.13H11c-.09,0-.13,0-.13-.12V8.84a.3.3,0,0,1,.15-.24.51.51,0,0,0,.23-.46V1.21a.51.51,0,0,0-.23-.45A.3.3,0,0,1,10.9.52V.26c0-.09,0-.14.15-.14h1.83c.09,0,.13,0,.13.13V.52a.3.3,0,0,1-.15.24.51.51,0,0,0-.23.45Z"/><path class="store11_svg1" d="M18.77,9.35a1.94,1.94,0,0,1-1.83-1.23,7.88,7.88,0,0,1-.6-3.4A8,8,0,0,1,17,1.27,1.9,1.9,0,0,1,18.71,0a1.93,1.93,0,0,1,1.72,1.17,7.61,7.61,0,0,1,.63,3.48,7.68,7.68,0,0,1-.63,3.52A1.87,1.87,0,0,1,18.77,9.35Zm-.07-.63a.61.61,0,0,0,.49-.34,5.25,5.25,0,0,0,.31-1.86c.06-1,.09-1.95.09-2.8a9.81,9.81,0,0,0-.14-1.88,2.52,2.52,0,0,0-.3-1,.51.51,0,0,0-.42-.21.53.53,0,0,0-.39.16,1.12,1.12,0,0,0-.27.59,11.69,11.69,0,0,0-.17,1.66c0,.82-.08,1.68-.08,2.56A9.18,9.18,0,0,0,18,8C18.18,8.48,18.41,8.72,18.7,8.72Z"/><path class="store11_svg1" d="M26.4,1.21V8.14a.51.51,0,0,0,.22.46.3.3,0,0,1,.15.24V9.1c0,.09-.05.13-.15.13H24.8c-.09,0-.13,0-.13-.12V8.84a.31.31,0,0,1,.14-.24A.5.5,0,0,0,25,8.14V4.79H23.69V8.14a.51.51,0,0,0,.22.46.3.3,0,0,1,.15.24V9.1c0,.09,0,.13-.15.13H22.08A.11.11,0,0,1,22,9.11V8.84a.3.3,0,0,1,.15-.24.52.52,0,0,0,.22-.46V1.21a.5.5,0,0,0-.22-.45A.3.3,0,0,1,22,.52V.26c0-.09.05-.14.15-.14h1.83c.08,0,.12,0,.12.13V.52a.3.3,0,0,1-.15.24.5.5,0,0,0-.22.45V4H25V1.21a.49.49,0,0,0-.23-.45.3.3,0,0,1-.15-.24V.26c0-.09.05-.14.15-.14h1.83a.12.12,0,0,1,.13.13V.52a.3.3,0,0,1-.15.24A.5.5,0,0,0,26.4,1.21Z"/><path class="store11_svg1" d="M29.45,1.28l-.06-.4c0-.13,0-.2,0-.22s0-.07.09-.1l1-.46h.06c.05,0,.09,0,.1.1l1.59,8a1,1,0,0,0,.1.31.74.74,0,0,0,.24.2.23.23,0,0,1,.14.19v.25c0,.1,0,.14-.12.14H30.6c-.11,0-.16,0-.16-.14V8.84c0-.09.06-.17.19-.23a.38.38,0,0,0,.23-.34.69.69,0,0,0,0-.13L30.6,6.91H29.07l-.25,1.18a.45.45,0,0,0,.25.5.38.38,0,0,1,.17.25v.25c0,.1-.06.14-.17.14H27.84c-.13,0-.2,0-.2-.14v-.3a.22.22,0,0,1,.13-.2.72.72,0,0,0,.31-.5Zm.4,1.88-.61,3h1.21Z"/><path class="store11_svg1" d="M33.9,8.14V1.21a.5.5,0,0,0-.22-.45.3.3,0,0,1-.15-.24V.26c0-.09,0-.14.15-.14h2.11l.67,4.27L37.12.12h2.14c.08,0,.12,0,.12.13V.52a.3.3,0,0,1-.15.24.5.5,0,0,0-.22.45V8.14a.51.51,0,0,0,.23.46.28.28,0,0,1,.14.24V9.1c0,.09-.05.13-.15.13H37.47a.11.11,0,0,1-.12-.12V8.84a.28.28,0,0,1,.14-.24.53.53,0,0,0,.23-.46V1L36.46,9.23H36L34.74,1v7.1A.51.51,0,0,0,35,8.6a.3.3,0,0,1,.15.24V9.1c0,.09,0,.13-.15.13H33.65a.11.11,0,0,1-.12-.12V8.84a.3.3,0,0,1,.15-.24A.52.52,0,0,0,33.9,8.14Z"/><path class="store11_svg1" d="M42.06,1.28,42,.88c0-.13,0-.2,0-.22s0-.07.08-.1l1-.46h0c.06,0,.09,0,.11.1l1.58,8a1,1,0,0,0,.11.31.8.8,0,0,0,.23.2.23.23,0,0,1,.14.19v.25c0,.1,0,.14-.11.14h-2c-.11,0-.16,0-.16-.14V8.84c0-.09.06-.17.19-.23a.38.38,0,0,0,.23-.34.62.62,0,0,0,0-.13l-.25-1.23H41.68l-.24,1.18a.89.89,0,0,0,0,.11.57.57,0,0,0,.26.39.38.38,0,0,1,.17.25v.25c0,.1-.06.14-.17.14H40.46c-.14,0-.21,0-.21-.14v-.3a.22.22,0,0,1,.13-.2.73.73,0,0,0,.32-.5Zm.4,1.88-.61,3h1.21Z"/></g></g></svg>