<svg xmlns="http://www.w3.org/2000/svg" viewBox="0 0 86.72 9.35"><defs><style>.store13_svg1{fill:#d6bc6e;}</style></defs><title>store13</title><g id="レイヤー_2" data-name="レイヤー 2"><g id="レイヤー_1-2" data-name="レイヤー 1"><path class="store13_svg1" d="M2.43,9.35A1.94,1.94,0,0,1,.6,8.12,7.88,7.88,0,0,1,0,4.72,8,8,0,0,1,.61,1.27,1.9,1.9,0,0,1,2.37,0,1.93,1.93,0,0,1,4.09,1.17a7.61,7.61,0,0,1,.63,3.48,7.68,7.68,0,0,1-.63,3.52A1.87,1.87,0,0,1,2.43,9.35Zm-.07-.63a.58.58,0,0,0,.48-.34,4.94,4.94,0,0,0,.32-1.86c.06-1,.09-1.95.09-2.8a9.81,9.81,0,0,0-.14-1.88,2.52,2.52,0,0,0-.3-1A.52.52,0,0,0,2.38.67.56.56,0,0,0,2,.83a1.3,1.3,0,0,0-.27.59,13.47,13.47,0,0,0-.17,1.66c0,.82-.07,1.68-.07,2.56A8.75,8.75,0,0,0,1.7,8C1.84,8.48,2.06,8.72,2.36,8.72Z"/><path class="store13_svg1" d="M7.71.83V4.27H8.1a.41.41,0,0,0,.32-.1,1.24,1.24,0,0,0,.18-.41,1,1,0,0,1,.1-.26s.06,0,.14,0H9.1c.1,0,.15,0,.15.14v2q0,.15-.12.15H8.84c-.07,0-.11,0-.13,0a.78.78,0,0,1-.09-.2q-.1-.41-.24-.48A.47.47,0,0,0,8.1,5H7.71V8.14a.51.51,0,0,0,.23.46.3.3,0,0,1,.15.24V9.1c0,.09-.05.13-.15.13H6.11C6,9.23,6,9.19,6,9.11V8.84a.3.3,0,0,1,.15-.24.52.52,0,0,0,.22-.46V1.21A.52.52,0,0,0,6.12.75C6,.68,6,.61,6,.52V.25A.12.12,0,0,1,6.09.12h3a3.75,3.75,0,0,0,.42,0l.19,0c.09,0,.15,0,.17,0a.24.24,0,0,1,0,.15V2c0,.1-.06.15-.17.15H9.54a.18.18,0,0,1-.14,0,1.13,1.13,0,0,1-.07-.29A1.33,1.33,0,0,0,9,1,1,1,0,0,0,8.33.83Z"/><path class="store13_svg1" d="M15.33,7.12a2.33,2.33,0,0,1-.54,1.64,1.79,1.79,0,0,1-1.39.59A1.86,1.86,0,0,1,12,8.77a2.15,2.15,0,0,1-.55-1.54v-6a.51.51,0,0,0-.23-.45.3.3,0,0,1-.15-.24V.26c0-.09,0-.14.15-.14H13c.09,0,.13,0,.13.13V.52A.3.3,0,0,1,13,.76a.5.5,0,0,0-.22.45V7.3c0,.81.27,1.21.81,1.21s.88-.47.88-1.43V1.21a.5.5,0,0,0-.22-.45.3.3,0,0,1-.15-.24V.26c0-.09.05-.14.15-.14h1.3c.09,0,.13,0,.13.13V.52a.3.3,0,0,1-.15.24.5.5,0,0,0-.22.45Z"/><path class="store13_svg1" d="M20.43,5.06V1.21a.5.5,0,0,0-.22-.45.3.3,0,0,1-.15-.24V.26c0-.09.05-.14.15-.14h1.33c.08,0,.12,0,.12.13V.52a.28.28,0,0,1-.14.24.51.51,0,0,0-.23.45V9.09c0,.12-.06.19-.17.19h-.26a.26.26,0,0,1-.25-.19L18.18,2.7V8.14a.51.51,0,0,0,.23.46.3.3,0,0,1,.15.24V9.1c0,.09,0,.13-.15.13H17.1c-.09,0-.13,0-.13-.12V8.84a.3.3,0,0,1,.15-.24.53.53,0,0,0,.23-.46V1.21a.51.51,0,0,0-.23-.45A.3.3,0,0,1,17,.52V.26c0-.09.05-.14.15-.14h1.24a.26.26,0,0,1,.18,0,.32.32,0,0,1,.09.15Z"/><path class="store13_svg1" d="M24.27,1.28l-.05-.4c0-.13,0-.2,0-.22s0-.07.09-.1l1-.46h.06c.05,0,.09,0,.1.1l1.59,8a1,1,0,0,0,.1.31.74.74,0,0,0,.24.2.22.22,0,0,1,.13.19v.25c0,.1,0,.14-.11.14h-2c-.1,0-.15,0-.15-.14V8.84c0-.09.06-.17.19-.23a.37.37,0,0,0,.22-.34.62.62,0,0,0,0-.13l-.24-1.23H23.9l-.25,1.18a.89.89,0,0,0,0,.11q0,.18.27.39a.38.38,0,0,1,.17.25v.25c0,.1-.06.14-.17.14H22.67c-.14,0-.2,0-.2-.14v-.3a.23.23,0,0,1,.12-.2.73.73,0,0,0,.32-.5Zm.41,1.88-.61,3h1.21Z"/><path class="store13_svg1" d="M31.69,8.14V1.21a.51.51,0,0,0-.23-.45.3.3,0,0,1-.15-.24V.26c0-.09.05-.14.15-.14h1.83c.09,0,.13,0,.13.13V.52a.3.3,0,0,1-.15.24.5.5,0,0,0-.22.45V8.54h.49a.86.86,0,0,0,.69-.28,2,2,0,0,0,.36-.92,2.31,2.31,0,0,1,.06-.29s.05,0,.11,0H35c.11,0,.16,0,.16.13V9.23H31.46c-.13,0-.2-.05-.2-.17V8.84a.3.3,0,0,1,.17-.24A.5.5,0,0,0,31.69,8.14Z"/><path class="store13_svg1" d="M40.26,7.12a2.38,2.38,0,0,1-.53,1.64,1.81,1.81,0,0,1-1.4.59,1.86,1.86,0,0,1-1.41-.58,2.15,2.15,0,0,1-.55-1.54v-6a.52.52,0,0,0-.22-.45A.29.29,0,0,1,36,.52V.26c0-.09,0-.14.16-.14H38c.09,0,.13,0,.13.13V.52A.3.3,0,0,1,38,.76a.5.5,0,0,0-.22.45V7.3c0,.81.27,1.21.81,1.21s.88-.47.88-1.43V1.21A.5.5,0,0,0,39.2.76a.3.3,0,0,1-.15-.24V.26c0-.09.05-.14.15-.14h1.3c.09,0,.13,0,.13.13V.52a.3.3,0,0,1-.15.24.5.5,0,0,0-.22.45Z"/><path class="store13_svg1" d="M42,8.14V1.21a.51.51,0,0,0-.23-.45.3.3,0,0,1-.15-.24V.26c0-.09.05-.14.15-.14h2.12l.66,4.27L45.25.12h2.14c.09,0,.13,0,.13.13V.52a.3.3,0,0,1-.15.24.5.5,0,0,0-.22.45V8.14a.49.49,0,0,0,.23.46.31.31,0,0,1,.14.24V9.1c0,.09-.05.13-.15.13H45.61c-.09,0-.13,0-.13-.12V8.84a.3.3,0,0,1,.15-.24.53.53,0,0,0,.23-.46V1L44.59,9.23h-.47L42.88,1v7.1a.51.51,0,0,0,.22.46.3.3,0,0,1,.15.24V9.1c0,.09,0,.13-.15.13H41.79c-.08,0-.13,0-.13-.12V8.84a.3.3,0,0,1,.15-.24A.53.53,0,0,0,42,8.14Z"/><path class="store13_svg1" d="M50.52,8.14a.51.51,0,0,0,.23.46.3.3,0,0,1,.15.24V9.1c0,.09,0,.13-.15.13H48.92c-.09,0-.13,0-.13-.12V8.84a.3.3,0,0,1,.15-.24.52.52,0,0,0,.22-.46V1.21a.5.5,0,0,0-.22-.45.3.3,0,0,1-.15-.24V.26c0-.09.05-.14.15-.14h1.83a.12.12,0,0,1,.13.13V.52a.3.3,0,0,1-.15.24.51.51,0,0,0-.23.45Z"/><path class="store13_svg1" d="M55.63,5.06V1.21A.51.51,0,0,0,55.4.76a.3.3,0,0,1-.15-.24V.26c0-.09,0-.14.15-.14h1.33a.12.12,0,0,1,.13.13V.52a.3.3,0,0,1-.15.24.51.51,0,0,0-.23.45V9.09c0,.12-.06.19-.17.19h-.26a.25.25,0,0,1-.24-.19L53.38,2.7V8.14a.51.51,0,0,0,.22.46.3.3,0,0,1,.15.24V9.1c0,.09,0,.13-.15.13H52.29c-.08,0-.13,0-.13-.12V8.84a.29.29,0,0,1,.16-.24.54.54,0,0,0,.22-.46V1.21a.52.52,0,0,0-.22-.45.29.29,0,0,1-.16-.24V.26c0-.09.05-.14.15-.14h1.24a.26.26,0,0,1,.18,0,.32.32,0,0,1,.1.15Z"/><path class="store13_svg1" d="M62,9.23H58a.12.12,0,0,1-.14-.14V8.84c0-.09.07-.18.19-.27a.49.49,0,0,0,.17-.43V1.21A.52.52,0,0,0,58,.75a.28.28,0,0,1-.15-.23V.23c0-.07,0-.11.14-.11h3.32l.26,0c.13,0,.19,0,.19.1V1.92c0,.09,0,.14,0,.16a.4.4,0,0,1-.15,0h-.22c-.09,0-.14-.05-.16-.16A2.32,2.32,0,0,0,61,1.16a.67.67,0,0,0-.67-.33h-.74V4.15h.27a.46.46,0,0,0,.35-.1,1.73,1.73,0,0,0,.23-.6,1,1,0,0,1,.07-.19h.36c.1,0,.15,0,.15.14V5.6c0,.1,0,.14-.14.14h-.27c-.06,0-.1,0-.12,0a1.28,1.28,0,0,1-.09-.27,1,1,0,0,0-.23-.51.57.57,0,0,0-.34-.09h-.24V8.54h.79A.74.74,0,0,0,61,8.33a3.73,3.73,0,0,0,.43-1.14q0-.21.21-.21h.25a.12.12,0,0,1,.14.14Z"/><path class="store13_svg1" d="M70.78,5.4l.7-4a1.11,1.11,0,0,0,0-.19.4.4,0,0,0-.27-.39C71.09.72,71,.64,71,.54V.28c0-.1.06-.16.18-.16h1.31c.14,0,.2.07.2.19V.54q0,.1-.15.21a.77.77,0,0,0-.33.53L70.82,9.16c0,.13-.08.19-.17.19h-.26c-.07,0-.11-.06-.13-.19l-1-5.23-.94,5.23c0,.13-.08.19-.16.19h-.26c-.07,0-.12-.06-.15-.19l-1.51-8A.44.44,0,0,0,66,.74a.18.18,0,0,1-.14-.19V.28c0-.11,0-.16.17-.16h1.71c.07,0,.11,0,.11.1V.57c0,.07,0,.11-.11.14A.35.35,0,0,0,67.5,1a.62.62,0,0,0,0,.18L68.3,5.4l.61-3.47-.15-.82a.46.46,0,0,0-.31-.35.16.16,0,0,1-.11-.14V.24c0-.08,0-.12.1-.12h1.82c.08,0,.13,0,.13.12V.45a.43.43,0,0,1,0,.2.32.32,0,0,1-.15.12.35.35,0,0,0-.22.32.62.62,0,0,0,0,.13Z"/><path class="store13_svg1" d="M75.21,8.14a.53.53,0,0,0,.22.46.29.29,0,0,1,.16.24V9.1c0,.09,0,.13-.16.13H73.61c-.09,0-.13,0-.13-.12V8.84a.3.3,0,0,1,.15-.24.52.52,0,0,0,.22-.46V1.21a.5.5,0,0,0-.22-.45.3.3,0,0,1-.15-.24V.26c0-.09,0-.14.15-.14h1.83a.12.12,0,0,1,.13.13V.52a.29.29,0,0,1-.16.24.52.52,0,0,0-.22.45Z"/><path class="store13_svg1" d="M80.08,5.06V1.21a.52.52,0,0,0-.22-.45A.29.29,0,0,1,79.7.52V.26c0-.09,0-.14.16-.14h1.32c.09,0,.13,0,.13.13V.52a.3.3,0,0,1-.15.24.51.51,0,0,0-.23.45V9.09c0,.12-.05.19-.17.19h-.25a.26.26,0,0,1-.25-.19L77.83,2.7V8.14a.51.51,0,0,0,.22.46.3.3,0,0,1,.15.24V9.1c0,.09,0,.13-.15.13H76.74a.11.11,0,0,1-.12-.12V8.84a.3.3,0,0,1,.15-.24A.52.52,0,0,0,77,8.14V1.21a.5.5,0,0,0-.22-.45.3.3,0,0,1-.15-.24V.26c0-.09,0-.14.15-.14H78a.28.28,0,0,1,.18,0,.32.32,0,0,1,.09.15Z"/><path class="store13_svg1" d="M84.91,5.43h1.47a.38.38,0,0,1,.19,0,.23.23,0,0,1,0,.14s0,.1,0,.21,0,.46,0,.63V8.08a.33.33,0,0,0,.09.25.21.21,0,0,1,.07.15V8.7a.28.28,0,0,1-.15.22A3.17,3.17,0,0,1,85,9.35Q82.3,9.35,82.29,5a10.67,10.67,0,0,1,.26-2.36A4.48,4.48,0,0,1,83.44.77,1.78,1.78,0,0,1,84.78,0a1.88,1.88,0,0,1,.78.2.53.53,0,0,0,.2.06l.13-.05.13,0h.23c.11,0,.16.05.16.15V2.27c0,.11,0,.17-.14.17H86c-.08,0-.12,0-.14,0A3.7,3.7,0,0,1,85.79,2c-.2-.91-.54-1.37-1-1.37a.69.69,0,0,0-.58.33,3.51,3.51,0,0,0-.32,1.49c-.07.77-.1,1.55-.1,2.32a18.44,18.44,0,0,0,.09,2A7.15,7.15,0,0,0,84.08,8a1,1,0,0,0,.3.54.64.64,0,0,0,.42.15c.35,0,.52-.24.52-.74V6.7a1,1,0,0,0-.08-.47A.67.67,0,0,0,84.89,6a.17.17,0,0,1-.13-.16V5.57C84.76,5.48,84.81,5.43,84.91,5.43Z"/></g></g></svg>