<svg xmlns="http://www.w3.org/2000/svg" viewBox="0 0 45.51 9.39"><defs><style>.store04_svg1{fill:#d6bc6e;}</style></defs><title>store04</title><g id="レイヤー_2" data-name="レイヤー 2"><g id="レイヤー_1-2" data-name="レイヤー 1"><path class="store04_svg1" d="M1.73,3.7,2.94,1.21A.6.6,0,0,0,3,.94c0-.06,0-.13-.14-.2S2.71.6,2.71.52V.28A.14.14,0,0,1,2.87.12H4.59c.12,0,.19.06.19.16V.52a.21.21,0,0,1,0,.15A1.15,1.15,0,0,1,4.52.8a1.84,1.84,0,0,0-.89.87L2.71,3.52,4.18,7.79a1.46,1.46,0,0,0,.57.78.41.41,0,0,1,.2.3v.19c0,.12-.07.17-.19.17H2.82c-.13,0-.19-.05-.19-.17V8.88a.34.34,0,0,1,.12-.26c.15-.11.23-.21.23-.29a.74.74,0,0,0,0-.18L1.73,4.66V8.14A.53.53,0,0,0,2,8.6a.3.3,0,0,1,.15.24V9.1c0,.09,0,.13-.15.13H.13C0,9.23,0,9.19,0,9.11V8.84A.3.3,0,0,1,.15,8.6a.51.51,0,0,0,.23-.46V1.21A.51.51,0,0,0,.15.76.3.3,0,0,1,0,.52V.26C0,.17.05.12.15.12H2c.09,0,.13,0,.13.13V.52A.3.3,0,0,1,2,.76a.51.51,0,0,0-.23.45Z"/><path class="store04_svg1" d="M7.88,8.14a.51.51,0,0,0,.22.46.3.3,0,0,1,.15.24V9.1c0,.09-.05.13-.15.13H6.27c-.08,0-.13,0-.13-.12V8.84A.31.31,0,0,1,6.3,8.6a.52.52,0,0,0,.22-.46V1.21A.5.5,0,0,0,6.3.76.31.31,0,0,1,6.14.52V.26c0-.09.06-.14.16-.14H8.12c.09,0,.13,0,.13.13V.52A.3.3,0,0,1,8.1.76a.5.5,0,0,0-.22.45Z"/><path class="store04_svg1" d="M12.34.8V8.14a.51.51,0,0,0,.23.46.3.3,0,0,1,.15.24V9.1c0,.09-.05.13-.15.13H10.74c-.09,0-.13,0-.13-.12V8.84a.3.3,0,0,1,.15-.24A.52.52,0,0,0,11,8.14V.8h-.25A.49.49,0,0,0,10.3,1a3.06,3.06,0,0,0-.25,1,.11.11,0,0,1-.12.1H9.7c-.13,0-.2,0-.2-.17V.2c0-.13.06-.2.19-.2l.42.05a5,5,0,0,0,.72.07h2.08l.38-.06.39,0c.11,0,.16,0,.16.14V1.9c0,.12-.05.17-.15.17h-.23c-.09,0-.14,0-.16-.07s0-.18-.08-.38A2,2,0,0,0,13,1,.44.44,0,0,0,12.61.8Z"/><path class="store04_svg1" d="M16.05,1.28,16,.88c0-.13,0-.2,0-.22s0-.07.09-.1l1-.46h.05s.09,0,.1.1l1.59,8a1,1,0,0,0,.1.31.87.87,0,0,0,.24.2.23.23,0,0,1,.14.19v.25c0,.1,0,.14-.11.14h-2c-.11,0-.16,0-.16-.14V8.84c0-.09.06-.17.19-.23a.38.38,0,0,0,.23-.34s0-.08,0-.13L17.2,6.91H15.67l-.24,1.18a.28.28,0,0,0,0,.11.57.57,0,0,0,.26.39.38.38,0,0,1,.17.25v.25c0,.1-.06.14-.17.14H14.44c-.13,0-.2,0-.2-.14v-.3a.22.22,0,0,1,.13-.2.72.72,0,0,0,.31-.5Zm.4,1.88-.61,3h1.21Z"/><path class="store04_svg1" d="M20.77,9.23h-.29a.13.13,0,0,1-.15-.15V6.87c0-.15.05-.23.16-.23h.25a.13.13,0,0,1,.13.07,3.1,3.1,0,0,1,.09.47c.16,1,.53,1.53,1.1,1.53a.8.8,0,0,0,.7-.38A1.67,1.67,0,0,0,23,7.39a2.17,2.17,0,0,0-.27-1.06,7.52,7.52,0,0,0-1-1.31,11.58,11.58,0,0,1-.86-1,3.28,3.28,0,0,1-.41-.79,2.93,2.93,0,0,1-.15-1,2.48,2.48,0,0,1,.49-1.6A1.45,1.45,0,0,1,22,.06a1.61,1.61,0,0,1,.69.18.53.53,0,0,0,.22.08.24.24,0,0,0,.13,0,.35.35,0,0,1,.18-.05h.21c.12,0,.17.06.17.16V2.33c0,.1,0,.15-.13.15h-.26c-.08,0-.12,0-.14-.06A2.87,2.87,0,0,1,22.9,2C22.72,1.15,22.42.73,22,.73a.63.63,0,0,0-.54.28,1.11,1.11,0,0,0-.2.65,1.82,1.82,0,0,0,.24.87,5.61,5.61,0,0,0,.94,1.18,6.72,6.72,0,0,1,1.26,1.64,3.44,3.44,0,0,1,.35,1.53,2.74,2.74,0,0,1-.59,1.81,1.76,1.76,0,0,1-1.38.7,2.49,2.49,0,0,1-.84-.19A.53.53,0,0,0,21,9.13a.33.33,0,0,0-.15.06A.21.21,0,0,1,20.77,9.23Z"/><path class="store04_svg1" d="M29.32,9.23h-4a.12.12,0,0,1-.14-.14V8.84c0-.09.07-.18.2-.27a.52.52,0,0,0,.17-.43V1.21a.53.53,0,0,0-.22-.46.28.28,0,0,1-.15-.23V.23c0-.07.05-.11.14-.11h3.33l.25,0c.13,0,.2,0,.2.1V1.92c0,.09,0,.14,0,.16a.4.4,0,0,1-.15,0h-.22c-.09,0-.14-.05-.15-.16a2.31,2.31,0,0,0-.24-.78.67.67,0,0,0-.67-.33h-.73V4.15h.27a.45.45,0,0,0,.34-.1,1.89,1.89,0,0,0,.24-.6,1.45,1.45,0,0,1,.06-.19h.36c.1,0,.16,0,.16.14V5.6c0,.1-.05.14-.15.14h-.26a.17.17,0,0,1-.13,0,1.28,1.28,0,0,1-.09-.27,1,1,0,0,0-.23-.51.57.57,0,0,0-.34-.09h-.23V8.54h.79a.76.76,0,0,0,.61-.21,4.13,4.13,0,0,0,.42-1.14q.06-.21.21-.21h.25c.1,0,.15,0,.15.14Z"/><path class="store04_svg1" d="M34,5.06V1.21a.5.5,0,0,0-.22-.45.31.31,0,0,1-.16-.24V.26c0-.09.06-.14.16-.14h1.32c.09,0,.13,0,.13.13V.52a.3.3,0,0,1-.15.24.5.5,0,0,0-.22.45V9.09c0,.12-.06.19-.17.19h-.26a.26.26,0,0,1-.25-.19L31.76,2.7V8.14A.51.51,0,0,0,32,8.6a.3.3,0,0,1,.15.24V9.1c0,.09-.05.13-.15.13H30.67a.11.11,0,0,1-.12-.12V8.84a.3.3,0,0,1,.15-.24.52.52,0,0,0,.22-.46V1.21A.5.5,0,0,0,30.7.76a.3.3,0,0,1-.15-.24V.26c0-.09.05-.14.15-.14h1.24a.26.26,0,0,1,.18,0,.32.32,0,0,1,.09.15Z"/><path class="store04_svg1" d="M37.9,7.63V1.21a.51.51,0,0,0-.23-.45.3.3,0,0,1-.15-.24V.26c0-.09,0-.14.15-.14H39.5c.09,0,.13,0,.13.13V.52a.3.3,0,0,1-.15.24.51.51,0,0,0-.23.45V6.92a2.65,2.65,0,0,1-.54,1.75,1.7,1.7,0,0,1-1.36.65,1.41,1.41,0,0,1-1-.31A1,1,0,0,1,36,8.26a.67.67,0,0,1,.2-.48.66.66,0,0,1,.5-.19.55.55,0,0,1,.41.14.45.45,0,0,1,.17.36,1.57,1.57,0,0,1,0,.25.93.93,0,0,0,0,.14c0,.15.09.23.25.23S37.9,8.35,37.9,7.63Z"/><path class="store04_svg1" d="M45.14,7.12a2.38,2.38,0,0,1-.53,1.64,1.81,1.81,0,0,1-1.4.59,1.86,1.86,0,0,1-1.41-.58,2.15,2.15,0,0,1-.55-1.54v-6A.52.52,0,0,0,41,.76a.29.29,0,0,1-.16-.24V.26c0-.09.05-.14.16-.14h1.82c.09,0,.13,0,.13.13V.52a.3.3,0,0,1-.15.24.5.5,0,0,0-.22.45V7.3c0,.81.27,1.21.81,1.21s.88-.47.88-1.43V1.21a.5.5,0,0,0-.22-.45.3.3,0,0,1-.15-.24V.26c0-.09,0-.14.15-.14h1.3c.09,0,.13,0,.13.13V.52a.3.3,0,0,1-.15.24.5.5,0,0,0-.22.45Z"/></g></g></svg>