<svg xmlns="http://www.w3.org/2000/svg" viewBox="0 0 40.61 9.33"><defs><style>.store12_svg1{fill:#d6bc6e;}</style></defs><title>store12</title><g id="レイヤー_2" data-name="レイヤー 2"><g id="レイヤー_1-2" data-name="レイヤー 1"><path class="store12_svg1" d="M1.75.77V4.21h.39a.41.41,0,0,0,.32-.1,1.24,1.24,0,0,0,.18-.41,1,1,0,0,1,.1-.26.19.19,0,0,1,.14,0h.25c.11,0,.16.05.16.14v2c0,.09,0,.14-.13.14H2.88a.18.18,0,0,1-.14,0,.94.94,0,0,1-.08-.2A.87.87,0,0,0,2.42,5a.49.49,0,0,0-.28-.09H1.75V8.09A.52.52,0,0,0,2,8.54a.29.29,0,0,1,.16.24V9c0,.09,0,.14-.16.14H.15A.12.12,0,0,1,0,9.05V8.78a.3.3,0,0,1,.15-.24.5.5,0,0,0,.22-.45V1.15A.54.54,0,0,0,.16.69C.05.62,0,.55,0,.46V.19A.12.12,0,0,1,.13.06h3a3.91,3.91,0,0,0,.43,0l.19,0A.27.27,0,0,1,4,.06.24.24,0,0,1,4,.21V2c0,.1-.06.15-.17.15H3.58a.21.21,0,0,1-.14,0,1.28,1.28,0,0,1-.07-.29A1.3,1.3,0,0,0,3,1,1,1,0,0,0,2.37.77Z"/><path class="store12_svg1" d="M9.49,7.06A2.33,2.33,0,0,1,9,8.7a1.76,1.76,0,0,1-1.39.59,1.83,1.83,0,0,1-1.41-.58,2.14,2.14,0,0,1-.56-1.54v-6A.5.5,0,0,0,5.37.7.3.3,0,0,1,5.22.46V.2c0-.09,0-.14.15-.14H7.2a.12.12,0,0,1,.13.13V.46A.3.3,0,0,1,7.18.7.51.51,0,0,0,7,1.15V7.24c0,.81.27,1.22.81,1.22S8.65,8,8.65,7V1.15A.51.51,0,0,0,8.42.7.3.3,0,0,1,8.27.46V.2c0-.09.05-.14.15-.14H9.73a.12.12,0,0,1,.13.13V.46A.3.3,0,0,1,9.71.7a.5.5,0,0,0-.22.45Z"/><path class="store12_svg1" d="M12.23,7.57V1.15A.51.51,0,0,0,12,.7a.3.3,0,0,1-.15-.24V.2c0-.09.05-.14.15-.14h1.83c.08,0,.12.05.12.13V.46a.28.28,0,0,1-.14.24.51.51,0,0,0-.23.45V6.86A2.59,2.59,0,0,1,13,8.61a1.68,1.68,0,0,1-1.36.65,1.4,1.4,0,0,1-1-.31,1,1,0,0,1-.36-.75.68.68,0,0,1,.19-.47.66.66,0,0,1,.51-.2.62.62,0,0,1,.41.14.44.44,0,0,1,.16.36,1.48,1.48,0,0,1,0,.26.69.69,0,0,0,0,.13c0,.15.08.23.25.23S12.23,8.29,12.23,7.57Z"/><path class="store12_svg1" d="M17.17,8.09a.51.51,0,0,0,.23.45.3.3,0,0,1,.15.24V9c0,.09-.05.14-.15.14H15.57a.12.12,0,0,1-.13-.13V8.78a.3.3,0,0,1,.15-.24.5.5,0,0,0,.22-.45V1.15A.5.5,0,0,0,15.59.7a.3.3,0,0,1-.15-.24V.2c0-.09.05-.14.15-.14h1.83a.12.12,0,0,1,.13.13V.46A.3.3,0,0,1,17.4.7a.51.51,0,0,0-.23.45Z"/><path class="store12_svg1" d="M19.34,9.18H19c-.09,0-.14-.06-.14-.16V6.81c0-.15.05-.22.16-.22h.25c.07,0,.11,0,.13.06a3.1,3.1,0,0,1,.09.47c.16,1,.53,1.53,1.1,1.53a.79.79,0,0,0,.7-.38,1.67,1.67,0,0,0,.25-.94,2.11,2.11,0,0,0-.27-1,7.16,7.16,0,0,0-1-1.32,11.58,11.58,0,0,1-.86-1A2.81,2.81,0,0,1,19,3.19a2.93,2.93,0,0,1-.16-1,2.54,2.54,0,0,1,.49-1.6A1.48,1.48,0,0,1,20.52,0a1.61,1.61,0,0,1,.69.18.61.61,0,0,0,.22.09.27.27,0,0,0,.13-.05.31.31,0,0,1,.17,0H22c.11,0,.17.05.17.15V2.27c0,.1,0,.15-.13.15h-.27a.16.16,0,0,1-.14-.06,3.14,3.14,0,0,1-.11-.42c-.18-.85-.48-1.27-.9-1.27A.61.61,0,0,0,20,1a1,1,0,0,0-.2.65,2,2,0,0,0,.23.88A6.1,6.1,0,0,0,21,3.65a7.27,7.27,0,0,1,1.26,1.64,3.43,3.43,0,0,1,.34,1.53A2.71,2.71,0,0,1,22,8.63a1.74,1.74,0,0,1-1.38.7,2.27,2.27,0,0,1-.84-.19.85.85,0,0,0-.22-.07.29.29,0,0,0-.15.06A.25.25,0,0,1,19.34,9.18Z"/><path class="store12_svg1" d="M25.33,1.22l0-.4c0-.13,0-.2,0-.22s0-.07.09-.1l1-.46h.05c.06,0,.09,0,.11.1l1.59,8a.8.8,0,0,0,.1.31.74.74,0,0,0,.24.2.24.24,0,0,1,.13.19V9c0,.09,0,.14-.11.14h-2c-.1,0-.16,0-.16-.14V8.78c0-.09.07-.17.19-.23a.36.36,0,0,0,.23-.34.66.66,0,0,0,0-.13l-.24-1.22H25L24.71,8a.89.89,0,0,0,0,.11.57.57,0,0,0,.26.39.35.35,0,0,1,.17.25V9c0,.09-.05.14-.17.14H23.73c-.14,0-.21,0-.21-.14V8.73a.24.24,0,0,1,.13-.2A.73.73,0,0,0,24,8Zm.4,1.88-.61,3h1.21Z"/><path class="store12_svg1" d="M33.54,5.34l.71-4a1.15,1.15,0,0,0,0-.19A.4.4,0,0,0,34,.73c-.13-.07-.2-.15-.2-.25V.22c0-.1.06-.16.18-.16h1.31a.18.18,0,0,1,.2.19V.48q0,.11-.15.21a.81.81,0,0,0-.34.53L33.58,9.11c0,.12-.07.18-.16.18h-.26c-.07,0-.11-.06-.14-.18l-1-5.23-.94,5.23c0,.12-.07.18-.16.18H30.7q-.12,0-.15-.18L29,1.05a.42.42,0,0,0-.3-.36.19.19,0,0,1-.14-.2V.22c0-.1,0-.16.17-.16h1.71a.1.1,0,0,1,.11.1V.52c0,.06,0,.1-.11.14a.32.32,0,0,0-.21.32,1.21,1.21,0,0,0,0,.18l.79,4.18.61-3.47-.15-.82A.46.46,0,0,0,31.22.7c-.08,0-.12-.08-.12-.14V.18c0-.08,0-.12.11-.12H33a.11.11,0,0,1,.12.12V.39a.48.48,0,0,1,0,.2A.31.31,0,0,1,33,.71a.35.35,0,0,0-.21.32.62.62,0,0,0,0,.13Z"/><path class="store12_svg1" d="M37.39,1.22l-.06-.4a1.4,1.4,0,0,1,0-.22s0-.07.08-.1l1-.46h0c.05,0,.09,0,.1.1l1.59,8a.78.78,0,0,0,.11.31.8.8,0,0,0,.23.2.23.23,0,0,1,.14.19V9c0,.09,0,.14-.11.14h-2c-.11,0-.16,0-.16-.14V8.78c0-.09.06-.17.19-.23a.37.37,0,0,0,.23-.34s0-.08,0-.13l-.25-1.22H37L36.77,8a.28.28,0,0,0,0,.11.57.57,0,0,0,.26.39.38.38,0,0,1,.17.25V9c0,.09-.06.14-.17.14H35.79c-.14,0-.21,0-.21-.14V8.73a.22.22,0,0,1,.13-.2A.76.76,0,0,0,36,8Zm.4,1.88-.61,3h1.21Z"/></g></g></svg>