<?xml version="1.0" encoding="UTF-8"?>
<svg width="692px" height="152px" viewBox="0 0 692 152" version="1.1" xmlns="http://www.w3.org/2000/svg" xmlns:xlink="http://www.w3.org/1999/xlink">
    <!-- Generator: Sketch 51.3 (57544) - http://www.bohemiancoding.com/sketch -->
    <title>DATA VISUALIZATION</title>
    <desc>Created with Sketch.</desc>
    <defs></defs>
    <g id="デザイン" stroke="none" stroke-width="1" fill="none" fill-rule="evenodd">
        <g id="design" transform="translate(-145.000000, -264.000000)" fill="#FFFFFF">
            <g id="Group-5" transform="translate(-26.000000, -96.000000)">
                <g id="KV">
                    <path d="M415.379395,417 L415.379395,364.226562 L426.453613,364.226562 C431.762885,364.226562 435.955551,364.750646 439.031738,365.798828 C442.335791,366.824224 445.332181,368.567371 448.020996,371.02832 C453.466987,375.995793 456.189941,382.524048 456.189941,390.613281 C456.189941,398.725301 453.353056,405.287735 447.679199,410.300781 C444.830878,412.807304 441.845881,414.550451 438.724121,415.530273 C435.80744,416.510096 431.671739,417 426.316895,417 L415.379395,417 Z M423.343262,409.514648 L426.932129,409.514648 C430.509621,409.514648 433.483224,409.138676 435.853027,408.386719 C438.222831,407.589189 440.364737,406.324553 442.278809,404.592773 C446.198099,401.015282 448.157715,396.355497 448.157715,390.613281 C448.157715,384.825492 446.220885,380.131528 442.347168,376.53125 C438.860822,373.318343 433.722527,371.711914 426.932129,371.711914 L423.343262,371.711914 L423.343262,409.514648 Z M508.60791,404.182617 L486.015137,404.182617 L480.13623,417 L471.557129,417 L497.67041,360.911133 L522.86084,417 L514.14502,417 L508.60791,404.182617 Z M505.36084,396.697266 L497.533691,378.75293 L489.330566,396.697266 L505.36084,396.697266 Z M555.078613,371.711914 L555.078613,417 L547.114746,417 L547.114746,371.711914 L534.980957,371.711914 L534.980957,364.226562 L567.178223,364.226562 L567.178223,371.711914 L555.078613,371.711914 Z M616.41748,404.182617 L593.824707,404.182617 L587.945801,417 L579.366699,417 L605.47998,360.911133 L630.67041,417 L621.95459,417 L616.41748,404.182617 Z M613.17041,396.697266 L605.343262,378.75293 L597.140137,396.697266 L613.17041,396.697266 Z M179.737793,455.226562 L194.33252,491.798828 L209.132324,455.226562 L217.848145,455.226562 L194.161621,511.964844 L171.021973,455.226562 L179.737793,455.226562 Z M246.374512,455.226562 L246.374512,508 L238.410645,508 L238.410645,455.226562 L246.374512,455.226562 Z M302.894043,463.087891 L296.434082,466.916016 C295.226394,464.819651 294.075689,463.452477 292.981934,462.814453 C291.842605,462.085283 290.372893,461.720703 288.572754,461.720703 C286.362456,461.720703 284.528165,462.347324 283.069824,463.600586 C281.611484,464.831061 280.882324,466.380525 280.882324,468.249023 C280.882324,470.823906 282.796368,472.897453 286.624512,474.469727 L291.888184,476.623047 C296.172059,478.354826 299.305166,480.468249 301.287598,482.963379 C303.270029,485.458509 304.26123,488.51756 304.26123,492.140625 C304.26123,496.994165 302.643408,501.004541 299.407715,504.171875 C296.149235,507.361995 292.104679,508.957031 287.273926,508.957031 C282.693825,508.957031 278.91131,507.601251 275.92627,504.889648 C272.986802,502.178046 271.15251,498.361353 270.42334,493.439453 L278.489746,491.662109 C278.854331,494.761083 279.492346,496.902989 280.403809,498.087891 C282.044442,500.366548 284.436996,501.505859 287.581543,501.505859 C290.065279,501.505859 292.127433,500.674162 293.768066,499.010742 C295.4087,497.347322 296.229004,495.239596 296.229004,492.6875 C296.229004,491.662104 296.08659,490.722172 295.801758,489.867676 C295.516926,489.013179 295.072594,488.227054 294.46875,487.509277 C293.864906,486.7915 293.084477,486.119307 292.127441,485.492676 C291.170405,484.866045 290.031094,484.267906 288.709473,483.698242 L283.616699,481.579102 C276.393356,478.525701 272.781738,474.0596 272.781738,468.180664 C272.781738,464.2158 274.297023,460.900404 277.327637,458.234375 C280.358251,455.545559 284.129372,454.201172 288.641113,454.201172 C294.725128,454.201172 299.476057,457.163382 302.894043,463.087891 Z M335.82959,455.226562 L335.82959,487.013672 C335.82959,491.5482 336.570142,494.863596 338.05127,496.959961 C340.261567,499.990575 343.371888,501.505859 347.382324,501.505859 C351.415548,501.505859 354.537261,499.990575 356.747559,496.959961 C358.228686,494.931956 358.969238,491.616559 358.969238,487.013672 L358.969238,455.226562 L366.933105,455.226562 L366.933105,489.201172 C366.933105,494.761096 365.201352,499.341128 361.737793,502.941406 C357.841289,506.951843 353.056181,508.957031 347.382324,508.957031 C341.708468,508.957031 336.934752,506.951843 333.061035,502.941406 C329.597476,499.341128 327.865723,494.761096 327.865723,489.201172 L327.865723,455.226562 L335.82959,455.226562 Z M422.324707,495.182617 L399.731934,495.182617 L393.853027,508 L385.273926,508 L411.387207,451.911133 L436.577637,508 L427.861816,508 L422.324707,495.182617 Z M419.077637,487.697266 L411.250488,469.75293 L403.047363,487.697266 L419.077637,487.697266 Z M465.138184,455.226562 L465.138184,500.514648 L480.655762,500.514648 L480.655762,508 L457.174316,508 L457.174316,455.226562 L465.138184,455.226562 Z M510.17334,455.226562 L510.17334,508 L502.209473,508 L502.209473,455.226562 L510.17334,455.226562 Z M545.97998,500.514648 L571.307129,500.514648 L571.307129,508 L532.88916,508 L558.797363,462.711914 L537.127441,462.711914 L537.127441,455.226562 L571.888184,455.226562 L545.97998,500.514648 Z M625.60498,495.182617 L603.012207,495.182617 L597.133301,508 L588.554199,508 L614.66748,451.911133 L639.85791,508 L631.14209,508 L625.60498,495.182617 Z M622.35791,487.697266 L614.530762,469.75293 L606.327637,487.697266 L622.35791,487.697266 Z M672.075684,462.711914 L672.075684,508 L664.111816,508 L664.111816,462.711914 L651.978027,462.711914 L651.978027,455.226562 L684.175293,455.226562 L684.175293,462.711914 L672.075684,462.711914 Z M713.248535,455.226562 L713.248535,508 L705.284668,508 L705.284668,455.226562 L713.248535,455.226562 Z M737.297363,481.374023 C737.297363,473.945601 740.020318,467.565456 745.466309,462.233398 C750.889513,456.901341 757.406375,454.235352 765.01709,454.235352 C772.536659,454.235352 778.985162,456.924127 784.362793,462.301758 C789.763211,467.679389 792.463379,474.139285 792.463379,481.681641 C792.463379,489.269569 789.751817,495.706679 784.328613,500.993164 C778.882623,506.302435 772.308795,508.957031 764.606934,508.957031 C757.793748,508.957031 751.675646,506.598656 746.252441,501.881836 C740.282359,496.663711 737.297363,489.827842 737.297363,481.374023 Z M745.32959,481.476562 C745.32959,487.309925 747.289206,492.106427 751.208496,495.866211 C755.105,499.625995 759.60528,501.505859 764.709473,501.505859 C770.24661,501.505859 774.917787,499.591816 778.723145,495.763672 C782.528502,491.889955 784.431152,487.173205 784.431152,481.613281 C784.431152,475.984998 782.551288,471.268248 778.791504,467.462891 C775.054506,463.634746 770.428901,461.720703 764.914551,461.720703 C759.422987,461.720703 754.785989,463.634746 751.003418,467.462891 C747.220847,471.245462 745.32959,475.916639 745.32959,481.476562 Z M816.478027,508 L816.478027,451.637695 L854.964355,491.901367 L854.964355,455.226562 L862.928223,455.226562 L862.928223,511.212891 L824.441895,471.051758 L824.441895,508 L816.478027,508 Z" id="DATA-VISUALIZATION"></path>
                </g>
            </g>
        </g>
    </g>
</svg>