<svg xmlns="http://www.w3.org/2000/svg" viewBox="0 0 199.47 73.2"><defs><style>.tit_svg1{fill:#542d71;stroke:#542d71;stroke-width:1.86px;}.tit_svg1,.tit_svg2{stroke-miterlimit:10;}.tit_svg2{fill:#d7bc6e;stroke:#d7bc6e;stroke-width:0.87px;}</style></defs><title>tit01</title><g id="レイヤー_2" data-name="レイヤー 2"><g id="レイヤー_1-2" data-name="レイヤー 1"><path class="tit_svg1" d="M13.66,11.48c0,.38-.44.59-.68.72a1.33,1.33,0,0,0-.41.67A70,70,0,0,1,6.38,24.23C5.86,25,3.89,27.9,3.21,27.9s-2.28-1.31-2.28-2a.9.9,0,0,1,.27-.59C4.5,21.53,8.45,15.36,10,10.13c.1-.3.24-1,.54-1S13.66,10.89,13.66,11.48Zm8.92-1.05a53.47,53.47,0,0,1,3.85,6.24c.61,1.18,3.71,7.22,3.71,8.19S28.27,27,27.65,27c-.47,0-.64-.72-.81-1.18A58.67,58.67,0,0,0,20.23,12.7a1.28,1.28,0,0,1-.37-.8c0-.67,1.53-1.94,2-1.94A.86.86,0,0,1,22.58,10.43Z"/><path class="tit_svg1" d="M34.6,13.76A25.85,25.85,0,0,1,36,16.38a15.92,15.92,0,0,1,1.39,3.2c0,.81-1.5,1.57-1.9,1.57s-.48-.34-.62-.68a46,46,0,0,0-2.31-4.85,1.39,1.39,0,0,1-.27-.72c0-.68,1.36-1.48,1.73-1.48A.69.69,0,0,1,34.6,13.76Zm16.92-.84a.7.7,0,0,1,.47.63.68.68,0,0,1-.37.63c-.24.26-.24.34-.38.85-2,8.1-4.83,14.31-11.37,17.85a15.39,15.39,0,0,1-3.44,1.44c-.57,0-1.53-1.73-1.53-2.33s.41-.63.89-.8C41.3,29.25,44.84,26,47.23,19.42a28.14,28.14,0,0,0,1.6-6.76c.07-.34.07-.72.44-.72a10.14,10.14,0,0,1,1.84.76C51.28,12.79,51.45,12.87,51.52,12.92ZM43.07,14a17.52,17.52,0,0,1,1.43,3.25c0,.76-1.49,1.56-1.9,1.56s-.51-.42-.68-.8a49.28,49.28,0,0,0-2.25-4.68,1.62,1.62,0,0,1-.31-.76c0-.68,1.36-1.48,1.77-1.48C41.71,11.06,42.53,12.92,43.07,14Z"/><path class="tit_svg1" d="M58.6,23.55c0,5.74,1.09,5.53,6.23,5.53a48,48,0,0,0,11-.88c.1,0,.24-.05.34-.05.51,0,.58.89.58,1.52,0,1.61-.14,2.24-1,2.37-.68.12-3.81.33-4.66.38-2.39.17-4.74.12-7.08.12s-6.07.17-7.46-2.36c-.85-1.52-.85-4.64-.85-6.46V7.93a36.37,36.37,0,0,0-.17-4.3c0-.08,0-.21,0-.3a.45.45,0,0,1,.38-.46,4.23,4.23,0,0,1,.68.17c2,.51,2.69.59,2.69,1.1a1.52,1.52,0,0,1-.27.63,7.17,7.17,0,0,0-.34,3v6.17c0,1,.74,1.09,1.39,1.09a20.29,20.29,0,0,0,6-1.22,26.88,26.88,0,0,0,7-3.5c.17-.13.37-.34.54-.34s.68.76.85,1.1.55.92.79,1.35a4.1,4.1,0,0,1,.44,1.05.44.44,0,0,1-.48.42c-.07,0-.27,0-.37,0h-.31a3.14,3.14,0,0,0-1.12.42,35.48,35.48,0,0,1-10.08,3.63c-1.67.26-3.1.3-3.71.38s-.89.47-.95,1.19ZM81.13,5.61a3.3,3.3,0,1,1-6.6,0,3.3,3.3,0,1,1,6.6,0ZM76,5.61a1.87,1.87,0,0,0,1.84,1.86A1.86,1.86,0,1,0,76,5.61Z"/><path class="tit_svg1" d="M93.66,15.91c1,0,2.48-.12,2.86-.12.59,0,.64.29.64,2.06,0,1,0,1.82-.57,1.82-1,0-2-.13-2.93-.13H82.72c-1,0-2,.13-2.93.13-.6,0-.6-.84-.6-1.82,0-1.77.07-2.06.65-2.06.38,0,1.85.12,2.88.12Z"/><path class="tit_svg1" d="M115.31,7.43c1.43,0,2.86-.09,4.29-.09.61,0,.82.26.82,1.69s0,2-1,2c-1.36,0-2.72-.09-4.08-.09h-3.17a1.15,1.15,0,0,0-1,1.23V25.28a1.15,1.15,0,0,0,1,1.23h5.75c1.39,0,2.79-.13,4.19-.13.75,0,.81.34.81,2,0,1.1,0,1.74-.85,1.74-1.39,0-2.79-.09-4.15-.09H101.42c-1.36,0-2.76.09-4.15.09-.82,0-.85-.64-.85-1.78,0-1.6.06-1.94.81-1.94,1.4,0,2.79.13,4.19.13h5.75a1.16,1.16,0,0,0,1-1.23V12.16a1.16,1.16,0,0,0-1-1.23H104c-1.36,0-2.72.09-4.08.09-1,0-1-.51-1-2s.21-1.69.82-1.69c1.43,0,2.86.09,4.29.09Z"/><path class="tit_svg1" d="M150.78,13.68A11.37,11.37,0,0,1,149,16.46a61.68,61.68,0,0,1-18.42,15.87c-.91.51-1,.59-1.29,1.35a.47.47,0,0,1-.37.3c-.34,0-.62-.68-1.09-1.73A12.76,12.76,0,0,1,127,30.1c0-.43.54-.55,1-.68,7.35-2.7,16.07-10.89,20.84-18.28.13-.21.34-.46.54-.46C149.93,10.68,150.78,13.13,150.78,13.68ZM133.11,7.05c.41.38,1.94,1.81,1.94,2.24,0,.8-1.19,2.53-1.8,2.53-.27,0-1-.76-1.43-1.14A39,39,0,0,0,127.7,7a.94.94,0,0,1-.51-.76c0-.47,1-2.54,1.7-2.54C129.4,3.71,132.5,6.5,133.11,7.05Z"/><path class="tit_svg1" d="M158,28.79c0,1.85.07,3.71.07,5.57s-.14,2-1.7,2c-1.09,0-1.53-.08-1.53-1.56,0-2,.06-4,.06-6V5.66c0-1.19,0-2.49-.1-3.42,0-.17-.07-.59-.07-.76,0-.38.11-.55.41-.55s2.18.38,2.56.46.81.21.81.64a1,1,0,0,1-.2.54,2.21,2.21,0,0,0-.27,1.4c0,1.14,0,2.32,0,3.46Zm7-11.23c.72.72,1.84,1.9,1.84,2.4,0,.72-1.19,2.33-1.77,2.33-.31,0-.51-.26-.71-.51a51.39,51.39,0,0,0-5.45-5.4,1.2,1.2,0,0,1-.61-.89c0-.67,1-2.41,1.56-2.41s3,2.41,4.19,3.55C164.37,16.93,164.71,17.22,165,17.56Zm3.13-9a2.41,2.41,0,0,1-1.49,1.64c-.21,0-.38-.29-.48-.46a34.84,34.84,0,0,0-2.28-3.33,1.06,1.06,0,0,1-.31-.6c0-.46,1.09-1.47,1.43-1.47S168.14,8.1,168.14,8.57Zm2.12-4.81a8,8,0,0,1,1.26,2.06,2.47,2.47,0,0,1-1.47,1.65c-.2,0-.37-.25-.48-.46a33.08,33.08,0,0,0-2.31-3.34c-.1-.12-.31-.34-.31-.55,0-.46,1.09-1.52,1.43-1.52S170,3.38,170.26,3.76Z"/><path class="tit_svg1" d="M180.13,4.68a.79.79,0,0,1,.47.64c0,.25-.17.34-.47.55-.55.33-.69.76-1,1.81a39.58,39.58,0,0,0-1.87,12.2c0,1,.24,7.09,1.13,7.09.27,0,.47-.5.78-1.39.07-.21.17-.42.24-.63.3-.81.51-1.19.78-1.19s1,.59,1,1-1.29,4.44-1.29,6.17c0,.34.07,1.09.1,1.43a3.63,3.63,0,0,1,0,.55c0,.8-1.63,1.73-2.17,1.73s-1.06-1.35-1.33-2.07a34.38,34.38,0,0,1-2-12.7A59.5,59.5,0,0,1,176.21,6a17.82,17.82,0,0,0,.44-2c0-.34.14-.8.45-.8a24.15,24.15,0,0,1,2.58,1.26C179.89,4.56,180.06,4.64,180.13,4.68Zm4.35,20.6a5.72,5.72,0,0,0,5.42,3,21.14,21.14,0,0,0,7.45-1.35,2.12,2.12,0,0,1,.68-.17c.45,0,.51.63.51,2.24,0,.46,0,1.43-.34,1.69-.95.63-6.63,1.22-7.93,1.22-5.55,0-7.73-3.63-7.73-4.14s.92-2.91,1.5-2.91C184.25,24.86,184.38,25.11,184.48,25.28Zm1.33-18.61a16.41,16.41,0,0,0,4.5.63,18.08,18.08,0,0,0,5.2-.8,3.42,3.42,0,0,1,.62-.13c.68,0,.64,1.86.64,2.45s0,1.1-.3,1.27c-.79.42-4.9.72-5.93.72s-5-.3-5.75-.85c-.37-.25-.34-1-.34-1.43,0-1.23.07-2.07.61-2.07A2.28,2.28,0,0,1,185.81,6.67Z"/><path class="tit_svg1" d="M10.5,40.68c.27.09.64.26.64.64a.9.9,0,0,1-.37.63,4.86,4.86,0,0,0-.68,2.53,125.81,125.81,0,0,0-.75,14.4c0,3.63.07,8.86,4.05,8.86,2.59,0,5.21-1.86,6.81-4.35a14.6,14.6,0,0,0,2.08-6.29c.06-.59.13-1.3.57-1.3.65,0,2.29,1.68,2.29,2.87a18,18,0,0,1-1.33,4.77c-2,4.64-5.89,8-10.22,8a6.58,6.58,0,0,1-5.68-3.21C6.44,65.8,6.31,62,6.31,59c0-5.23.3-10.46.64-15.7C7,42.46,7,41.66,7,40.81c0-.59,0-1,.48-1A18.22,18.22,0,0,1,10.5,40.68Z"/><path class="tit_svg1" d="M39.94,38.79c.55.08,1.13.12,1.13.59a1,1,0,0,1-.21.59c-.17.29-.37.84-.37,3.37,0,.6.24,1,.71,1a4.67,4.67,0,0,0,.79-.09,36.26,36.26,0,0,0,5.58-1.43,2.47,2.47,0,0,1,.58-.13c.68,0,.75,2.11.75,2.7,0,.89-.24.85-1.2,1.1-1.77.46-3.77.76-5.58,1.06-.68.08-1.56.08-1.56,1.26,0,3.55.3,3.88.74,3.88A24.87,24.87,0,0,0,46,51.58a2.2,2.2,0,0,1,.55-.13c.51,0,.47,1.35.47,1.81,0,1.44-.1,1.73-.68,1.9a31,31,0,0,1-4.29.85c-.88.12-1.29.17-1.29,1.35,0,4.94.17,4.77,1.19,5.15A17.4,17.4,0,0,1,46.38,65c.47.33,1.63,1.09,1.63,1.81,0,.89-1,2.62-1.67,2.62-.34,0-.71-.42-1-.68-.69-.67-3.14-2.78-3.89-2.78-.54,0-.57.71-.64,1.22-.48,3.55-3.44,4.69-6,4.69s-5.38-1.48-5.38-5.15c0-4.14,3.77-5.24,6.43-5.24.61,0,1.57.09,1.64.09.64,0,.57-.85.57-1.23,0-3-.06-3.8-.81-3.8-1.4,0-3.17.13-4.74.13-.91,0-1.6,0-1.83-.46a7.19,7.19,0,0,1-.45-2.45c0-.47.14-.76.51-.76.11,0,2.42.25,4,.25,2.42,0,3.1.09,3.1-1.1,0-3.08-.2-4-.89-4-1.12,0-4.46.25-7.69.25-1.4,0-1.63-.25-1.63-2.62,0-.63,0-1.1.57-1.1s3.24.26,5.35.26c3.1,0,4,0,4-1.1,0-.72-.2-3.67-.3-4.35a3.47,3.47,0,0,1-.11-.63c0-.38.21-.46.48-.46A21.25,21.25,0,0,1,39.94,38.79ZM32.15,66.73c0,1.69,1.66,2,2.69,2,1.9,0,3.37-.71,3.37-3.37,0-.89-.89-.89-1.84-.89C35.14,64.49,32.15,64.58,32.15,66.73Z"/><path class="tit_svg1" d="M60.67,42.88c.21,0,.55.17.55.51a1.18,1.18,0,0,1-.27.67,2.22,2.22,0,0,0-.41,1.31c0,.46,0,1.1,0,1.73v1.73c0,.63-.07,1.73.65,1.73.2,0,5.55-1.05,6.26-1.18,1-.17,1.33-.3,1.33-1.6a35.65,35.65,0,0,0-.58-7,3,3,0,0,1-.06-.51.45.45,0,0,1,.44-.46,23.65,23.65,0,0,1,2.79.55c.2,0,.65.17.65.51a1.68,1.68,0,0,1-.28.71A2.74,2.74,0,0,0,71.47,43c0,1.19,0,2.41,0,3.59v.59c0,.26-.07,1.35.68,1.35.24,0,2.45-.42,2.86-.5a24.52,24.52,0,0,1,2.83-.47c.54,0,.58.59.58,2.16,0,1.73-.21,1.6-1.2,1.68-1.39.13-2.82.3-4.22.51a2.19,2.19,0,0,0-1.29.34c-.38.34-.44,1.35-.51,2.57-.21,3-.51,7.56-5.69,7.56a.8.8,0,0,1-.88-.59,7.25,7.25,0,0,1-.38-2.16c0-.42.17-.84.55-.84s.47,0,.71,0a2.34,2.34,0,0,0,2.62-2.07,21.59,21.59,0,0,0,.41-3.29.7.7,0,0,0-.58-.76,1.23,1.23,0,0,0-.44.09c-1,.17-5.38,1-6.2,1.26-.64.17-.92.68-.92,1.52a70.21,70.21,0,0,0,.45,8.61,3.19,3.19,0,0,0,2.58,2.79,13.75,13.75,0,0,0,2.93.3,23.49,23.49,0,0,0,6.4-.89c.11,0,.24,0,.34,0,.48,0,.48.76.48,1.18s0,2.19-.41,2.53-5.51.63-6.43.63c-2.83,0-6.37-.08-8-3.54-1.12-2.41-1-7.68-1.09-10.55,0-.64-.07-1.48-.71-1.48-.45,0-4.36,1.1-5,1.31a2.89,2.89,0,0,1-.58.08c-.51,0-.54-.8-.61-1.26a19.28,19.28,0,0,1-.24-2c0-.84.51-.84,1.06-.88.78-.05,4.32-.68,5.14-.89.61-.17.81-.55.81-1.31,0-1.48-.06-5.4-.27-6.75,0-.17,0-.38,0-.55,0-.42.13-.55.44-.55A19.61,19.61,0,0,1,60.67,42.88Z"/><path class="tit_svg1" d="M92.43,39.67c.31.3,1.3,1.14,1.3,1.61s-.34.59-.65.67c-.54.13-.68.3-1,.8-1,1.52-2,3.13-2.86,4.77-.44.8-3.13,5.87-3.13,6.42a.31.31,0,0,0,.27.34c.2,0,.48-.26.65-.38a8.42,8.42,0,0,1,4.63-2.07,3.79,3.79,0,0,1,3,1.69,6,6,0,0,1,.68,3.12,25.21,25.21,0,0,1-.44,4.18,31.17,31.17,0,0,0-.55,4.39c0,.8.21,1.9,1,1.9,2.18,0,5.38-5,6.51-7,.13-.25.3-.55.57-.55.55,0,1.54,2.7,1.54,3.25a1.7,1.7,0,0,1-.38.89c-.78,1-1.56,1.94-2.38,2.87-1.77,2-4,4.26-6.47,4.26-2.28,0-3.2-2.45-3.2-4.94A33.2,33.2,0,0,1,92,61a25.22,25.22,0,0,0,.34-3.59c0-1.27-.34-2.28-1.54-2.28a7.58,7.58,0,0,0-4.08,2,13.36,13.36,0,0,0-3.44,4.31,37.07,37.07,0,0,0-2.59,8.31c-.07.43-.2.76-.61.76s-2.66-.93-2.66-1.56c0,0,.55-1.69.58-1.77,1.23-3.63,2.49-7.18,3.88-10.64a143,143,0,0,1,7.15-14.94,19.41,19.41,0,0,0,1-2.15c.1-.26.4-1.1.68-1.1S92.13,39.38,92.43,39.67Z"/><path class="tit_svg1" d="M117.69,39.59c.28.08.89.25.89.71a.83.83,0,0,1-.31.6c-.54.54-.64,1.39-.81,2.78-.07.64-.17,1.31-.31,2.15,0,.13,0,.34,0,.47,0,.46.24.76.62.76s1.12-.09,1.77-.09c3.5,0,4.87,2.54,4.87,6.67,0,3.89-.55,9.42-2,12.84-1.26,2.91-3.48,4.43-6.13,4.43a1.27,1.27,0,0,1-1.4-.89,7,7,0,0,1-.54-2.41c0-.29.1-.54.37-.54s.89.17,1.64.17c1.94,0,2.89-.81,3.71-2.92a30.74,30.74,0,0,0,1.53-9.71c0-2.36-.14-4.43-2.48-4.43-2.49,0-2.69.51-2.9,1.48a54.32,54.32,0,0,1-4.42,13,50.81,50.81,0,0,1-3.38,6,.86.86,0,0,1-.57.34c-.51,0-2.15-1.22-2.15-2a1.71,1.71,0,0,1,.48-.93,39.42,39.42,0,0,0,7-15.32,4.46,4.46,0,0,0,.14-.71.43.43,0,0,0-.41-.47,31,31,0,0,0-4.73,1.77,1.23,1.23,0,0,1-.38.13c-.71,0-1.29-3.12-1.29-3.5,0-.59.58-.55.88-.59,1.67-.17,4.19-1,5.93-1.4,1.09-.25,1-.84,1.16-2.07a44.09,44.09,0,0,0,.3-4.77,10.91,10.91,0,0,0-.07-1.51v-.22c0-.25.11-.5.34-.5S117.25,39.46,117.69,39.59Zm15.05,13.67c0,.76-1.63,2-2.25,2-.4,0-.57-.47-.71-.89a31.16,31.16,0,0,0-4.46-8.82,1.12,1.12,0,0,1-.27-.68c0-.67,1.53-1.77,2-1.77C128.21,43.09,132.74,52.25,132.74,53.26Z"/><path class="tit_svg1" d="M137,67.61a4.66,4.66,0,1,1-4.66-4.67A4.66,4.66,0,0,1,137,67.61Zm-7.79,0a3.13,3.13,0,1,0,3.13-3.13A3.12,3.12,0,0,0,129.2,67.61Z"/><path class="tit_svg2" d="M13.66,11.48c0,.38-.44.59-.68.72a1.33,1.33,0,0,0-.41.67A70,70,0,0,1,6.38,24.23C5.86,25,3.89,27.9,3.21,27.9s-2.28-1.31-2.28-2a.9.9,0,0,1,.27-.59C4.5,21.53,8.45,15.36,10,10.13c.1-.3.24-1,.54-1S13.66,10.89,13.66,11.48Zm8.92-1.05a53.47,53.47,0,0,1,3.85,6.24c.61,1.18,3.71,7.22,3.71,8.19S28.27,27,27.65,27c-.47,0-.64-.72-.81-1.18A58.67,58.67,0,0,0,20.23,12.7a1.28,1.28,0,0,1-.37-.8c0-.67,1.53-1.94,2-1.94A.86.86,0,0,1,22.58,10.43Z"/><path class="tit_svg2" d="M34.6,13.76A25.85,25.85,0,0,1,36,16.38a15.92,15.92,0,0,1,1.39,3.2c0,.81-1.5,1.57-1.9,1.57s-.48-.34-.62-.68a46,46,0,0,0-2.31-4.85,1.39,1.39,0,0,1-.27-.72c0-.68,1.36-1.48,1.73-1.48A.69.69,0,0,1,34.6,13.76Zm16.92-.84a.7.7,0,0,1,.47.63.68.68,0,0,1-.37.63c-.24.26-.24.34-.38.85-2,8.1-4.83,14.31-11.37,17.85a15.39,15.39,0,0,1-3.44,1.44c-.57,0-1.53-1.73-1.53-2.33s.41-.63.89-.8C41.3,29.25,44.84,26,47.23,19.42a28.14,28.14,0,0,0,1.6-6.76c.07-.34.07-.72.44-.72a10.14,10.14,0,0,1,1.84.76C51.28,12.79,51.45,12.87,51.52,12.92ZM43.07,14a17.52,17.52,0,0,1,1.43,3.25c0,.76-1.49,1.56-1.9,1.56s-.51-.42-.68-.8a49.28,49.28,0,0,0-2.25-4.68,1.62,1.62,0,0,1-.31-.76c0-.68,1.36-1.48,1.77-1.48C41.71,11.06,42.53,12.92,43.07,14Z"/><path class="tit_svg2" d="M58.6,23.55c0,5.74,1.09,5.53,6.23,5.53a48,48,0,0,0,11-.88c.1,0,.24-.05.34-.05.51,0,.58.89.58,1.52,0,1.61-.14,2.24-1,2.37-.68.12-3.81.33-4.66.38-2.39.17-4.74.12-7.08.12s-6.07.17-7.46-2.36c-.85-1.52-.85-4.64-.85-6.46V7.93a36.37,36.37,0,0,0-.17-4.3c0-.08,0-.21,0-.3a.45.45,0,0,1,.38-.46,4.23,4.23,0,0,1,.68.17c2,.51,2.69.59,2.69,1.1a1.52,1.52,0,0,1-.27.63,7.17,7.17,0,0,0-.34,3v6.17c0,1,.74,1.09,1.39,1.09a20.29,20.29,0,0,0,6-1.22,26.88,26.88,0,0,0,7-3.5c.17-.13.37-.34.54-.34s.68.76.85,1.1.55.92.79,1.35a4.1,4.1,0,0,1,.44,1.05.44.44,0,0,1-.48.42c-.07,0-.27,0-.37,0h-.31a3.14,3.14,0,0,0-1.12.42,35.48,35.48,0,0,1-10.08,3.63c-1.67.26-3.1.3-3.71.38s-.89.47-.95,1.19ZM81.13,5.61a3.3,3.3,0,1,1-6.6,0,3.3,3.3,0,1,1,6.6,0ZM76,5.61a1.87,1.87,0,0,0,1.84,1.86A1.86,1.86,0,1,0,76,5.61Z"/><path class="tit_svg2" d="M93.66,15.91c1,0,2.48-.12,2.86-.12.59,0,.64.29.64,2.06,0,1,0,1.82-.57,1.82-1,0-2-.13-2.93-.13H82.72c-1,0-2,.13-2.93.13-.6,0-.6-.84-.6-1.82,0-1.77.07-2.06.65-2.06.38,0,1.85.12,2.88.12Z"/><path class="tit_svg2" d="M115.31,7.43c1.43,0,2.86-.09,4.29-.09.61,0,.82.26.82,1.69s0,2-1,2c-1.36,0-2.72-.09-4.08-.09h-3.17a1.15,1.15,0,0,0-1,1.23V25.28a1.15,1.15,0,0,0,1,1.23h5.75c1.39,0,2.79-.13,4.19-.13.75,0,.81.34.81,2,0,1.1,0,1.74-.85,1.74-1.39,0-2.79-.09-4.15-.09H101.42c-1.36,0-2.76.09-4.15.09-.82,0-.85-.64-.85-1.78,0-1.6.06-1.94.81-1.94,1.4,0,2.79.13,4.19.13h5.75a1.16,1.16,0,0,0,1-1.23V12.16a1.16,1.16,0,0,0-1-1.23H104c-1.36,0-2.72.09-4.08.09-1,0-1-.51-1-2s.21-1.69.82-1.69c1.43,0,2.86.09,4.29.09Z"/><path class="tit_svg2" d="M150.78,13.68A11.37,11.37,0,0,1,149,16.46a61.68,61.68,0,0,1-18.42,15.87c-.91.51-1,.59-1.29,1.35a.47.47,0,0,1-.37.3c-.34,0-.62-.68-1.09-1.73A12.76,12.76,0,0,1,127,30.1c0-.43.54-.55,1-.68,7.35-2.7,16.07-10.89,20.84-18.28.13-.21.34-.46.54-.46C149.93,10.68,150.78,13.13,150.78,13.68ZM133.11,7.05c.41.38,1.94,1.81,1.94,2.24,0,.8-1.19,2.53-1.8,2.53-.27,0-1-.76-1.43-1.14A39,39,0,0,0,127.7,7a.94.94,0,0,1-.51-.76c0-.47,1-2.54,1.7-2.54C129.4,3.71,132.5,6.5,133.11,7.05Z"/><path class="tit_svg2" d="M158,28.79c0,1.85.07,3.71.07,5.57s-.14,2-1.7,2c-1.09,0-1.53-.08-1.53-1.56,0-2,.06-4,.06-6V5.66c0-1.19,0-2.49-.1-3.42,0-.17-.07-.59-.07-.76,0-.38.11-.55.41-.55s2.18.38,2.56.46.81.21.81.64a1,1,0,0,1-.2.54,2.21,2.21,0,0,0-.27,1.4c0,1.14,0,2.32,0,3.46Zm7-11.23c.72.72,1.84,1.9,1.84,2.4,0,.72-1.19,2.33-1.77,2.33-.31,0-.51-.26-.71-.51a51.39,51.39,0,0,0-5.45-5.4,1.2,1.2,0,0,1-.61-.89c0-.67,1-2.41,1.56-2.41s3,2.41,4.19,3.55C164.37,16.93,164.71,17.22,165,17.56Zm3.13-9a2.41,2.41,0,0,1-1.49,1.64c-.21,0-.38-.29-.48-.46a34.84,34.84,0,0,0-2.28-3.33,1.06,1.06,0,0,1-.31-.6c0-.46,1.09-1.47,1.43-1.47S168.14,8.1,168.14,8.57Zm2.12-4.81a8,8,0,0,1,1.26,2.06,2.47,2.47,0,0,1-1.47,1.65c-.2,0-.37-.25-.48-.46a33.08,33.08,0,0,0-2.31-3.34c-.1-.12-.31-.34-.31-.55,0-.46,1.09-1.52,1.43-1.52S170,3.38,170.26,3.76Z"/><path class="tit_svg2" d="M180.13,4.68a.79.79,0,0,1,.47.64c0,.25-.17.34-.47.55-.55.33-.69.76-1,1.81a39.58,39.58,0,0,0-1.87,12.2c0,1,.24,7.09,1.13,7.09.27,0,.47-.5.78-1.39.07-.21.17-.42.24-.63.3-.81.51-1.19.78-1.19s1,.59,1,1-1.29,4.44-1.29,6.17c0,.34.07,1.09.1,1.43a3.63,3.63,0,0,1,0,.55c0,.8-1.63,1.73-2.17,1.73s-1.06-1.35-1.33-2.07a34.38,34.38,0,0,1-2-12.7A59.5,59.5,0,0,1,176.21,6a17.82,17.82,0,0,0,.44-2c0-.34.14-.8.45-.8a24.15,24.15,0,0,1,2.58,1.26C179.89,4.56,180.06,4.64,180.13,4.68Zm4.35,20.6a5.72,5.72,0,0,0,5.42,3,21.14,21.14,0,0,0,7.45-1.35,2.12,2.12,0,0,1,.68-.17c.45,0,.51.63.51,2.24,0,.46,0,1.43-.34,1.69-.95.63-6.63,1.22-7.93,1.22-5.55,0-7.73-3.63-7.73-4.14s.92-2.91,1.5-2.91C184.25,24.86,184.38,25.11,184.48,25.28Zm1.33-18.61a16.41,16.41,0,0,0,4.5.63,18.08,18.08,0,0,0,5.2-.8,3.42,3.42,0,0,1,.62-.13c.68,0,.64,1.86.64,2.45s0,1.1-.3,1.27c-.79.42-4.9.72-5.93.72s-5-.3-5.75-.85c-.37-.25-.34-1-.34-1.43,0-1.23.07-2.07.61-2.07A2.28,2.28,0,0,1,185.81,6.67Z"/><path class="tit_svg2" d="M10.5,40.68c.27.09.64.26.64.64a.9.9,0,0,1-.37.63,4.86,4.86,0,0,0-.68,2.53,125.81,125.81,0,0,0-.75,14.4c0,3.63.07,8.86,4.05,8.86,2.59,0,5.21-1.86,6.81-4.35a14.6,14.6,0,0,0,2.08-6.29c.06-.59.13-1.3.57-1.3.65,0,2.29,1.68,2.29,2.87a18,18,0,0,1-1.33,4.77c-2,4.64-5.89,8-10.22,8a6.58,6.58,0,0,1-5.68-3.21C6.44,65.8,6.31,62,6.31,59c0-5.23.3-10.46.64-15.7C7,42.46,7,41.66,7,40.81c0-.59,0-1,.48-1A18.22,18.22,0,0,1,10.5,40.68Z"/><path class="tit_svg2" d="M39.94,38.79c.55.08,1.13.12,1.13.59a1,1,0,0,1-.21.59c-.17.29-.37.84-.37,3.37,0,.6.24,1,.71,1a4.67,4.67,0,0,0,.79-.09,36.26,36.26,0,0,0,5.58-1.43,2.47,2.47,0,0,1,.58-.13c.68,0,.75,2.11.75,2.7,0,.89-.24.85-1.2,1.1-1.77.46-3.77.76-5.58,1.06-.68.08-1.56.08-1.56,1.26,0,3.55.3,3.88.74,3.88A24.87,24.87,0,0,0,46,51.58a2.2,2.2,0,0,1,.55-.13c.51,0,.47,1.35.47,1.81,0,1.44-.1,1.73-.68,1.9a31,31,0,0,1-4.29.85c-.88.12-1.29.17-1.29,1.35,0,4.94.17,4.77,1.19,5.15A17.4,17.4,0,0,1,46.38,65c.47.33,1.63,1.09,1.63,1.81,0,.89-1,2.62-1.67,2.62-.34,0-.71-.42-1-.68-.69-.67-3.14-2.78-3.89-2.78-.54,0-.57.71-.64,1.22-.48,3.55-3.44,4.69-6,4.69s-5.38-1.48-5.38-5.15c0-4.14,3.77-5.24,6.43-5.24.61,0,1.57.09,1.64.09.64,0,.57-.85.57-1.23,0-3-.06-3.8-.81-3.8-1.4,0-3.17.13-4.74.13-.91,0-1.6,0-1.83-.46a7.19,7.19,0,0,1-.45-2.45c0-.47.14-.76.51-.76.11,0,2.42.25,4,.25,2.42,0,3.1.09,3.1-1.1,0-3.08-.2-4-.89-4-1.12,0-4.46.25-7.69.25-1.4,0-1.63-.25-1.63-2.62,0-.63,0-1.1.57-1.1s3.24.26,5.35.26c3.1,0,4,0,4-1.1,0-.72-.2-3.67-.3-4.35a3.47,3.47,0,0,1-.11-.63c0-.38.21-.46.48-.46A21.25,21.25,0,0,1,39.94,38.79ZM32.15,66.73c0,1.69,1.66,2,2.69,2,1.9,0,3.37-.71,3.37-3.37,0-.89-.89-.89-1.84-.89C35.14,64.49,32.15,64.58,32.15,66.73Z"/><path class="tit_svg2" d="M60.67,42.88c.21,0,.55.17.55.51a1.18,1.18,0,0,1-.27.67,2.22,2.22,0,0,0-.41,1.31c0,.46,0,1.1,0,1.73v1.73c0,.63-.07,1.73.65,1.73.2,0,5.55-1.05,6.26-1.18,1-.17,1.33-.3,1.33-1.6a35.65,35.65,0,0,0-.58-7,3,3,0,0,1-.06-.51.45.45,0,0,1,.44-.46,23.65,23.65,0,0,1,2.79.55c.2,0,.65.17.65.51a1.68,1.68,0,0,1-.28.71A2.74,2.74,0,0,0,71.47,43c0,1.19,0,2.41,0,3.59v.59c0,.26-.07,1.35.68,1.35.24,0,2.45-.42,2.86-.5a24.52,24.52,0,0,1,2.83-.47c.54,0,.58.59.58,2.16,0,1.73-.21,1.6-1.2,1.68-1.39.13-2.82.3-4.22.51a2.19,2.19,0,0,0-1.29.34c-.38.34-.44,1.35-.51,2.57-.21,3-.51,7.56-5.69,7.56a.8.8,0,0,1-.88-.59,7.25,7.25,0,0,1-.38-2.16c0-.42.17-.84.55-.84s.47,0,.71,0a2.34,2.34,0,0,0,2.62-2.07,21.59,21.59,0,0,0,.41-3.29.7.7,0,0,0-.58-.76,1.23,1.23,0,0,0-.44.09c-1,.17-5.38,1-6.2,1.26-.64.17-.92.68-.92,1.52a70.21,70.21,0,0,0,.45,8.61,3.19,3.19,0,0,0,2.58,2.79,13.75,13.75,0,0,0,2.93.3,23.49,23.49,0,0,0,6.4-.89c.11,0,.24,0,.34,0,.48,0,.48.76.48,1.18s0,2.19-.41,2.53-5.51.63-6.43.63c-2.83,0-6.37-.08-8-3.54-1.12-2.41-1-7.68-1.09-10.55,0-.64-.07-1.48-.71-1.48-.45,0-4.36,1.1-5,1.31a2.89,2.89,0,0,1-.58.08c-.51,0-.54-.8-.61-1.26a19.28,19.28,0,0,1-.24-2c0-.84.51-.84,1.06-.88.78-.05,4.32-.68,5.14-.89.61-.17.81-.55.81-1.31,0-1.48-.06-5.4-.27-6.75,0-.17,0-.38,0-.55,0-.42.13-.55.44-.55A19.61,19.61,0,0,1,60.67,42.88Z"/><path class="tit_svg2" d="M92.43,39.67c.31.3,1.3,1.14,1.3,1.61s-.34.59-.65.67c-.54.13-.68.3-1,.8-1,1.52-2,3.13-2.86,4.77-.44.8-3.13,5.87-3.13,6.42a.31.31,0,0,0,.27.34c.2,0,.48-.26.65-.38a8.42,8.42,0,0,1,4.63-2.07,3.79,3.79,0,0,1,3,1.69,6,6,0,0,1,.68,3.12,25.21,25.21,0,0,1-.44,4.18,31.17,31.17,0,0,0-.55,4.39c0,.8.21,1.9,1,1.9,2.18,0,5.38-5,6.51-7,.13-.25.3-.55.57-.55.55,0,1.54,2.7,1.54,3.25a1.7,1.7,0,0,1-.38.89c-.78,1-1.56,1.94-2.38,2.87-1.77,2-4,4.26-6.47,4.26-2.28,0-3.2-2.45-3.2-4.94A33.2,33.2,0,0,1,92,61a25.22,25.22,0,0,0,.34-3.59c0-1.27-.34-2.28-1.54-2.28a7.58,7.58,0,0,0-4.08,2,13.36,13.36,0,0,0-3.44,4.31,37.07,37.07,0,0,0-2.59,8.31c-.07.43-.2.76-.61.76s-2.66-.93-2.66-1.56c0,0,.55-1.69.58-1.77,1.23-3.63,2.49-7.18,3.88-10.64a143,143,0,0,1,7.15-14.94,19.41,19.41,0,0,0,1-2.15c.1-.26.4-1.1.68-1.1S92.13,39.38,92.43,39.67Z"/><path class="tit_svg2" d="M117.69,39.59c.28.08.89.25.89.71a.83.83,0,0,1-.31.6c-.54.54-.64,1.39-.81,2.78-.07.64-.17,1.31-.31,2.15,0,.13,0,.34,0,.47,0,.46.24.76.62.76s1.12-.09,1.77-.09c3.5,0,4.87,2.54,4.87,6.67,0,3.89-.55,9.42-2,12.84-1.26,2.91-3.48,4.43-6.13,4.43a1.27,1.27,0,0,1-1.4-.89,7,7,0,0,1-.54-2.41c0-.29.1-.54.37-.54s.89.17,1.64.17c1.94,0,2.89-.81,3.71-2.92a30.74,30.74,0,0,0,1.53-9.71c0-2.36-.14-4.43-2.48-4.43-2.49,0-2.69.51-2.9,1.48a54.32,54.32,0,0,1-4.42,13,50.81,50.81,0,0,1-3.38,6,.86.86,0,0,1-.57.34c-.51,0-2.15-1.22-2.15-2a1.71,1.71,0,0,1,.48-.93,39.42,39.42,0,0,0,7-15.32,4.46,4.46,0,0,0,.14-.71.43.43,0,0,0-.41-.47,31,31,0,0,0-4.73,1.77,1.23,1.23,0,0,1-.38.13c-.71,0-1.29-3.12-1.29-3.5,0-.59.58-.55.88-.59,1.67-.17,4.19-1,5.93-1.4,1.09-.25,1-.84,1.16-2.07a44.09,44.09,0,0,0,.3-4.77,10.91,10.91,0,0,0-.07-1.51v-.22c0-.25.11-.5.34-.5S117.25,39.46,117.69,39.59Zm15.05,13.67c0,.76-1.63,2-2.25,2-.4,0-.57-.47-.71-.89a31.16,31.16,0,0,0-4.46-8.82,1.12,1.12,0,0,1-.27-.68c0-.67,1.53-1.77,2-1.77C128.21,43.09,132.74,52.25,132.74,53.26Z"/><path class="tit_svg2" d="M137,67.61a4.66,4.66,0,1,1-4.66-4.67A4.66,4.66,0,0,1,137,67.61Zm-7.79,0a3.13,3.13,0,1,0,3.13-3.13A3.12,3.12,0,0,0,129.2,67.61Z"/></g></g></svg>